<?xml version="1.0" encoding="utf-8" standalone="no"?>
<!DOCTYPE svg PUBLIC "-//W3C//DTD SVG 1.1//EN"
  "http://www.w3.org/Graphics/SVG/1.1/DTD/svg11.dtd">
<!-- Created with matplotlib (https://matplotlib.org/) -->
<svg height="325.986375pt" version="1.1" viewBox="0 0 421.148125 325.986375" width="421.148125pt" xmlns="http://www.w3.org/2000/svg" xmlns:xlink="http://www.w3.org/1999/xlink">
 <defs>
  <style type="text/css">
*{stroke-linecap:butt;stroke-linejoin:round;}
  </style>
 </defs>
 <g id="figure_1">
  <g id="patch_1">
   <path d="M 0 325.986375 
L 421.148125 325.986375 
L 421.148125 0 
L 0 0 
z
" style="fill:#ffffff;"/>
  </g>
  <g id="axes_1">
   <g id="patch_2">
    <path d="M 53.328125 288.430125 
L 410.448125 288.430125 
L 410.448125 22.318125 
L 53.328125 22.318125 
z
" style="fill:#ffffff;"/>
   </g>
   <g id="matplotlib.axis_1">
    <g id="xtick_1">
     <g id="line2d_1">
      <defs>
       <path d="M 0 0 
L 0 3.5 
" id="mf7da691f89" style="stroke:#000000;stroke-width:0.8;"/>
      </defs>
      <g>
       <use style="stroke:#000000;stroke-width:0.8;" x="69.560852" xlink:href="#mf7da691f89" y="288.430125"/>
      </g>
     </g>
     <g id="text_1">
      <!-- 0 -->
      <defs>
       <path d="M 31.78125 66.40625 
Q 24.171875 66.40625 20.328125 58.90625 
Q 16.5 51.421875 16.5 36.375 
Q 16.5 21.390625 20.328125 13.890625 
Q 24.171875 6.390625 31.78125 6.390625 
Q 39.453125 6.390625 43.28125 13.890625 
Q 47.125 21.390625 47.125 36.375 
Q 47.125 51.421875 43.28125 58.90625 
Q 39.453125 66.40625 31.78125 66.40625 
z
M 31.78125 74.21875 
Q 44.046875 74.21875 50.515625 64.515625 
Q 56.984375 54.828125 56.984375 36.375 
Q 56.984375 17.96875 50.515625 8.265625 
Q 44.046875 -1.421875 31.78125 -1.421875 
Q 19.53125 -1.421875 13.0625 8.265625 
Q 6.59375 17.96875 6.59375 36.375 
Q 6.59375 54.828125 13.0625 64.515625 
Q 19.53125 74.21875 31.78125 74.21875 
z
" id="DejaVuSans-48"/>
      </defs>
      <g transform="translate(66.379602 303.028562)scale(0.1 -0.1)">
       <use xlink:href="#DejaVuSans-48"/>
      </g>
     </g>
    </g>
    <g id="xtick_2">
     <g id="line2d_2">
      <g>
       <use style="stroke:#000000;stroke-width:0.8;" x="123.687986" xlink:href="#mf7da691f89" y="288.430125"/>
      </g>
     </g>
     <g id="text_2">
      <!-- 500 -->
      <defs>
       <path d="M 10.796875 72.90625 
L 49.515625 72.90625 
L 49.515625 64.59375 
L 19.828125 64.59375 
L 19.828125 46.734375 
Q 21.96875 47.46875 24.109375 47.828125 
Q 26.265625 48.1875 28.421875 48.1875 
Q 40.625 48.1875 47.75 41.5 
Q 54.890625 34.8125 54.890625 23.390625 
Q 54.890625 11.625 47.5625 5.09375 
Q 40.234375 -1.421875 26.90625 -1.421875 
Q 22.3125 -1.421875 17.546875 -0.640625 
Q 12.796875 0.140625 7.71875 1.703125 
L 7.71875 11.625 
Q 12.109375 9.234375 16.796875 8.0625 
Q 21.484375 6.890625 26.703125 6.890625 
Q 35.15625 6.890625 40.078125 11.328125 
Q 45.015625 15.765625 45.015625 23.390625 
Q 45.015625 31 40.078125 35.4375 
Q 35.15625 39.890625 26.703125 39.890625 
Q 22.75 39.890625 18.8125 39.015625 
Q 14.890625 38.140625 10.796875 36.28125 
z
" id="DejaVuSans-53"/>
      </defs>
      <g transform="translate(114.144236 303.028562)scale(0.1 -0.1)">
       <use xlink:href="#DejaVuSans-53"/>
       <use x="63.623047" xlink:href="#DejaVuSans-48"/>
       <use x="127.246094" xlink:href="#DejaVuSans-48"/>
      </g>
     </g>
    </g>
    <g id="xtick_3">
     <g id="line2d_3">
      <g>
       <use style="stroke:#000000;stroke-width:0.8;" x="177.815119" xlink:href="#mf7da691f89" y="288.430125"/>
      </g>
     </g>
     <g id="text_3">
      <!-- 1000 -->
      <defs>
       <path d="M 12.40625 8.296875 
L 28.515625 8.296875 
L 28.515625 63.921875 
L 10.984375 60.40625 
L 10.984375 69.390625 
L 28.421875 72.90625 
L 38.28125 72.90625 
L 38.28125 8.296875 
L 54.390625 8.296875 
L 54.390625 0 
L 12.40625 0 
z
" id="DejaVuSans-49"/>
      </defs>
      <g transform="translate(165.090119 303.028562)scale(0.1 -0.1)">
       <use xlink:href="#DejaVuSans-49"/>
       <use x="63.623047" xlink:href="#DejaVuSans-48"/>
       <use x="127.246094" xlink:href="#DejaVuSans-48"/>
       <use x="190.869141" xlink:href="#DejaVuSans-48"/>
      </g>
     </g>
    </g>
    <g id="xtick_4">
     <g id="line2d_4">
      <g>
       <use style="stroke:#000000;stroke-width:0.8;" x="231.942252" xlink:href="#mf7da691f89" y="288.430125"/>
      </g>
     </g>
     <g id="text_4">
      <!-- 1500 -->
      <g transform="translate(219.217252 303.028562)scale(0.1 -0.1)">
       <use xlink:href="#DejaVuSans-49"/>
       <use x="63.623047" xlink:href="#DejaVuSans-53"/>
       <use x="127.246094" xlink:href="#DejaVuSans-48"/>
       <use x="190.869141" xlink:href="#DejaVuSans-48"/>
      </g>
     </g>
    </g>
    <g id="xtick_5">
     <g id="line2d_5">
      <g>
       <use style="stroke:#000000;stroke-width:0.8;" x="286.069385" xlink:href="#mf7da691f89" y="288.430125"/>
      </g>
     </g>
     <g id="text_5">
      <!-- 2000 -->
      <defs>
       <path d="M 19.1875 8.296875 
L 53.609375 8.296875 
L 53.609375 0 
L 7.328125 0 
L 7.328125 8.296875 
Q 12.9375 14.109375 22.625 23.890625 
Q 32.328125 33.6875 34.8125 36.53125 
Q 39.546875 41.84375 41.421875 45.53125 
Q 43.3125 49.21875 43.3125 52.78125 
Q 43.3125 58.59375 39.234375 62.25 
Q 35.15625 65.921875 28.609375 65.921875 
Q 23.96875 65.921875 18.8125 64.3125 
Q 13.671875 62.703125 7.8125 59.421875 
L 7.8125 69.390625 
Q 13.765625 71.78125 18.9375 73 
Q 24.125 74.21875 28.421875 74.21875 
Q 39.75 74.21875 46.484375 68.546875 
Q 53.21875 62.890625 53.21875 53.421875 
Q 53.21875 48.921875 51.53125 44.890625 
Q 49.859375 40.875 45.40625 35.40625 
Q 44.1875 33.984375 37.640625 27.21875 
Q 31.109375 20.453125 19.1875 8.296875 
z
" id="DejaVuSans-50"/>
      </defs>
      <g transform="translate(273.344385 303.028562)scale(0.1 -0.1)">
       <use xlink:href="#DejaVuSans-50"/>
       <use x="63.623047" xlink:href="#DejaVuSans-48"/>
       <use x="127.246094" xlink:href="#DejaVuSans-48"/>
       <use x="190.869141" xlink:href="#DejaVuSans-48"/>
      </g>
     </g>
    </g>
    <g id="xtick_6">
     <g id="line2d_6">
      <g>
       <use style="stroke:#000000;stroke-width:0.8;" x="340.196519" xlink:href="#mf7da691f89" y="288.430125"/>
      </g>
     </g>
     <g id="text_6">
      <!-- 2500 -->
      <g transform="translate(327.471519 303.028562)scale(0.1 -0.1)">
       <use xlink:href="#DejaVuSans-50"/>
       <use x="63.623047" xlink:href="#DejaVuSans-53"/>
       <use x="127.246094" xlink:href="#DejaVuSans-48"/>
       <use x="190.869141" xlink:href="#DejaVuSans-48"/>
      </g>
     </g>
    </g>
    <g id="xtick_7">
     <g id="line2d_7">
      <g>
       <use style="stroke:#000000;stroke-width:0.8;" x="394.323652" xlink:href="#mf7da691f89" y="288.430125"/>
      </g>
     </g>
     <g id="text_7">
      <!-- 3000 -->
      <defs>
       <path d="M 40.578125 39.3125 
Q 47.65625 37.796875 51.625 33 
Q 55.609375 28.21875 55.609375 21.1875 
Q 55.609375 10.40625 48.1875 4.484375 
Q 40.765625 -1.421875 27.09375 -1.421875 
Q 22.515625 -1.421875 17.65625 -0.515625 
Q 12.796875 0.390625 7.625 2.203125 
L 7.625 11.71875 
Q 11.71875 9.328125 16.59375 8.109375 
Q 21.484375 6.890625 26.8125 6.890625 
Q 36.078125 6.890625 40.9375 10.546875 
Q 45.796875 14.203125 45.796875 21.1875 
Q 45.796875 27.640625 41.28125 31.265625 
Q 36.765625 34.90625 28.71875 34.90625 
L 20.21875 34.90625 
L 20.21875 43.015625 
L 29.109375 43.015625 
Q 36.375 43.015625 40.234375 45.921875 
Q 44.09375 48.828125 44.09375 54.296875 
Q 44.09375 59.90625 40.109375 62.90625 
Q 36.140625 65.921875 28.71875 65.921875 
Q 24.65625 65.921875 20.015625 65.03125 
Q 15.375 64.15625 9.8125 62.3125 
L 9.8125 71.09375 
Q 15.4375 72.65625 20.34375 73.4375 
Q 25.25 74.21875 29.59375 74.21875 
Q 40.828125 74.21875 47.359375 69.109375 
Q 53.90625 64.015625 53.90625 55.328125 
Q 53.90625 49.265625 50.4375 45.09375 
Q 46.96875 40.921875 40.578125 39.3125 
z
" id="DejaVuSans-51"/>
      </defs>
      <g transform="translate(381.598652 303.028562)scale(0.1 -0.1)">
       <use xlink:href="#DejaVuSans-51"/>
       <use x="63.623047" xlink:href="#DejaVuSans-48"/>
       <use x="127.246094" xlink:href="#DejaVuSans-48"/>
       <use x="190.869141" xlink:href="#DejaVuSans-48"/>
      </g>
     </g>
    </g>
    <g id="text_8">
     <!-- Step -->
     <defs>
      <path d="M 53.515625 70.515625 
L 53.515625 60.890625 
Q 47.90625 63.578125 42.921875 64.890625 
Q 37.9375 66.21875 33.296875 66.21875 
Q 25.25 66.21875 20.875 63.09375 
Q 16.5 59.96875 16.5 54.203125 
Q 16.5 49.359375 19.40625 46.890625 
Q 22.3125 44.4375 30.421875 42.921875 
L 36.375 41.703125 
Q 47.40625 39.59375 52.65625 34.296875 
Q 57.90625 29 57.90625 20.125 
Q 57.90625 9.515625 50.796875 4.046875 
Q 43.703125 -1.421875 29.984375 -1.421875 
Q 24.8125 -1.421875 18.96875 -0.25 
Q 13.140625 0.921875 6.890625 3.21875 
L 6.890625 13.375 
Q 12.890625 10.015625 18.65625 8.296875 
Q 24.421875 6.59375 29.984375 6.59375 
Q 38.421875 6.59375 43.015625 9.90625 
Q 47.609375 13.234375 47.609375 19.390625 
Q 47.609375 24.75 44.3125 27.78125 
Q 41.015625 30.8125 33.5 32.328125 
L 27.484375 33.5 
Q 16.453125 35.6875 11.515625 40.375 
Q 6.59375 45.0625 6.59375 53.421875 
Q 6.59375 63.09375 13.40625 68.65625 
Q 20.21875 74.21875 32.171875 74.21875 
Q 37.3125 74.21875 42.625 73.28125 
Q 47.953125 72.359375 53.515625 70.515625 
z
" id="DejaVuSans-83"/>
      <path d="M 18.3125 70.21875 
L 18.3125 54.6875 
L 36.8125 54.6875 
L 36.8125 47.703125 
L 18.3125 47.703125 
L 18.3125 18.015625 
Q 18.3125 11.328125 20.140625 9.421875 
Q 21.96875 7.515625 27.59375 7.515625 
L 36.8125 7.515625 
L 36.8125 0 
L 27.59375 0 
Q 17.1875 0 13.234375 3.875 
Q 9.28125 7.765625 9.28125 18.015625 
L 9.28125 47.703125 
L 2.6875 47.703125 
L 2.6875 54.6875 
L 9.28125 54.6875 
L 9.28125 70.21875 
z
" id="DejaVuSans-116"/>
      <path d="M 56.203125 29.59375 
L 56.203125 25.203125 
L 14.890625 25.203125 
Q 15.484375 15.921875 20.484375 11.0625 
Q 25.484375 6.203125 34.421875 6.203125 
Q 39.59375 6.203125 44.453125 7.46875 
Q 49.3125 8.734375 54.109375 11.28125 
L 54.109375 2.78125 
Q 49.265625 0.734375 44.1875 -0.34375 
Q 39.109375 -1.421875 33.890625 -1.421875 
Q 20.796875 -1.421875 13.15625 6.1875 
Q 5.515625 13.8125 5.515625 26.8125 
Q 5.515625 40.234375 12.765625 48.109375 
Q 20.015625 56 32.328125 56 
Q 43.359375 56 49.78125 48.890625 
Q 56.203125 41.796875 56.203125 29.59375 
z
M 47.21875 32.234375 
Q 47.125 39.59375 43.09375 43.984375 
Q 39.0625 48.390625 32.421875 48.390625 
Q 24.90625 48.390625 20.390625 44.140625 
Q 15.875 39.890625 15.1875 32.171875 
z
" id="DejaVuSans-101"/>
      <path d="M 18.109375 8.203125 
L 18.109375 -20.796875 
L 9.078125 -20.796875 
L 9.078125 54.6875 
L 18.109375 54.6875 
L 18.109375 46.390625 
Q 20.953125 51.265625 25.265625 53.625 
Q 29.59375 56 35.59375 56 
Q 45.5625 56 51.78125 48.09375 
Q 58.015625 40.1875 58.015625 27.296875 
Q 58.015625 14.40625 51.78125 6.484375 
Q 45.5625 -1.421875 35.59375 -1.421875 
Q 29.59375 -1.421875 25.265625 0.953125 
Q 20.953125 3.328125 18.109375 8.203125 
z
M 48.6875 27.296875 
Q 48.6875 37.203125 44.609375 42.84375 
Q 40.53125 48.484375 33.40625 48.484375 
Q 26.265625 48.484375 22.1875 42.84375 
Q 18.109375 37.203125 18.109375 27.296875 
Q 18.109375 17.390625 22.1875 11.75 
Q 26.265625 6.109375 33.40625 6.109375 
Q 40.53125 6.109375 44.609375 11.75 
Q 48.6875 17.390625 48.6875 27.296875 
z
" id="DejaVuSans-112"/>
     </defs>
     <g transform="translate(220.502969 316.706687)scale(0.1 -0.1)">
      <use xlink:href="#DejaVuSans-83"/>
      <use x="63.476562" xlink:href="#DejaVuSans-116"/>
      <use x="102.685547" xlink:href="#DejaVuSans-101"/>
      <use x="164.208984" xlink:href="#DejaVuSans-112"/>
     </g>
    </g>
   </g>
   <g id="matplotlib.axis_2">
    <g id="ytick_1">
     <g id="line2d_8">
      <defs>
       <path d="M 0 0 
L -3.5 0 
" id="m50d00e189b" style="stroke:#000000;stroke-width:0.8;"/>
      </defs>
      <g>
       <use style="stroke:#000000;stroke-width:0.8;" x="53.328125" xlink:href="#m50d00e189b" y="288.430125"/>
      </g>
     </g>
     <g id="text_9">
      <!-- 0 -->
      <g transform="translate(39.965625 292.229344)scale(0.1 -0.1)">
       <use xlink:href="#DejaVuSans-48"/>
      </g>
     </g>
    </g>
    <g id="ytick_2">
     <g id="line2d_9">
      <g>
       <use style="stroke:#000000;stroke-width:0.8;" x="53.328125" xlink:href="#m50d00e189b" y="235.207725"/>
      </g>
     </g>
     <g id="text_10">
      <!-- 1000 -->
      <g transform="translate(20.878125 239.006944)scale(0.1 -0.1)">
       <use xlink:href="#DejaVuSans-49"/>
       <use x="63.623047" xlink:href="#DejaVuSans-48"/>
       <use x="127.246094" xlink:href="#DejaVuSans-48"/>
       <use x="190.869141" xlink:href="#DejaVuSans-48"/>
      </g>
     </g>
    </g>
    <g id="ytick_3">
     <g id="line2d_10">
      <g>
       <use style="stroke:#000000;stroke-width:0.8;" x="53.328125" xlink:href="#m50d00e189b" y="181.985325"/>
      </g>
     </g>
     <g id="text_11">
      <!-- 2000 -->
      <g transform="translate(20.878125 185.784544)scale(0.1 -0.1)">
       <use xlink:href="#DejaVuSans-50"/>
       <use x="63.623047" xlink:href="#DejaVuSans-48"/>
       <use x="127.246094" xlink:href="#DejaVuSans-48"/>
       <use x="190.869141" xlink:href="#DejaVuSans-48"/>
      </g>
     </g>
    </g>
    <g id="ytick_4">
     <g id="line2d_11">
      <g>
       <use style="stroke:#000000;stroke-width:0.8;" x="53.328125" xlink:href="#m50d00e189b" y="128.762925"/>
      </g>
     </g>
     <g id="text_12">
      <!-- 3000 -->
      <g transform="translate(20.878125 132.562144)scale(0.1 -0.1)">
       <use xlink:href="#DejaVuSans-51"/>
       <use x="63.623047" xlink:href="#DejaVuSans-48"/>
       <use x="127.246094" xlink:href="#DejaVuSans-48"/>
       <use x="190.869141" xlink:href="#DejaVuSans-48"/>
      </g>
     </g>
    </g>
    <g id="ytick_5">
     <g id="line2d_12">
      <g>
       <use style="stroke:#000000;stroke-width:0.8;" x="53.328125" xlink:href="#m50d00e189b" y="75.540525"/>
      </g>
     </g>
     <g id="text_13">
      <!-- 4000 -->
      <defs>
       <path d="M 37.796875 64.3125 
L 12.890625 25.390625 
L 37.796875 25.390625 
z
M 35.203125 72.90625 
L 47.609375 72.90625 
L 47.609375 25.390625 
L 58.015625 25.390625 
L 58.015625 17.1875 
L 47.609375 17.1875 
L 47.609375 0 
L 37.796875 0 
L 37.796875 17.1875 
L 4.890625 17.1875 
L 4.890625 26.703125 
z
" id="DejaVuSans-52"/>
      </defs>
      <g transform="translate(20.878125 79.339744)scale(0.1 -0.1)">
       <use xlink:href="#DejaVuSans-52"/>
       <use x="63.623047" xlink:href="#DejaVuSans-48"/>
       <use x="127.246094" xlink:href="#DejaVuSans-48"/>
       <use x="190.869141" xlink:href="#DejaVuSans-48"/>
      </g>
     </g>
    </g>
    <g id="ytick_6">
     <g id="line2d_13">
      <g>
       <use style="stroke:#000000;stroke-width:0.8;" x="53.328125" xlink:href="#m50d00e189b" y="22.318125"/>
      </g>
     </g>
     <g id="text_14">
      <!-- 5000 -->
      <g transform="translate(20.878125 26.117344)scale(0.1 -0.1)">
       <use xlink:href="#DejaVuSans-53"/>
       <use x="63.623047" xlink:href="#DejaVuSans-48"/>
       <use x="127.246094" xlink:href="#DejaVuSans-48"/>
       <use x="190.869141" xlink:href="#DejaVuSans-48"/>
      </g>
     </g>
    </g>
    <g id="text_15">
     <!-- Reward - Average of 10 -->
     <defs>
      <path d="M 44.390625 34.1875 
Q 47.5625 33.109375 50.5625 29.59375 
Q 53.5625 26.078125 56.59375 19.921875 
L 66.609375 0 
L 56 0 
L 46.6875 18.703125 
Q 43.0625 26.03125 39.671875 28.421875 
Q 36.28125 30.8125 30.421875 30.8125 
L 19.671875 30.8125 
L 19.671875 0 
L 9.8125 0 
L 9.8125 72.90625 
L 32.078125 72.90625 
Q 44.578125 72.90625 50.734375 67.671875 
Q 56.890625 62.453125 56.890625 51.90625 
Q 56.890625 45.015625 53.6875 40.46875 
Q 50.484375 35.9375 44.390625 34.1875 
z
M 19.671875 64.796875 
L 19.671875 38.921875 
L 32.078125 38.921875 
Q 39.203125 38.921875 42.84375 42.21875 
Q 46.484375 45.515625 46.484375 51.90625 
Q 46.484375 58.296875 42.84375 61.546875 
Q 39.203125 64.796875 32.078125 64.796875 
z
" id="DejaVuSans-82"/>
      <path d="M 4.203125 54.6875 
L 13.1875 54.6875 
L 24.421875 12.015625 
L 35.59375 54.6875 
L 46.1875 54.6875 
L 57.421875 12.015625 
L 68.609375 54.6875 
L 77.59375 54.6875 
L 63.28125 0 
L 52.6875 0 
L 40.921875 44.828125 
L 29.109375 0 
L 18.5 0 
z
" id="DejaVuSans-119"/>
      <path d="M 34.28125 27.484375 
Q 23.390625 27.484375 19.1875 25 
Q 14.984375 22.515625 14.984375 16.5 
Q 14.984375 11.71875 18.140625 8.90625 
Q 21.296875 6.109375 26.703125 6.109375 
Q 34.1875 6.109375 38.703125 11.40625 
Q 43.21875 16.703125 43.21875 25.484375 
L 43.21875 27.484375 
z
M 52.203125 31.203125 
L 52.203125 0 
L 43.21875 0 
L 43.21875 8.296875 
Q 40.140625 3.328125 35.546875 0.953125 
Q 30.953125 -1.421875 24.3125 -1.421875 
Q 15.921875 -1.421875 10.953125 3.296875 
Q 6 8.015625 6 15.921875 
Q 6 25.140625 12.171875 29.828125 
Q 18.359375 34.515625 30.609375 34.515625 
L 43.21875 34.515625 
L 43.21875 35.40625 
Q 43.21875 41.609375 39.140625 45 
Q 35.0625 48.390625 27.6875 48.390625 
Q 23 48.390625 18.546875 47.265625 
Q 14.109375 46.140625 10.015625 43.890625 
L 10.015625 52.203125 
Q 14.9375 54.109375 19.578125 55.046875 
Q 24.21875 56 28.609375 56 
Q 40.484375 56 46.34375 49.84375 
Q 52.203125 43.703125 52.203125 31.203125 
z
" id="DejaVuSans-97"/>
      <path d="M 41.109375 46.296875 
Q 39.59375 47.171875 37.8125 47.578125 
Q 36.03125 48 33.890625 48 
Q 26.265625 48 22.1875 43.046875 
Q 18.109375 38.09375 18.109375 28.8125 
L 18.109375 0 
L 9.078125 0 
L 9.078125 54.6875 
L 18.109375 54.6875 
L 18.109375 46.1875 
Q 20.953125 51.171875 25.484375 53.578125 
Q 30.03125 56 36.53125 56 
Q 37.453125 56 38.578125 55.875 
Q 39.703125 55.765625 41.0625 55.515625 
z
" id="DejaVuSans-114"/>
      <path d="M 45.40625 46.390625 
L 45.40625 75.984375 
L 54.390625 75.984375 
L 54.390625 0 
L 45.40625 0 
L 45.40625 8.203125 
Q 42.578125 3.328125 38.25 0.953125 
Q 33.9375 -1.421875 27.875 -1.421875 
Q 17.96875 -1.421875 11.734375 6.484375 
Q 5.515625 14.40625 5.515625 27.296875 
Q 5.515625 40.1875 11.734375 48.09375 
Q 17.96875 56 27.875 56 
Q 33.9375 56 38.25 53.625 
Q 42.578125 51.265625 45.40625 46.390625 
z
M 14.796875 27.296875 
Q 14.796875 17.390625 18.875 11.75 
Q 22.953125 6.109375 30.078125 6.109375 
Q 37.203125 6.109375 41.296875 11.75 
Q 45.40625 17.390625 45.40625 27.296875 
Q 45.40625 37.203125 41.296875 42.84375 
Q 37.203125 48.484375 30.078125 48.484375 
Q 22.953125 48.484375 18.875 42.84375 
Q 14.796875 37.203125 14.796875 27.296875 
z
" id="DejaVuSans-100"/>
      <path id="DejaVuSans-32"/>
      <path d="M 4.890625 31.390625 
L 31.203125 31.390625 
L 31.203125 23.390625 
L 4.890625 23.390625 
z
" id="DejaVuSans-45"/>
      <path d="M 34.1875 63.1875 
L 20.796875 26.90625 
L 47.609375 26.90625 
z
M 28.609375 72.90625 
L 39.796875 72.90625 
L 67.578125 0 
L 57.328125 0 
L 50.6875 18.703125 
L 17.828125 18.703125 
L 11.1875 0 
L 0.78125 0 
z
" id="DejaVuSans-65"/>
      <path d="M 2.984375 54.6875 
L 12.5 54.6875 
L 29.59375 8.796875 
L 46.6875 54.6875 
L 56.203125 54.6875 
L 35.6875 0 
L 23.484375 0 
z
" id="DejaVuSans-118"/>
      <path d="M 45.40625 27.984375 
Q 45.40625 37.75 41.375 43.109375 
Q 37.359375 48.484375 30.078125 48.484375 
Q 22.859375 48.484375 18.828125 43.109375 
Q 14.796875 37.75 14.796875 27.984375 
Q 14.796875 18.265625 18.828125 12.890625 
Q 22.859375 7.515625 30.078125 7.515625 
Q 37.359375 7.515625 41.375 12.890625 
Q 45.40625 18.265625 45.40625 27.984375 
z
M 54.390625 6.78125 
Q 54.390625 -7.171875 48.1875 -13.984375 
Q 42 -20.796875 29.203125 -20.796875 
Q 24.46875 -20.796875 20.265625 -20.09375 
Q 16.0625 -19.390625 12.109375 -17.921875 
L 12.109375 -9.1875 
Q 16.0625 -11.328125 19.921875 -12.34375 
Q 23.78125 -13.375 27.78125 -13.375 
Q 36.625 -13.375 41.015625 -8.765625 
Q 45.40625 -4.15625 45.40625 5.171875 
L 45.40625 9.625 
Q 42.625 4.78125 38.28125 2.390625 
Q 33.9375 0 27.875 0 
Q 17.828125 0 11.671875 7.65625 
Q 5.515625 15.328125 5.515625 27.984375 
Q 5.515625 40.671875 11.671875 48.328125 
Q 17.828125 56 27.875 56 
Q 33.9375 56 38.28125 53.609375 
Q 42.625 51.21875 45.40625 46.390625 
L 45.40625 54.6875 
L 54.390625 54.6875 
z
" id="DejaVuSans-103"/>
      <path d="M 30.609375 48.390625 
Q 23.390625 48.390625 19.1875 42.75 
Q 14.984375 37.109375 14.984375 27.296875 
Q 14.984375 17.484375 19.15625 11.84375 
Q 23.34375 6.203125 30.609375 6.203125 
Q 37.796875 6.203125 41.984375 11.859375 
Q 46.1875 17.53125 46.1875 27.296875 
Q 46.1875 37.015625 41.984375 42.703125 
Q 37.796875 48.390625 30.609375 48.390625 
z
M 30.609375 56 
Q 42.328125 56 49.015625 48.375 
Q 55.71875 40.765625 55.71875 27.296875 
Q 55.71875 13.875 49.015625 6.21875 
Q 42.328125 -1.421875 30.609375 -1.421875 
Q 18.84375 -1.421875 12.171875 6.21875 
Q 5.515625 13.875 5.515625 27.296875 
Q 5.515625 40.765625 12.171875 48.375 
Q 18.84375 56 30.609375 56 
z
" id="DejaVuSans-111"/>
      <path d="M 37.109375 75.984375 
L 37.109375 68.5 
L 28.515625 68.5 
Q 23.6875 68.5 21.796875 66.546875 
Q 19.921875 64.59375 19.921875 59.515625 
L 19.921875 54.6875 
L 34.71875 54.6875 
L 34.71875 47.703125 
L 19.921875 47.703125 
L 19.921875 0 
L 10.890625 0 
L 10.890625 47.703125 
L 2.296875 47.703125 
L 2.296875 54.6875 
L 10.890625 54.6875 
L 10.890625 58.5 
Q 10.890625 67.625 15.140625 71.796875 
Q 19.390625 75.984375 28.609375 75.984375 
z
" id="DejaVuSans-102"/>
     </defs>
     <g transform="translate(14.798438 214.468656)rotate(-90)scale(0.1 -0.1)">
      <use xlink:href="#DejaVuSans-82"/>
      <use x="69.419922" xlink:href="#DejaVuSans-101"/>
      <use x="130.943359" xlink:href="#DejaVuSans-119"/>
      <use x="212.730469" xlink:href="#DejaVuSans-97"/>
      <use x="274.009766" xlink:href="#DejaVuSans-114"/>
      <use x="315.107422" xlink:href="#DejaVuSans-100"/>
      <use x="378.583984" xlink:href="#DejaVuSans-32"/>
      <use x="410.371094" xlink:href="#DejaVuSans-45"/>
      <use x="446.455078" xlink:href="#DejaVuSans-32"/>
      <use x="478.242188" xlink:href="#DejaVuSans-65"/>
      <use x="546.572266" xlink:href="#DejaVuSans-118"/>
      <use x="605.751953" xlink:href="#DejaVuSans-101"/>
      <use x="667.275391" xlink:href="#DejaVuSans-114"/>
      <use x="708.388672" xlink:href="#DejaVuSans-97"/>
      <use x="769.667969" xlink:href="#DejaVuSans-103"/>
      <use x="833.144531" xlink:href="#DejaVuSans-101"/>
      <use x="894.667969" xlink:href="#DejaVuSans-32"/>
      <use x="926.455078" xlink:href="#DejaVuSans-111"/>
      <use x="987.636719" xlink:href="#DejaVuSans-102"/>
      <use x="1022.841797" xlink:href="#DejaVuSans-32"/>
      <use x="1054.628906" xlink:href="#DejaVuSans-49"/>
      <use x="1118.251953" xlink:href="#DejaVuSans-48"/>
     </g>
    </g>
   </g>
   <g id="line2d_14">
    <path clip-path="url(#p7f01ed3a9d)" d="M 69.560852 243.717987 
L 69.669107 244.079899 
L 69.885615 239.380361 
L 69.993869 246.235406 
L 70.102124 246.059772 
L 70.318632 244.814368 
L 70.535141 241.291045 
L 70.643395 242.674828 
L 70.751649 241.652958 
L 70.859903 243.180441 
L 71.076412 238.874748 
L 71.184666 239.763562 
L 71.292921 243.48913 
L 71.401175 243.004807 
L 71.509429 246.416362 
L 71.617683 244.117155 
L 71.725938 244.250211 
L 71.942446 247.406299 
L 72.0507 253.952654 
L 72.483717 250.067419 
L 72.700226 252.712572 
L 72.80848 251.078645 
L 73.024989 241.897781 
L 73.241497 238.99716 
L 73.349752 240.859944 
L 73.458006 240.726888 
L 73.56626 243.105929 
L 73.782769 237.533544 
L 73.891023 240.125475 
L 74.107531 251.126545 
L 74.215786 249.73744 
L 74.32404 252.515649 
L 74.432294 249.109416 
L 74.865311 255.10758 
L 75.08182 252.031326 
L 75.190074 252.595483 
L 75.406583 246.05445 
L 75.514837 250.120641 
L 75.8396 245.761727 
L 76.056108 249.833241 
L 76.272617 247.911912 
L 76.489125 252.377271 
L 76.59738 251.137189 
L 76.705634 251.578935 
L 76.813888 251.174445 
L 77.355159 253.675898 
L 77.463414 254.772279 
L 77.571668 253.89411 
L 77.788177 247.667089 
L 78.004685 249.034905 
L 78.112939 247.235987 
L 78.221194 248.060935 
L 78.329448 245.846883 
L 79.195482 266.236384 
L 79.303736 265.278381 
L 79.411991 266.949564 
L 79.520245 265.485948 
L 79.736753 260.530943 
L 79.953262 258.657514 
L 80.278025 250.684799 
L 80.494533 253.37253 
L 80.602787 251.951492 
L 80.711042 254.814857 
L 80.92755 249.721473 
L 81.035805 250.232409 
L 81.577076 257.028909 
L 81.68533 256.949075 
L 81.793584 256.39024 
L 82.010093 258.609614 
L 82.334856 252.638061 
L 82.44311 252.56355 
L 82.551364 251.903592 
L 82.659619 249.684218 
L 82.767873 249.971619 
L 82.876127 242.749339 
L 83.092636 247.555322 
L 83.309144 249.290372 
L 83.417398 248.566547 
L 83.850415 250.844466 
L 83.95867 250.216442 
L 84.066924 248.343013 
L 84.175178 248.609125 
L 84.283433 247.911912 
L 84.391687 248.747504 
L 84.608195 251.243634 
L 84.824704 249.253116 
L 84.932958 248.247213 
L 85.149467 258.43398 
L 85.257721 258.263669 
L 85.365975 256.672319 
L 85.582484 256.906497 
L 85.690738 254.953235 
L 85.907247 246.996487 
L 86.015501 247.714989 
L 86.340264 234.675501 
L 86.556772 239.513417 
L 86.773281 231.604569 
L 86.881535 237.480321 
L 86.989789 234.201822 
L 87.098043 235.527059 
L 87.314552 244.601479 
L 87.422806 244.228922 
L 87.639315 242.781273 
L 87.747569 246.98052 
L 87.855823 245.160314 
L 87.964078 241.269756 
L 88.180586 249.082805 
L 88.28884 249.23715 
L 88.505349 252.185671 
L 88.721857 246.325884 
L 88.830112 247.864012 
L 88.938366 246.45894 
L 89.04662 249.646962 
L 89.371383 244.447134 
L 89.587892 240.06693 
L 89.8044 245.548837 
L 89.912654 245.426426 
L 90.020909 248.45478 
L 90.129163 247.459521 
L 90.237417 247.619189 
L 90.345671 247.209376 
L 90.453926 247.28921 
L 90.56218 249.609706 
L 91.31996 227.650144 
L 91.428214 228.150435 
L 91.536468 229.076505 
L 91.644723 228.336713 
L 92.185994 245.197569 
L 92.294248 245.426426 
L 92.510757 250.791244 
L 92.619011 250.445298 
L 92.727265 246.730375 
L 92.83552 247.326465 
L 93.052028 242.946262 
L 93.160282 242.094704 
L 93.268537 242.15857 
L 93.376791 240.599154 
L 93.485045 242.58435 
L 93.701554 238.47558 
L 93.809808 240.998322 
L 93.918062 239.763562 
L 94.026317 242.605639 
L 94.134571 241.110089 
L 94.351079 234.654212 
L 94.567588 232.775461 
L 95.000605 241.179278 
L 95.108859 236.873586 
L 95.650131 249.221183 
L 95.758385 249.258439 
L 95.866639 249.173283 
L 95.974893 250.509165 
L 96.083148 249.620351 
L 96.191402 250.338853 
L 96.299656 245.362559 
L 96.40791 247.981101 
L 96.516165 247.48081 
L 96.624419 242.430005 
L 96.732673 242.63225 
L 96.949182 243.60622 
L 97.16569 240.694954 
L 97.382199 245.916072 
L 97.490453 246.182184 
L 97.598707 242.573705 
L 97.706962 245.442393 
L 97.815216 244.915491 
L 98.031724 235.202403 
L 98.139979 235.064025 
L 98.248233 236.043317 
L 98.356487 232.333715 
L 98.789504 240.971711 
L 98.897759 239.859363 
L 99.006013 231.732302 
L 99.114267 231.886647 
L 99.330776 230.768977 
L 99.43903 231.77488 
L 99.547284 229.741785 
L 99.655538 230.556087 
L 99.763793 226.76133 
L 99.872047 227.176465 
L 99.980301 228.405902 
L 100.088555 240.599154 
L 100.19681 239.417617 
L 100.413318 241.812625 
L 100.521573 242.291626 
L 100.629827 243.622186 
L 100.846335 236.373296 
L 101.279352 242.972873 
L 101.495861 231.471513 
L 101.820624 238.523481 
L 101.928878 243.105929 
L 102.145387 241.402812 
L 102.361895 237.45371 
L 102.578404 246.325884 
L 102.794912 247.997068 
L 102.903166 246.474907 
L 103.119675 242.488549 
L 103.227929 243.473164 
L 103.336183 242.605639 
L 103.444438 243.100607 
L 103.552692 247.299854 
L 103.660946 246.730375 
L 103.985709 239.428261 
L 104.093963 246.15025 
L 104.202218 245.756405 
L 104.418726 246.975198 
L 104.635235 244.266177 
L 104.851743 238.608636 
L 104.959997 238.438325 
L 105.176506 230.577376 
L 105.28476 231.902614 
L 105.393015 230.007897 
L 105.501269 233.972965 
L 105.609523 233.653631 
L 105.717777 225.07418 
L 105.934286 232.099537 
L 106.04254 232.716917 
L 106.150794 242.98884 
L 106.259049 237.219532 
L 106.367303 237.395166 
L 106.692066 235.431259 
L 106.908574 245.948005 
L 107.125083 233.744109 
L 107.233337 232.897873 
L 107.341591 233.483319 
L 107.449846 232.376293 
L 107.5581 232.621116 
L 107.666354 224.334389 
L 107.774608 226.436673 
L 107.882863 226.197173 
L 107.991117 220.459798 
L 108.207625 235.441904 
L 108.31588 233.930387 
L 108.532388 239.912585 
L 108.640643 239.885974 
L 108.748897 246.639897 
L 108.857151 246.389751 
L 109.07366 250.008874 
L 109.181914 250.136608 
L 109.398422 251.568291 
L 109.614931 249.231827 
L 109.831439 250.418687 
L 110.047948 238.805559 
L 110.156202 241.227178 
L 110.480965 236.729886 
L 110.589219 237.011964 
L 110.697474 235.915583 
L 110.805728 236.607474 
L 111.022236 233.690887 
L 111.238745 237.496288 
L 111.346999 227.863034 
L 111.455253 228.815715 
L 111.563508 228.30478 
L 111.671762 228.331391 
L 111.780016 229.981285 
L 111.996525 221.194267 
L 112.104779 231.200078 
L 112.213033 231.162823 
L 112.321288 227.517088 
L 112.537796 241.333623 
L 112.754305 227.932223 
L 112.862559 226.990186 
L 113.079067 235.05338 
L 113.295576 226.814553 
L 113.40383 229.997252 
L 113.512085 229.630017 
L 113.620339 229.997252 
L 113.836847 240.710921 
L 113.945102 243.648798 
L 114.053356 243.446553 
L 114.378119 246.448296 
L 114.702881 240.790755 
L 114.811136 228.443158 
L 114.91939 232.126148 
L 115.135899 222.993184 
L 115.244153 220.992022 
L 115.460661 224.600501 
L 115.568916 227.266943 
L 115.785424 214.530823 
L 115.893678 226.410062 
L 116.001933 225.633015 
L 116.110187 225.829938 
L 116.326695 227.453221 
L 116.43495 229.94403 
L 116.543204 225.446737 
L 116.651458 213.636686 
L 116.867967 223.009151 
L 117.084475 218.384124 
L 117.19273 217.979634 
L 117.409238 205.860894 
L 117.517492 205.381892 
L 118.058764 215.962505 
L 118.275272 206.483596 
L 118.491781 221.018633 
L 118.600035 219.666784 
L 118.708289 215.382381 
L 118.816544 222.966573 
L 118.924798 222.790939 
L 119.033052 221.609402 
L 119.141306 224.579212 
L 119.357815 241.381523 
L 119.466069 237.831589 
L 119.682578 239.247305 
L 119.899086 232.243237 
L 120.00734 227.745945 
L 120.223849 230.279331 
L 120.440358 223.701042 
L 120.548612 225.771393 
L 120.76512 216.287162 
L 120.873375 227.080665 
L 120.981629 218.165913 
L 121.089883 221.79568 
L 121.306392 214.892735 
L 121.414646 215.19078 
L 121.739409 226.724074 
L 121.955917 218.16059 
L 122.064172 228.868937 
L 122.172426 225.867194 
L 122.28068 225.95235 
L 122.388934 226.729397 
L 122.821951 210.251742 
L 123.03846 221.204912 
L 123.254968 218.506536 
L 123.363223 217.314354 
L 123.471477 220.044663 
L 123.687986 234.148599 
L 123.79624 231.32249 
L 123.904494 232.349682 
L 124.012748 231.870681 
L 124.121003 232.759495 
L 124.229257 232.158081 
L 124.337511 232.583861 
L 124.445765 232.104859 
L 124.55402 233.46203 
L 124.770528 225.648982 
L 124.878782 229.917418 
L 125.203545 215.962505 
L 125.3118 218.644914 
L 125.636562 216.899219 
L 125.961325 222.759006 
L 126.286088 240.545932 
L 126.394342 240.439487 
L 126.502596 238.294624 
L 126.610851 241.25379 
L 126.719105 238.90136 
L 126.935614 240.647054 
L 127.152122 234.3402 
L 127.368631 233.850554 
L 127.476885 230.231431 
L 127.693393 237.432421 
L 127.909902 235.441904 
L 128.12641 240.402231 
L 128.342919 226.010894 
L 128.559428 230.737043 
L 128.992445 213.173651 
L 129.100699 209.857896 
L 129.208953 210.666876 
L 129.317207 221.832936 
L 129.533716 219.842418 
L 130.183242 234.068766 
L 130.39975 224.754846 
L 130.508004 228.592181 
L 130.616259 226.638919 
L 130.724513 221.588113 
L 130.941021 228.92216 
L 131.049276 223.408319 
L 131.265784 204.147132 
L 131.374038 210.416731 
L 131.590547 197.004686 
L 131.698801 196.898241 
L 131.807056 199.08036 
L 131.91531 198.734414 
L 132.023564 197.39321 
L 132.240073 205.578815 
L 132.456581 201.933081 
L 132.564835 211.646169 
L 132.67309 209.016982 
L 132.781344 209.804673 
L 133.106107 192.086937 
L 133.214361 194.231799 
L 133.43087 212.763839 
L 133.539124 211.390701 
L 133.755632 220.741877 
L 133.863887 212.652072 
L 134.080395 223.057051 
L 134.188649 224.424867 
L 134.296904 220.193686 
L 134.405158 220.518343 
L 134.513412 218.549114 
L 134.621666 218.905704 
L 134.729921 206.260062 
L 135.162938 219.326161 
L 135.271192 217.218554 
L 135.379446 218.096723 
L 135.704209 209.400183 
L 135.812463 221.689235 
L 135.920718 214.222133 
L 136.137226 218.937637 
L 136.353735 214.4297 
L 136.461989 215.196103 
L 136.786752 220.731232 
L 136.895006 207.947212 
L 137.00326 214.472278 
L 137.436277 189.782407 
L 137.544532 192.07097 
L 137.76104 184.992391 
L 137.869294 186.424073 
L 137.977549 189.707895 
L 138.085803 187.797211 
L 138.194057 199.346472 
L 138.302312 192.57126 
L 138.51882 208.708292 
L 138.627074 208.548625 
L 138.735329 209.618395 
L 138.843583 214.344544 
L 138.951837 212.710617 
L 139.060091 213.168329 
L 139.168346 215.398348 
L 139.384854 207.957856 
L 139.493108 208.990371 
L 139.709617 216.73423 
L 139.817871 215.957183 
L 139.926126 210.560432 
L 140.142634 219.107949 
L 140.359143 202.651583 
L 140.467397 195.466559 
L 140.575651 197.174998 
L 140.79216 182.820917 
L 140.900414 183.108318 
L 141.008668 189.968685 
L 141.225177 177.716889 
L 141.333431 178.925037 
L 141.441685 182.251437 
L 141.766448 201.214578 
L 141.874702 201.922436 
L 141.982957 200.277864 
L 142.091211 188.185735 
L 142.307719 202.055492 
L 142.524228 201.927758 
L 142.632482 205.525593 
L 142.740736 200.575909 
L 142.848991 204.647423 
L 143.065499 194.3755 
L 143.173754 205.488337 
L 143.390262 196.546974 
L 143.498516 210.69881 
L 143.606771 204.588878 
L 143.715025 205.014657 
L 144.039788 180.739921 
L 144.148042 193.896498 
L 144.256296 186.961619 
L 144.36455 191.629224 
L 144.472805 187.60561 
L 144.689313 178.493936 
L 144.797568 184.178088 
L 144.905822 199.974496 
L 145.014076 197.680611 
L 145.12233 209.964341 
L 145.230585 202.981562 
L 145.447093 210.826544 
L 145.555347 208.708292 
L 145.663602 215.680426 
L 145.771856 215.520759 
L 145.88011 217.026953 
L 145.988364 207.005175 
L 146.096619 211.853736 
L 146.204873 200.71961 
L 146.313127 201.757447 
L 146.529636 201.102811 
L 146.63789 201.874536 
L 146.746144 195.104647 
L 146.854399 199.559361 
L 146.962653 195.519781 
L 147.070907 203.263641 
L 147.179161 195.163191 
L 147.39567 203.237029 
L 147.503924 201.858569 
L 147.612178 185.833305 
L 147.828687 202.779317 
L 147.936941 202.90705 
L 148.045196 195.700737 
L 148.15345 196.312795 
L 148.261704 206.664552 
L 148.369958 197.526266 
L 148.586467 200.677032 
L 148.694721 216.989697 
L 148.802975 214.413733 
L 148.91123 215.45157 
L 149.019484 214.349866 
L 149.127738 223.243329 
L 149.235992 223.035762 
L 149.344247 214.078432 
L 149.452501 222.226782 
L 149.993772 194.173255 
L 150.210281 188.707314 
L 150.318535 188.728603 
L 150.426789 192.725605 
L 150.535044 188.505069 
L 150.751552 191.943236 
L 150.859806 182.44836 
L 150.968061 189.367272 
L 151.184569 187.073386 
L 151.509332 181.52229 
L 151.617586 190.846855 
L 151.725841 186.44004 
L 151.834095 187.701411 
L 151.942349 187.062742 
L 152.375366 204.125843 
L 152.48362 197.664644 
L 152.591875 197.8456 
L 152.700129 194.503233 
L 152.916638 202.348215 
L 153.024892 210.549787 
L 153.133146 210.155941 
L 153.2414 208.474113 
L 153.349655 211.012822 
L 153.890926 191.400368 
L 153.99918 191.671802 
L 154.540452 154.267099 
L 154.75696 169.435483 
L 154.865214 177.046286 
L 155.081723 168.583925 
L 155.406486 191.485523 
L 155.51474 188.946815 
L 155.622994 191.432301 
L 155.839503 185.833305 
L 155.947757 188.318791 
L 156.056011 194.811923 
L 156.164266 194.444689 
L 156.27252 195.887016 
L 156.380774 195.131258 
L 156.489028 188.670058 
L 156.705537 197.547555 
L 156.813791 194.662901 
L 157.0303 187.052097 
L 157.138554 184.912557 
L 157.246808 179.659506 
L 157.355062 168.887292 
L 157.463317 171.995481 
L 157.571571 180.19173 
L 157.679825 177.088864 
L 157.896334 181.964036 
L 158.112842 195.636871 
L 158.437605 220.497054 
L 158.654114 210.230453 
L 159.411894 173.656019 
L 159.520148 167.876067 
L 159.628402 168.903259 
L 159.736656 163.666175 
L 160.061419 189.021326 
L 160.277928 197.723189 
L 160.386182 197.8935 
L 160.494436 202.19387 
L 160.60269 201.390212 
L 160.819199 214.408411 
L 161.035708 197.425143 
L 161.143962 205.940727 
L 161.252216 204.125843 
L 161.36047 207.265965 
L 161.468725 213.902798 
L 161.576979 212.976729 
L 161.685233 219.650817 
L 161.901742 204.035365 
L 162.009996 204.23761 
L 162.11825 206.430373 
L 162.226504 202.119359 
L 162.334759 202.268382 
L 162.551267 182.027903 
L 162.659522 176.514062 
L 162.767776 163.245718 
L 162.984284 177.466743 
L 163.092539 175.071735 
L 163.309047 187.994134 
L 163.417301 186.195217 
L 163.525556 189.580161 
L 163.63381 183.821498 
L 163.742064 187.456588 
L 163.850318 202.486593 
L 164.066827 194.359533 
L 164.175081 199.213416 
L 164.39159 181.1657 
L 164.499844 180.878299 
L 164.608098 188.201701 
L 164.716353 187.233054 
L 164.824607 184.241955 
L 164.932861 185.082869 
L 165.257624 178.334268 
L 165.365878 170.547831 
L 165.474132 179.159216 
L 165.690641 172.197726 
L 165.90715 190.474298 
L 166.015404 186.780663 
L 166.123658 196.307473 
L 166.231912 190.319953 
L 166.448421 209.82064 
L 166.556675 195.344147 
L 166.664929 205.818316 
L 166.773184 203.247674 
L 166.881438 203.652164 
L 167.097946 203.316863 
L 167.422709 185.040291 
L 167.530964 185.636382 
L 167.639218 193.625064 
L 167.747472 181.612768 
L 167.855726 183.911976 
L 167.963981 182.884784 
L 168.180489 166.194239 
L 168.288743 164.704012 
L 168.505252 179.132604 
L 168.613506 179.904329 
L 168.938269 201.448757 
L 169.046523 202.81125 
L 169.263032 201.161356 
L 169.371286 205.493659 
L 169.47954 202.449338 
L 169.696049 185.391559 
L 169.804303 185.551226 
L 169.912557 188.797792 
L 170.020812 184.854012 
L 170.129066 175.162213 
L 170.23732 176.955808 
L 170.345574 184.875301 
L 170.453829 174.507578 
L 170.778592 195.312214 
L 170.9951 166.785008 
L 171.211609 175.369781 
L 171.428117 172.495771 
L 171.644626 177.115475 
L 171.75288 169.467417 
L 171.861134 171.298267 
L 172.077643 185.51397 
L 172.294151 175.886038 
L 172.727168 155.496537 
L 172.835423 166.236817 
L 172.943677 164.171788 
L 173.160185 146.97563 
L 173.26844 147.502532 
L 173.376694 149.876251 
L 173.484948 162.825261 
L 173.593202 162.149337 
L 173.809711 173.938098 
L 173.917965 170.755399 
L 174.02622 152.383026 
L 174.242728 157.966056 
L 174.350982 164.640145 
L 174.459237 156.736618 
L 174.567491 157.141109 
L 174.675745 152.138203 
L 174.783999 154.809968 
L 175.325271 201.544557 
L 175.433525 195.551715 
L 175.650034 198.622647 
L 175.758288 195.173836 
L 175.974796 186.354884 
L 176.083051 179.920296 
L 176.191305 181.133767 
L 176.299559 184.172766 
L 176.516068 177.706244 
L 176.624322 179.654184 
L 176.732576 171.569701 
L 176.84083 182.75705 
L 177.057339 170.047541 
L 177.273848 178.477969 
L 177.490356 166.710496 
L 177.59861 169.211949 
L 177.706865 177.003708 
L 177.923373 155.767971 
L 178.139882 172.46916 
L 178.248136 171.287623 
L 178.35639 171.670824 
L 178.464644 169.04696 
L 178.681153 183.880042 
L 178.789407 179.159216 
L 179.005916 200.799443 
L 179.438933 177.583833 
L 179.655441 180.707987 
L 179.763696 175.529448 
L 179.87195 177.871233 
L 180.088458 187.371432 
L 180.521476 215.057724 
L 180.62973 214.190199 
L 180.846238 204.908213 
L 180.954493 206.281351 
L 181.279255 179.105993 
L 181.604018 159.823518 
L 181.712272 161.138111 
L 181.820527 159.834162 
L 181.928781 162.021603 
L 182.037035 153.229262 
L 182.14529 168.466835 
L 182.253544 165.896193 
L 182.361798 167.929289 
L 182.470052 176.15215 
L 182.578307 171.857102 
L 182.686561 172.884295 
L 182.794815 164.922224 
L 182.903069 175.311236 
L 183.011324 170.340264 
L 183.119578 177.668988 
L 183.227832 174.182921 
L 183.336086 175.045124 
L 183.552595 159.179527 
L 183.660849 159.216782 
L 183.769104 160.387675 
L 183.877358 159.871418 
L 183.985612 159.961896 
L 184.093866 167.657855 
L 184.202121 167.524799 
L 184.418629 150.317997 
L 184.635138 160.871999 
L 184.743392 163.149918 
L 184.851646 161.005055 
L 184.9599 167.828167 
L 185.284663 147.183198 
L 185.392918 146.635007 
L 185.501172 156.161817 
L 185.609426 149.865607 
L 185.71768 152.409637 
L 185.825935 145.469436 
L 185.934189 146.044238 
L 186.150697 132.589616 
L 186.47546 149.179038 
L 186.583714 151.994503 
L 186.691969 151.786935 
L 186.908477 135.059135 
L 187.124986 152.792839 
L 187.23324 153.133462 
L 187.341494 150.328641 
L 187.558003 158.865514 
L 187.666257 152.713005 
L 187.774511 139.327571 
L 187.882766 156.076661 
L 187.99102 154.618367 
L 188.207528 133.723253 
L 188.315783 138.140712 
L 188.532291 122.253825 
L 188.640546 118.895492 
L 188.7488 120.912621 
L 188.965308 144.069687 
L 189.614834 171.117311 
L 189.723088 167.849456 
L 189.831342 172.431904 
L 190.047851 158.918737 
L 190.156105 163.740686 
L 190.26436 163.55973 
L 190.480868 158.769714 
L 190.697377 172.298848 
L 190.913885 181.639379 
L 191.022139 181.623413 
L 191.130394 180.76121 
L 191.346902 172.644794 
L 191.455156 173.059929 
L 191.996428 136.528073 
L 192.537699 151.190844 
L 192.645953 146.693552 
L 192.754208 149.727228 
L 193.07897 133.654064 
L 193.187225 126.133738 
L 193.295479 127.794277 
L 193.403733 125.154446 
L 193.728496 148.912926 
L 193.83675 154.517244 
L 194.161513 179.068737 
L 194.269767 180.186408 
L 194.378022 178.685536 
L 194.59453 162.718816 
L 194.811039 143.920665 
L 194.919293 138.146034 
L 195.135801 118.608091 
L 195.35231 124.239021 
L 195.460564 120.066385 
L 195.677073 130.444753 
L 195.893581 150.988599 
L 196.001836 150.312675 
L 196.11009 148.449891 
L 196.326598 152.766227 
L 196.434853 148.476502 
L 196.651361 166.460351 
L 196.759615 155.464603 
L 196.86787 158.567469 
L 196.976124 156.438573 
L 197.084378 161.617113 
L 197.192633 176.205372 
L 197.409141 167.844133 
L 197.517395 169.563217 
L 197.733904 131.823213 
L 197.842158 139.151937 
L 197.950412 133.191029 
L 198.166921 138.257801 
L 198.275175 136.645162 
L 198.383429 142.196259 
L 198.491684 141.594846 
L 198.708192 161.095533 
L 198.816447 160.584598 
L 198.924701 158.636658 
L 199.032955 161.313745 
L 199.141209 159.82884 
L 199.465972 144.000498 
L 199.574226 152.979117 
L 199.790735 146.038916 
L 199.898989 157.039986 
L 200.223752 143.734386 
L 200.332006 153.516663 
L 200.656769 137.9225 
L 200.765023 135.484914 
L 200.873278 136.895308 
L 200.981532 129.848662 
L 201.089786 143.888731 
L 201.19804 143.180873 
L 201.306295 153.22394 
L 201.414549 143.415052 
L 201.631057 147.28432 
L 201.739312 144.325155 
L 201.95582 153.218618 
L 202.172329 161.771457 
L 202.280583 160.036407 
L 202.388837 152.766227 
L 202.605346 169.462094 
L 202.7136 167.072409 
L 202.821854 176.50874 
L 202.930109 173.821009 
L 203.038363 176.971775 
L 203.146617 176.290528 
L 203.363126 162.010958 
L 203.47138 157.114497 
L 203.579634 141.286156 
L 203.796143 148.641491 
L 203.904397 149.375961 
L 204.012651 155.475248 
L 204.120906 143.516174 
L 204.22916 144.17081 
L 204.337414 143.521497 
L 204.445668 139.295638 
L 204.662177 159.701106 
L 204.878685 148.61488 
L 204.98694 150.291386 
L 205.095194 134.574811 
L 205.203448 148.87567 
L 205.311703 142.941372 
L 205.528211 155.88506 
L 205.636465 155.954249 
L 205.852974 152.452215 
L 205.961228 160.978444 
L 206.069482 144.846734 
L 206.177737 155.363481 
L 206.285991 154.34161 
L 206.394245 163.20314 
L 206.502499 160.110919 
L 206.610754 163.346841 
L 206.827262 155.858449 
L 206.935517 162.415449 
L 207.043771 156.986764 
L 207.152025 160.121563 
L 207.260279 156.19375 
L 207.476788 140.280252 
L 207.585042 140.711354 
L 207.693296 137.422209 
L 207.801551 150.456375 
L 208.018059 134.042587 
L 208.126313 130.279763 
L 208.342822 135.825537 
L 208.451076 150.105107 
L 208.559331 148.433924 
L 208.775839 157.769133 
L 208.884093 154.990924 
L 208.992348 165.241558 
L 209.100602 162.362226 
L 209.208856 171.846458 
L 209.425365 160.153497 
L 209.533619 163.346841 
L 209.750127 138.486657 
L 209.858382 143.771642 
L 210.07489 128.906625 
L 210.183145 136.363084 
L 210.291399 135.405081 
L 210.507907 156.007472 
L 210.616162 153.282485 
L 210.83267 168.131534 
L 210.940924 156.028761 
L 211.157433 168.47748 
L 211.265687 159.264682 
L 211.373941 165.789749 
L 211.482196 154.299033 
L 211.59045 163.261685 
L 211.698704 159.062437 
L 211.806959 161.175367 
L 211.915213 154.086143 
L 212.023467 163.666175 
L 212.131721 163.650208 
L 212.239976 161.478734 
L 212.34823 170.968288 
L 212.672993 143.622619 
L 212.781247 141.669357 
L 212.889501 146.826608 
L 213.10601 137.528654 
L 213.214264 114.089509 
L 213.322518 114.99429 
L 213.430773 118.070545 
L 213.647281 129.98704 
L 213.86379 145.522659 
L 213.972044 135.793604 
L 214.296807 159.770295 
L 214.405061 152.281904 
L 214.621569 152.808805 
L 214.729824 143.989854 
L 215.162841 157.57221 
L 215.271095 149.769806 
L 215.487604 150.147685 
L 215.595858 149.620784 
L 215.704112 141.2489 
L 215.812366 143.351185 
L 216.245383 110.922777 
L 216.570146 131.168577 
L 216.786655 115.180569 
L 217.327926 136.208739 
L 217.43618 138.790025 
L 217.544435 137.432854 
L 217.652689 133.228284 
L 217.869197 150.87151 
L 218.085706 147.23642 
L 218.19396 147.167231 
L 218.302215 135.272025 
L 218.518723 145.166069 
L 218.95174 134.244832 
L 219.059994 136.384373 
L 219.168249 134.133065 
L 219.276503 137.682999 
L 219.384757 144.990435 
L 219.70952 131.498556 
L 219.817774 133.701964 
L 220.034283 126.697896 
L 220.142537 133.691319 
L 220.359046 123.461974 
L 220.575554 120.550709 
L 220.683808 112.045769 
L 220.792063 117.932167 
L 220.900317 107.745399 
L 221.008571 110.981321 
L 221.116825 108.101989 
L 221.22508 98.745491 
L 221.333334 111.753046 
L 221.549843 108.756625 
L 221.766351 126.410495 
L 221.874605 124.590289 
L 221.98286 126.170994 
L 222.091114 131.573068 
L 222.199368 126.485006 
L 222.307622 139.65755 
L 222.415877 132.621549 
L 222.524131 134.356599 
L 222.632385 139.955596 
L 222.848894 121.050999 
L 222.957148 120.199441 
L 223.065402 125.931493 
L 223.173657 122.120769 
L 223.281911 133.276185 
L 223.390165 120.657153 
L 223.606674 125.952782 
L 223.714928 124.792534 
L 223.823182 126.804341 
L 223.931436 123.030873 
L 224.039691 110.699242 
L 224.147945 114.42481 
L 224.364453 112.067058 
L 224.472708 118.012 
L 224.580962 115.957616 
L 224.689216 121.189377 
L 224.797471 119.156282 
L 224.905725 119.736406 
L 225.122233 145.751515 
L 225.230488 143.638586 
L 225.338742 138.758092 
L 225.663505 156.481151 
L 225.880013 148.870348 
L 225.988267 145.496048 
L 226.096522 146.267772 
L 226.31303 138.566491 
L 226.421285 135.192191 
L 226.637793 108.538413 
L 226.746047 100.102663 
L 226.962556 106.840618 
L 227.179064 111.417745 
L 227.287319 111.902069 
L 227.503827 129.183382 
L 227.612081 139.673517 
L 227.82859 135.064457 
L 227.936844 132.121258 
L 228.153353 118.411168 
L 228.261607 117.862977 
L 228.369861 114.430133 
L 228.58637 104.20611 
L 228.802878 124.531744 
L 228.911133 123.318273 
L 229.235895 130.364919 
L 229.34415 132.642838 
L 229.452404 138.736803 
L 229.560658 135.123002 
L 229.668913 139.141293 
L 229.777167 134.095809 
L 229.885421 135.836182 
L 229.993675 140.285575 
L 230.10193 130.615065 
L 230.210184 140.37073 
L 230.534947 131.743379 
L 230.643201 141.334056 
L 230.751455 134.771734 
L 230.859709 137.35302 
L 231.076218 124.036776 
L 231.184472 135.458303 
L 231.400981 129.811406 
L 231.509235 129.151449 
L 231.617489 130.450075 
L 231.725744 129.853984 
L 231.833998 132.19577 
L 231.942252 129.209993 
L 232.050506 132.477849 
L 232.158761 143.005239 
L 232.267015 141.403245 
L 232.591778 156.827097 
L 232.700032 142.638005 
L 232.808286 147.891056 
L 233.349558 126.607418 
L 233.457812 131.354856 
L 233.67432 117.644766 
L 233.782575 136.320506 
L 233.999083 118.070545 
L 234.215592 119.858817 
L 234.4321 126.474362 
L 234.540355 125.404592 
L 234.648609 139.535139 
L 234.865117 123.861142 
L 234.973372 125.079935 
L 235.081626 124.968168 
L 235.298134 132.823794 
L 235.514643 131.988202 
L 235.731151 114.658989 
L 235.839406 112.620571 
L 235.94766 117.016741 
L 236.164169 136.985786 
L 236.272423 125.713281 
L 236.380677 127.453654 
L 236.488931 124.537066 
L 236.597186 118.448424 
L 236.921948 142.398504 
L 237.246711 127.964589 
L 237.354965 127.517521 
L 237.46322 128.794858 
L 237.679728 138.598425 
L 237.787983 135.266702 
L 238.004491 122.722183 
L 238.221 129.327082 
L 238.545762 152.361737 
L 238.654017 153.612464 
L 238.762271 146.273095 
L 239.195288 157.125142 
L 239.303542 158.727136 
L 239.411797 150.898121 
L 239.520051 152.542693 
L 239.736559 143.085073 
L 239.953068 148.087978 
L 240.061322 143.425696 
L 240.277831 125.404592 
L 240.602593 112.311881 
L 240.710848 112.99845 
L 240.819102 108.309557 
L 241.576882 131.035521 
L 241.685136 127.613321 
L 241.901645 115.888426 
L 242.009899 121.3863 
L 242.226407 107.692177 
L 242.334662 120.593287 
L 242.55117 118.262145 
L 242.659425 116.889008 
L 242.984187 127.597354 
L 243.092442 109.145148 
L 243.200696 112.370426 
L 243.30895 123.531163 
L 243.417204 117.873622 
L 243.525459 120.944554 
L 243.633713 120.93391 
L 244.06673 99.277715 
L 244.174984 115.505225 
L 244.391493 96.05776 
L 244.499747 103.524863 
L 244.608001 97.633143 
L 244.716256 98.181334 
L 244.82451 102.018669 
L 245.149273 123.914364 
L 245.257527 112.42897 
L 245.474035 119.001937 
L 245.58229 109.906229 
L 245.798798 117.70331 
L 246.015307 112.684438 
L 246.231815 117.139153 
L 246.34007 112.966517 
L 246.448324 113.488096 
L 246.773087 102.848938 
L 246.881341 92.53976 
L 246.989595 96.095016 
L 247.097849 106.505317 
L 247.206104 105.078957 
L 247.314358 106.569184 
L 247.530867 117.293498 
L 247.639121 117.261564 
L 247.747375 116.686762 
L 247.855629 131.796602 
L 247.963884 130.950366 
L 248.180392 110.981321 
L 248.288646 117.900233 
L 248.396901 111.997869 
L 248.829918 120.848754 
L 248.938172 111.130344 
L 249.262935 138.140712 
L 249.371189 125.910204 
L 249.587698 138.220545 
L 249.804206 125.351369 
L 250.020715 138.502624 
L 250.237223 126.575484 
L 250.345477 137.480754 
L 250.453732 132.29157 
L 250.67024 103.237462 
L 250.886749 112.828138 
L 250.995003 106.723529 
L 251.103257 91.911735 
L 251.211512 95.493603 
L 251.319766 104.179498 
L 251.42802 89.032403 
L 251.861037 125.399269 
L 252.077546 126.527584 
L 252.294054 135.894727 
L 252.402309 129.93914 
L 252.618817 138.912437 
L 252.727071 138.449402 
L 252.94358 129.151449 
L 253.160088 136.842085 
L 253.268343 136.756929 
L 253.484851 114.935745 
L 253.809614 94.077887 
L 253.917868 105.685692 
L 254.242631 93.322129 
L 254.350885 96.696429 
L 254.567394 116.292917 
L 254.675648 120.22073 
L 254.892157 115.020901 
L 255.000411 104.456255 
L 255.108665 115.239113 
L 255.433428 94.301421 
L 255.541682 95.898093 
L 255.649937 104.408355 
L 255.758191 101.02341 
L 255.866445 83.268417 
L 256.082954 99.74075 
L 256.191208 92.561049 
L 256.299462 97.468154 
L 256.515971 114.744145 
L 256.624225 108.187145 
L 256.732479 109.448516 
L 256.840733 108.809847 
L 257.057242 129.949785 
L 257.273751 119.741728 
L 257.382005 124.100643 
L 257.598513 115.744726 
L 257.706768 119.858817 
L 257.815022 119.140315 
L 258.03153 129.422883 
L 258.139785 126.229539 
L 258.356293 132.408659 
L 258.464547 129.481427 
L 258.681056 130.561842 
L 258.897565 105.770848 
L 259.114073 109.278204 
L 259.222327 118.709214 
L 259.330582 115.579737 
L 259.438836 117.634121 
L 259.54709 121.902558 
L 259.655344 105.361036 
L 259.763599 105.504736 
L 259.980107 129.763506 
L 260.30487 98.596469 
L 260.413124 111.71579 
L 260.521379 108.240368 
L 260.629633 98.287779 
L 260.846141 112.604604 
L 260.954396 110.347975 
L 261.06265 110.704565 
L 261.170904 122.445426 
L 261.279158 113.514707 
L 261.387413 117.34672 
L 261.603921 92.885705 
L 261.928684 107.340909 
L 262.145193 102.545571 
L 262.361701 115.164602 
L 262.469955 110.332008 
L 262.794718 139.641584 
L 263.119481 135.26138 
L 263.335989 107.026897 
L 263.444244 110.85891 
L 263.552498 110.534253 
L 263.769007 96.88803 
L 263.877261 96.589984 
L 263.985515 99.618339 
L 264.202024 87.068497 
L 264.418532 116.362106 
L 264.526786 114.302399 
L 265.068058 128.581969 
L 265.284566 134.862212 
L 265.501075 113.009095 
L 265.609329 113.812753 
L 265.825838 110.619409 
L 265.934092 111.465645 
L 266.258855 107.287687 
L 266.367109 109.059993 
L 266.475363 123.791953 
L 266.691872 120.917943 
L 266.800126 123.461974 
L 267.016635 135.170902 
L 267.233143 120.955199 
L 267.341397 122.626382 
L 267.557906 131.871113 
L 267.66616 139.577717 
L 267.774414 139.354183 
L 267.990923 124.074032 
L 268.099177 116.468551 
L 268.315686 129.156771 
L 268.532194 110.156374 
L 268.640449 110.991966 
L 268.748703 109.05467 
L 268.856957 95.009279 
L 268.965211 102.359292 
L 269.073466 99.373516 
L 269.18172 112.572671 
L 269.289974 109.906229 
L 269.614737 132.770572 
L 269.831245 124.87769 
L 269.9395 134.5003 
L 270.156008 121.785468 
L 270.264263 103.748397 
L 270.372517 105.72827 
L 270.589025 93.465829 
L 270.805534 84.614944 
L 271.130297 107.622988 
L 271.346805 124.074032 
L 271.455059 120.188796 
L 271.563314 127.554777 
L 271.671568 123.877109 
L 271.779822 126.144383 
L 271.996331 119.315949 
L 272.321094 86.860929 
L 272.537602 92.225747 
L 272.645856 85.812448 
L 272.970619 111.130344 
L 273.078873 111.071799 
L 273.187128 117.362687 
L 273.295382 117.165764 
L 273.403636 117.804433 
L 273.728399 109.565605 
L 273.836653 107.495254 
L 273.944908 100.304908 
L 274.161416 103.141662 
L 274.26967 100.986154 
L 274.594433 120.540064 
L 274.702687 118.491002 
L 275.02745 136.485495 
L 275.243959 121.285178 
L 275.352213 127.533488 
L 275.460467 121.891913 
L 275.78523 135.868115 
L 275.893484 133.909531 
L 276.109993 118.379235 
L 276.218247 124.648833 
L 276.326501 118.171667 
L 276.54301 101.310811 
L 276.651264 103.828231 
L 276.867773 87.462343 
L 277.084281 104.509477 
L 277.30079 111.875457 
L 277.733807 141.664035 
L 277.842061 138.268446 
L 277.950315 141.642746 
L 278.05857 128.438268 
L 278.166824 131.248411 
L 278.275078 131.2218 
L 278.708095 97.776844 
L 278.81635 98.016345 
L 279.032858 122.280437 
L 279.141112 133.111195 
L 279.249367 117.197697 
L 279.357621 117.522354 
L 279.790638 138.311024 
L 279.898892 135.894727 
L 280.223655 104.099665 
L 280.331909 119.576739 
L 280.548418 111.194211 
L 280.656672 103.498252 
L 280.764926 111.800946 
L 281.089689 99.809939 
L 281.306198 111.657246 
L 281.414452 104.546733 
L 281.522706 111.556123 
L 281.739215 130.120096 
L 281.955723 118.698569 
L 282.063978 118.246179 
L 282.172232 116.968841 
L 282.605249 88.516146 
L 282.713503 79.697194 
L 283.254774 107.016252 
L 283.363029 106.978997 
L 283.796046 119.784306 
L 284.012554 112.402359 
L 284.120809 108.453257 
L 284.229063 95.238135 
L 284.445571 99.586405 
L 284.66208 111.284689 
L 284.770334 106.537251 
L 284.878588 92.342837 
L 284.986843 96.850774 
L 285.095097 94.237554 
L 285.203351 94.482377 
L 285.311606 99.666239 
L 285.528114 83.784675 
L 285.636368 82.597815 
L 285.744623 90.187329 
L 285.852877 89.873317 
L 286.069385 101.741913 
L 286.17764 102.880872 
L 286.285894 105.994382 
L 286.394148 99.091437 
L 286.610657 104.030476 
L 286.827165 96.845452 
L 286.93542 104.211432 
L 287.151928 94.067242 
L 287.260182 91.581756 
L 287.368437 93.614852 
L 287.476691 108.171178 
L 287.801454 102.689271 
L 287.909708 100.586986 
L 288.017962 106.484028 
L 288.126216 101.491767 
L 288.234471 105.627148 
L 288.559234 93.114561 
L 288.667488 102.705238 
L 288.775742 102.630727 
L 288.883996 97.414931 
L 288.992251 102.667982 
L 289.100505 97.633143 
L 289.208759 107.745399 
L 289.425268 88.409701 
L 289.533522 89.692361 
L 289.75003 87.606043 
L 289.858285 89.266582 
L 289.966539 95.445703 
L 290.183048 77.451209 
L 290.291302 76.31225 
L 290.399556 72.735705 
L 290.50781 87.861511 
L 290.832573 77.360731 
L 290.940827 77.541687 
L 291.157336 80.713742 
L 291.482099 101.928191 
L 291.590353 91.4487 
L 291.698607 93.540341 
L 291.915116 87.861511 
L 292.131624 94.141754 
L 292.348133 77.110586 
L 292.456387 80.314574 
L 292.564641 76.221772 
L 292.672896 79.058526 
L 292.997658 97.303164 
L 293.105913 97.617177 
L 293.430676 128.60858 
L 293.53893 122.189959 
L 293.863693 135.452981 
L 293.971947 132.882339 
L 294.513218 103.775008 
L 294.621472 109.523027 
L 294.729727 105.605859 
L 294.837981 107.569765 
L 295.05449 99.479961 
L 295.270998 105.973093 
L 295.379252 109.097248 
L 295.487507 107.665566 
L 295.595761 110.837621 
L 295.812269 104.653178 
L 295.920524 108.117956 
L 296.028778 106.446773 
L 296.137032 117.713955 
L 296.245286 113.97242 
L 296.353541 116.053416 
L 296.461795 113.887264 
L 296.570049 118.549546 
L 296.678304 117.059319 
L 296.786558 118.278112 
L 296.894812 115.031546 
L 297.219575 95.08379 
L 297.327829 104.179498 
L 297.436083 90.304419 
L 297.652592 94.349321 
L 297.760846 75.716159 
L 297.977355 83.310995 
L 298.085609 81.155488 
L 298.302118 85.15249 
L 298.410372 76.216449 
L 298.518626 89.580594 
L 298.62688 87.739099 
L 298.735135 82.475404 
L 298.843389 106.196627 
L 299.059897 96.930608 
L 299.168152 96.62724 
L 299.601169 112.061736 
L 299.709423 109.943484 
L 299.925932 94.759134 
L 300.250694 116.452584 
L 300.467203 96.169527 
L 300.575457 107.399454 
L 300.791966 92.566371 
L 300.90022 107.787977 
L 301.224983 91.688201 
L 301.333237 94.588822 
L 301.441491 94.232232 
L 301.549746 109.507061 
L 301.658 102.763783 
L 301.766254 113.818075 
L 301.874508 112.955872 
L 301.982763 114.446099 
L 302.199271 104.759623 
L 302.307525 109.421905 
L 302.41578 104.152887 
L 302.524034 106.664985 
L 302.957051 85.301513 
L 303.17356 96.169527 
L 303.390068 89.415605 
L 303.714831 109.954129 
L 303.931339 114.243854 
L 304.039594 114.744145 
L 304.147848 106.994963 
L 304.364356 128.528746 
L 304.472611 126.751118 
L 304.689119 116.415328 
L 304.797374 113.392296 
L 304.905628 117.692666 
L 305.013882 113.418907 
L 305.122136 124.196443 
L 305.446899 114.5898 
L 305.555153 112.785561 
L 305.663408 117.027386 
L 305.771662 114.643022 
L 305.879916 119.29466 
L 305.98817 116.260983 
L 306.421188 70.995332 
L 306.637696 75.801315 
L 306.74595 74.795411 
L 306.854205 86.153072 
L 307.070713 77.701354 
L 307.287222 107.633632 
L 307.395476 102.870227 
L 307.611984 115.39878 
L 307.720239 114.42481 
L 307.828493 119.108382 
L 307.936747 100.315552 
L 308.26151 107.085441 
L 308.369764 101.257589 
L 308.478019 103.253429 
L 308.911036 90.953732 
L 309.01929 91.198555 
L 309.127544 88.64388 
L 309.344053 91.863835 
L 309.560561 109.491094 
L 309.668816 112.375748 
L 309.77707 112.173503 
L 309.993578 126.506295 
L 310.318341 139.881084 
L 310.426595 138.704869 
L 310.643104 123.515196 
L 310.859612 102.699916 
L 311.076121 87.872155 
L 311.184375 84.284965 
L 311.29263 86.499017 
L 311.509138 64.379788 
L 311.617392 66.774796 
L 311.725647 65.236668 
L 311.942155 81.006465 
L 312.158664 84.998145 
L 312.266918 82.033658 
L 312.375172 75.529881 
L 312.483426 94.099176 
L 312.591681 91.778679 
L 312.699935 86.701262 
L 312.808189 89.186748 
L 312.916444 98.303745 
L 313.024698 94.141754 
L 313.132952 103.94532 
L 313.241206 90.341674 
L 313.457715 99.463994 
L 313.674223 96.275972 
L 313.782478 103.753719 
L 313.890732 102.220914 
L 313.998986 92.859094 
L 314.10724 99.559794 
L 314.215495 83.758064 
L 314.432003 92.736682 
L 314.648512 78.632746 
L 314.756766 70.899532 
L 314.973275 73.065683 
L 315.189783 68.445979 
L 315.406292 82.182681 
L 315.514546 78.30809 
L 315.947563 115.201857 
L 316.055817 109.368682 
L 316.164072 114.062898 
L 316.272326 111.71579 
L 316.38058 113.025061 
L 316.597089 124.020809 
L 316.705343 114.28111 
L 316.921851 117.490421 
L 317.030106 109.581572 
L 317.246614 121.173411 
L 317.354868 119.91204 
L 317.571377 102.987317 
L 317.679631 105.355713 
L 317.787886 110.369264 
L 318.004394 91.964958 
L 318.112648 89.942506 
L 318.220903 92.891027 
L 318.329157 89.436894 
L 318.65392 104.360455 
L 318.762174 83.779353 
L 318.870428 86.860929 
L 318.978682 101.582245 
L 319.086937 92.087369 
L 319.195191 97.867322 
L 319.303445 96.467573 
L 319.628208 77.419276 
L 319.736462 73.310506 
L 319.844717 93.093273 
L 319.952971 91.166622 
L 320.061225 92.167203 
L 320.277734 98.835969 
L 320.385988 100.123952 
L 320.494242 109.384649 
L 320.602496 104.25401 
L 320.819005 122.040936 
L 320.927259 111.854169 
L 321.143768 119.044515 
L 321.252022 123.733408 
L 321.360276 102.981994 
L 321.468531 103.226817 
L 321.685039 89.133526 
L 321.901548 84.535111 
L 322.009802 86.365961 
L 322.22631 63.395173 
L 322.334565 61.409978 
L 322.442819 78.49969 
L 322.551073 73.459529 
L 322.659328 73.475496 
L 322.767582 80.266674 
L 322.98409 75.992915 
L 323.092345 84.178521 
L 323.308853 77.759899 
L 323.417107 77.914244 
L 323.525362 86.467084 
L 323.633616 85.855026 
L 323.74187 99.160626 
L 323.850124 88.564046 
L 323.958379 88.90467 
L 324.174887 79.952662 
L 324.391396 98.117467 
L 324.49965 98.271812 
L 324.607904 90.527953 
L 324.932667 100.842454 
L 325.040921 93.114561 
L 325.25743 109.395294 
L 325.473938 98.388901 
L 325.582193 87.888122 
L 326.01521 96.973185 
L 326.123464 97.106241 
L 326.339973 85.658103 
L 326.664735 114.962357 
L 326.881244 106.675629 
L 326.989498 102.534926 
L 327.097752 104.078376 
L 327.314261 114.084187 
L 327.963787 73.624519 
L 328.072041 66.64174 
L 328.180295 67.472009 
L 328.288549 60.968232 
L 328.396804 66.114838 
L 328.613312 83.832575 
L 328.721566 78.994659 
L 329.154584 105.302491 
L 329.262838 100.225074 
L 329.371092 111.753046 
L 329.695855 98.697591 
L 329.804109 106.042282 
L 329.912363 99.841873 
L 330.020618 104.866067 
L 330.128872 97.771521 
L 330.237126 102.146403 
L 330.453635 96.845452 
L 330.561889 99.517216 
L 330.670143 97.265909 
L 330.778398 104.216754 
L 330.886652 98.378257 
L 330.994906 100.299585 
L 331.10316 95.940671 
L 331.211415 108.825814 
L 331.319669 105.526025 
L 331.427923 109.57625 
L 331.644432 101.358711 
L 331.752686 100.996799 
L 331.86094 97.484121 
L 331.969194 101.390645 
L 332.077449 93.476474 
L 332.185703 97.750233 
L 332.293957 95.983249 
L 332.510466 80.692453 
L 332.726974 86.520306 
L 332.835229 85.950826 
L 333.051737 94.801712 
L 333.268246 114.158698 
L 333.3765 117.51171 
L 333.593008 131.503879 
L 333.701263 122.205925 
L 333.809517 122.743472 
L 334.242534 102.162369 
L 334.459043 81.884635 
L 334.567297 81.368378 
L 335.000314 96.084371 
L 335.216822 83.348251 
L 335.325077 88.271323 
L 335.541585 108.38939 
L 335.64984 109.618828 
L 335.758094 104.035798 
L 335.974602 108.192467 
L 336.299365 126.224217 
L 336.624128 102.838294 
L 336.732382 100.45393 
L 336.840636 105.446192 
L 337.165399 91.592401 
L 337.273654 91.608368 
L 337.490162 102.886194 
L 337.598416 96.595306 
L 337.814925 110.406519 
L 337.923179 110.587475 
L 338.031433 111.57209 
L 338.139688 102.769105 
L 338.247942 108.91097 
L 338.572705 97.846033 
L 338.680959 95.349902 
L 338.789213 95.55747 
L 338.897468 93.864997 
L 339.005722 89.644461 
L 339.113976 94.615433 
L 339.330485 107.660243 
L 339.438739 106.601118 
L 339.655247 101.576923 
L 339.763502 109.347393 
L 339.871756 104.786234 
L 340.088264 83.662263 
L 340.196519 83.502596 
L 340.413027 79.771706 
L 340.629536 97.462832 
L 340.73779 100.076051 
L 340.954299 87.659265 
L 341.279061 108.575669 
L 341.49557 113.35504 
L 341.712078 104.573344 
L 341.928587 96.339839 
L 342.036841 102.545571 
L 342.25335 90.171363 
L 342.469858 77.919566 
L 342.578113 79.681228 
L 342.686367 76.200483 
L 342.794621 66.68964 
L 343.01113 84.104009 
L 343.119384 82.416859 
L 343.227638 97.138175 
L 343.444147 88.611946 
L 343.552401 90.176685 
L 343.660655 81.852702 
L 343.877164 96.238716 
L 343.985418 87.025919 
L 344.093672 87.563465 
L 344.201927 86.259516 
L 344.418435 97.718299 
L 344.526689 98.388901 
L 344.634944 96.739007 
L 344.743198 98.133434 
L 344.851452 94.285454 
L 345.067961 108.948225 
L 345.176215 105.643114 
L 345.284469 111.220822 
L 345.392724 101.662079 
L 345.609232 107.899744 
L 345.933995 96.350483 
L 346.150503 105.270558 
L 346.367012 96.552729 
L 346.58352 93.646785 
L 346.691775 94.743167 
L 346.800029 93.70533 
L 347.016538 117.027386 
L 347.233046 102.407193 
L 347.3413 109.71995 
L 347.449555 108.320201 
L 347.666063 128.603258 
L 347.774317 124.531744 
L 347.882572 133.409241 
L 347.990826 128.438268 
L 348.09908 114.494 
L 348.315589 119.347882 
L 348.423843 120.449586 
L 348.532097 119.848173 
L 348.748606 112.471548 
L 348.965114 115.271047 
L 349.073369 113.690341 
L 349.181623 117.543643 
L 349.289877 114.845267 
L 349.506386 103.471641 
L 349.61464 108.330846 
L 349.722894 108.160534 
L 349.831148 109.017415 
L 349.939403 107.117375 
L 350.047657 107.702821 
L 350.264165 114.488677 
L 350.37242 110.651342 
L 350.913691 72.150258 
L 351.021945 72.570715 
L 351.1302 70.367308 
L 351.238454 62.442492 
L 351.454962 69.877662 
L 351.671471 92.848449 
L 351.887979 115.760693 
L 351.996234 113.40294 
L 352.212742 102.779749 
L 352.320997 107.495254 
L 352.429251 100.52312 
L 352.537505 107.484609 
L 352.645759 91.438056 
L 352.754014 91.725457 
L 352.862268 92.864416 
L 352.970522 91.241133 
L 353.078776 96.10566 
L 353.187031 91.422089 
L 353.403539 77.153164 
L 353.511793 81.772868 
L 353.620048 76.903018 
L 353.836556 86.749162 
L 353.944811 81.879313 
L 354.053065 85.684714 
L 354.161319 83.050206 
L 354.486082 112.971839 
L 354.810845 122.36027 
L 355.243862 104.6106 
L 355.352116 103.274718 
L 355.46037 106.691596 
L 355.893387 69.265604 
L 356.001642 72.730382 
L 356.21815 91.14001 
L 356.326404 90.964377 
L 356.542913 97.430898 
L 356.651167 95.514892 
L 356.759421 96.084371 
L 356.97593 109.544316 
L 357.300693 95.280713 
L 357.408947 96.967863 
L 357.625456 96.212105 
L 357.73371 99.054181 
L 357.950218 117.330753 
L 358.058473 115.340236 
L 358.274981 118.948714 
L 358.49149 98.889192 
L 358.707998 92.199136 
L 358.816253 93.242295 
L 359.032761 75.316991 
L 359.141015 80.107007 
L 359.24927 68.621613 
L 359.357524 74.976368 
L 359.574032 95.089113 
L 359.682287 90.964377 
L 359.898795 95.919382 
L 360.007049 106.398873 
L 360.223558 95.163624 
L 360.331812 105.786815 
L 360.548321 97.164786 
L 360.764829 106.70224 
L 360.981338 101.731268 
L 361.089592 97.595888 
L 361.197846 106.680951 
L 361.306101 106.29775 
L 361.414355 104.594633 
L 361.522609 106.462739 
L 361.630863 105.962449 
L 362.063881 117.878944 
L 362.172135 116.32485 
L 362.280389 110.374586 
L 362.388643 110.869554 
L 362.605152 114.32901 
L 362.82166 107.633632 
L 362.929915 108.431968 
L 363.146423 96.584662 
L 363.254677 96.472895 
L 363.362932 106.760785 
L 363.471186 102.055925 
L 363.57944 103.359873 
L 363.904203 88.654524 
L 364.012457 92.443959 
L 364.120712 92.289614 
L 364.445474 85.81777 
L 364.553729 90.080885 
L 364.661983 89.181426 
L 364.878491 92.438637 
L 364.986746 102.902161 
L 365.095 100.102663 
L 365.203254 103.131017 
L 365.311509 111.140988 
L 365.419763 106.877874 
L 365.528017 94.439799 
L 365.636271 94.748489 
L 365.744526 96.67514 
L 365.85278 88.324545 
L 365.961034 91.326289 
L 366.177543 84.971534 
L 366.285797 88.090367 
L 366.394051 85.940182 
L 366.718814 103.189562 
L 366.827068 91.66159 
L 366.935323 98.772103 
L 367.043577 92.380092 
L 367.260085 94.46641 
L 367.36834 92.63556 
L 367.693102 68.302279 
L 367.801357 70.298119 
L 368.017865 81.77819 
L 368.234374 92.236392 
L 368.342628 92.268325 
L 368.450882 92.970861 
L 368.775645 125.06929 
L 368.883899 122.684927 
L 368.992154 118.948714 
L 369.100408 118.991292 
L 369.208662 120.566675 
L 369.316916 113.25924 
L 369.425171 113.844686 
L 369.641679 108.34149 
L 369.749933 108.964192 
L 369.966442 96.015182 
L 370.074696 98.000378 
L 370.182951 96.409028 
L 370.291205 97.164786 
L 370.399459 100.783909 
L 370.507713 99.996218 
L 370.615968 95.333936 
L 370.724222 96.973185 
L 370.832476 93.992731 
L 371.048985 104.578666 
L 371.265493 98.245201 
L 371.482002 100.038796 
L 371.590256 99.825906 
L 371.915019 115.068801 
L 372.023273 105.871971 
L 372.131527 109.145148 
L 372.239782 104.807523 
L 372.348036 105.882615 
L 372.45629 103.333262 
L 372.672799 84.088042 
L 372.997561 78.520979 
L 373.430579 102.843616 
L 373.538833 88.686458 
L 373.755341 105.579248 
L 373.863596 104.876712 
L 373.97185 105.568603 
L 374.188358 103.556796 
L 374.296613 103.519541 
L 374.404867 101.694012 
L 374.72963 119.001937 
L 374.837884 115.063479 
L 375.054393 125.628126 
L 375.270901 122.189959 
L 375.379155 114.148054 
L 375.48741 120.476197 
L 375.595664 109.996707 
L 375.703918 111.029221 
L 375.812172 115.377491 
L 376.028681 114.419488 
L 376.245189 106.521284 
L 376.353444 109.31546 
L 376.461698 116.383395 
L 376.569952 113.97242 
L 376.678207 115.766015 
L 376.894715 103.429063 
L 377.002969 102.141081 
L 377.111224 99.325616 
L 377.327732 108.373424 
L 377.760749 94.636722 
L 377.977258 111.039866 
L 378.085512 116.101316 
L 378.193766 115.989549 
L 378.302021 111.513545 
L 378.410275 112.929261 
L 378.626783 109.129182 
L 378.735038 111.172922 
L 378.951546 116.617573 
L 379.276309 111.188889 
L 379.384563 115.345558 
L 379.492817 102.167692 
L 379.709326 114.776078 
L 379.81758 103.844197 
L 379.925835 104.403033 
L 380.142343 95.461669 
L 380.250597 97.38832 
L 380.358852 93.662752 
L 380.467106 93.742586 
L 380.57536 104.003865 
L 380.791869 80.979854 
L 381.008377 91.885124 
L 381.116631 87.76571 
L 381.224886 88.872736 
L 381.33314 87.095108 
L 381.441394 90.980343 
L 381.657903 76.354828 
L 381.766157 90.645042 
L 381.982666 75.939693 
L 382.09092 73.736286 
L 382.307428 90.661009 
L 382.415683 91.198555 
L 382.523937 83.843219 
L 382.632191 83.933697 
L 382.740445 96.073727 
L 382.8487 94.477055 
L 382.956954 97.542665 
L 383.173463 87.14833 
L 383.498225 71.415789 
L 383.60648 75.370213 
L 383.822988 70.904854 
L 384.039497 76.663518 
L 384.147751 90.001051 
L 384.364259 83.880475 
L 384.472514 85.088624 
L 384.797277 106.622407 
L 384.905531 97.058341 
L 385.122039 100.320874 
L 385.338548 103.998542 
L 385.663311 89.649783 
L 385.771565 89.133526 
L 385.879819 85.594236 
L 385.988073 92.321548 
L 386.204582 86.690618 
L 386.312836 82.720227 
L 386.637599 101.917546 
L 386.745853 106.75014 
L 386.962362 103.99322 
L 387.17887 113.083606 
L 387.287125 121.295822 
L 387.395379 120.36443 
L 387.503633 112.476871 
L 387.611887 116.984808 
L 387.720142 116.479195 
L 387.828396 115.09009 
L 387.93665 121.604512 
L 388.369667 100.336841 
L 388.586176 106.547895 
L 388.910939 100.267652 
L 389.019193 92.99215 
L 389.235701 110.715209 
L 389.343956 110.635376 
L 389.45221 102.806361 
L 390.101736 125.984716 
L 390.318244 121.210666 
L 390.534753 119.017904 
L 390.751261 111.534834 
L 390.96777 117.341398 
L 391.184278 110.837621 
L 391.292533 114.648345 
L 391.509041 102.391226 
L 391.617295 110.278785 
L 391.72555 106.563862 
L 391.942058 86.115816 
L 392.050312 90.229907 
L 392.158567 88.580013 
L 392.375075 69.361404 
L 392.699838 84.508499 
L 392.808092 90.123463 
L 393.024601 109.081281 
L 393.241109 92.11398 
L 393.457618 106.941741 
L 393.565872 102.904442 
L 393.674126 103.074247 
L 393.998889 65.463751 
L 394.107143 47.439098 
L 394.215398 85.067335 
L 394.215398 85.067335 
" style="fill:none;stroke:#0000ff;stroke-linecap:square;stroke-opacity:0.5;stroke-width:1.5;"/>
   </g>
   <g id="patch_3">
    <path d="M 53.328125 288.430125 
L 53.328125 22.318125 
" style="fill:none;stroke:#000000;stroke-linecap:square;stroke-linejoin:miter;stroke-width:0.8;"/>
   </g>
   <g id="patch_4">
    <path d="M 410.448125 288.430125 
L 410.448125 22.318125 
" style="fill:none;stroke:#000000;stroke-linecap:square;stroke-linejoin:miter;stroke-width:0.8;"/>
   </g>
   <g id="patch_5">
    <path d="M 53.328125 288.430125 
L 410.448125 288.430125 
" style="fill:none;stroke:#000000;stroke-linecap:square;stroke-linejoin:miter;stroke-width:0.8;"/>
   </g>
   <g id="patch_6">
    <path d="M 53.328125 22.318125 
L 410.448125 22.318125 
" style="fill:none;stroke:#000000;stroke-linecap:square;stroke-linejoin:miter;stroke-width:0.8;"/>
   </g>
   <g id="text_16">
    <!-- Assault - Atari -->
    <defs>
     <path d="M 44.28125 53.078125 
L 44.28125 44.578125 
Q 40.484375 46.53125 36.375 47.5 
Q 32.28125 48.484375 27.875 48.484375 
Q 21.1875 48.484375 17.84375 46.4375 
Q 14.5 44.390625 14.5 40.28125 
Q 14.5 37.15625 16.890625 35.375 
Q 19.28125 33.59375 26.515625 31.984375 
L 29.59375 31.296875 
Q 39.15625 29.25 43.1875 25.515625 
Q 47.21875 21.78125 47.21875 15.09375 
Q 47.21875 7.46875 41.1875 3.015625 
Q 35.15625 -1.421875 24.609375 -1.421875 
Q 20.21875 -1.421875 15.453125 -0.5625 
Q 10.6875 0.296875 5.421875 2 
L 5.421875 11.28125 
Q 10.40625 8.6875 15.234375 7.390625 
Q 20.0625 6.109375 24.8125 6.109375 
Q 31.15625 6.109375 34.5625 8.28125 
Q 37.984375 10.453125 37.984375 14.40625 
Q 37.984375 18.0625 35.515625 20.015625 
Q 33.0625 21.96875 24.703125 23.78125 
L 21.578125 24.515625 
Q 13.234375 26.265625 9.515625 29.90625 
Q 5.8125 33.546875 5.8125 39.890625 
Q 5.8125 47.609375 11.28125 51.796875 
Q 16.75 56 26.8125 56 
Q 31.78125 56 36.171875 55.265625 
Q 40.578125 54.546875 44.28125 53.078125 
z
" id="DejaVuSans-115"/>
     <path d="M 8.5 21.578125 
L 8.5 54.6875 
L 17.484375 54.6875 
L 17.484375 21.921875 
Q 17.484375 14.15625 20.5 10.265625 
Q 23.53125 6.390625 29.59375 6.390625 
Q 36.859375 6.390625 41.078125 11.03125 
Q 45.3125 15.671875 45.3125 23.6875 
L 45.3125 54.6875 
L 54.296875 54.6875 
L 54.296875 0 
L 45.3125 0 
L 45.3125 8.40625 
Q 42.046875 3.421875 37.71875 1 
Q 33.40625 -1.421875 27.6875 -1.421875 
Q 18.265625 -1.421875 13.375 4.4375 
Q 8.5 10.296875 8.5 21.578125 
z
M 31.109375 56 
z
" id="DejaVuSans-117"/>
     <path d="M 9.421875 75.984375 
L 18.40625 75.984375 
L 18.40625 0 
L 9.421875 0 
z
" id="DejaVuSans-108"/>
     <path d="M 9.421875 54.6875 
L 18.40625 54.6875 
L 18.40625 0 
L 9.421875 0 
z
M 9.421875 75.984375 
L 18.40625 75.984375 
L 18.40625 64.59375 
L 9.421875 64.59375 
z
" id="DejaVuSans-105"/>
    </defs>
    <g transform="translate(189.789688 16.318125)scale(0.12 -0.12)">
     <use xlink:href="#DejaVuSans-65"/>
     <use x="68.408203" xlink:href="#DejaVuSans-115"/>
     <use x="120.507812" xlink:href="#DejaVuSans-115"/>
     <use x="172.607422" xlink:href="#DejaVuSans-97"/>
     <use x="233.886719" xlink:href="#DejaVuSans-117"/>
     <use x="297.265625" xlink:href="#DejaVuSans-108"/>
     <use x="325.048828" xlink:href="#DejaVuSans-116"/>
     <use x="364.257812" xlink:href="#DejaVuSans-32"/>
     <use x="396.044922" xlink:href="#DejaVuSans-45"/>
     <use x="432.128906" xlink:href="#DejaVuSans-32"/>
     <use x="463.916016" xlink:href="#DejaVuSans-65"/>
     <use x="532.308594" xlink:href="#DejaVuSans-116"/>
     <use x="571.517578" xlink:href="#DejaVuSans-97"/>
     <use x="632.796875" xlink:href="#DejaVuSans-114"/>
     <use x="673.910156" xlink:href="#DejaVuSans-105"/>
    </g>
   </g>
   <g id="legend_1">
    <g id="patch_7">
     <path d="M 295.085625 44.99625 
L 403.448125 44.99625 
Q 405.448125 44.99625 405.448125 42.99625 
L 405.448125 29.318125 
Q 405.448125 27.318125 403.448125 27.318125 
L 295.085625 27.318125 
Q 293.085625 27.318125 293.085625 29.318125 
L 293.085625 42.99625 
Q 293.085625 44.99625 295.085625 44.99625 
z
" style="fill:#ffffff;opacity:0.8;stroke:#cccccc;stroke-linejoin:miter;"/>
    </g>
    <g id="line2d_15">
     <path d="M 297.085625 35.416562 
L 317.085625 35.416562 
" style="fill:none;stroke:#0000ff;stroke-linecap:square;stroke-opacity:0.5;stroke-width:1.5;"/>
    </g>
    <g id="line2d_16"/>
    <g id="text_17">
     <!-- Flushed Replay -->
     <defs>
      <path d="M 9.8125 72.90625 
L 51.703125 72.90625 
L 51.703125 64.59375 
L 19.671875 64.59375 
L 19.671875 43.109375 
L 48.578125 43.109375 
L 48.578125 34.8125 
L 19.671875 34.8125 
L 19.671875 0 
L 9.8125 0 
z
" id="DejaVuSans-70"/>
      <path d="M 54.890625 33.015625 
L 54.890625 0 
L 45.90625 0 
L 45.90625 32.71875 
Q 45.90625 40.484375 42.875 44.328125 
Q 39.84375 48.1875 33.796875 48.1875 
Q 26.515625 48.1875 22.3125 43.546875 
Q 18.109375 38.921875 18.109375 30.90625 
L 18.109375 0 
L 9.078125 0 
L 9.078125 75.984375 
L 18.109375 75.984375 
L 18.109375 46.1875 
Q 21.34375 51.125 25.703125 53.5625 
Q 30.078125 56 35.796875 56 
Q 45.21875 56 50.046875 50.171875 
Q 54.890625 44.34375 54.890625 33.015625 
z
" id="DejaVuSans-104"/>
      <path d="M 32.171875 -5.078125 
Q 28.375 -14.84375 24.75 -17.8125 
Q 21.140625 -20.796875 15.09375 -20.796875 
L 7.90625 -20.796875 
L 7.90625 -13.28125 
L 13.1875 -13.28125 
Q 16.890625 -13.28125 18.9375 -11.515625 
Q 21 -9.765625 23.484375 -3.21875 
L 25.09375 0.875 
L 2.984375 54.6875 
L 12.5 54.6875 
L 29.59375 11.921875 
L 46.6875 54.6875 
L 56.203125 54.6875 
z
" id="DejaVuSans-121"/>
     </defs>
     <g transform="translate(325.085625 38.916562)scale(0.1 -0.1)">
      <use xlink:href="#DejaVuSans-70"/>
      <use x="57.519531" xlink:href="#DejaVuSans-108"/>
      <use x="85.302734" xlink:href="#DejaVuSans-117"/>
      <use x="148.681641" xlink:href="#DejaVuSans-115"/>
      <use x="200.78125" xlink:href="#DejaVuSans-104"/>
      <use x="264.160156" xlink:href="#DejaVuSans-101"/>
      <use x="325.683594" xlink:href="#DejaVuSans-100"/>
      <use x="389.160156" xlink:href="#DejaVuSans-32"/>
      <use x="420.947266" xlink:href="#DejaVuSans-82"/>
      <use x="490.367188" xlink:href="#DejaVuSans-101"/>
      <use x="551.890625" xlink:href="#DejaVuSans-112"/>
      <use x="615.367188" xlink:href="#DejaVuSans-108"/>
      <use x="643.150391" xlink:href="#DejaVuSans-97"/>
      <use x="704.429688" xlink:href="#DejaVuSans-121"/>
     </g>
    </g>
   </g>
  </g>
 </g>
 <defs>
  <clipPath id="p7f01ed3a9d">
   <rect height="266.112" width="357.12" x="53.328125" y="22.318125"/>
  </clipPath>
 </defs>
</svg>
