<?xml version="1.0" encoding="utf-8" standalone="no"?>
<!DOCTYPE svg PUBLIC "-//W3C//DTD SVG 1.1//EN"
  "http://www.w3.org/Graphics/SVG/1.1/DTD/svg11.dtd">
<!-- Created with matplotlib (https://matplotlib.org/) -->
<svg height="325.986375pt" version="1.1" viewBox="0 0 421.148125 325.986375" width="421.148125pt" xmlns="http://www.w3.org/2000/svg" xmlns:xlink="http://www.w3.org/1999/xlink">
 <defs>
  <style type="text/css">
*{stroke-linecap:butt;stroke-linejoin:round;}
  </style>
 </defs>
 <g id="figure_1">
  <g id="patch_1">
   <path d="M 0 325.986375 
L 421.148125 325.986375 
L 421.148125 0 
L 0 0 
z
" style="fill:#ffffff;"/>
  </g>
  <g id="axes_1">
   <g id="patch_2">
    <path d="M 53.328125 288.430125 
L 410.448125 288.430125 
L 410.448125 22.318125 
L 53.328125 22.318125 
z
" style="fill:#ffffff;"/>
   </g>
   <g id="matplotlib.axis_1">
    <g id="xtick_1">
     <g id="line2d_1">
      <defs>
       <path d="M 0 0 
L 0 3.5 
" id="m85348aa2e0" style="stroke:#000000;stroke-width:0.8;"/>
      </defs>
      <g>
       <use style="stroke:#000000;stroke-width:0.8;" x="69.560852" xlink:href="#m85348aa2e0" y="288.430125"/>
      </g>
     </g>
     <g id="text_1">
      <!-- 0 -->
      <defs>
       <path d="M 31.78125 66.40625 
Q 24.171875 66.40625 20.328125 58.90625 
Q 16.5 51.421875 16.5 36.375 
Q 16.5 21.390625 20.328125 13.890625 
Q 24.171875 6.390625 31.78125 6.390625 
Q 39.453125 6.390625 43.28125 13.890625 
Q 47.125 21.390625 47.125 36.375 
Q 47.125 51.421875 43.28125 58.90625 
Q 39.453125 66.40625 31.78125 66.40625 
z
M 31.78125 74.21875 
Q 44.046875 74.21875 50.515625 64.515625 
Q 56.984375 54.828125 56.984375 36.375 
Q 56.984375 17.96875 50.515625 8.265625 
Q 44.046875 -1.421875 31.78125 -1.421875 
Q 19.53125 -1.421875 13.0625 8.265625 
Q 6.59375 17.96875 6.59375 36.375 
Q 6.59375 54.828125 13.0625 64.515625 
Q 19.53125 74.21875 31.78125 74.21875 
z
" id="DejaVuSans-48"/>
      </defs>
      <g transform="translate(66.379602 303.028562)scale(0.1 -0.1)">
       <use xlink:href="#DejaVuSans-48"/>
      </g>
     </g>
    </g>
    <g id="xtick_2">
     <g id="line2d_2">
      <g>
       <use style="stroke:#000000;stroke-width:0.8;" x="123.687986" xlink:href="#m85348aa2e0" y="288.430125"/>
      </g>
     </g>
     <g id="text_2">
      <!-- 500 -->
      <defs>
       <path d="M 10.796875 72.90625 
L 49.515625 72.90625 
L 49.515625 64.59375 
L 19.828125 64.59375 
L 19.828125 46.734375 
Q 21.96875 47.46875 24.109375 47.828125 
Q 26.265625 48.1875 28.421875 48.1875 
Q 40.625 48.1875 47.75 41.5 
Q 54.890625 34.8125 54.890625 23.390625 
Q 54.890625 11.625 47.5625 5.09375 
Q 40.234375 -1.421875 26.90625 -1.421875 
Q 22.3125 -1.421875 17.546875 -0.640625 
Q 12.796875 0.140625 7.71875 1.703125 
L 7.71875 11.625 
Q 12.109375 9.234375 16.796875 8.0625 
Q 21.484375 6.890625 26.703125 6.890625 
Q 35.15625 6.890625 40.078125 11.328125 
Q 45.015625 15.765625 45.015625 23.390625 
Q 45.015625 31 40.078125 35.4375 
Q 35.15625 39.890625 26.703125 39.890625 
Q 22.75 39.890625 18.8125 39.015625 
Q 14.890625 38.140625 10.796875 36.28125 
z
" id="DejaVuSans-53"/>
      </defs>
      <g transform="translate(114.144236 303.028562)scale(0.1 -0.1)">
       <use xlink:href="#DejaVuSans-53"/>
       <use x="63.623047" xlink:href="#DejaVuSans-48"/>
       <use x="127.246094" xlink:href="#DejaVuSans-48"/>
      </g>
     </g>
    </g>
    <g id="xtick_3">
     <g id="line2d_3">
      <g>
       <use style="stroke:#000000;stroke-width:0.8;" x="177.815119" xlink:href="#m85348aa2e0" y="288.430125"/>
      </g>
     </g>
     <g id="text_3">
      <!-- 1000 -->
      <defs>
       <path d="M 12.40625 8.296875 
L 28.515625 8.296875 
L 28.515625 63.921875 
L 10.984375 60.40625 
L 10.984375 69.390625 
L 28.421875 72.90625 
L 38.28125 72.90625 
L 38.28125 8.296875 
L 54.390625 8.296875 
L 54.390625 0 
L 12.40625 0 
z
" id="DejaVuSans-49"/>
      </defs>
      <g transform="translate(165.090119 303.028562)scale(0.1 -0.1)">
       <use xlink:href="#DejaVuSans-49"/>
       <use x="63.623047" xlink:href="#DejaVuSans-48"/>
       <use x="127.246094" xlink:href="#DejaVuSans-48"/>
       <use x="190.869141" xlink:href="#DejaVuSans-48"/>
      </g>
     </g>
    </g>
    <g id="xtick_4">
     <g id="line2d_4">
      <g>
       <use style="stroke:#000000;stroke-width:0.8;" x="231.942252" xlink:href="#m85348aa2e0" y="288.430125"/>
      </g>
     </g>
     <g id="text_4">
      <!-- 1500 -->
      <g transform="translate(219.217252 303.028562)scale(0.1 -0.1)">
       <use xlink:href="#DejaVuSans-49"/>
       <use x="63.623047" xlink:href="#DejaVuSans-53"/>
       <use x="127.246094" xlink:href="#DejaVuSans-48"/>
       <use x="190.869141" xlink:href="#DejaVuSans-48"/>
      </g>
     </g>
    </g>
    <g id="xtick_5">
     <g id="line2d_5">
      <g>
       <use style="stroke:#000000;stroke-width:0.8;" x="286.069385" xlink:href="#m85348aa2e0" y="288.430125"/>
      </g>
     </g>
     <g id="text_5">
      <!-- 2000 -->
      <defs>
       <path d="M 19.1875 8.296875 
L 53.609375 8.296875 
L 53.609375 0 
L 7.328125 0 
L 7.328125 8.296875 
Q 12.9375 14.109375 22.625 23.890625 
Q 32.328125 33.6875 34.8125 36.53125 
Q 39.546875 41.84375 41.421875 45.53125 
Q 43.3125 49.21875 43.3125 52.78125 
Q 43.3125 58.59375 39.234375 62.25 
Q 35.15625 65.921875 28.609375 65.921875 
Q 23.96875 65.921875 18.8125 64.3125 
Q 13.671875 62.703125 7.8125 59.421875 
L 7.8125 69.390625 
Q 13.765625 71.78125 18.9375 73 
Q 24.125 74.21875 28.421875 74.21875 
Q 39.75 74.21875 46.484375 68.546875 
Q 53.21875 62.890625 53.21875 53.421875 
Q 53.21875 48.921875 51.53125 44.890625 
Q 49.859375 40.875 45.40625 35.40625 
Q 44.1875 33.984375 37.640625 27.21875 
Q 31.109375 20.453125 19.1875 8.296875 
z
" id="DejaVuSans-50"/>
      </defs>
      <g transform="translate(273.344385 303.028562)scale(0.1 -0.1)">
       <use xlink:href="#DejaVuSans-50"/>
       <use x="63.623047" xlink:href="#DejaVuSans-48"/>
       <use x="127.246094" xlink:href="#DejaVuSans-48"/>
       <use x="190.869141" xlink:href="#DejaVuSans-48"/>
      </g>
     </g>
    </g>
    <g id="xtick_6">
     <g id="line2d_6">
      <g>
       <use style="stroke:#000000;stroke-width:0.8;" x="340.196519" xlink:href="#m85348aa2e0" y="288.430125"/>
      </g>
     </g>
     <g id="text_6">
      <!-- 2500 -->
      <g transform="translate(327.471519 303.028562)scale(0.1 -0.1)">
       <use xlink:href="#DejaVuSans-50"/>
       <use x="63.623047" xlink:href="#DejaVuSans-53"/>
       <use x="127.246094" xlink:href="#DejaVuSans-48"/>
       <use x="190.869141" xlink:href="#DejaVuSans-48"/>
      </g>
     </g>
    </g>
    <g id="xtick_7">
     <g id="line2d_7">
      <g>
       <use style="stroke:#000000;stroke-width:0.8;" x="394.323652" xlink:href="#m85348aa2e0" y="288.430125"/>
      </g>
     </g>
     <g id="text_7">
      <!-- 3000 -->
      <defs>
       <path d="M 40.578125 39.3125 
Q 47.65625 37.796875 51.625 33 
Q 55.609375 28.21875 55.609375 21.1875 
Q 55.609375 10.40625 48.1875 4.484375 
Q 40.765625 -1.421875 27.09375 -1.421875 
Q 22.515625 -1.421875 17.65625 -0.515625 
Q 12.796875 0.390625 7.625 2.203125 
L 7.625 11.71875 
Q 11.71875 9.328125 16.59375 8.109375 
Q 21.484375 6.890625 26.8125 6.890625 
Q 36.078125 6.890625 40.9375 10.546875 
Q 45.796875 14.203125 45.796875 21.1875 
Q 45.796875 27.640625 41.28125 31.265625 
Q 36.765625 34.90625 28.71875 34.90625 
L 20.21875 34.90625 
L 20.21875 43.015625 
L 29.109375 43.015625 
Q 36.375 43.015625 40.234375 45.921875 
Q 44.09375 48.828125 44.09375 54.296875 
Q 44.09375 59.90625 40.109375 62.90625 
Q 36.140625 65.921875 28.71875 65.921875 
Q 24.65625 65.921875 20.015625 65.03125 
Q 15.375 64.15625 9.8125 62.3125 
L 9.8125 71.09375 
Q 15.4375 72.65625 20.34375 73.4375 
Q 25.25 74.21875 29.59375 74.21875 
Q 40.828125 74.21875 47.359375 69.109375 
Q 53.90625 64.015625 53.90625 55.328125 
Q 53.90625 49.265625 50.4375 45.09375 
Q 46.96875 40.921875 40.578125 39.3125 
z
" id="DejaVuSans-51"/>
      </defs>
      <g transform="translate(381.598652 303.028562)scale(0.1 -0.1)">
       <use xlink:href="#DejaVuSans-51"/>
       <use x="63.623047" xlink:href="#DejaVuSans-48"/>
       <use x="127.246094" xlink:href="#DejaVuSans-48"/>
       <use x="190.869141" xlink:href="#DejaVuSans-48"/>
      </g>
     </g>
    </g>
    <g id="text_8">
     <!-- Step -->
     <defs>
      <path d="M 53.515625 70.515625 
L 53.515625 60.890625 
Q 47.90625 63.578125 42.921875 64.890625 
Q 37.9375 66.21875 33.296875 66.21875 
Q 25.25 66.21875 20.875 63.09375 
Q 16.5 59.96875 16.5 54.203125 
Q 16.5 49.359375 19.40625 46.890625 
Q 22.3125 44.4375 30.421875 42.921875 
L 36.375 41.703125 
Q 47.40625 39.59375 52.65625 34.296875 
Q 57.90625 29 57.90625 20.125 
Q 57.90625 9.515625 50.796875 4.046875 
Q 43.703125 -1.421875 29.984375 -1.421875 
Q 24.8125 -1.421875 18.96875 -0.25 
Q 13.140625 0.921875 6.890625 3.21875 
L 6.890625 13.375 
Q 12.890625 10.015625 18.65625 8.296875 
Q 24.421875 6.59375 29.984375 6.59375 
Q 38.421875 6.59375 43.015625 9.90625 
Q 47.609375 13.234375 47.609375 19.390625 
Q 47.609375 24.75 44.3125 27.78125 
Q 41.015625 30.8125 33.5 32.328125 
L 27.484375 33.5 
Q 16.453125 35.6875 11.515625 40.375 
Q 6.59375 45.0625 6.59375 53.421875 
Q 6.59375 63.09375 13.40625 68.65625 
Q 20.21875 74.21875 32.171875 74.21875 
Q 37.3125 74.21875 42.625 73.28125 
Q 47.953125 72.359375 53.515625 70.515625 
z
" id="DejaVuSans-83"/>
      <path d="M 18.3125 70.21875 
L 18.3125 54.6875 
L 36.8125 54.6875 
L 36.8125 47.703125 
L 18.3125 47.703125 
L 18.3125 18.015625 
Q 18.3125 11.328125 20.140625 9.421875 
Q 21.96875 7.515625 27.59375 7.515625 
L 36.8125 7.515625 
L 36.8125 0 
L 27.59375 0 
Q 17.1875 0 13.234375 3.875 
Q 9.28125 7.765625 9.28125 18.015625 
L 9.28125 47.703125 
L 2.6875 47.703125 
L 2.6875 54.6875 
L 9.28125 54.6875 
L 9.28125 70.21875 
z
" id="DejaVuSans-116"/>
      <path d="M 56.203125 29.59375 
L 56.203125 25.203125 
L 14.890625 25.203125 
Q 15.484375 15.921875 20.484375 11.0625 
Q 25.484375 6.203125 34.421875 6.203125 
Q 39.59375 6.203125 44.453125 7.46875 
Q 49.3125 8.734375 54.109375 11.28125 
L 54.109375 2.78125 
Q 49.265625 0.734375 44.1875 -0.34375 
Q 39.109375 -1.421875 33.890625 -1.421875 
Q 20.796875 -1.421875 13.15625 6.1875 
Q 5.515625 13.8125 5.515625 26.8125 
Q 5.515625 40.234375 12.765625 48.109375 
Q 20.015625 56 32.328125 56 
Q 43.359375 56 49.78125 48.890625 
Q 56.203125 41.796875 56.203125 29.59375 
z
M 47.21875 32.234375 
Q 47.125 39.59375 43.09375 43.984375 
Q 39.0625 48.390625 32.421875 48.390625 
Q 24.90625 48.390625 20.390625 44.140625 
Q 15.875 39.890625 15.1875 32.171875 
z
" id="DejaVuSans-101"/>
      <path d="M 18.109375 8.203125 
L 18.109375 -20.796875 
L 9.078125 -20.796875 
L 9.078125 54.6875 
L 18.109375 54.6875 
L 18.109375 46.390625 
Q 20.953125 51.265625 25.265625 53.625 
Q 29.59375 56 35.59375 56 
Q 45.5625 56 51.78125 48.09375 
Q 58.015625 40.1875 58.015625 27.296875 
Q 58.015625 14.40625 51.78125 6.484375 
Q 45.5625 -1.421875 35.59375 -1.421875 
Q 29.59375 -1.421875 25.265625 0.953125 
Q 20.953125 3.328125 18.109375 8.203125 
z
M 48.6875 27.296875 
Q 48.6875 37.203125 44.609375 42.84375 
Q 40.53125 48.484375 33.40625 48.484375 
Q 26.265625 48.484375 22.1875 42.84375 
Q 18.109375 37.203125 18.109375 27.296875 
Q 18.109375 17.390625 22.1875 11.75 
Q 26.265625 6.109375 33.40625 6.109375 
Q 40.53125 6.109375 44.609375 11.75 
Q 48.6875 17.390625 48.6875 27.296875 
z
" id="DejaVuSans-112"/>
     </defs>
     <g transform="translate(220.502969 316.706687)scale(0.1 -0.1)">
      <use xlink:href="#DejaVuSans-83"/>
      <use x="63.476562" xlink:href="#DejaVuSans-116"/>
      <use x="102.685547" xlink:href="#DejaVuSans-101"/>
      <use x="164.208984" xlink:href="#DejaVuSans-112"/>
     </g>
    </g>
   </g>
   <g id="matplotlib.axis_2">
    <g id="ytick_1">
     <g id="line2d_8">
      <defs>
       <path d="M 0 0 
L -3.5 0 
" id="ma6daeb454d" style="stroke:#000000;stroke-width:0.8;"/>
      </defs>
      <g>
       <use style="stroke:#000000;stroke-width:0.8;" x="53.328125" xlink:href="#ma6daeb454d" y="288.430125"/>
      </g>
     </g>
     <g id="text_9">
      <!-- 0 -->
      <g transform="translate(39.965625 292.229344)scale(0.1 -0.1)">
       <use xlink:href="#DejaVuSans-48"/>
      </g>
     </g>
    </g>
    <g id="ytick_2">
     <g id="line2d_9">
      <g>
       <use style="stroke:#000000;stroke-width:0.8;" x="53.328125" xlink:href="#ma6daeb454d" y="235.207725"/>
      </g>
     </g>
     <g id="text_10">
      <!-- 1000 -->
      <g transform="translate(20.878125 239.006944)scale(0.1 -0.1)">
       <use xlink:href="#DejaVuSans-49"/>
       <use x="63.623047" xlink:href="#DejaVuSans-48"/>
       <use x="127.246094" xlink:href="#DejaVuSans-48"/>
       <use x="190.869141" xlink:href="#DejaVuSans-48"/>
      </g>
     </g>
    </g>
    <g id="ytick_3">
     <g id="line2d_10">
      <g>
       <use style="stroke:#000000;stroke-width:0.8;" x="53.328125" xlink:href="#ma6daeb454d" y="181.985325"/>
      </g>
     </g>
     <g id="text_11">
      <!-- 2000 -->
      <g transform="translate(20.878125 185.784544)scale(0.1 -0.1)">
       <use xlink:href="#DejaVuSans-50"/>
       <use x="63.623047" xlink:href="#DejaVuSans-48"/>
       <use x="127.246094" xlink:href="#DejaVuSans-48"/>
       <use x="190.869141" xlink:href="#DejaVuSans-48"/>
      </g>
     </g>
    </g>
    <g id="ytick_4">
     <g id="line2d_11">
      <g>
       <use style="stroke:#000000;stroke-width:0.8;" x="53.328125" xlink:href="#ma6daeb454d" y="128.762925"/>
      </g>
     </g>
     <g id="text_12">
      <!-- 3000 -->
      <g transform="translate(20.878125 132.562144)scale(0.1 -0.1)">
       <use xlink:href="#DejaVuSans-51"/>
       <use x="63.623047" xlink:href="#DejaVuSans-48"/>
       <use x="127.246094" xlink:href="#DejaVuSans-48"/>
       <use x="190.869141" xlink:href="#DejaVuSans-48"/>
      </g>
     </g>
    </g>
    <g id="ytick_5">
     <g id="line2d_12">
      <g>
       <use style="stroke:#000000;stroke-width:0.8;" x="53.328125" xlink:href="#ma6daeb454d" y="75.540525"/>
      </g>
     </g>
     <g id="text_13">
      <!-- 4000 -->
      <defs>
       <path d="M 37.796875 64.3125 
L 12.890625 25.390625 
L 37.796875 25.390625 
z
M 35.203125 72.90625 
L 47.609375 72.90625 
L 47.609375 25.390625 
L 58.015625 25.390625 
L 58.015625 17.1875 
L 47.609375 17.1875 
L 47.609375 0 
L 37.796875 0 
L 37.796875 17.1875 
L 4.890625 17.1875 
L 4.890625 26.703125 
z
" id="DejaVuSans-52"/>
      </defs>
      <g transform="translate(20.878125 79.339744)scale(0.1 -0.1)">
       <use xlink:href="#DejaVuSans-52"/>
       <use x="63.623047" xlink:href="#DejaVuSans-48"/>
       <use x="127.246094" xlink:href="#DejaVuSans-48"/>
       <use x="190.869141" xlink:href="#DejaVuSans-48"/>
      </g>
     </g>
    </g>
    <g id="ytick_6">
     <g id="line2d_13">
      <g>
       <use style="stroke:#000000;stroke-width:0.8;" x="53.328125" xlink:href="#ma6daeb454d" y="22.318125"/>
      </g>
     </g>
     <g id="text_14">
      <!-- 5000 -->
      <g transform="translate(20.878125 26.117344)scale(0.1 -0.1)">
       <use xlink:href="#DejaVuSans-53"/>
       <use x="63.623047" xlink:href="#DejaVuSans-48"/>
       <use x="127.246094" xlink:href="#DejaVuSans-48"/>
       <use x="190.869141" xlink:href="#DejaVuSans-48"/>
      </g>
     </g>
    </g>
    <g id="text_15">
     <!-- Reward - Average of 1 -->
     <defs>
      <path d="M 44.390625 34.1875 
Q 47.5625 33.109375 50.5625 29.59375 
Q 53.5625 26.078125 56.59375 19.921875 
L 66.609375 0 
L 56 0 
L 46.6875 18.703125 
Q 43.0625 26.03125 39.671875 28.421875 
Q 36.28125 30.8125 30.421875 30.8125 
L 19.671875 30.8125 
L 19.671875 0 
L 9.8125 0 
L 9.8125 72.90625 
L 32.078125 72.90625 
Q 44.578125 72.90625 50.734375 67.671875 
Q 56.890625 62.453125 56.890625 51.90625 
Q 56.890625 45.015625 53.6875 40.46875 
Q 50.484375 35.9375 44.390625 34.1875 
z
M 19.671875 64.796875 
L 19.671875 38.921875 
L 32.078125 38.921875 
Q 39.203125 38.921875 42.84375 42.21875 
Q 46.484375 45.515625 46.484375 51.90625 
Q 46.484375 58.296875 42.84375 61.546875 
Q 39.203125 64.796875 32.078125 64.796875 
z
" id="DejaVuSans-82"/>
      <path d="M 4.203125 54.6875 
L 13.1875 54.6875 
L 24.421875 12.015625 
L 35.59375 54.6875 
L 46.1875 54.6875 
L 57.421875 12.015625 
L 68.609375 54.6875 
L 77.59375 54.6875 
L 63.28125 0 
L 52.6875 0 
L 40.921875 44.828125 
L 29.109375 0 
L 18.5 0 
z
" id="DejaVuSans-119"/>
      <path d="M 34.28125 27.484375 
Q 23.390625 27.484375 19.1875 25 
Q 14.984375 22.515625 14.984375 16.5 
Q 14.984375 11.71875 18.140625 8.90625 
Q 21.296875 6.109375 26.703125 6.109375 
Q 34.1875 6.109375 38.703125 11.40625 
Q 43.21875 16.703125 43.21875 25.484375 
L 43.21875 27.484375 
z
M 52.203125 31.203125 
L 52.203125 0 
L 43.21875 0 
L 43.21875 8.296875 
Q 40.140625 3.328125 35.546875 0.953125 
Q 30.953125 -1.421875 24.3125 -1.421875 
Q 15.921875 -1.421875 10.953125 3.296875 
Q 6 8.015625 6 15.921875 
Q 6 25.140625 12.171875 29.828125 
Q 18.359375 34.515625 30.609375 34.515625 
L 43.21875 34.515625 
L 43.21875 35.40625 
Q 43.21875 41.609375 39.140625 45 
Q 35.0625 48.390625 27.6875 48.390625 
Q 23 48.390625 18.546875 47.265625 
Q 14.109375 46.140625 10.015625 43.890625 
L 10.015625 52.203125 
Q 14.9375 54.109375 19.578125 55.046875 
Q 24.21875 56 28.609375 56 
Q 40.484375 56 46.34375 49.84375 
Q 52.203125 43.703125 52.203125 31.203125 
z
" id="DejaVuSans-97"/>
      <path d="M 41.109375 46.296875 
Q 39.59375 47.171875 37.8125 47.578125 
Q 36.03125 48 33.890625 48 
Q 26.265625 48 22.1875 43.046875 
Q 18.109375 38.09375 18.109375 28.8125 
L 18.109375 0 
L 9.078125 0 
L 9.078125 54.6875 
L 18.109375 54.6875 
L 18.109375 46.1875 
Q 20.953125 51.171875 25.484375 53.578125 
Q 30.03125 56 36.53125 56 
Q 37.453125 56 38.578125 55.875 
Q 39.703125 55.765625 41.0625 55.515625 
z
" id="DejaVuSans-114"/>
      <path d="M 45.40625 46.390625 
L 45.40625 75.984375 
L 54.390625 75.984375 
L 54.390625 0 
L 45.40625 0 
L 45.40625 8.203125 
Q 42.578125 3.328125 38.25 0.953125 
Q 33.9375 -1.421875 27.875 -1.421875 
Q 17.96875 -1.421875 11.734375 6.484375 
Q 5.515625 14.40625 5.515625 27.296875 
Q 5.515625 40.1875 11.734375 48.09375 
Q 17.96875 56 27.875 56 
Q 33.9375 56 38.25 53.625 
Q 42.578125 51.265625 45.40625 46.390625 
z
M 14.796875 27.296875 
Q 14.796875 17.390625 18.875 11.75 
Q 22.953125 6.109375 30.078125 6.109375 
Q 37.203125 6.109375 41.296875 11.75 
Q 45.40625 17.390625 45.40625 27.296875 
Q 45.40625 37.203125 41.296875 42.84375 
Q 37.203125 48.484375 30.078125 48.484375 
Q 22.953125 48.484375 18.875 42.84375 
Q 14.796875 37.203125 14.796875 27.296875 
z
" id="DejaVuSans-100"/>
      <path id="DejaVuSans-32"/>
      <path d="M 4.890625 31.390625 
L 31.203125 31.390625 
L 31.203125 23.390625 
L 4.890625 23.390625 
z
" id="DejaVuSans-45"/>
      <path d="M 34.1875 63.1875 
L 20.796875 26.90625 
L 47.609375 26.90625 
z
M 28.609375 72.90625 
L 39.796875 72.90625 
L 67.578125 0 
L 57.328125 0 
L 50.6875 18.703125 
L 17.828125 18.703125 
L 11.1875 0 
L 0.78125 0 
z
" id="DejaVuSans-65"/>
      <path d="M 2.984375 54.6875 
L 12.5 54.6875 
L 29.59375 8.796875 
L 46.6875 54.6875 
L 56.203125 54.6875 
L 35.6875 0 
L 23.484375 0 
z
" id="DejaVuSans-118"/>
      <path d="M 45.40625 27.984375 
Q 45.40625 37.75 41.375 43.109375 
Q 37.359375 48.484375 30.078125 48.484375 
Q 22.859375 48.484375 18.828125 43.109375 
Q 14.796875 37.75 14.796875 27.984375 
Q 14.796875 18.265625 18.828125 12.890625 
Q 22.859375 7.515625 30.078125 7.515625 
Q 37.359375 7.515625 41.375 12.890625 
Q 45.40625 18.265625 45.40625 27.984375 
z
M 54.390625 6.78125 
Q 54.390625 -7.171875 48.1875 -13.984375 
Q 42 -20.796875 29.203125 -20.796875 
Q 24.46875 -20.796875 20.265625 -20.09375 
Q 16.0625 -19.390625 12.109375 -17.921875 
L 12.109375 -9.1875 
Q 16.0625 -11.328125 19.921875 -12.34375 
Q 23.78125 -13.375 27.78125 -13.375 
Q 36.625 -13.375 41.015625 -8.765625 
Q 45.40625 -4.15625 45.40625 5.171875 
L 45.40625 9.625 
Q 42.625 4.78125 38.28125 2.390625 
Q 33.9375 0 27.875 0 
Q 17.828125 0 11.671875 7.65625 
Q 5.515625 15.328125 5.515625 27.984375 
Q 5.515625 40.671875 11.671875 48.328125 
Q 17.828125 56 27.875 56 
Q 33.9375 56 38.28125 53.609375 
Q 42.625 51.21875 45.40625 46.390625 
L 45.40625 54.6875 
L 54.390625 54.6875 
z
" id="DejaVuSans-103"/>
      <path d="M 30.609375 48.390625 
Q 23.390625 48.390625 19.1875 42.75 
Q 14.984375 37.109375 14.984375 27.296875 
Q 14.984375 17.484375 19.15625 11.84375 
Q 23.34375 6.203125 30.609375 6.203125 
Q 37.796875 6.203125 41.984375 11.859375 
Q 46.1875 17.53125 46.1875 27.296875 
Q 46.1875 37.015625 41.984375 42.703125 
Q 37.796875 48.390625 30.609375 48.390625 
z
M 30.609375 56 
Q 42.328125 56 49.015625 48.375 
Q 55.71875 40.765625 55.71875 27.296875 
Q 55.71875 13.875 49.015625 6.21875 
Q 42.328125 -1.421875 30.609375 -1.421875 
Q 18.84375 -1.421875 12.171875 6.21875 
Q 5.515625 13.875 5.515625 27.296875 
Q 5.515625 40.765625 12.171875 48.375 
Q 18.84375 56 30.609375 56 
z
" id="DejaVuSans-111"/>
      <path d="M 37.109375 75.984375 
L 37.109375 68.5 
L 28.515625 68.5 
Q 23.6875 68.5 21.796875 66.546875 
Q 19.921875 64.59375 19.921875 59.515625 
L 19.921875 54.6875 
L 34.71875 54.6875 
L 34.71875 47.703125 
L 19.921875 47.703125 
L 19.921875 0 
L 10.890625 0 
L 10.890625 47.703125 
L 2.296875 47.703125 
L 2.296875 54.6875 
L 10.890625 54.6875 
L 10.890625 58.5 
Q 10.890625 67.625 15.140625 71.796875 
Q 19.390625 75.984375 28.609375 75.984375 
z
" id="DejaVuSans-102"/>
     </defs>
     <g transform="translate(14.798438 211.287406)rotate(-90)scale(0.1 -0.1)">
      <use xlink:href="#DejaVuSans-82"/>
      <use x="69.419922" xlink:href="#DejaVuSans-101"/>
      <use x="130.943359" xlink:href="#DejaVuSans-119"/>
      <use x="212.730469" xlink:href="#DejaVuSans-97"/>
      <use x="274.009766" xlink:href="#DejaVuSans-114"/>
      <use x="315.107422" xlink:href="#DejaVuSans-100"/>
      <use x="378.583984" xlink:href="#DejaVuSans-32"/>
      <use x="410.371094" xlink:href="#DejaVuSans-45"/>
      <use x="446.455078" xlink:href="#DejaVuSans-32"/>
      <use x="478.242188" xlink:href="#DejaVuSans-65"/>
      <use x="546.572266" xlink:href="#DejaVuSans-118"/>
      <use x="605.751953" xlink:href="#DejaVuSans-101"/>
      <use x="667.275391" xlink:href="#DejaVuSans-114"/>
      <use x="708.388672" xlink:href="#DejaVuSans-97"/>
      <use x="769.667969" xlink:href="#DejaVuSans-103"/>
      <use x="833.144531" xlink:href="#DejaVuSans-101"/>
      <use x="894.667969" xlink:href="#DejaVuSans-32"/>
      <use x="926.455078" xlink:href="#DejaVuSans-111"/>
      <use x="987.636719" xlink:href="#DejaVuSans-102"/>
      <use x="1022.841797" xlink:href="#DejaVuSans-32"/>
      <use x="1054.628906" xlink:href="#DejaVuSans-49"/>
     </g>
    </g>
   </g>
   <g id="line2d_14">
    <path clip-path="url(#p452860353d)" d="M 69.560852 245.213536 
L 69.669107 256.496685 
L 69.777361 249.258439 
L 69.885615 198.963271 
L 69.993869 249.205216 
L 70.102124 229.672595 
L 70.210378 257.986912 
L 70.318632 255.112903 
L 70.426886 256.922464 
L 70.535141 238.347847 
L 70.643395 248.832659 
L 70.751649 215.515437 
L 70.968158 267.513722 
L 71.184666 220.039341 
L 71.292921 255.166125 
L 71.401175 224.190688 
L 71.509429 252.61145 
L 71.617683 252.185671 
L 71.942446 210.725421 
L 72.0507 256.975687 
L 72.158955 256.337018 
L 72.267209 257.295021 
L 72.375463 250.322887 
L 72.483717 258.306247 
L 72.591972 229.619373 
L 72.700226 253.516231 
L 72.80848 253.303341 
L 72.916735 247.661767 
L 73.024989 276.188973 
L 73.133243 247.023098 
L 73.241497 251.972781 
L 73.349752 248.566547 
L 73.458006 234.515834 
L 73.56626 272.35696 
L 73.891023 186.189895 
L 74.107531 259.370695 
L 74.215786 234.835168 
L 74.32404 270.600621 
L 74.432294 247.235987 
L 74.540549 258.306247 
L 74.648803 246.437651 
L 74.757057 212.215648 
L 74.973566 270.228064 
L 75.190074 245.479648 
L 75.298328 262.617261 
L 75.406583 236.538285 
L 75.623091 270.653843 
L 75.731345 267.087943 
L 75.8396 220.252231 
L 76.056108 255.485459 
L 76.164363 254.580679 
L 76.272617 205.882183 
L 76.489125 277.200199 
L 76.705634 251.919559 
L 76.813888 254.367789 
L 76.922142 246.863431 
L 77.030397 261.180256 
L 77.138651 242.286304 
L 77.246905 248.566547 
L 77.355159 232.174048 
L 77.571668 264.799379 
L 77.788177 247.874656 
L 77.896431 259.05136 
L 78.004685 250.216442 
L 78.112939 266.023495 
L 78.329448 250.908333 
L 78.437702 243.137863 
L 78.545956 246.384429 
L 78.654211 216.47344 
L 78.870719 259.05136 
L 78.978973 261.552813 
L 79.087228 232.227271 
L 79.195482 274.272967 
L 79.303736 229.938707 
L 79.411991 277.040531 
L 79.520245 276.295418 
L 79.628499 259.849696 
L 79.736753 271.345735 
L 79.845008 271.0264 
L 79.953262 275.337415 
L 80.061516 272.56985 
L 80.16977 254.687123 
L 80.278025 264.692935 
L 80.386279 246.650541 
L 80.494533 262.404371 
L 80.602787 241.328301 
L 80.711042 245.266759 
L 80.92755 262.936595 
L 81.144059 231.801491 
L 81.252313 245.160314 
L 81.360567 277.093754 
L 81.577076 248.193991 
L 81.68533 269.961952 
L 81.793584 217.165331 
L 82.010093 268.045946 
L 82.118347 262.830151 
L 82.226601 257.454688 
L 82.334856 260.541587 
L 82.44311 276.082528 
L 82.551364 272.144071 
L 82.659619 247.395655 
L 82.767873 264.3736 
L 82.876127 226.00025 
L 82.984381 251.227667 
L 83.20089 229.672595 
L 83.417398 259.796474 
L 83.525653 269.482951 
L 83.850415 192.150803 
L 83.95867 264.959047 
L 84.175178 254.421011 
L 84.283433 236.64473 
L 84.608195 270.547399 
L 84.824704 254.421011 
L 84.932958 185.87056 
L 85.149467 262.989818 
L 85.365975 245.000647 
L 85.582484 271.452179 
L 85.690738 253.037229 
L 85.798992 258.891693 
L 85.907247 244.361978 
L 86.123755 269.057171 
L 86.232009 261.286701 
L 86.340264 231.535379 
L 86.556772 266.928275 
L 86.665026 251.919559 
L 86.773281 208.330413 
L 86.989789 251.547002 
L 87.098043 200.293831 
L 87.422806 257.7208 
L 87.531061 269.802285 
L 87.639315 193.268474 
L 87.855823 267.087943 
L 87.964078 191.246023 
L 88.072332 264.799379 
L 88.180586 256.443463 
L 88.28884 258.306247 
L 88.397095 237.123731 
L 88.505349 245.74576 
L 88.613603 267.300832 
L 88.830112 228.288813 
L 88.938366 228.182368 
L 89.154875 268.897504 
L 89.263129 257.986912 
L 89.371383 271.186067 
L 89.587892 225.308359 
L 89.696146 229.140371 
L 89.8044 250.642221 
L 89.912654 214.238099 
L 90.020909 260.062586 
L 90.129163 249.790663 
L 90.237417 254.793568 
L 90.345671 235.580282 
L 90.453926 237.815623 
L 90.56218 243.29753 
L 90.670434 261.339923 
L 90.778689 247.927879 
L 90.886943 249.418106 
L 90.995197 244.521645 
L 91.211706 251.387335 
L 91.31996 250.695443 
L 91.428214 236.378618 
L 91.536468 261.020589 
L 91.644723 215.515437 
L 91.752977 261.020589 
L 91.861231 200.293831 
L 91.969485 220.252231 
L 92.07774 215.408992 
L 92.185994 240.955744 
L 92.294248 174.959968 
L 92.402503 255.698349 
L 92.510757 245.639315 
L 92.619011 253.622675 
L 92.727265 250.961555 
L 92.83552 272.037626 
L 92.943774 252.185671 
L 93.052028 266.502496 
L 93.160282 239.412295 
L 93.268537 243.244307 
L 93.376791 215.35577 
L 93.485045 268.950727 
L 93.701554 216.47344 
L 93.809808 256.922464 
L 93.918062 231.428935 
L 94.134571 257.986912 
L 94.351079 227.650144 
L 94.567588 239.784851 
L 94.675842 230.258042 
L 95.000605 259.849696 
L 95.217113 213.971987 
L 95.325368 219.507117 
L 95.433622 209.075527 
L 95.758385 267.300832 
L 95.866639 244.042643 
L 95.974893 264.426823 
L 96.083148 216.792775 
L 96.191402 262.297927 
L 96.299656 225.361581 
L 96.516165 246.863431 
L 96.840927 266.449274 
L 97.057436 255.538682 
L 97.273945 212.534983 
L 97.382199 251.547002 
L 97.490453 240.370298 
L 97.598707 196.355373 
L 97.815216 273.155296 
L 97.92347 267.992723 
L 98.139979 240.42352 
L 98.248233 252.505005 
L 98.356487 236.218951 
L 98.464741 254.208122 
L 98.572996 204.285511 
L 98.789504 251.919559 
L 98.897759 206.999853 
L 99.114267 242.020192 
L 99.222521 250.216442 
L 99.330776 215.408992 
L 99.43903 261.180256 
L 99.547284 259.317472 
L 99.763793 235.952839 
L 99.872047 240.796077 
L 99.980301 125.729248 
L 100.088555 238.560736 
L 100.19681 236.485063 
L 100.305064 244.574867 
L 100.413318 225.468026 
L 100.629827 267.460499 
L 100.738081 211.736647 
L 100.95459 253.090451 
L 101.062844 247.661767 
L 101.171098 226.745363 
L 101.279352 253.516231 
L 101.387607 251.493779 
L 101.495861 230.258042 
L 101.604115 254.154899 
L 101.820624 194.279699 
L 102.037132 256.283795 
L 102.145387 268.471725 
L 102.253641 252.717895 
L 102.361895 170.861843 
L 102.578404 248.779437 
L 102.794912 262.457594 
L 102.903166 240.104186 
L 103.119675 247.768211 
L 103.227929 238.347847 
L 103.336183 243.350752 
L 103.444438 223.232685 
L 103.660946 260.009363 
L 103.769201 261.606035 
L 103.877455 247.235987 
L 103.985709 206.574074 
L 104.202218 257.614355 
L 104.310472 229.672595 
L 104.52698 265.225159 
L 104.851743 222.487571 
L 105.068252 273.793965 
L 105.176506 237.336621 
L 105.28476 266.981498 
L 105.393015 232.493383 
L 105.501269 233.132051 
L 105.609523 253.303341 
L 105.717777 202.795283 
L 105.826032 224.190688 
L 105.934286 220.784455 
L 106.04254 170.063507 
L 106.150794 264.692935 
L 106.367303 248.034323 
L 106.475557 272.144071 
L 106.692066 167.508832 
L 106.908574 254.953235 
L 107.016829 226.958253 
L 107.125083 272.782739 
L 107.233337 206.999853 
L 107.341591 252.345338 
L 107.449846 242.020192 
L 107.5581 264.213933 
L 107.666354 224.243911 
L 107.882863 263.415597 
L 107.991117 166.391162 
L 108.099371 193.481363 
L 108.207625 264.320378 
L 108.31588 212.854317 
L 108.532388 244.468423 
L 108.640643 181.346656 
L 108.857151 249.151994 
L 108.965405 206.04185 
L 109.07366 258.412691 
L 109.290168 249.205216 
L 109.398422 269.642618 
L 109.614931 244.202311 
L 109.723185 248.885882 
L 109.831439 242.765306 
L 109.939694 270.919955 
L 110.047948 220.46512 
L 110.264457 260.435143 
L 110.589219 240.849299 
L 110.805728 253.516231 
L 110.913982 175.385747 
L 111.130491 244.681312 
L 111.238745 243.403975 
L 111.346999 238.933293 
L 111.563508 252.558227 
L 111.671762 229.885485 
L 111.780016 258.359469 
L 111.996525 171.074733 
L 112.213033 268.418503 
L 112.321288 147.071431 
L 112.429542 248.460103 
L 112.537796 242.073415 
L 112.64605 252.824339 
L 112.754305 246.384429 
L 112.862559 194.758701 
L 112.970813 204.391955 
L 113.079067 271.132845 
L 113.295576 231.961159 
L 113.40383 269.110394 
L 113.512085 264.58649 
L 113.620339 156.757907 
L 113.836847 236.964064 
L 113.945102 241.700858 
L 114.053356 238.081735 
L 114.16161 200.50672 
L 114.486373 265.438048 
L 114.594627 268.258835 
L 114.702881 258.732026 
L 114.811136 209.288416 
L 114.91939 266.342829 
L 115.027644 239.678407 
L 115.135899 250.376109 
L 115.244153 201.038944 
L 115.460661 246.810208 
L 115.568916 234.622279 
L 115.67717 259.477139 
L 115.785424 135.256058 
L 115.893678 246.118317 
L 116.001933 185.498003 
L 116.218441 230.364487 
L 116.326695 233.877165 
L 116.43495 244.787757 
L 116.543204 273.474631 
L 116.651458 167.987834 
L 116.867967 254.048455 
L 116.976221 238.347847 
L 117.084475 187.467232 
L 117.19273 238.773626 
L 117.300984 237.017287 
L 117.409238 258.785248 
L 117.625747 155.374125 
L 117.842255 239.412295 
L 117.950509 209.660973 
L 118.058764 236.485063 
L 118.275272 152.500115 
L 118.491781 253.995232 
L 118.708289 169.690951 
L 118.816544 264.692935 
L 119.033052 223.392352 
L 119.141306 161.015699 
L 119.249561 164.102599 
L 119.466069 254.580679 
L 119.574323 240.476743 
L 119.682578 179.643539 
L 119.899086 262.936595 
L 120.00734 239.039738 
L 120.223849 253.516231 
L 120.332103 239.625184 
L 120.440358 209.873863 
L 120.548612 261.499591 
L 120.656866 247.714989 
L 120.76512 119.928007 
L 120.873375 235.207725 
L 120.981629 217.963667 
L 121.089883 261.872147 
L 121.198137 255.591904 
L 121.414646 207.957856 
L 121.5229 230.577376 
L 121.631154 181.293434 
L 121.739409 233.078829 
L 121.847663 227.863034 
L 121.955917 146.060205 
L 122.064172 254.261344 
L 122.28068 211.310867 
L 122.605443 249.151994 
L 122.713697 241.328301 
L 122.930206 181.825658 
L 123.03846 253.143674 
L 123.146714 224.243911 
L 123.254968 237.97529 
L 123.579731 179.377427 
L 123.687986 217.324999 
L 123.79624 206.733741 
L 124.012748 242.871751 
L 124.229257 220.784455 
L 124.337511 226.053472 
L 124.55402 254.740346 
L 124.662274 255.006458 
L 124.770528 189.063904 
L 125.095291 251.759891 
L 125.203545 223.605242 
L 125.3118 225.042247 
L 125.420054 221.263456 
L 125.528308 259.956141 
L 125.636562 212.854317 
L 125.744817 218.762003 
L 125.853071 231.748269 
L 125.961325 158.620691 
L 126.069579 227.437255 
L 126.177834 180.335431 
L 126.286088 250.429331 
L 126.502596 216.154106 
L 126.610851 254.048455 
L 126.827359 231.162823 
L 126.935614 251.121223 
L 127.043868 245.000647 
L 127.152122 258.412691 
L 127.260376 240.849299 
L 127.368631 249.364883 
L 127.476885 197.153709 
L 127.585139 245.74576 
L 127.693393 230.524154 
L 127.801648 253.090451 
L 128.018156 208.649747 
L 128.234665 255.911239 
L 128.451173 213.173651 
L 128.667682 259.849696 
L 128.775936 222.434349 
L 128.992445 256.070906 
L 129.100699 237.389843 
L 129.208953 151.48889 
L 129.317207 184.912557 
L 129.425462 261.818925 
L 129.750224 183.20944 
L 129.858479 221.476346 
L 129.966733 199.229383 
L 130.291496 263.149485 
L 130.39975 176.503418 
L 130.616259 259.583584 
L 130.724513 203.061395 
L 130.941021 233.398163 
L 131.049276 237.496288 
L 131.15753 247.235987 
L 131.265784 178.206535 
L 131.374038 237.283399 
L 131.482293 214.876768 
L 131.590547 230.790266 
L 131.698801 209.075527 
L 131.91531 267.03472 
L 132.131818 121.152122 
L 132.348327 240.902522 
L 132.456581 119.608672 
L 132.67309 229.725818 
L 132.781344 230.896711 
L 132.889598 230.364487 
L 132.997852 253.622675 
L 133.106107 224.350355 
L 133.322615 154.682234 
L 133.43087 220.731232 
L 133.539124 216.739552 
L 133.647378 172.139181 
L 133.755632 237.602733 
L 133.863887 163.091373 
L 134.080395 193.215251 
L 134.296904 248.885882 
L 134.405158 248.034323 
L 134.513412 206.999853 
L 134.621666 256.549907 
L 134.729921 225.840583 
L 134.838175 156.704685 
L 134.946429 238.560736 
L 135.162938 206.893408 
L 135.271192 203.487175 
L 135.379446 252.132448 
L 135.595955 210.565754 
L 135.704209 130.093485 
L 135.812463 267.03472 
L 135.920718 190.394464 
L 136.137226 256.070906 
L 136.24548 185.817338 
L 136.461989 215.14288 
L 136.570243 227.011475 
L 136.678498 161.92048 
L 136.786752 252.984007 
L 136.895006 192.363693 
L 137.111515 264.905824 
L 137.328023 171.819847 
L 137.544532 233.451386 
L 137.652786 228.767815 
L 137.76104 197.206931 
L 137.869294 125.143802 
L 137.977549 257.614355 
L 138.085803 142.281415 
L 138.194057 236.112506 
L 138.302312 114.339655 
L 138.410566 142.973306 
L 138.51882 242.818528 
L 138.735329 183.954554 
L 138.843583 211.523757 
L 138.951837 157.982023 
L 139.168346 257.774023 
L 139.2766 168.360391 
L 139.384854 211.789869 
L 139.493108 206.893408 
L 139.601363 241.221856 
L 139.709617 218.176557 
L 139.817871 231.216045 
L 140.03438 162.559149 
L 140.142634 260.807699 
L 140.250888 224.137466 
L 140.359143 127.592032 
L 140.575651 262.138259 
L 140.683905 263.415597 
L 140.900414 177.248531 
L 141.008668 226.266362 
L 141.116922 216.952442 
L 141.225177 108.325523 
L 141.333431 212.055981 
L 141.441685 55.741792 
L 141.54994 239.199405 
L 141.658194 132.009491 
L 141.766448 250.003552 
L 141.874702 213.280096 
L 141.982957 245.852205 
L 142.091211 142.281415 
L 142.199465 178.419424 
L 142.307719 120.407008 
L 142.415974 245.319981 
L 142.524228 149.626106 
L 142.632482 261.446368 
L 142.740736 205.509626 
L 142.848991 257.082131 
L 143.065499 124.930912 
L 143.282008 230.417709 
L 143.390262 119.129671 
L 143.498516 245.319981 
L 143.606771 185.604448 
L 143.823279 246.224762 
L 143.931533 214.876768 
L 144.039788 136.320506 
L 144.148042 236.059283 
L 144.256296 174.800301 
L 144.36455 195.18448 
L 144.472805 260.648032 
L 144.581059 184.220666 
L 144.689313 189.86224 
L 144.797568 102.843616 
L 144.905822 186.08345 
L 145.014076 141.376634 
L 145.12233 267.886279 
L 145.230585 166.710496 
L 145.338839 221.476346 
L 145.447093 154.948346 
L 145.663602 177.088864 
L 145.88011 260.807699 
L 145.988364 163.144595 
L 146.096619 264.213933 
L 146.204873 198.05849 
L 146.313127 233.77072 
L 146.421382 232.865939 
L 146.529636 133.765831 
L 146.63789 246.384429 
L 146.746144 175.492192 
L 146.854399 261.765703 
L 146.962653 160.58992 
L 147.070907 211.630202 
L 147.179161 152.872672 
L 147.39567 228.075923 
L 147.503924 232.014381 
L 147.612178 141.483079 
L 147.936941 221.369901 
L 148.045196 238.028512 
L 148.15345 130.625709 
L 148.369958 232.493383 
L 148.478213 214.291322 
L 148.586467 71.761735 
L 148.694721 265.810605 
L 149.019484 149.306771 
L 149.127738 244.149088 
L 149.235992 234.143277 
L 149.344247 118.171667 
L 149.452501 250.695443 
L 149.560755 227.596922 
L 149.777264 240.050963 
L 149.885518 234.196499 
L 149.993772 210.299642 
L 150.210281 242.073415 
L 150.318535 144.569978 
L 150.426789 199.655162 
L 150.535044 182.996551 
L 150.643298 146.858541 
L 150.751552 241.275079 
L 150.859806 111.199533 
L 150.968061 224.563245 
L 151.076315 184.433555 
L 151.292824 242.286304 
L 151.509332 157.449799 
L 151.617586 215.941216 
L 151.834095 146.326317 
L 152.050603 201.943725 
L 152.158858 184.114221 
L 152.267112 189.330016 
L 152.375366 218.123335 
L 152.48362 173.310074 
L 152.591875 250.695443 
L 152.808383 160.909255 
L 152.916638 139.939629 
L 153.133146 241.594413 
L 153.2414 196.568263 
L 153.349655 272.729517 
L 153.457909 153.511341 
L 153.674417 217.271776 
L 153.782672 202.742061 
L 153.890926 208.49008 
L 153.99918 221.955347 
L 154.107434 211.576979 
L 154.215689 224.776135 
L 154.323943 221.955347 
L 154.432197 227.596922 
L 154.540452 103.535507 
L 154.648706 177.567866 
L 154.75696 136.214061 
L 154.973469 211.204423 
L 155.189977 126.740474 
L 155.406486 166.337939 
L 155.51474 128.071034 
L 155.622994 253.196896 
L 155.731248 179.590317 
L 155.839503 212.322093 
L 155.947757 109.549639 
L 156.164266 218.815226 
L 156.27252 216.792775 
L 156.380774 232.812717 
L 156.489028 140.950855 
L 156.597283 152.925895 
L 156.705537 207.957856 
L 156.813791 168.839392 
L 156.922045 237.176954 
L 157.0303 174.480967 
L 157.138554 193.694253 
L 157.246808 233.238496 
L 157.463317 168.200723 
L 157.571571 218.549114 
L 157.679825 164.102599 
L 157.78808 179.111315 
L 157.896334 98.000378 
L 158.004588 231.907936 
L 158.221097 141.163744 
L 158.329351 125.516359 
L 158.545859 250.163219 
L 158.654114 187.520455 
L 158.762368 202.795283 
L 158.870622 189.170349 
L 158.978876 233.398163 
L 159.087131 233.238496 
L 159.195385 233.078829 
L 159.303639 217.537888 
L 159.411894 217.750778 
L 159.520148 149.306771 
L 159.628402 238.507514 
L 159.736656 126.421139 
L 159.953165 135.841504 
L 160.169673 214.078432 
L 160.386182 174.001965 
L 160.60269 159.578695 
L 160.710945 186.136672 
L 160.819199 249.045549 
L 160.927453 248.726215 
L 161.035708 151.009888 
L 161.143962 236.64473 
L 161.252216 230.151597 
L 161.36047 183.688442 
L 161.468725 217.005664 
L 161.576979 151.914669 
L 161.685233 240.370298 
L 161.793487 235.527059 
L 162.009996 157.024019 
L 162.11825 236.165728 
L 162.226504 218.495891 
L 162.334759 261.552813 
L 162.443013 250.056775 
L 162.551267 207.744967 
L 162.659522 218.655559 
L 162.767776 130.466042 
L 162.87603 189.276794 
L 162.984284 172.937517 
L 163.092539 178.951648 
L 163.309047 219.986119 
L 163.417301 113.488096 
L 163.525556 195.716704 
L 163.742064 85.972115 
L 163.958573 248.087546 
L 164.066827 148.987437 
L 164.175081 271.186067 
L 164.608098 138.130067 
L 164.824607 236.272173 
L 164.932861 183.688442 
L 165.14937 197.526266 
L 165.257624 157.715911 
L 165.365878 163.038151 
L 165.582387 220.571565 
L 165.690641 128.443591 
L 165.798895 159.046471 
L 165.90715 244.681312 
L 166.015404 164.954157 
L 166.123658 179.058093 
L 166.231912 166.710496 
L 166.340167 79.851539 
L 166.448421 249.151994 
L 166.556675 139.247738 
L 166.773184 220.305453 
L 166.881438 249.95033 
L 166.989692 207.744967 
L 167.097946 260.222253 
L 167.206201 119.182893 
L 167.314455 265.91705 
L 167.530964 104.387066 
L 167.639218 243.989421 
L 167.747472 185.125447 
L 167.963981 247.821434 
L 168.180489 205.349959 
L 168.288743 68.355501 
L 168.396998 188.851015 
L 168.505252 181.612768 
L 168.613506 184.273888 
L 168.72176 123.866464 
L 168.938269 214.078432 
L 169.046523 141.004077 
L 169.154778 146.432762 
L 169.263032 190.447687 
L 169.371286 169.158727 
L 169.47954 232.333715 
L 169.587795 189.330016 
L 169.696049 262.510816 
L 169.804303 225.893805 
L 169.912557 243.29753 
L 170.020812 227.703367 
L 170.129066 130.19993 
L 170.23732 140.737965 
L 170.345574 233.77072 
L 170.562083 95.60537 
L 170.778592 264.107488 
L 170.886846 258.359469 
L 171.103354 130.785376 
L 171.211609 148.135879 
L 171.319863 219.932896 
L 171.428117 130.093485 
L 171.536371 218.442669 
L 171.644626 188.904237 
L 171.75288 190.500909 
L 171.861134 86.07856 
L 172.077643 238.720403 
L 172.294151 127.485587 
L 172.402406 211.843091 
L 172.51066 172.298848 
L 172.618914 222.434349 
L 172.727168 112.423648 
L 172.835423 208.809415 
L 172.943677 203.859731 
L 173.160185 145.102202 
L 173.26844 179.111315 
L 173.376694 83.736775 
L 173.484948 194.120032 
L 173.593202 98.851936 
L 173.809711 219.826451 
L 173.917965 188.159123 
L 174.02622 94.115143 
L 174.242728 150.371219 
L 174.459237 213.226874 
L 174.567491 187.360787 
L 174.675745 214.02521 
L 174.783999 156.172461 
L 174.892254 187.999456 
L 175.000508 4.435399 
L 175.217016 140.418631 
L 175.325271 217.112109 
L 175.433525 123.813242 
L 175.541779 217.271776 
L 175.650034 137.331731 
L 175.866542 247.821434 
L 175.974796 236.272173 
L 176.083051 158.354579 
L 176.299559 231.32249 
L 176.516068 134.244832 
L 176.624322 237.549511 
L 176.732576 102.843616 
L 176.949085 242.924973 
L 177.165593 170.489287 
L 177.273848 235.793171 
L 177.490356 124.824467 
L 177.59861 153.724231 
L 177.706865 156.704685 
L 177.815119 214.717101 
L 177.923373 92.73136 
L 178.139882 229.832263 
L 178.464644 124.239021 
L 178.572899 149.838995 
L 178.681153 231.641824 
L 178.789407 35.570503 
L 179.11417 232.386938 
L 179.330679 200.71961 
L 179.438933 166.657274 
L 179.655441 223.658464 
L 179.87195 134.510944 
L 179.980204 240.955744 
L 180.088458 147.124653 
L 180.196713 168.78617 
L 180.304967 154.735456 
L 180.413221 156.225683 
L 180.62973 203.593619 
L 180.737984 171.873069 
L 181.062747 250.163219 
L 181.171001 213.81232 
L 181.279255 239.146183 
L 181.38751 216.526663 
L 181.495764 234.249722 
L 181.712272 146.752096 
L 181.820527 135.894727 
L 181.928781 221.582791 
L 182.037035 101.619501 
L 182.14529 164.741267 
L 182.253544 146.16665 
L 182.470052 190.607354 
L 182.578307 129.827373 
L 182.686561 197.526266 
L 182.794815 133.712608 
L 182.903069 157.769133 
L 183.011324 133.659386 
L 183.119578 253.995232 
L 183.227832 139.034848 
L 183.336086 166.497607 
L 183.444341 258.891693 
L 183.660849 140.099296 
L 183.769104 117.905555 
L 183.877358 237.602733 
L 183.985612 108.059411 
L 184.202121 219.13456 
L 184.418629 103.58873 
L 184.526883 163.144595 
L 184.635138 148.029434 
L 184.743392 151.808224 
L 184.851646 112.742983 
L 184.9599 238.507514 
L 185.068155 185.019002 
L 185.176409 205.616071 
L 185.284663 95.498925 
L 185.392918 99.224493 
L 185.501172 202.635616 
L 185.609426 169.637728 
L 185.71768 170.808621 
L 185.825935 130.359597 
L 185.934189 180.974099 
L 186.042443 150.264775 
L 186.150697 180.707987 
L 186.367206 90.017018 
L 186.47546 194.492589 
L 186.583714 139.673517 
L 186.691969 195.078035 
L 186.800223 101.406611 
L 186.908477 136.107616 
L 187.016732 68.089389 
L 187.23324 246.650541 
L 187.341494 106.569184 
L 187.558003 222.647239 
L 187.774511 39.189626 
L 187.882766 90.017018 
L 187.99102 252.292115 
L 188.099274 129.241927 
L 188.207528 132.009491 
L 188.315783 218.602336 
L 188.424037 173.097184 
L 188.532291 193.960365 
L 188.640546 161.122144 
L 188.7488 3.743507 
L 188.857054 206.680519 
L 188.965308 75.43408 
L 189.073563 90.655687 
L 189.181817 81.927213 
L 189.290071 176.184083 
L 189.398325 81.235322 
L 189.614834 160.377031 
L 189.939597 229.459706 
L 190.047851 118.065223 
L 190.156105 139.247738 
L 190.26436 135.681837 
L 190.372614 243.29753 
L 190.480868 109.922195 
L 190.589122 181.293434 
L 190.697377 127.698477 
L 190.805631 227.11792 
L 191.022139 153.032339 
L 191.130394 166.284717 
L 191.346902 104.067731 
L 191.563411 238.880071 
L 191.671665 187.626899 
L 191.779919 194.811923 
L 191.888174 253.409786 
L 192.104682 144.410311 
L 192.212936 109.868973 
L 192.321191 112.68976 
L 192.429445 108.219079 
L 192.537699 142.866861 
L 192.645953 110.826976 
L 192.862462 171.287623 
L 192.970716 143.29264 
L 193.07897 186.243117 
L 193.187225 147.656877 
L 193.295479 187.680122 
L 193.511987 124.771245 
L 193.620242 97.893933 
L 193.728496 141.163744 
L 193.83675 127.272698 
L 193.945005 136.001171 
L 194.053259 58.722247 
L 194.269767 164.262266 
L 194.378022 161.281811 
L 194.59453 239.199405 
L 194.702784 118.118445 
L 194.919293 248.140768 
L 195.135801 117.958778 
L 195.244056 122.21657 
L 195.35231 149.253549 
L 195.460564 102.151725 
L 195.568819 131.53049 
L 195.677073 76.232416 
L 195.785327 93.103917 
L 195.893581 139.460627 
L 196.001836 84.002887 
L 196.11009 170.169952 
L 196.326598 141.642746 
L 196.434853 107.527187 
L 196.651361 190.713799 
L 196.759615 184.380333 
L 196.86787 190.394464 
L 197.084378 65.375047 
L 197.192633 194.013587 
L 197.300887 174.161632 
L 197.409141 98.745491 
L 197.62565 217.431443 
L 197.733904 80.75632 
L 197.842158 215.408992 
L 197.950412 169.105504 
L 198.166921 211.257645 
L 198.383429 125.250247 
L 198.491684 115.936327 
L 198.595684 -1 
M 198.607521 -1 
L 199.032955 218.336224 
L 199.141209 185.923783 
L 199.249464 195.131258 
L 199.357718 214.823546 
L 199.465972 119.236115 
L 199.574226 181.772435 
L 199.790735 57.391687 
L 200.007243 182.570771 
L 200.115498 203.487175 
L 200.223752 124.239021 
L 200.548515 209.022304 
L 200.765023 107.154631 
L 200.873278 167.402387 
L 200.981532 92.358803 
L 201.089786 176.343751 
L 201.19804 118.863559 
L 201.306295 222.061792 
L 201.414549 87.089786 
L 201.631057 153.883898 
L 201.739312 104.227399 
L 201.847566 121.258567 
L 201.95582 96.93593 
L 202.064075 232.759495 
L 202.172329 169.265171 
L 202.280583 219.294227 
L 202.497092 119.395783 
L 202.605346 131.849824 
L 202.7136 124.292243 
L 202.821854 191.139578 
L 202.930109 123.281018 
L 203.146617 236.804397 
L 203.363126 146.592429 
L 203.47138 266.236384 
L 203.687889 107.952967 
L 203.796143 218.655559 
L 204.012651 154.788679 
L 204.120906 171.606957 
L 204.337414 121.045677 
L 204.445668 97.627821 
L 204.553923 107.952967 
L 204.662177 192.416915 
L 204.770431 133.180384 
L 204.878685 226.00025 
L 204.98694 225.255136 
L 205.095194 35.197946 
L 205.203448 178.153312 
L 205.419957 78.787091 
L 205.636465 234.622279 
L 205.852974 79.585427 
L 205.961228 242.765306 
L 206.069482 68.089389 
L 206.177737 178.206535 
L 206.285991 118.810336 
L 206.394245 209.660973 
L 206.502499 116.947552 
L 206.719008 215.568659 
L 206.827262 119.182893 
L 206.935517 164.847712 
L 207.043771 81.448211 
L 207.152025 173.256851 
L 207.260279 167.987834 
L 207.368534 207.425632 
L 207.693296 129.029037 
L 207.801551 187.360787 
L 207.909805 184.75289 
L 208.018059 110.560864 
L 208.126313 112.796205 
L 208.234568 133.97872 
L 208.342822 24.819578 
L 208.451076 191.458912 
L 208.559331 183.049773 
L 208.667585 116.415328 
L 208.775839 259.370695 
L 208.884093 70.537619 
L 208.992348 137.438176 
L 209.100602 72.932627 
L 209.31711 163.996154 
L 209.533619 174.747079 
L 209.641873 246.224762 
L 209.750127 146.592429 
L 209.858382 231.588602 
L 210.07489 108.644858 
L 210.183145 167.774944 
L 210.291399 49.248659 
L 210.507907 199.548717 
L 210.616162 31.791712 
L 210.83267 199.442272 
L 210.940924 91.826579 
L 211.157433 183.20944 
L 211.265687 158.194912 
L 211.373941 250.056775 
L 211.482196 141.270189 
L 211.59045 172.298848 
L 211.698704 132.64816 
L 211.806959 188.212346 
L 211.915213 78.414535 
L 212.023467 190.713799 
L 212.131721 189.755795 
L 212.239976 91.081466 
L 212.34823 223.445575 
L 212.456484 135.149613 
L 212.564738 230.896711 
L 212.672993 130.306375 
L 212.781247 153.777453 
L 212.889501 117.320109 
L 213.10601 190.554131 
L 213.214264 168.041056 
L 213.322518 185.977005 
L 213.539027 105.078957 
L 213.647281 102.25817 
L 213.755535 110.773754 
L 213.86379 205.349959 
L 213.972044 60.531808 
L 214.080298 138.023623 
L 214.163053 -1 
M 214.209543 -1 
L 214.405061 216.739552 
L 214.513315 210.831866 
L 214.621569 122.110125 
L 214.838078 192.895917 
L 214.946332 108.059411 
L 215.162841 142.973306 
L 215.379349 102.204947 
L 215.487604 221.157011 
L 215.595858 211.683424 
L 215.704112 33.920608 
L 215.812366 213.971987 
L 215.920621 206.095072 
L 216.028875 140.684743 
L 216.137129 185.87056 
L 216.245383 64.949267 
L 216.353638 120.88601 
L 216.461892 102.25817 
L 216.570146 215.887994 
L 216.786655 54.943456 
L 216.894909 106.515962 
L 217.003163 54.943456 
L 217.111418 138.236512 
L 217.219672 122.642349 
L 217.327926 141.270189 
L 217.43618 182.357882 
L 217.544435 166.923386 
L 217.652689 58.881914 
L 217.760943 125.090579 
L 217.869197 107.154631 
L 217.977452 150.424442 
L 218.085706 114.23321 
L 218.19396 175.22608 
L 218.302215 140.525075 
L 218.518723 168.78617 
L 218.626977 124.87769 
L 218.735232 186.935008 
L 218.843486 173.469741 
L 218.95174 85.227002 
L 219.059994 136.001171 
L 219.168249 113.541319 
L 219.276503 56.274016 
L 219.384757 216.792775 
L 219.70952 116.468551 
L 219.817774 160.909255 
L 220.034283 106.622407 
L 220.142537 113.488096 
L 220.250791 149.040659 
L 220.359046 129.348371 
L 220.4673 151.382445 
L 220.683808 129.295149 
L 220.792063 138.502624 
L 220.900317 103.482285 
L 221.008571 110.135085 
L 221.116825 176.55664 
L 221.22508 43.926419 
L 221.441588 119.502227 
L 221.549843 132.115936 
L 221.658097 50.632442 
L 221.766351 188.159123 
L 221.874605 36.634951 
L 221.98286 135.841504 
L 222.091114 81.341767 
L 222.199368 82.991661 
L 222.307622 174.001965 
L 222.524131 99.437383 
L 222.632385 209.448083 
L 222.740639 149.838995 
L 222.848894 169.957063 
L 222.957148 52.442003 
L 223.065402 189.86224 
L 223.173657 30.461152 
L 223.281911 214.717101 
L 223.390165 103.641952 
L 223.606674 155.427347 
L 223.823182 68.834503 
L 223.931436 161.441479 
L 224.039691 109.762528 
L 224.147945 151.755002 
L 224.256199 142.015303 
L 224.364453 88.526791 
L 224.472708 152.766227 
L 224.580962 127.592032 
L 224.689216 143.824864 
L 224.797471 121.524679 
L 224.905725 31.099821 
L 225.013979 38.125178 
L 225.122233 147.018208 
L 225.230488 129.295149 
L 225.446996 147.976211 
L 225.55525 132.222381 
L 225.663505 179.909651 
L 225.771759 123.493907 
L 225.988267 133.446496 
L 226.096522 195.929594 
L 226.31303 80.490208 
L 226.421285 202.795283 
L 226.529539 194.918368 
L 226.637793 200.613165 
L 226.746047 111.784979 
L 226.854302 115.510547 
L 226.962556 93.582919 
L 227.07081 141.163744 
L 227.287319 119.981229 
L 227.503827 23.968019 
L 227.720336 116.255661 
L 227.936844 158.780359 
L 228.045099 135.628615 
L 228.153353 144.889312 
L 228.261607 129.667706 
L 228.369861 178.525869 
L 228.58637 128.86937 
L 228.694624 68.408723 
L 228.802878 108.964192 
L 228.911133 106.462739 
L 229.019387 65.800826 
L 229.235895 139.407405 
L 229.452404 79.798317 
L 229.668913 217.271776 
L 229.777167 183.262663 
L 229.885421 96.829485 
L 229.993675 138.821959 
L 230.10193 66.758829 
L 230.318438 162.186592 
L 230.426692 156.278906 
L 230.534947 43.660307 
L 230.643201 197.685933 
L 230.751455 166.816941 
L 230.859709 200.666387 
L 231.076218 42.116858 
L 231.184472 164.315488 
L 231.292727 90.602464 
L 231.509235 137.438176 
L 231.617489 139.567072 
L 231.725744 132.062714 
L 231.833998 192.629805 
L 231.942252 84.641555 
L 232.158761 156.332128 
L 232.375269 85.333447 
L 232.591778 150.424442 
L 232.700032 133.606163 
L 232.916541 162.772039 
L 233.024795 117.320109 
L 233.133049 229.459706 
L 233.241303 140.312186 
L 233.349558 167.029831 
L 233.457812 138.821959 
L 233.566066 173.043962 
L 233.67432 8.533523 
L 233.782575 186.136672 
L 233.890829 108.69808 
L 233.999083 114.392877 
L 234.107337 111.784979 
L 234.323846 134.617389 
L 234.4321 214.504211 
L 234.540355 43.607085 
L 234.756863 195.290925 
L 234.865117 21.573011 
L 235.081626 120.939232 
L 235.18988 123.121351 
L 235.514643 203.806509 
L 235.622897 184.912557 
L 235.731151 73.518074 
L 235.839406 96.190816 
L 235.94766 33.760941 
L 236.164169 198.324602 
L 236.272423 124.292243 
L 236.488931 168.094279 
L 236.597186 61.755923 
L 236.70544 153.671008 
L 236.813694 53.133895 
L 237.030203 150.956666 
L 237.138457 172.139181 
L 237.246711 85.599559 
L 237.354965 141.695968 
L 237.571474 107.207853 
L 237.787983 224.829357 
L 238.004491 69.792506 
L 238.112745 129.454816 
L 238.221 119.661895 
L 238.329254 81.128877 
L 238.545762 169.637728 
L 238.654017 153.777453 
L 238.870525 105.504736 
L 238.978779 129.348371 
L 239.087034 103.748397 
L 239.303542 208.543303 
L 239.411797 180.069319 
L 239.520051 196.994042 
L 239.628305 182.144992 
L 239.736559 80.383763 
L 239.953068 151.701779 
L 240.169576 129.98704 
L 240.277831 177.567866 
L 240.386085 130.253152 
L 240.494339 196.51504 
L 240.602593 134.031943 
L 240.710848 150.530887 
L 240.819102 108.751303 
L 240.927356 169.371616 
L 241.143547 -1 
M 241.144265 -1 
L 241.360373 114.286432 
L 241.468628 117.852333 
L 241.576882 141.270189 
L 241.685136 140.897632 
L 241.79339 103.641952 
L 241.901645 144.250643 
L 242.009899 237.070509 
L 242.226407 40.733075 
L 242.334662 109.283527 
L 242.442916 102.843616 
L 242.55117 158.248135 
L 242.767679 40.360519 
L 242.875933 86.930119 
L 242.984187 199.229383 
L 243.092442 109.336749 
L 243.200696 122.908461 
L 243.30895 169.744173 
L 243.417204 90.017018 
L 243.525459 98.798714 
L 243.741967 149.253549 
L 243.850221 92.784583 
L 243.958476 99.38416 
L 244.06673 14.707322 
L 244.283239 234.515834 
L 244.391493 113.168762 
L 244.499747 120.726343 
L 244.716256 80.383763 
L 244.82451 25.777581 
L 245.149273 176.982419 
L 245.257527 45.310202 
L 245.474035 187.839789 
L 245.58229 61.809146 
L 245.798798 118.757114 
L 246.123561 143.931309 
L 246.231815 62.12848 
L 246.34007 78.999981 
L 246.448324 168.360391 
L 246.664832 96.137594 
L 246.773087 147.816544 
L 246.881341 94.487699 
L 246.989595 102.204947 
L 247.097849 163.942931 
L 247.206104 160.430253 
L 247.314358 20.402119 
L 247.530867 136.373728 
L 247.747375 38.444512 
L 247.855629 44.724755 
L 248.072138 206.307962 
L 248.180392 149.679328 
L 248.288646 175.332525 
L 248.505155 88.154234 
L 248.613409 136.054394 
L 248.721663 74.422855 
L 248.829918 189.542906 
L 249.046426 33.707719 
L 249.262935 218.868448 
L 249.371189 116.308883 
L 249.479443 142.441082 
L 249.587698 119.928007 
L 249.695952 141.589523 
L 249.91246 92.358803 
L 250.020715 169.424839 
L 250.128969 124.87769 
L 250.237223 148.721325 
L 250.345477 96.563373 
L 250.453732 235.793171 
L 250.67024 45.416647 
L 250.886749 166.391162 
L 250.995003 164.368711 
L 251.103257 70.32473 
L 251.211512 104.7064 
L 251.319766 257.774023 
L 251.42802 44.671533 
L 251.536274 100.288941 
L 251.636626 -1 
M 251.651294 -1 
L 251.752783 118.650669 
L 251.969291 105.345069 
L 252.077546 16.250771 
L 252.294054 191.565357 
L 252.402309 106.303072 
L 252.618817 180.388653 
L 252.727071 118.703891 
L 252.835326 157.9288 
L 253.051834 111.838202 
L 253.268343 106.622407 
L 253.593105 200.879277 
L 253.70136 175.758304 
L 253.809614 57.178797 
L 254.026123 191.1928 
L 254.320517 -1 
M 254.393764 -1 
L 254.567394 90.123463 
L 254.675648 165.379936 
L 254.783902 68.99417 
L 254.892157 173.256851 
L 255.000411 79.106426 
L 255.108665 119.768339 
L 255.216919 107.58041 
L 255.325174 142.334637 
L 255.433428 135.043168 
L 255.541682 81.341767 
L 255.758191 147.49721 
L 255.866445 34.878611 
L 255.974699 67.610387 
L 256.082954 186.935008 
L 256.191208 41.318522 
L 256.299462 45.256979 
L 256.407716 73.730963 
L 256.624225 166.444384 
L 256.815694 -1 
M 256.86007 -1 
L 257.057242 134.617389 
L 257.273751 90.389575 
L 257.382005 169.957063 
L 257.598513 85.439891 
L 257.706768 179.058093 
L 257.815022 89.165459 
L 258.03153 169.690951 
L 258.139785 39.136403 
L 258.356293 133.97872 
L 258.464547 141.216967 
L 258.572802 66.971719 
L 258.78931 171.873069 
L 258.897565 153.138784 
L 259.005819 183.102995 
L 259.222327 62.660704 
L 259.330582 146.805319 
L 259.438836 104.7064 
L 259.54709 152.074336 
L 259.706548 -1 
M 259.803777 -1 
L 259.980107 167.934611 
L 260.196616 232.067603 
L 260.30487 31.365933 
L 260.413124 167.349165 
L 260.521379 147.390765 
L 260.621321 -1 
M 260.645985 -1 
L 260.846141 158.567469 
L 260.954396 134.564167 
L 261.06265 13.270317 
L 261.170904 147.550432 
L 261.279158 130.891821 
L 261.387413 162.559149 
L 261.495667 132.594938 
L 261.603921 47.864877 
L 261.712175 58.935136 
L 261.82043 139.247738 
L 261.928684 136.001171 
L 262.036938 138.130067 
L 262.145193 130.678931 
L 262.253447 58.243245 
L 262.361701 169.211949 
L 262.57821 12.950983 
L 262.902972 208.969082 
L 263.011227 106.675629 
L 263.119481 119.502227 
L 263.227735 194.279699 
L 263.335989 120.832787 
L 263.444244 120.88601 
L 263.660752 191.671802 
L 263.877261 73.730963 
L 263.985515 205.722515 
L 264.202024 13.323539 
L 264.310278 18.113555 
L 264.418532 159.152915 
L 264.635041 60.265696 
L 264.743295 142.121747 
L 264.851549 91.61369 
L 264.959803 104.014509 
L 265.068058 129.614483 
L 265.176312 34.825389 
L 265.284566 176.024416 
L 265.501075 138.555847 
L 265.609329 151.595335 
L 265.825838 122.482682 
L 265.934092 148.135879 
L 266.042346 112.263981 
L 266.1506 153.777453 
L 266.35293 -1 
M 266.376434 -1 
L 266.583617 146.592429 
L 266.800126 113.754208 
L 266.90838 130.945043 
L 267.016635 130.359597 
L 267.124889 91.4008 
L 267.233143 150.637331 
L 267.341397 91.187911 
L 267.449652 135.096391 
L 267.557906 105.930515 
L 267.774414 155.320903 
L 267.882669 210.139975 
L 268.207431 36.528506 
L 268.42394 179.537095 
L 268.532194 139.194515 
L 268.640449 182.996551 
L 268.856957 99.277715 
L 268.965211 113.381651 
L 269.073466 75.593747 
L 269.18172 131.53049 
L 269.289974 74.955079 
L 269.398228 75.593747 
L 269.506483 81.288544 
L 269.722991 163.623597 
L 269.824061 -1 
M 269.838075 -1 
L 269.9395 172.77785 
L 270.047754 83.523885 
L 270.156008 207.585299 
L 270.264263 104.866067 
L 270.480771 163.517152 
L 270.69728 115.670215 
L 270.805534 116.574995 
L 270.913788 83.523885 
L 271.022042 101.513056 
L 271.238551 27.214586 
L 271.346805 124.6648 
L 271.455059 65.162157 
L 271.563314 134.404499 
L 271.779822 71.495623 
L 271.996331 200.772832 
L 272.104585 152.446893 
L 272.212839 159.631917 
L 272.321094 59.733472 
L 272.429348 85.812448 
L 272.537602 138.821959 
L 272.645856 97.627821 
L 272.754111 116.628218 
L 272.862365 28.598368 
L 272.970619 153.085562 
L 273.078873 61.01081 
L 273.187128 88.899347 
L 273.295382 38.39129 
L 273.51189 118.810336 
L 273.620145 74.688967 
L 273.728399 178.472647 
L 273.836653 147.071431 
L 273.944908 170.489287 
L 274.161416 123.919687 
L 274.377925 44.777978 
L 274.486179 45.04409 
L 274.594433 104.174176 
L 274.702687 42.276525 
L 274.810942 157.769133 
L 274.919196 75.167968 
L 275.02745 197.952045 
L 275.243959 102.364615 
L 275.352213 162.293037 
L 275.460467 66.918496 
L 275.568722 143.079751 
L 275.676976 83.683552 
L 275.78523 93.157139 
L 275.893484 181.453101 
L 276.001739 180.54832 
L 276.109993 59.839917 
L 276.326501 164.847712 
L 276.434756 105.877293 
L 276.54301 109.762528 
L 276.759518 176.130861 
L 276.867773 73.571296 
L 277.192536 122.535904 
L 277.409044 24.287354 
L 277.625553 134.936723 
L 277.733807 67.876499 
L 277.842061 92.145914 
L 277.950315 206.520851 
L 278.05857 134.936723 
L 278.275078 158.461024 
L 278.383332 158.088467 
L 278.491587 139.194515 
L 278.599841 160.856032 
L 278.708095 151.542112 
L 278.81635 33.920608 
L 278.924604 125.888915 
L 279.032858 74.476077 
L 279.141112 163.038151 
L 279.249367 146.752096 
L 279.465875 43.553863 
L 279.574129 54.730567 
L 279.898892 255.27257 
L 280.007146 147.177875 
L 280.115401 182.783661 
L 280.223655 3.903175 
L 280.331909 149.998663 
L 280.440164 113.328429 
L 280.548418 118.544224 
L 280.656672 72.187514 
L 280.764926 185.977005 
L 280.981435 115.510547 
L 281.197943 72.347181 
L 281.306198 158.673914 
L 281.63096 41.584634 
L 281.739215 155.214458 
L 281.847469 150.211552 
L 281.955723 77.935533 
L 282.063978 83.204551 
L 282.172232 158.194912 
L 282.38874 87.568787 
L 282.605249 208.543303 
L 282.821757 61.702701 
L 282.930012 129.508039 
L 283.14652 70.431175 
L 283.254774 97.947155 
L 283.363029 34.772167 
L 283.579537 71.708512 
L 283.796046 135.628615 
L 283.9043 162.239815 
L 284.012554 119.449005 
L 284.120809 147.816544 
L 284.553826 70.856954 
L 284.770334 164.368711 
L 284.878588 76.97753 
L 284.986843 147.071431 
L 285.203351 15.665325 
L 285.311606 144.250643 
L 285.41986 123.174573 
L 285.528114 158.248135 
L 285.852877 22.42457 
L 285.961131 122.056903 
L 286.069385 120.939232 
L 286.394148 37.06073 
L 286.502402 71.548845 
L 286.718911 176.982419 
L 286.827165 51.430778 
L 287.043674 155.001568 
L 287.260182 113.541319 
L 287.367942 -1 
M 287.369469 -1 
L 287.584945 104.440288 
L 287.693199 105.132179 
L 287.801454 146.379539 
L 287.909708 125.090579 
L 288.017962 33.973831 
L 288.126216 127.751699 
L 288.234471 107.473965 
L 288.450979 144.037754 
L 288.559234 39.349293 
L 288.775742 85.386669 
L 288.992251 184.060999 
L 289.092414 -1 
M 289.10925 -1 
L 289.208759 169.105504 
L 289.317013 51.750112 
L 289.641776 135.256058 
L 289.858285 33.228717 
L 289.966539 177.8872 
L 290.366262 -1 
M 290.420855 -1 
L 290.616065 105.557959 
L 290.724319 134.936723 
L 291.049082 51.643667 
L 291.157336 80.011207 
L 291.26559 73.784186 
L 291.373844 16.303994 
L 291.482099 126.687251 
L 291.698607 44.990867 
L 291.806862 124.6648 
L 291.915116 101.246944 
L 292.02337 106.462739 
L 292.131624 71.921402 
L 292.239879 150.15833 
L 292.348133 106.994963 
L 292.456387 125.090579 
L 292.564641 21.892346 
L 292.672896 81.980435 
L 292.78115 4.222509 
L 292.997658 155.853127 
L 293.105913 114.658989 
L 293.176707 -1 
M 293.251774 -1 
L 293.430676 139.034848 
L 293.647184 50.259885 
L 293.755438 149.998663 
L 293.863693 99.59705 
L 294.188455 211.044755 
L 294.29671 114.712211 
L 294.404964 150.584109 
L 294.513218 74.848634 
L 294.621472 134.936723 
L 294.729727 122.961683 
L 294.837981 159.152915 
L 295.05449 56.486906 
L 295.162744 61.489811 
L 295.270998 133.340051 
L 295.487507 99.703495 
L 295.595761 132.328826 
L 295.704015 95.765037 
L 295.812269 142.600749 
L 296.028778 45.629536 
L 296.137032 115.457325 
L 296.245286 67.45072 
L 296.353541 164.5816 
L 296.461795 106.622407 
L 296.570049 131.424045 
L 296.678304 78.733869 
L 296.786558 87.515565 
L 296.894812 177.248531 
L 297.003066 89.804128 
L 297.111321 158.301357 
L 297.219575 78.041978 
L 297.327829 88.260679 
L 297.544338 153.245229 
L 297.8691 55.049901 
L 297.977355 108.006189 
L 298.193863 35.51728 
L 298.302118 168.999059 
L 298.385963 -1 
M 298.434675 -1 
L 298.518626 169.957063 
L 298.62688 166.657274 
L 298.703634 -1 
M 298.771697 -1 
L 298.843389 133.925498 
L 299.059897 86.451117 
L 299.168152 97.202042 
L 299.276406 60.638253 
L 299.492914 83.151328 
L 299.601169 151.542112 
L 299.709423 114.02032 
L 299.817677 167.402387 
L 299.925932 57.764243 
L 300.14244 83.41744 
L 300.250694 136.054394 
L 300.358949 121.258567 
L 300.467203 81.288544 
L 300.575457 136.373728 
L 300.683711 130.359597 
L 300.778559 -1 
M 300.80388 -1 
L 301.008474 163.836487 
L 301.116728 156.438573 
L 301.432917 -1 
M 301.44437 -1 
L 301.549746 193.587808 
L 301.658 27.267808 
L 301.874508 132.64816 
L 301.982763 105.983738 
L 302.091017 121.311789 
L 302.199271 81.128877 
L 302.307525 138.342957 
L 302.41578 57.232019 
L 302.524034 146.432762 
L 302.632288 126.155027 
L 302.740542 137.810733 
L 302.848797 82.512659 
L 302.957051 147.550432 
L 303.065305 24.766355 
L 303.281814 127.751699 
L 303.498322 82.352992 
L 303.714831 70.856954 
L 303.823085 51.803335 
L 303.931339 79.106426 
L 304.039594 252.39856 
L 304.147848 28.598368 
L 304.364356 108.804525 
L 304.472611 181.293434 
L 304.797374 106.675629 
L 304.905628 58.881914 
L 305.013882 84.109331 
L 305.230391 187.520455 
L 305.446899 91.028243 
L 305.555153 89.804128 
L 305.663408 145.847315 
L 305.771662 81.661101 
L 305.879916 149.679328 
L 305.98817 16.144327 
L 306.096425 191.884691 
L 306.204679 131.051488 
L 306.312933 170.11673 
L 306.529442 72.98585 
L 306.637696 132.222381 
L 306.74595 122.00368 
L 306.854205 128.177479 
L 306.962459 119.34256 
L 307.019784 -1 
M 307.188936 -1 
L 307.287222 147.443987 
L 307.395476 33.06905 
L 307.50373 121.577901 
L 307.611984 78.148423 
L 307.720239 122.163347 
L 307.828493 235.580282 
L 308.045002 74.688967 
L 308.153256 107.154631 
L 308.26151 68.195834 
L 308.478019 146.964986 
L 308.586273 132.967495 
L 308.694527 68.408723 
L 308.802781 168.999059 
L 308.911036 47.651987 
L 309.01929 111.3592 
L 309.127544 96.776263 
L 309.235798 129.720928 
L 309.344053 9.917306 
L 309.452307 119.768339 
L 309.560561 115.244435 
L 309.668816 126.421139 
L 309.77707 39.242848 
L 309.885324 113.434874 
L 309.993578 50.100218 
L 310.318341 140.897632 
L 310.426595 153.298451 
L 310.53485 152.659783 
L 310.643104 144.090976 
L 310.751358 124.398688 
L 310.859612 160.536698 
L 311.076121 116.468551 
L 311.184375 113.913875 
L 311.29263 157.077242 
L 311.617392 76.392083 
L 311.69102 -1 
M 311.754805 -1 
L 311.833901 97.734266 
L 311.942155 40.83952 
L 312.050409 106.888519 
L 312.158664 80.596653 
L 312.266918 136.054394 
L 312.345688 -1 
M 312.407913 -1 
L 312.483426 117.320109 
L 312.591681 101.619501 
L 312.699935 61.01081 
L 312.808189 77.882311 
L 312.916444 140.152519 
L 313.024698 63.725152 
L 313.132952 123.919687 
L 313.241206 50.951776 
L 313.349461 71.016621 
L 313.457715 133.393274 
L 313.674223 50.845331 
L 313.782478 85.865671 
L 313.890732 169.052282 
L 313.998986 98.532602 
L 314.10724 161.760813 
L 314.208574 -1 
M 314.225113 -1 
L 314.323749 113.009095 
L 314.432003 100.182496 
L 314.540258 121.311789 
L 314.648512 74.31641 
L 314.756766 125.622803 
L 314.86502 70.537619 
L 314.973275 75.43408 
L 315.081529 165.539603 
L 315.189783 3.743507 
L 315.406292 119.289338 
L 315.6228 33.281939 
L 315.725043 -1 
M 315.732624 -1 
L 315.839309 136.001171 
L 316.055817 55.582125 
L 316.164072 139.194515 
L 316.488834 80.543431 
L 316.597089 163.304263 
L 316.813597 135.096391 
L 316.921851 147.018208 
L 317.030106 23.489018 
L 317.246614 115.723437 
L 317.354868 123.919687 
L 317.463123 169.052282 
L 317.679631 65.907271 
L 317.787886 169.052282 
L 318.004394 67.929722 
L 318.112648 98.106823 
L 318.220903 143.824864 
L 318.437411 57.977133 
L 318.545665 65.747603 
L 318.65392 146.805319 
L 318.762174 116.042771 
L 318.870428 13.749319 
L 318.978682 106.356295 
L 319.086937 47.70521 
L 319.195191 127.592032 
L 319.303445 109.283527 
L 319.4117 144.410311 
L 319.628208 103.58873 
L 319.697843 -1 
M 319.766965 -1 
L 319.952971 160.962477 
L 320.061225 11.407533 
L 320.277734 113.594541 
L 320.385988 21.519789 
L 320.494242 145.048979 
L 320.602496 24.713133 
L 321.035514 170.968288 
L 321.143768 75.061523 
L 321.360276 126.474362 
L 321.576785 93.742586 
L 321.685039 143.452307 
L 321.793293 121.631123 
L 321.901548 36.954285 
L 322.009802 199.069715 
L 322.22631 121.950458 
L 322.286556 -1 
M 322.381104 -1 
L 322.442819 128.922592 
L 322.543261 -1 
M 322.563345 -1 
L 322.767582 124.398688 
L 323.092345 50.15344 
L 323.308853 102.098503 
L 323.417107 71.921402 
L 323.525362 78.520979 
L 323.621581 -1 
M 323.640478 -1 
L 323.74187 145.95376 
L 323.850124 87.994567 
L 323.958379 88.367123 
L 324.066633 137.118842 
L 324.173088 -1 
M 324.177924 -1 
L 324.391396 103.641952 
L 324.49965 157.449799 
L 324.607904 72.400403 
L 324.716159 122.110125 
L 324.824413 39.987962 
L 324.932667 91.4008 
L 325.040921 48.556768 
L 325.365684 142.441082 
L 325.582193 80.011207 
L 325.798701 122.695571 
L 325.906956 93.103917 
L 326.01521 14.121875 
L 326.231718 169.744173 
L 326.339973 69.419949 
L 326.448227 78.733869 
L 326.556481 0.177607 
L 326.77299 135.681837 
L 326.881244 170.329619 
L 327.097752 15.452435 
L 327.422515 171.660179 
L 327.53077 94.487699 
L 327.639024 175.22608 
L 327.747278 35.091501 
L 327.963787 128.922592 
L 328.180295 108.378746 
L 328.288549 96.456928 
L 328.396804 13.908986 
L 328.613312 82.619104 
L 328.721566 81.714323 
L 328.812116 -1 
M 328.856264 -1 
L 329.154584 118.650669 
L 329.262838 43.340973 
L 329.479346 161.228589 
L 329.695855 34.239943 
L 329.804109 163.304263 
L 329.912363 63.45904 
L 330.020618 105.877293 
L 330.128872 103.109728 
L 330.237126 67.876499 
L 330.34538 158.620691 
L 330.453635 87.355898 
L 330.561889 133.233607 
L 330.670143 69.898951 
L 330.778398 107.686855 
L 330.886652 101.300167 
L 330.994906 113.700986 
L 331.10316 34.931834 
L 331.211415 146.858541 
L 331.319669 33.175495 
L 331.427923 140.312186 
L 331.644432 110.720531 
L 331.752686 139.407405 
L 331.86094 49.301882 
L 331.969194 120.513453 
L 332.077449 70.11184 
L 332.185703 163.783264 
L 332.402212 73.677741 
L 332.510466 89.591239 
L 332.61872 82.619104 
L 332.726974 107.101408 
L 332.835229 104.280621 
L 332.943483 88.367123 
L 333.051737 41.371744 
L 333.268246 146.113427 
L 333.484754 4.169287 
L 333.593008 142.494304 
L 333.701263 87.994567 
L 333.809517 101.406611 
L 334.13428 187.680122 
L 334.242534 160.110919 
L 334.350788 179.643539 
L 334.567297 70.644064 
L 334.675551 49.514771 
L 334.783805 93.370029 
L 334.89206 50.100218 
L 335.000314 132.488493 
L 335.108568 74.742189 
L 335.216822 107.101408 
L 335.325077 5.553069 
L 335.433331 131.424045 
L 335.541585 98.745491 
L 335.64984 118.278112 
L 335.758094 93.263584 
L 335.866348 138.236512 
L 336.082857 28.545146 
L 336.191111 51.324333 
L 336.407619 167.881389 
L 336.515874 170.276397 
L 336.732382 62.447815 
L 336.948891 154.469344 
L 337.057145 136.054394 
L 337.165399 78.680647 
L 337.273654 106.462739 
L 337.381908 42.223303 
L 337.490162 162.346259 
L 337.598416 56.061127 
L 337.814925 112.370426 
L 337.923179 77.882311 
L 338.031433 129.98704 
L 338.139688 62.713927 
L 338.247942 78.840314 
L 338.356196 165.699271 
L 338.46445 95.765037 
L 338.572705 99.437383 
L 338.680959 143.452307 
L 338.789213 137.917178 
L 339.005722 87.728455 
L 339.113976 41.957191 
L 339.22223 124.132576 
L 339.330485 31.259488 
L 339.438739 119.076448 
L 339.655247 74.476077 
L 339.763502 145.527981 
L 339.98001 71.974624 
L 340.196519 147.550432 
L 340.304773 148.987437 
L 340.413027 20.668231 
L 340.73779 152.180781 
L 340.846044 99.916384 
L 340.917218 -1 
M 341.018335 -1 
L 341.170807 135.841504 
L 341.279061 130.359597 
L 341.387316 128.86937 
L 341.49557 137.651066 
L 341.603824 134.138387 
L 341.820333 60.318919 
L 341.928587 67.610387 
L 342.036841 51.111443 
L 342.25335 149.093882 
L 342.361604 158.14169 
L 342.469858 148.880992 
L 342.794621 33.707719 
L 342.902875 44.352199 
L 343.01113 129.667706 
L 343.090254 -1 
M 343.153621 -1 
L 343.227638 103.003283 
L 343.444147 91.187911 
L 343.552401 166.497607 
L 343.754902 -1 
M 343.777061 -1 
L 343.985418 133.020717 
L 344.201927 98.106823 
L 344.310181 31.153043 
L 344.526689 106.835296 
L 344.634944 83.257773 
L 344.743198 157.822355 
L 344.959706 27.054919 
L 345.067961 138.396179 
L 345.176215 99.756717 
L 345.284469 175.598637 
L 345.392724 68.249056 
L 345.609232 90.336352 
L 345.717486 97.202042 
L 345.825741 119.34256 
L 346.042249 101.938835 
L 346.150503 105.345069 
L 346.258758 155.533792 
L 346.367012 80.011207 
L 346.475266 89.218682 
L 346.58352 128.230701 
L 346.691775 61.383367 
L 346.800029 82.619104 
L 346.908283 47.385875 
L 347.016538 174.374522 
L 347.233046 49.195437 
L 347.3413 124.505133 
L 347.449555 60.691475 
L 347.557809 79.478983 
L 347.666063 139.194515 
L 347.774317 51.004999 
L 347.990826 189.755795 
L 348.09908 65.375047 
L 348.315589 122.323015 
L 348.423843 110.507642 
L 348.532097 178.579091 
L 348.640351 164.421933 
L 348.748606 98.479379 
L 348.85686 139.779962 
L 348.965114 123.760019 
L 349.073369 50.313107 
L 349.289877 106.835296 
L 349.398131 133.340051 
L 349.506386 104.493511 
L 349.61464 111.305978 
L 349.722894 157.9288 
L 349.831148 124.505133 
L 349.939403 141.749191 
L 350.37242 27.214586 
L 350.588928 153.085562 
L 350.697183 109.602861 
L 350.805437 166.497607 
L 350.913691 105.504736 
L 351.1302 152.127559 
L 351.346708 33.122272 
L 351.390249 -1 
M 351.4929 -1 
L 351.563217 92.997472 
L 351.671471 3.158061 
L 351.779725 18.060333 
L 351.996234 109.709306 
L 352.104488 125.569581 
L 352.212742 72.879405 
L 352.320997 150.584109 
L 352.429251 69.419949 
L 352.645759 144.410311 
L 352.970522 84.535111 
L 353.078776 38.284845 
L 353.295285 120.034451 
L 353.403539 80.862765 
L 353.511793 139.034848 
L 353.599461 -1 
M 353.639697 -1 
L 353.728302 147.28432 
L 353.836556 136.533395 
L 353.944811 108.964192 
L 354.053065 133.180384 
L 354.155552 -1 
M 354.290053 -1 
L 354.486082 127.059808 
L 354.70259 55.795015 
L 354.810845 156.066016 
L 354.919099 87.834899 
L 355.027353 147.018208 
L 355.135607 106.835296 
L 355.243862 129.933818 
L 355.352116 61.489811 
L 355.46037 167.349165 
L 355.568625 166.710496 
L 355.676879 98.479379 
L 355.785133 101.885613 
L 355.893387 100.395386 
L 356.001642 39.668627 
L 356.21815 101.300167 
L 356.326404 116.574995 
L 356.542913 75.753415 
L 356.638164 -1 
M 356.695661 -1 
L 356.759421 14.015431 
L 356.97593 135.043168 
L 357.084184 139.034848 
L 357.192439 163.623597 
L 357.300693 99.543827 
L 357.408947 163.570375 
L 357.725409 -1 
M 357.737583 -1 
L 357.841964 127.911367 
L 358.058473 96.350483 
L 358.166727 91.720135 
L 358.383235 116.415328 
L 358.49149 157.875578 
L 358.707998 85.014112 
L 358.816253 163.197818 
L 358.924507 141.695968 
L 359.032761 82.672327 
L 359.141015 129.135482 
L 359.24927 95.019923 
L 359.330007 -1 
M 359.396771 -1 
L 359.574032 96.403706 
L 359.682287 106.03696 
L 359.790541 95.445703 
L 359.898795 38.018733 
L 360.115304 130.572487 
L 360.223558 14.281543 
L 360.331812 158.567469 
L 360.440067 147.390765 
L 360.656575 55.156346 
L 360.764829 132.488493 
L 360.873084 118.544224 
L 360.981338 142.813639 
L 361.089592 14.866989 
L 361.306101 120.513453 
L 361.414355 106.196627 
L 361.630863 118.065223 
L 361.739118 109.017415 
L 361.847372 111.57209 
L 361.955626 89.750906 
L 362.172135 105.717626 
L 362.280389 87.143008 
L 362.496898 124.87769 
L 362.605152 108.538413 
L 362.713406 153.404896 
L 362.82166 132.009491 
L 362.929915 154.788679 
L 363.254677 46.214983 
L 363.57944 138.502624 
L 363.687695 79.319315 
L 363.904203 139.992851 
L 364.012457 61.117255 
L 364.228966 84.801223 
L 364.33722 149.093882 
L 364.445474 45.04409 
L 364.553729 137.491399 
L 364.878491 25.08569 
L 364.986746 177.8872 
L 365.203254 54.304787 
L 365.419763 113.062317 
L 365.528017 87.675232 
L 365.636271 128.496813 
L 365.744526 114.073543 
L 365.85278 79.851539 
L 366.069288 149.892218 
L 366.177543 89.857351 
L 366.285797 134.404499 
L 366.481255 -1 
M 366.513248 -1 
L 366.718814 147.763322 
L 366.827068 30.567597 
L 366.935323 109.868973 
L 367.043577 94.27481 
L 367.151831 121.790791 
L 367.260085 121.045677 
L 367.584848 94.753811 
L 367.693102 96.456928 
L 367.801357 32.483603 
L 367.909611 101.672723 
L 368.017865 45.948871 
L 368.234374 129.774151 
L 368.342628 102.737171 
L 368.450882 33.920608 
L 368.559137 38.1784 
L 368.656675 -1 
M 368.671219 -1 
L 368.883899 128.230701 
L 369.100408 111.731757 
L 369.208662 145.95376 
L 369.425171 109.762528 
L 369.533425 120.513453 
L 369.641679 95.019923 
L 369.749933 172.245626 
L 369.966442 90.868576 
L 370.182951 127.485587 
L 370.291205 72.879405 
L 370.399459 135.947949 
L 370.615968 87.089786 
L 370.724222 101.246944 
L 370.94073 58.988359 
L 371.048985 110.720531 
L 371.157239 105.238624 
L 371.265493 135.043168 
L 371.373747 109.070637 
L 371.482002 128.071034 
L 371.590256 41.531411 
L 371.69851 103.482285 
L 371.806765 71.4424 
L 371.915019 148.82777 
L 372.131527 72.879405 
L 372.239782 79.745095 
L 372.348036 144.303866 
L 372.45629 117.745888 
L 372.564544 125.942138 
L 372.672799 104.120954 
L 372.781053 113.168762 
L 372.889307 151.595335 
L 372.997561 56.859463 
L 373.105816 125.090579 
L 373.21407 29.503149 
L 373.430579 118.810336 
L 373.538833 3.104839 
L 373.863596 94.487699 
L 373.97185 133.97872 
L 374.080104 109.017415 
L 374.188358 168.147501 
L 374.296613 125.356691 
L 374.404867 142.653971 
L 374.49888 -1 
M 374.535164 -1 
L 374.72963 136.054394 
L 374.837884 77.722643 
L 375.054393 119.182893 
L 375.162647 103.695175 
L 375.270901 167.774944 
L 375.379155 107.101408 
L 375.48741 189.542906 
L 375.595664 69.153837 
L 375.703918 118.384557 
L 375.812172 96.669818 
L 375.920427 144.037754 
L 376.028681 140.737965 
L 376.245189 88.633235 
L 376.353444 87.355898 
L 376.461698 170.382842 
L 376.678207 79.478983 
L 376.786461 161.867258 
L 376.894715 86.983341 
L 377.002969 144.144199 
L 377.219478 80.330541 
L 377.435986 158.035245 
L 377.544241 146.273095 
L 377.652495 102.683949 
L 377.749279 -1 
M 377.769951 -1 
L 377.869003 131.264378 
L 377.977258 74.10352 
L 378.193766 130.359597 
L 378.302021 121.737568 
L 378.410275 88.473568 
L 378.518529 138.875181 
L 378.735038 51.909779 
L 378.951546 141.323411 
L 379.276309 85.599559 
L 379.384563 135.894727 
L 379.492817 64.949267 
L 379.709326 127.379143 
L 379.81758 104.866067 
L 379.925835 142.17497 
L 380.142343 93.689363 
L 380.358852 127.166253 
L 380.467106 4.116064 
L 380.57536 162.080147 
L 380.683614 153.351674 
L 380.791869 18.060333 
L 380.900123 110.454419 
L 381.116631 76.125971 
L 381.224886 112.955872 
L 381.33314 73.677741 
L 381.441394 127.964589 
L 381.549649 106.728851 
L 381.62114 -1 
M 381.688193 -1 
L 381.766157 141.589523 
L 381.874411 113.700986 
L 381.982666 123.866464 
L 382.09092 57.444909 
L 382.307428 95.179591 
L 382.415683 112.530093 
L 382.632191 10.928531 
L 382.740445 86.504339 
L 382.8487 41.158855 
L 383.065208 101.832391 
L 383.281717 161.228589 
L 383.498225 38.976736 
L 383.714734 132.328826 
L 384.008461 -1 
M 384.064741 -1 
L 384.256005 112.051091 
L 384.364259 95.073146 
L 384.472514 49.993773 
L 384.580768 78.520979 
L 384.689022 45.842426 
L 384.797277 120.247341 
L 384.905531 111.199533 
L 385.013785 88.73968 
L 385.122039 103.109728 
L 385.230294 58.030355 
L 385.446802 107.154631 
L 385.555056 116.255661 
L 385.663311 115.084768 
L 385.771565 158.354579 
L 385.879819 24.606688 
L 385.988073 124.930912 
L 386.096328 107.633632 
L 386.204582 136.001171 
L 386.421091 20.615008 
L 386.745853 109.922195 
L 386.854108 122.961683 
L 386.962362 91.879802 
L 387.070616 105.451514 
L 387.17887 70.803731 
L 387.287125 96.297261 
L 387.395379 153.085562 
L 387.503633 50.951776 
L 387.611887 136.107616 
L 387.720142 130.040263 
L 387.828396 95.552147 
L 388.044905 129.135482 
L 388.153159 159.099693 
L 388.261413 152.925895 
L 388.477922 74.209965 
L 388.69443 131.051488 
L 388.802684 116.149216 
L 388.910939 160.696365 
L 389.127447 38.710624 
L 389.343956 118.757114 
L 389.45221 129.401594 
L 389.668719 72.506848 
L 389.885227 112.423648 
L 389.993481 87.941344 
L 390.20999 155.587015 
L 390.426498 40.466963 
L 390.534753 165.699271 
L 390.643007 152.021114 
L 390.751261 75.806637 
L 391.076024 158.354579 
L 391.184278 83.789997 
L 391.292533 146.858541 
L 391.400787 108.751303 
L 391.509041 27.321031 
L 391.72555 132.594938 
L 391.833804 122.961683 
L 391.942058 126.846919 
L 392.050312 113.062317 
L 392.158567 135.894727 
L 392.375075 94.381255 
L 392.483329 38.657402 
L 392.591584 106.196627 
L 392.699838 73.145517 
L 392.804641 -1 
M 392.812652 -1 
L 393.024601 167.987834 
L 393.241109 16.410439 
L 393.349364 49.195437 
L 393.457618 135.202835 
L 393.565872 101.885613 
L 393.674126 153.617786 
L 393.782381 129.295149 
L 393.890635 139.141293 
L 393.998889 101.513056 
L 394.107143 9.810861 
L 394.215398 85.067335 
L 394.215398 85.067335 
" style="fill:none;stroke:#0000ff;stroke-linecap:square;stroke-opacity:0.5;stroke-width:1.5;"/>
   </g>
   <g id="patch_3">
    <path d="M 53.328125 288.430125 
L 53.328125 22.318125 
" style="fill:none;stroke:#000000;stroke-linecap:square;stroke-linejoin:miter;stroke-width:0.8;"/>
   </g>
   <g id="patch_4">
    <path d="M 410.448125 288.430125 
L 410.448125 22.318125 
" style="fill:none;stroke:#000000;stroke-linecap:square;stroke-linejoin:miter;stroke-width:0.8;"/>
   </g>
   <g id="patch_5">
    <path d="M 53.328125 288.430125 
L 410.448125 288.430125 
" style="fill:none;stroke:#000000;stroke-linecap:square;stroke-linejoin:miter;stroke-width:0.8;"/>
   </g>
   <g id="patch_6">
    <path d="M 53.328125 22.318125 
L 410.448125 22.318125 
" style="fill:none;stroke:#000000;stroke-linecap:square;stroke-linejoin:miter;stroke-width:0.8;"/>
   </g>
   <g id="text_16">
    <!-- Assault - Atari -->
    <defs>
     <path d="M 44.28125 53.078125 
L 44.28125 44.578125 
Q 40.484375 46.53125 36.375 47.5 
Q 32.28125 48.484375 27.875 48.484375 
Q 21.1875 48.484375 17.84375 46.4375 
Q 14.5 44.390625 14.5 40.28125 
Q 14.5 37.15625 16.890625 35.375 
Q 19.28125 33.59375 26.515625 31.984375 
L 29.59375 31.296875 
Q 39.15625 29.25 43.1875 25.515625 
Q 47.21875 21.78125 47.21875 15.09375 
Q 47.21875 7.46875 41.1875 3.015625 
Q 35.15625 -1.421875 24.609375 -1.421875 
Q 20.21875 -1.421875 15.453125 -0.5625 
Q 10.6875 0.296875 5.421875 2 
L 5.421875 11.28125 
Q 10.40625 8.6875 15.234375 7.390625 
Q 20.0625 6.109375 24.8125 6.109375 
Q 31.15625 6.109375 34.5625 8.28125 
Q 37.984375 10.453125 37.984375 14.40625 
Q 37.984375 18.0625 35.515625 20.015625 
Q 33.0625 21.96875 24.703125 23.78125 
L 21.578125 24.515625 
Q 13.234375 26.265625 9.515625 29.90625 
Q 5.8125 33.546875 5.8125 39.890625 
Q 5.8125 47.609375 11.28125 51.796875 
Q 16.75 56 26.8125 56 
Q 31.78125 56 36.171875 55.265625 
Q 40.578125 54.546875 44.28125 53.078125 
z
" id="DejaVuSans-115"/>
     <path d="M 8.5 21.578125 
L 8.5 54.6875 
L 17.484375 54.6875 
L 17.484375 21.921875 
Q 17.484375 14.15625 20.5 10.265625 
Q 23.53125 6.390625 29.59375 6.390625 
Q 36.859375 6.390625 41.078125 11.03125 
Q 45.3125 15.671875 45.3125 23.6875 
L 45.3125 54.6875 
L 54.296875 54.6875 
L 54.296875 0 
L 45.3125 0 
L 45.3125 8.40625 
Q 42.046875 3.421875 37.71875 1 
Q 33.40625 -1.421875 27.6875 -1.421875 
Q 18.265625 -1.421875 13.375 4.4375 
Q 8.5 10.296875 8.5 21.578125 
z
M 31.109375 56 
z
" id="DejaVuSans-117"/>
     <path d="M 9.421875 75.984375 
L 18.40625 75.984375 
L 18.40625 0 
L 9.421875 0 
z
" id="DejaVuSans-108"/>
     <path d="M 9.421875 54.6875 
L 18.40625 54.6875 
L 18.40625 0 
L 9.421875 0 
z
M 9.421875 75.984375 
L 18.40625 75.984375 
L 18.40625 64.59375 
L 9.421875 64.59375 
z
" id="DejaVuSans-105"/>
    </defs>
    <g transform="translate(189.789688 16.318125)scale(0.12 -0.12)">
     <use xlink:href="#DejaVuSans-65"/>
     <use x="68.408203" xlink:href="#DejaVuSans-115"/>
     <use x="120.507812" xlink:href="#DejaVuSans-115"/>
     <use x="172.607422" xlink:href="#DejaVuSans-97"/>
     <use x="233.886719" xlink:href="#DejaVuSans-117"/>
     <use x="297.265625" xlink:href="#DejaVuSans-108"/>
     <use x="325.048828" xlink:href="#DejaVuSans-116"/>
     <use x="364.257812" xlink:href="#DejaVuSans-32"/>
     <use x="396.044922" xlink:href="#DejaVuSans-45"/>
     <use x="432.128906" xlink:href="#DejaVuSans-32"/>
     <use x="463.916016" xlink:href="#DejaVuSans-65"/>
     <use x="532.308594" xlink:href="#DejaVuSans-116"/>
     <use x="571.517578" xlink:href="#DejaVuSans-97"/>
     <use x="632.796875" xlink:href="#DejaVuSans-114"/>
     <use x="673.910156" xlink:href="#DejaVuSans-105"/>
    </g>
   </g>
   <g id="legend_1">
    <g id="patch_7">
     <path d="M 295.085625 44.99625 
L 403.448125 44.99625 
Q 405.448125 44.99625 405.448125 42.99625 
L 405.448125 29.318125 
Q 405.448125 27.318125 403.448125 27.318125 
L 295.085625 27.318125 
Q 293.085625 27.318125 293.085625 29.318125 
L 293.085625 42.99625 
Q 293.085625 44.99625 295.085625 44.99625 
z
" style="fill:#ffffff;opacity:0.8;stroke:#cccccc;stroke-linejoin:miter;"/>
    </g>
    <g id="line2d_15">
     <path d="M 297.085625 35.416562 
L 317.085625 35.416562 
" style="fill:none;stroke:#0000ff;stroke-linecap:square;stroke-opacity:0.5;stroke-width:1.5;"/>
    </g>
    <g id="line2d_16"/>
    <g id="text_17">
     <!-- Flushed Replay -->
     <defs>
      <path d="M 9.8125 72.90625 
L 51.703125 72.90625 
L 51.703125 64.59375 
L 19.671875 64.59375 
L 19.671875 43.109375 
L 48.578125 43.109375 
L 48.578125 34.8125 
L 19.671875 34.8125 
L 19.671875 0 
L 9.8125 0 
z
" id="DejaVuSans-70"/>
      <path d="M 54.890625 33.015625 
L 54.890625 0 
L 45.90625 0 
L 45.90625 32.71875 
Q 45.90625 40.484375 42.875 44.328125 
Q 39.84375 48.1875 33.796875 48.1875 
Q 26.515625 48.1875 22.3125 43.546875 
Q 18.109375 38.921875 18.109375 30.90625 
L 18.109375 0 
L 9.078125 0 
L 9.078125 75.984375 
L 18.109375 75.984375 
L 18.109375 46.1875 
Q 21.34375 51.125 25.703125 53.5625 
Q 30.078125 56 35.796875 56 
Q 45.21875 56 50.046875 50.171875 
Q 54.890625 44.34375 54.890625 33.015625 
z
" id="DejaVuSans-104"/>
      <path d="M 32.171875 -5.078125 
Q 28.375 -14.84375 24.75 -17.8125 
Q 21.140625 -20.796875 15.09375 -20.796875 
L 7.90625 -20.796875 
L 7.90625 -13.28125 
L 13.1875 -13.28125 
Q 16.890625 -13.28125 18.9375 -11.515625 
Q 21 -9.765625 23.484375 -3.21875 
L 25.09375 0.875 
L 2.984375 54.6875 
L 12.5 54.6875 
L 29.59375 11.921875 
L 46.6875 54.6875 
L 56.203125 54.6875 
z
" id="DejaVuSans-121"/>
     </defs>
     <g transform="translate(325.085625 38.916562)scale(0.1 -0.1)">
      <use xlink:href="#DejaVuSans-70"/>
      <use x="57.519531" xlink:href="#DejaVuSans-108"/>
      <use x="85.302734" xlink:href="#DejaVuSans-117"/>
      <use x="148.681641" xlink:href="#DejaVuSans-115"/>
      <use x="200.78125" xlink:href="#DejaVuSans-104"/>
      <use x="264.160156" xlink:href="#DejaVuSans-101"/>
      <use x="325.683594" xlink:href="#DejaVuSans-100"/>
      <use x="389.160156" xlink:href="#DejaVuSans-32"/>
      <use x="420.947266" xlink:href="#DejaVuSans-82"/>
      <use x="490.367188" xlink:href="#DejaVuSans-101"/>
      <use x="551.890625" xlink:href="#DejaVuSans-112"/>
      <use x="615.367188" xlink:href="#DejaVuSans-108"/>
      <use x="643.150391" xlink:href="#DejaVuSans-97"/>
      <use x="704.429688" xlink:href="#DejaVuSans-121"/>
     </g>
    </g>
   </g>
  </g>
 </g>
 <defs>
  <clipPath id="p452860353d">
   <rect height="266.112" width="357.12" x="53.328125" y="22.318125"/>
  </clipPath>
 </defs>
</svg>
