<?xml version="1.0" encoding="utf-8" standalone="no"?>
<!DOCTYPE svg PUBLIC "-//W3C//DTD SVG 1.1//EN"
  "http://www.w3.org/Graphics/SVG/1.1/DTD/svg11.dtd">
<!-- Created with matplotlib (https://matplotlib.org/) -->
<svg height="325.986375pt" version="1.1" viewBox="0 0 429.527812 325.986375" width="429.527812pt" xmlns="http://www.w3.org/2000/svg" xmlns:xlink="http://www.w3.org/1999/xlink">
 <defs>
  <style type="text/css">
*{stroke-linecap:butt;stroke-linejoin:round;}
  </style>
 </defs>
 <g id="figure_1">
  <g id="patch_1">
   <path d="M 0 325.986375 
L 429.527812 325.986375 
L 429.527812 0 
L 0 0 
z
" style="fill:#ffffff;"/>
  </g>
  <g id="axes_1">
   <g id="patch_2">
    <path d="M 61.707813 288.430125 
L 418.827813 288.430125 
L 418.827813 22.318125 
L 61.707813 22.318125 
z
" style="fill:#ffffff;"/>
   </g>
   <g id="patch_3">
    <path clip-path="url(#p383b3e75e7)" d="M 77.94054 159.374012 
L 78.701364 159.374012 
L 78.701364 156.983836 
L 77.94054 156.983836 
z
" style="fill:#0000ff;opacity:0.5;"/>
   </g>
   <g id="patch_4">
    <path clip-path="url(#p383b3e75e7)" d="M 79.027431 159.374012 
L 79.788256 159.374012 
L 79.788256 162.983666 
L 79.027431 162.983666 
z
" style="fill:#0000ff;opacity:0.5;"/>
   </g>
   <g id="patch_5">
    <path clip-path="url(#p383b3e75e7)" d="M 80.114323 159.374012 
L 80.875147 159.374012 
L 80.875147 175.019912 
L 80.114323 175.019912 
z
" style="fill:#0000ff;opacity:0.5;"/>
   </g>
   <g id="patch_6">
    <path clip-path="url(#p383b3e75e7)" d="M 81.201215 159.374012 
L 81.962039 159.374012 
L 81.962039 134.27716 
L 81.201215 134.27716 
z
" style="fill:#0000ff;opacity:0.5;"/>
   </g>
   <g id="patch_7">
    <path clip-path="url(#p383b3e75e7)" d="M 82.288107 159.374012 
L 83.048931 159.374012 
L 83.048931 190.031683 
L 82.288107 190.031683 
z
" style="fill:#0000ff;opacity:0.5;"/>
   </g>
   <g id="patch_8">
    <path clip-path="url(#p383b3e75e7)" d="M 83.374998 159.374012 
L 84.135822 159.374012 
L 84.135822 150.959615 
L 83.374998 150.959615 
z
" style="fill:#0000ff;opacity:0.5;"/>
   </g>
   <g id="patch_9">
    <path clip-path="url(#p383b3e75e7)" d="M 84.46189 159.374012 
L 85.222714 159.374012 
L 85.222714 165.398232 
L 84.46189 165.398232 
z
" style="fill:#0000ff;opacity:0.5;"/>
   </g>
   <g id="patch_10">
    <path clip-path="url(#p383b3e75e7)" d="M 85.548782 159.374012 
L 86.309606 159.374012 
L 86.309606 149.288931 
L 85.548782 149.288931 
z
" style="fill:#0000ff;opacity:0.5;"/>
   </g>
   <g id="patch_11">
    <path clip-path="url(#p383b3e75e7)" d="M 86.635673 159.374012 
L 87.396497 159.374012 
L 87.396497 198.824118 
L 86.635673 198.824118 
z
" style="fill:#0000ff;opacity:0.5;"/>
   </g>
   <g id="patch_12">
    <path clip-path="url(#p383b3e75e7)" d="M 87.722565 159.374012 
L 88.483389 159.374012 
L 88.483389 128.777315 
L 87.722565 128.777315 
z
" style="fill:#0000ff;opacity:0.5;"/>
   </g>
   <g id="patch_13">
    <path clip-path="url(#p383b3e75e7)" d="M 88.809457 159.374012 
L 89.570281 159.374012 
L 89.570281 168.544485 
L 88.809457 168.544485 
z
" style="fill:#0000ff;opacity:0.5;"/>
   </g>
   <g id="patch_14">
    <path clip-path="url(#p383b3e75e7)" d="M 89.896348 159.374012 
L 90.657172 159.374012 
L 90.657172 150.15476 
L 89.896348 150.15476 
z
" style="fill:#0000ff;opacity:0.5;"/>
   </g>
   <g id="patch_15">
    <path clip-path="url(#p383b3e75e7)" d="M 90.98324 159.374012 
L 91.744064 159.374012 
L 91.744064 153.398571 
L 90.98324 153.398571 
z
" style="fill:#0000ff;opacity:0.5;"/>
   </g>
   <g id="patch_16">
    <path clip-path="url(#p383b3e75e7)" d="M 92.070132 159.374012 
L 92.830956 159.374012 
L 92.830956 159.825219 
L 92.070132 159.825219 
z
" style="fill:#0000ff;opacity:0.5;"/>
   </g>
   <g id="patch_17">
    <path clip-path="url(#p383b3e75e7)" d="M 93.157023 159.374012 
L 93.917848 159.374012 
L 93.917848 161.642241 
L 93.157023 161.642241 
z
" style="fill:#0000ff;opacity:0.5;"/>
   </g>
   <g id="patch_18">
    <path clip-path="url(#p383b3e75e7)" d="M 94.243915 159.374012 
L 95.004739 159.374012 
L 95.004739 129.58217 
L 94.243915 129.58217 
z
" style="fill:#0000ff;opacity:0.5;"/>
   </g>
   <g id="patch_19">
    <path clip-path="url(#p383b3e75e7)" d="M 95.330807 159.374012 
L 96.091631 159.374012 
L 96.091631 168.056694 
L 95.330807 168.056694 
z
" style="fill:#0000ff;opacity:0.5;"/>
   </g>
   <g id="patch_20">
    <path clip-path="url(#p383b3e75e7)" d="M 96.417698 159.374012 
L 97.178523 159.374012 
L 97.178523 178.568592 
L 96.417698 178.568592 
z
" style="fill:#0000ff;opacity:0.5;"/>
   </g>
   <g id="patch_21">
    <path clip-path="url(#p383b3e75e7)" d="M 97.50459 159.374012 
L 98.265414 159.374012 
L 98.265414 154.361958 
L 97.50459 154.361958 
z
" style="fill:#0000ff;opacity:0.5;"/>
   </g>
   <g id="patch_22">
    <path clip-path="url(#p383b3e75e7)" d="M 98.591482 159.374012 
L 99.352306 159.374012 
L 99.352306 131.49675 
L 98.591482 131.49675 
z
" style="fill:#0000ff;opacity:0.5;"/>
   </g>
   <g id="patch_23">
    <path clip-path="url(#p383b3e75e7)" d="M 99.678373 159.374012 
L 100.439198 159.374012 
L 100.439198 182.592869 
L 99.678373 182.592869 
z
" style="fill:#0000ff;opacity:0.5;"/>
   </g>
   <g id="patch_24">
    <path clip-path="url(#p383b3e75e7)" d="M 100.765265 159.374012 
L 101.526089 159.374012 
L 101.526089 148.313349 
L 100.765265 148.313349 
z
" style="fill:#0000ff;opacity:0.5;"/>
   </g>
   <g id="patch_25">
    <path clip-path="url(#p383b3e75e7)" d="M 101.852157 159.374012 
L 102.612981 159.374012 
L 102.612981 141.496468 
L 101.852157 141.496468 
z
" style="fill:#0000ff;opacity:0.5;"/>
   </g>
   <g id="patch_26">
    <path clip-path="url(#p383b3e75e7)" d="M 102.939048 159.374012 
L 103.699873 159.374012 
L 103.699873 192.385275 
L 102.939048 192.385275 
z
" style="fill:#0000ff;opacity:0.5;"/>
   </g>
   <g id="patch_27">
    <path clip-path="url(#p383b3e75e7)" d="M 104.02594 159.374012 
L 104.786764 159.374012 
L 104.786764 148.435296 
L 104.02594 148.435296 
z
" style="fill:#0000ff;opacity:0.5;"/>
   </g>
   <g id="patch_28">
    <path clip-path="url(#p383b3e75e7)" d="M 105.112832 159.374012 
L 105.873656 159.374012 
L 105.873656 166.276256 
L 105.112832 166.276256 
z
" style="fill:#0000ff;opacity:0.5;"/>
   </g>
   <g id="patch_29">
    <path clip-path="url(#p383b3e75e7)" d="M 106.199724 159.374012 
L 106.960548 159.374012 
L 106.960548 149.130399 
L 106.199724 149.130399 
z
" style="fill:#0000ff;opacity:0.5;"/>
   </g>
   <g id="patch_30">
    <path clip-path="url(#p383b3e75e7)" d="M 107.286615 159.374012 
L 108.047439 159.374012 
L 108.047439 127.765148 
L 107.286615 127.765148 
z
" style="fill:#0000ff;opacity:0.5;"/>
   </g>
   <g id="patch_31">
    <path clip-path="url(#p383b3e75e7)" d="M 108.373507 159.374012 
L 109.134331 159.374012 
L 109.134331 184.117216 
L 108.373507 184.117216 
z
" style="fill:#0000ff;opacity:0.5;"/>
   </g>
   <g id="patch_32">
    <path clip-path="url(#p383b3e75e7)" d="M 109.460399 159.374012 
L 110.221223 159.374012 
L 110.221223 169.178613 
L 109.460399 169.178613 
z
" style="fill:#0000ff;opacity:0.5;"/>
   </g>
   <g id="patch_33">
    <path clip-path="url(#p383b3e75e7)" d="M 110.54729 159.374012 
L 111.308114 159.374012 
L 111.308114 159.910582 
L 110.54729 159.910582 
z
" style="fill:#0000ff;opacity:0.5;"/>
   </g>
   <g id="patch_34">
    <path clip-path="url(#p383b3e75e7)" d="M 111.634182 159.374012 
L 112.395006 159.374012 
L 112.395006 166.861606 
L 111.634182 166.861606 
z
" style="fill:#0000ff;opacity:0.5;"/>
   </g>
   <g id="patch_35">
    <path clip-path="url(#p383b3e75e7)" d="M 112.721074 159.374012 
L 113.481898 159.374012 
L 113.481898 127.631006 
L 112.721074 127.631006 
z
" style="fill:#0000ff;opacity:0.5;"/>
   </g>
   <g id="patch_36">
    <path clip-path="url(#p383b3e75e7)" d="M 113.807965 159.374012 
L 114.568789 159.374012 
L 114.568789 171.959023 
L 113.807965 171.959023 
z
" style="fill:#0000ff;opacity:0.5;"/>
   </g>
   <g id="patch_37">
    <path clip-path="url(#p383b3e75e7)" d="M 114.894857 159.374012 
L 115.655681 159.374012 
L 115.655681 147.874337 
L 114.894857 147.874337 
z
" style="fill:#0000ff;opacity:0.5;"/>
   </g>
   <g id="patch_38">
    <path clip-path="url(#p383b3e75e7)" d="M 115.981749 159.374012 
L 116.742573 159.374012 
L 116.742573 176.641817 
L 115.981749 176.641817 
z
" style="fill:#0000ff;opacity:0.5;"/>
   </g>
   <g id="patch_39">
    <path clip-path="url(#p383b3e75e7)" d="M 117.06864 159.374012 
L 117.829465 159.374012 
L 117.829465 180.727068 
L 117.06864 180.727068 
z
" style="fill:#0000ff;opacity:0.5;"/>
   </g>
   <g id="patch_40">
    <path clip-path="url(#p383b3e75e7)" d="M 118.155532 159.374012 
L 118.916356 159.374012 
L 118.916356 128.862678 
L 118.155532 128.862678 
z
" style="fill:#0000ff;opacity:0.5;"/>
   </g>
   <g id="patch_41">
    <path clip-path="url(#p383b3e75e7)" d="M 119.242424 159.374012 
L 120.003248 159.374012 
L 120.003248 145.776835 
L 119.242424 145.776835 
z
" style="fill:#0000ff;opacity:0.5;"/>
   </g>
   <g id="patch_42">
    <path clip-path="url(#p383b3e75e7)" d="M 120.329315 159.374012 
L 121.09014 159.374012 
L 121.09014 152.520547 
L 120.329315 152.520547 
z
" style="fill:#0000ff;opacity:0.5;"/>
   </g>
   <g id="patch_43">
    <path clip-path="url(#p383b3e75e7)" d="M 121.416207 159.374012 
L 122.177031 159.374012 
L 122.177031 197.543666 
L 121.416207 197.543666 
z
" style="fill:#0000ff;opacity:0.5;"/>
   </g>
   <g id="patch_44">
    <path clip-path="url(#p383b3e75e7)" d="M 122.503099 159.374012 
L 123.263923 159.374012 
L 123.263923 114.448451 
L 122.503099 114.448451 
z
" style="fill:#0000ff;opacity:0.5;"/>
   </g>
   <g id="patch_45">
    <path clip-path="url(#p383b3e75e7)" d="M 123.58999 159.374012 
L 124.350815 159.374012 
L 124.350815 163.471457 
L 123.58999 163.471457 
z
" style="fill:#0000ff;opacity:0.5;"/>
   </g>
   <g id="patch_46">
    <path clip-path="url(#p383b3e75e7)" d="M 124.676882 159.374012 
L 125.437706 159.374012 
L 125.437706 141.386715 
L 124.676882 141.386715 
z
" style="fill:#0000ff;opacity:0.5;"/>
   </g>
   <g id="patch_47">
    <path clip-path="url(#p383b3e75e7)" d="M 125.763774 159.374012 
L 126.524598 159.374012 
L 126.524598 133.033292 
L 125.763774 133.033292 
z
" style="fill:#0000ff;opacity:0.5;"/>
   </g>
   <g id="patch_48">
    <path clip-path="url(#p383b3e75e7)" d="M 126.850665 159.374012 
L 127.61149 159.374012 
L 127.61149 239.335169 
L 126.850665 239.335169 
z
" style="fill:#0000ff;opacity:0.5;"/>
   </g>
   <g id="patch_49">
    <path clip-path="url(#p383b3e75e7)" d="M 127.937557 159.374012 
L 128.698381 159.374012 
L 128.698381 118.862961 
L 127.937557 118.862961 
z
" style="fill:#0000ff;opacity:0.5;"/>
   </g>
   <g id="patch_50">
    <path clip-path="url(#p383b3e75e7)" d="M 129.024449 159.374012 
L 129.785273 159.374012 
L 129.785273 148.288959 
L 129.024449 148.288959 
z
" style="fill:#0000ff;opacity:0.5;"/>
   </g>
   <g id="patch_51">
    <path clip-path="url(#p383b3e75e7)" d="M 130.111341 159.374012 
L 130.872165 159.374012 
L 130.872165 154.861944 
L 130.111341 154.861944 
z
" style="fill:#0000ff;opacity:0.5;"/>
   </g>
   <g id="patch_52">
    <path clip-path="url(#p383b3e75e7)" d="M 131.198232 159.374012 
L 131.959056 159.374012 
L 131.959056 198.909481 
L 131.198232 198.909481 
z
" style="fill:#0000ff;opacity:0.5;"/>
   </g>
   <g id="patch_53">
    <path clip-path="url(#p383b3e75e7)" d="M 132.285124 159.374012 
L 133.045948 159.374012 
L 133.045948 139.898952 
L 132.285124 139.898952 
z
" style="fill:#0000ff;opacity:0.5;"/>
   </g>
   <g id="patch_54">
    <path clip-path="url(#p383b3e75e7)" d="M 133.372016 159.374012 
L 134.13284 159.374012 
L 134.13284 148.313349 
L 133.372016 148.313349 
z
" style="fill:#0000ff;opacity:0.5;"/>
   </g>
   <g id="patch_55">
    <path clip-path="url(#p383b3e75e7)" d="M 134.458907 159.374012 
L 135.219731 159.374012 
L 135.219731 204.799559 
L 134.458907 204.799559 
z
" style="fill:#0000ff;opacity:0.5;"/>
   </g>
   <g id="patch_56">
    <path clip-path="url(#p383b3e75e7)" d="M 135.545799 159.374012 
L 136.306623 159.374012 
L 136.306623 152.227872 
L 135.545799 152.227872 
z
" style="fill:#0000ff;opacity:0.5;"/>
   </g>
   <g id="patch_57">
    <path clip-path="url(#p383b3e75e7)" d="M 136.632691 159.374012 
L 137.393515 159.374012 
L 137.393515 95.973363 
L 136.632691 95.973363 
z
" style="fill:#0000ff;opacity:0.5;"/>
   </g>
   <g id="patch_58">
    <path clip-path="url(#p383b3e75e7)" d="M 137.719582 159.374012 
L 138.480406 159.374012 
L 138.480406 214.848056 
L 137.719582 214.848056 
z
" style="fill:#0000ff;opacity:0.5;"/>
   </g>
   <g id="patch_59">
    <path clip-path="url(#p383b3e75e7)" d="M 138.806474 159.374012 
L 139.567298 159.374012 
L 139.567298 90.814972 
L 138.806474 90.814972 
z
" style="fill:#0000ff;opacity:0.5;"/>
   </g>
   <g id="patch_60">
    <path clip-path="url(#p383b3e75e7)" d="M 139.893366 159.374012 
L 140.65419 159.374012 
L 140.65419 158.922805 
L 139.893366 158.922805 
z
" style="fill:#0000ff;opacity:0.5;"/>
   </g>
   <g id="patch_61">
    <path clip-path="url(#p383b3e75e7)" d="M 140.980257 159.374012 
L 141.741082 159.374012 
L 141.741082 179.568564 
L 140.980257 179.568564 
z
" style="fill:#0000ff;opacity:0.5;"/>
   </g>
   <g id="patch_62">
    <path clip-path="url(#p383b3e75e7)" d="M 142.067149 159.374012 
L 142.827973 159.374012 
L 142.827973 172.629735 
L 142.067149 172.629735 
z
" style="fill:#0000ff;opacity:0.5;"/>
   </g>
   <g id="patch_63">
    <path clip-path="url(#p383b3e75e7)" d="M 143.154041 159.374012 
L 143.914865 159.374012 
L 143.914865 149.557216 
L 143.154041 149.557216 
z
" style="fill:#0000ff;opacity:0.5;"/>
   </g>
   <g id="patch_64">
    <path clip-path="url(#p383b3e75e7)" d="M 144.240932 159.374012 
L 145.001757 159.374012 
L 145.001757 166.105529 
L 144.240932 166.105529 
z
" style="fill:#0000ff;opacity:0.5;"/>
   </g>
   <g id="patch_65">
    <path clip-path="url(#p383b3e75e7)" d="M 145.327824 159.374012 
L 146.088648 159.374012 
L 146.088648 85.571217 
L 145.327824 85.571217 
z
" style="fill:#0000ff;opacity:0.5;"/>
   </g>
   <g id="patch_66">
    <path clip-path="url(#p383b3e75e7)" d="M 146.414716 159.374012 
L 147.17554 159.374012 
L 147.17554 226.628211 
L 146.414716 226.628211 
z
" style="fill:#0000ff;opacity:0.5;"/>
   </g>
   <g id="patch_67">
    <path clip-path="url(#p383b3e75e7)" d="M 147.501607 159.374012 
L 148.262432 159.374012 
L 148.262432 150.703525 
L 147.501607 150.703525 
z
" style="fill:#0000ff;opacity:0.5;"/>
   </g>
   <g id="patch_68">
    <path clip-path="url(#p383b3e75e7)" d="M 148.588499 159.374012 
L 149.349323 159.374012 
L 149.349323 112.192417 
L 148.588499 112.192417 
z
" style="fill:#0000ff;opacity:0.5;"/>
   </g>
   <g id="patch_69">
    <path clip-path="url(#p383b3e75e7)" d="M 149.675391 159.374012 
L 150.436215 159.374012 
L 150.436215 155.288762 
L 149.675391 155.288762 
z
" style="fill:#0000ff;opacity:0.5;"/>
   </g>
   <g id="patch_70">
    <path clip-path="url(#p383b3e75e7)" d="M 150.762282 159.374012 
L 151.523107 159.374012 
L 151.523107 199.019234 
L 150.762282 199.019234 
z
" style="fill:#0000ff;opacity:0.5;"/>
   </g>
   <g id="patch_71">
    <path clip-path="url(#p383b3e75e7)" d="M 151.849174 159.374012 
L 152.609998 159.374012 
L 152.609998 116.923991 
L 151.849174 116.923991 
z
" style="fill:#0000ff;opacity:0.5;"/>
   </g>
   <g id="patch_72">
    <path clip-path="url(#p383b3e75e7)" d="M 152.936066 159.374012 
L 153.69689 159.374012 
L 153.69689 211.445713 
L 152.936066 211.445713 
z
" style="fill:#0000ff;opacity:0.5;"/>
   </g>
   <g id="patch_73">
    <path clip-path="url(#p383b3e75e7)" d="M 154.022958 159.374012 
L 154.783782 159.374012 
L 154.783782 139.898952 
L 154.022958 139.898952 
z
" style="fill:#0000ff;opacity:0.5;"/>
   </g>
   <g id="patch_74">
    <path clip-path="url(#p383b3e75e7)" d="M 155.109849 159.374012 
L 155.870673 159.374012 
L 155.870673 160.910554 
L 155.109849 160.910554 
z
" style="fill:#0000ff;opacity:0.5;"/>
   </g>
   <g id="patch_75">
    <path clip-path="url(#p383b3e75e7)" d="M 156.196741 159.374012 
L 156.957565 159.374012 
L 156.957565 156.666771 
L 156.196741 156.666771 
z
" style="fill:#0000ff;opacity:0.5;"/>
   </g>
   <g id="patch_76">
    <path clip-path="url(#p383b3e75e7)" d="M 157.283633 159.374012 
L 158.044457 159.374012 
L 158.044457 174.739432 
L 157.283633 174.739432 
z
" style="fill:#0000ff;opacity:0.5;"/>
   </g>
   <g id="patch_77">
    <path clip-path="url(#p383b3e75e7)" d="M 158.370524 159.374012 
L 159.131348 159.374012 
L 159.131348 123.996962 
L 158.370524 123.996962 
z
" style="fill:#0000ff;opacity:0.5;"/>
   </g>
   <g id="patch_78">
    <path clip-path="url(#p383b3e75e7)" d="M 159.457416 159.374012 
L 160.21824 159.374012 
L 160.21824 149.654774 
L 159.457416 149.654774 
z
" style="fill:#0000ff;opacity:0.5;"/>
   </g>
   <g id="patch_79">
    <path clip-path="url(#p383b3e75e7)" d="M 160.544308 159.374012 
L 161.305132 159.374012 
L 161.305132 192.93404 
L 160.544308 192.93404 
z
" style="fill:#0000ff;opacity:0.5;"/>
   </g>
   <g id="patch_80">
    <path clip-path="url(#p383b3e75e7)" d="M 161.631199 159.374012 
L 162.392023 159.374012 
L 162.392023 134.911288 
L 161.631199 134.911288 
z
" style="fill:#0000ff;opacity:0.5;"/>
   </g>
   <g id="patch_81">
    <path clip-path="url(#p383b3e75e7)" d="M 162.718091 159.374012 
L 163.478915 159.374012 
L 163.478915 106.473066 
L 162.718091 106.473066 
z
" style="fill:#0000ff;opacity:0.5;"/>
   </g>
   <g id="patch_82">
    <path clip-path="url(#p383b3e75e7)" d="M 163.804983 159.374012 
L 164.565807 159.374012 
L 164.565807 218.628437 
L 163.804983 218.628437 
z
" style="fill:#0000ff;opacity:0.5;"/>
   </g>
   <g id="patch_83">
    <path clip-path="url(#p383b3e75e7)" d="M 164.891874 159.374012 
L 165.652699 159.374012 
L 165.652699 125.49692 
L 164.891874 125.49692 
z
" style="fill:#0000ff;opacity:0.5;"/>
   </g>
   <g id="patch_84">
    <path clip-path="url(#p383b3e75e7)" d="M 165.978766 159.374012 
L 166.73959 159.374012 
L 166.73959 231.810992 
L 165.978766 231.810992 
z
" style="fill:#0000ff;opacity:0.5;"/>
   </g>
   <g id="patch_85">
    <path clip-path="url(#p383b3e75e7)" d="M 167.065658 159.374012 
L 167.826482 159.374012 
L 167.826482 73.181323 
L 167.065658 73.181323 
z
" style="fill:#0000ff;opacity:0.5;"/>
   </g>
   <g id="patch_86">
    <path clip-path="url(#p383b3e75e7)" d="M 168.152549 159.374012 
L 168.913374 159.374012 
L 168.913374 224.76241 
L 168.152549 224.76241 
z
" style="fill:#0000ff;opacity:0.5;"/>
   </g>
   <g id="patch_87">
    <path clip-path="url(#p383b3e75e7)" d="M 169.239441 159.374012 
L 170.000265 159.374012 
L 170.000265 184.080632 
L 169.239441 184.080632 
z
" style="fill:#0000ff;opacity:0.5;"/>
   </g>
   <g id="patch_88">
    <path clip-path="url(#p383b3e75e7)" d="M 170.326333 159.374012 
L 171.087157 159.374012 
L 171.087157 75.82759 
L 170.326333 75.82759 
z
" style="fill:#0000ff;opacity:0.5;"/>
   </g>
   <g id="patch_89">
    <path clip-path="url(#p383b3e75e7)" d="M 171.413224 159.374012 
L 172.174049 159.374012 
L 172.174049 184.446475 
L 171.413224 184.446475 
z
" style="fill:#0000ff;opacity:0.5;"/>
   </g>
   <g id="patch_90">
    <path clip-path="url(#p383b3e75e7)" d="M 172.500116 159.374012 
L 173.26094 159.374012 
L 173.26094 152.008366 
L 172.500116 152.008366 
z
" style="fill:#0000ff;opacity:0.5;"/>
   </g>
   <g id="patch_91">
    <path clip-path="url(#p383b3e75e7)" d="M 173.587008 159.374012 
L 174.347832 159.374012 
L 174.347832 173.654097 
L 173.587008 173.654097 
z
" style="fill:#0000ff;opacity:0.5;"/>
   </g>
   <g id="patch_92">
    <path clip-path="url(#p383b3e75e7)" d="M 174.673899 159.374012 
L 175.434724 159.374012 
L 175.434724 189.080491 
L 174.673899 189.080491 
z
" style="fill:#0000ff;opacity:0.5;"/>
   </g>
   <g id="patch_93">
    <path clip-path="url(#p383b3e75e7)" d="M 175.760791 159.374012 
L 176.521615 159.374012 
L 176.521615 87.802862 
L 175.760791 87.802862 
z
" style="fill:#0000ff;opacity:0.5;"/>
   </g>
   <g id="patch_94">
    <path clip-path="url(#p383b3e75e7)" d="M 176.847683 159.374012 
L 177.608507 159.374012 
L 177.608507 227.030639 
L 176.847683 227.030639 
z
" style="fill:#0000ff;opacity:0.5;"/>
   </g>
   <g id="patch_95">
    <path clip-path="url(#p383b3e75e7)" d="M 177.934575 159.374012 
L 178.695399 159.374012 
L 178.695399 102.607322 
L 177.934575 102.607322 
z
" style="fill:#0000ff;opacity:0.5;"/>
   </g>
   <g id="patch_96">
    <path clip-path="url(#p383b3e75e7)" d="M 179.021466 159.374012 
L 179.78229 159.374012 
L 179.78229 151.008395 
L 179.021466 151.008395 
z
" style="fill:#0000ff;opacity:0.5;"/>
   </g>
   <g id="patch_97">
    <path clip-path="url(#p383b3e75e7)" d="M 180.108358 159.374012 
L 180.869182 159.374012 
L 180.869182 155.264372 
L 180.108358 155.264372 
z
" style="fill:#0000ff;opacity:0.5;"/>
   </g>
   <g id="patch_98">
    <path clip-path="url(#p383b3e75e7)" d="M 181.19525 159.374012 
L 181.956074 159.374012 
L 181.956074 139.472135 
L 181.19525 139.472135 
z
" style="fill:#0000ff;opacity:0.5;"/>
   </g>
   <g id="patch_99">
    <path clip-path="url(#p383b3e75e7)" d="M 182.282141 159.374012 
L 183.042965 159.374012 
L 183.042965 146.34999 
L 182.282141 146.34999 
z
" style="fill:#0000ff;opacity:0.5;"/>
   </g>
   <g id="patch_100">
    <path clip-path="url(#p383b3e75e7)" d="M 183.369033 159.374012 
L 184.129857 159.374012 
L 184.129857 254.420109 
L 183.369033 254.420109 
z
" style="fill:#0000ff;opacity:0.5;"/>
   </g>
   <g id="patch_101">
    <path clip-path="url(#p383b3e75e7)" d="M 184.455925 159.374012 
L 185.216749 159.374012 
L 185.216749 97.387957 
L 184.455925 97.387957 
z
" style="fill:#0000ff;opacity:0.5;"/>
   </g>
   <g id="patch_102">
    <path clip-path="url(#p383b3e75e7)" d="M 185.542816 159.374012 
L 186.30364 159.374012 
L 186.30364 144.069566 
L 185.542816 144.069566 
z
" style="fill:#0000ff;opacity:0.5;"/>
   </g>
   <g id="patch_103">
    <path clip-path="url(#p383b3e75e7)" d="M 186.629708 159.374012 
L 187.390532 159.374012 
L 187.390532 214.738303 
L 186.629708 214.738303 
z
" style="fill:#0000ff;opacity:0.5;"/>
   </g>
   <g id="patch_104">
    <path clip-path="url(#p383b3e75e7)" d="M 187.7166 159.374012 
L 188.477424 159.374012 
L 188.477424 153.410766 
L 187.7166 153.410766 
z
" style="fill:#0000ff;opacity:0.5;"/>
   </g>
   <g id="patch_105">
    <path clip-path="url(#p383b3e75e7)" d="M 188.803491 159.374012 
L 189.564316 159.374012 
L 189.564316 177.6174 
L 188.803491 177.6174 
z
" style="fill:#0000ff;opacity:0.5;"/>
   </g>
   <g id="patch_106">
    <path clip-path="url(#p383b3e75e7)" d="M 189.890383 159.374012 
L 190.651207 159.374012 
L 190.651207 99.924471 
L 189.890383 99.924471 
z
" style="fill:#0000ff;opacity:0.5;"/>
   </g>
   <g id="patch_107">
    <path clip-path="url(#p383b3e75e7)" d="M 190.977275 159.374012 
L 191.738099 159.374012 
L 191.738099 172.471203 
L 190.977275 172.471203 
z
" style="fill:#0000ff;opacity:0.5;"/>
   </g>
   <g id="patch_108">
    <path clip-path="url(#p383b3e75e7)" d="M 192.064166 159.374012 
L 192.824991 159.374012 
L 192.824991 115.789877 
L 192.064166 115.789877 
z
" style="fill:#0000ff;opacity:0.5;"/>
   </g>
   <g id="patch_109">
    <path clip-path="url(#p383b3e75e7)" d="M 193.151058 159.374012 
L 193.911882 159.374012 
L 193.911882 139.837978 
L 193.151058 139.837978 
z
" style="fill:#0000ff;opacity:0.5;"/>
   </g>
   <g id="patch_110">
    <path clip-path="url(#p383b3e75e7)" d="M 194.23795 159.374012 
L 194.998774 159.374012 
L 194.998774 165.203116 
L 194.23795 165.203116 
z
" style="fill:#0000ff;opacity:0.5;"/>
   </g>
   <g id="patch_111">
    <path clip-path="url(#p383b3e75e7)" d="M 195.324841 159.374012 
L 196.085666 159.374012 
L 196.085666 181.568507 
L 195.324841 181.568507 
z
" style="fill:#0000ff;opacity:0.5;"/>
   </g>
   <g id="patch_112">
    <path clip-path="url(#p383b3e75e7)" d="M 196.411733 159.374012 
L 197.172557 159.374012 
L 197.172557 67.791232 
L 196.411733 67.791232 
z
" style="fill:#0000ff;opacity:0.5;"/>
   </g>
   <g id="patch_113">
    <path clip-path="url(#p383b3e75e7)" d="M 197.498625 159.374012 
L 198.259449 159.374012 
L 198.259449 271.541577 
L 197.498625 271.541577 
z
" style="fill:#0000ff;opacity:0.5;"/>
   </g>
   <g id="patch_114">
    <path clip-path="url(#p383b3e75e7)" d="M 198.585516 159.374012 
L 199.346341 159.374012 
L 199.346341 184.946461 
L 198.585516 184.946461 
z
" style="fill:#0000ff;opacity:0.5;"/>
   </g>
   <g id="patch_115">
    <path clip-path="url(#p383b3e75e7)" d="M 199.672408 159.374012 
L 200.433232 159.374012 
L 200.433232 87.266292 
L 199.672408 87.266292 
z
" style="fill:#0000ff;opacity:0.5;"/>
   </g>
   <g id="patch_116">
    <path clip-path="url(#p383b3e75e7)" d="M 200.7593 159.374012 
L 201.520124 159.374012 
L 201.520124 146.935339 
L 200.7593 146.935339 
z
" style="fill:#0000ff;opacity:0.5;"/>
   </g>
   <g id="patch_117">
    <path clip-path="url(#p383b3e75e7)" d="M 201.846192 159.374012 
L 202.607016 159.374012 
L 202.607016 230.481761 
L 201.846192 230.481761 
z
" style="fill:#0000ff;opacity:0.5;"/>
   </g>
   <g id="patch_118">
    <path clip-path="url(#p383b3e75e7)" d="M 202.933083 159.374012 
L 203.693907 159.374012 
L 203.693907 34.414125 
L 202.933083 34.414125 
z
" style="fill:#0000ff;opacity:0.5;"/>
   </g>
   <g id="patch_119">
    <path clip-path="url(#p383b3e75e7)" d="M 204.019975 159.374012 
L 204.780799 159.374012 
L 204.780799 233.213391 
L 204.019975 233.213391 
z
" style="fill:#0000ff;opacity:0.5;"/>
   </g>
   <g id="patch_120">
    <path clip-path="url(#p383b3e75e7)" d="M 205.106867 159.374012 
L 205.867691 159.374012 
L 205.867691 209.555522 
L 205.106867 209.555522 
z
" style="fill:#0000ff;opacity:0.5;"/>
   </g>
   <g id="patch_121">
    <path clip-path="url(#p383b3e75e7)" d="M 206.193758 159.374012 
L 206.954582 159.374012 
L 206.954582 89.400378 
L 206.193758 89.400378 
z
" style="fill:#0000ff;opacity:0.5;"/>
   </g>
   <g id="patch_122">
    <path clip-path="url(#p383b3e75e7)" d="M 207.28065 159.374012 
L 208.041474 159.374012 
L 208.041474 163.508042 
L 207.28065 163.508042 
z
" style="fill:#0000ff;opacity:0.5;"/>
   </g>
   <g id="patch_123">
    <path clip-path="url(#p383b3e75e7)" d="M 208.367542 159.374012 
L 209.128366 159.374012 
L 209.128366 158.081366 
L 208.367542 158.081366 
z
" style="fill:#0000ff;opacity:0.5;"/>
   </g>
   <g id="patch_124">
    <path clip-path="url(#p383b3e75e7)" d="M 209.454433 159.374012 
L 210.215257 159.374012 
L 210.215257 168.190836 
L 209.454433 168.190836 
z
" style="fill:#0000ff;opacity:0.5;"/>
   </g>
   <g id="patch_125">
    <path clip-path="url(#p383b3e75e7)" d="M 210.541325 159.374012 
L 211.302149 159.374012 
L 211.302149 204.714196 
L 210.541325 204.714196 
z
" style="fill:#0000ff;opacity:0.5;"/>
   </g>
   <g id="patch_126">
    <path clip-path="url(#p383b3e75e7)" d="M 211.628217 159.374012 
L 212.389041 159.374012 
L 212.389041 117.143497 
L 211.628217 117.143497 
z
" style="fill:#0000ff;opacity:0.5;"/>
   </g>
   <g id="patch_127">
    <path clip-path="url(#p383b3e75e7)" d="M 212.715108 159.374012 
L 213.475933 159.374012 
L 213.475933 159.313038 
L 212.715108 159.313038 
z
" style="fill:#0000ff;opacity:0.5;"/>
   </g>
   <g id="patch_128">
    <path clip-path="url(#p383b3e75e7)" d="M 213.802 159.374012 
L 214.562824 159.374012 
L 214.562824 187.702481 
L 213.802 187.702481 
z
" style="fill:#0000ff;opacity:0.5;"/>
   </g>
   <g id="patch_129">
    <path clip-path="url(#p383b3e75e7)" d="M 214.888892 159.374012 
L 215.649716 159.374012 
L 215.649716 150.227929 
L 214.888892 150.227929 
z
" style="fill:#0000ff;opacity:0.5;"/>
   </g>
   <g id="patch_130">
    <path clip-path="url(#p383b3e75e7)" d="M 215.975783 159.374012 
L 216.736608 159.374012 
L 216.736608 98.180618 
L 215.975783 98.180618 
z
" style="fill:#0000ff;opacity:0.5;"/>
   </g>
   <g id="patch_131">
    <path clip-path="url(#p383b3e75e7)" d="M 217.062675 159.374012 
L 217.823499 159.374012 
L 217.823499 254.615226 
L 217.062675 254.615226 
z
" style="fill:#0000ff;opacity:0.5;"/>
   </g>
   <g id="patch_132">
    <path clip-path="url(#p383b3e75e7)" d="M 218.149567 159.374012 
L 218.910391 159.374012 
L 218.910391 75.876369 
L 218.149567 75.876369 
z
" style="fill:#0000ff;opacity:0.5;"/>
   </g>
   <g id="patch_133">
    <path clip-path="url(#p383b3e75e7)" d="M 219.236458 159.374012 
L 219.997283 159.374012 
L 219.997283 228.993998 
L 219.236458 228.993998 
z
" style="fill:#0000ff;opacity:0.5;"/>
   </g>
   <g id="patch_134">
    <path clip-path="url(#p383b3e75e7)" d="M 220.32335 159.374012 
L 221.084174 159.374012 
L 221.084174 144.94759 
L 220.32335 144.94759 
z
" style="fill:#0000ff;opacity:0.5;"/>
   </g>
   <g id="patch_135">
    <path clip-path="url(#p383b3e75e7)" d="M 221.410242 159.374012 
L 222.171066 159.374012 
L 222.171066 87.863836 
L 221.410242 87.863836 
z
" style="fill:#0000ff;opacity:0.5;"/>
   </g>
   <g id="patch_136">
    <path clip-path="url(#p383b3e75e7)" d="M 222.497133 159.374012 
L 223.257958 159.374012 
L 223.257958 215.567548 
L 222.497133 215.567548 
z
" style="fill:#0000ff;opacity:0.5;"/>
   </g>
   <g id="patch_137">
    <path clip-path="url(#p383b3e75e7)" d="M 223.584025 159.374012 
L 224.344849 159.374012 
L 224.344849 132.886955 
L 223.584025 132.886955 
z
" style="fill:#0000ff;opacity:0.5;"/>
   </g>
   <g id="patch_138">
    <path clip-path="url(#p383b3e75e7)" d="M 224.670917 159.374012 
L 225.431741 159.374012 
L 225.431741 99.643991 
L 224.670917 99.643991 
z
" style="fill:#0000ff;opacity:0.5;"/>
   </g>
   <g id="patch_139">
    <path clip-path="url(#p383b3e75e7)" d="M 225.757809 159.374012 
L 226.518633 159.374012 
L 226.518633 241.152191 
L 225.757809 241.152191 
z
" style="fill:#0000ff;opacity:0.5;"/>
   </g>
   <g id="patch_140">
    <path clip-path="url(#p383b3e75e7)" d="M 226.8447 159.374012 
L 227.605524 159.374012 
L 227.605524 121.277527 
L 226.8447 121.277527 
z
" style="fill:#0000ff;opacity:0.5;"/>
   </g>
   <g id="patch_141">
    <path clip-path="url(#p383b3e75e7)" d="M 227.931592 159.374012 
L 228.692416 159.374012 
L 228.692416 142.081817 
L 227.931592 142.081817 
z
" style="fill:#0000ff;opacity:0.5;"/>
   </g>
   <g id="patch_142">
    <path clip-path="url(#p383b3e75e7)" d="M 229.018484 159.374012 
L 229.779308 159.374012 
L 229.779308 116.765459 
L 229.018484 116.765459 
z
" style="fill:#0000ff;opacity:0.5;"/>
   </g>
   <g id="patch_143">
    <path clip-path="url(#p383b3e75e7)" d="M 230.105375 159.374012 
L 230.866199 159.374012 
L 230.866199 201.494774 
L 230.105375 201.494774 
z
" style="fill:#0000ff;opacity:0.5;"/>
   </g>
   <g id="patch_144">
    <path clip-path="url(#p383b3e75e7)" d="M 231.192267 159.374012 
L 231.953091 159.374012 
L 231.953091 174.934548 
L 231.192267 174.934548 
z
" style="fill:#0000ff;opacity:0.5;"/>
   </g>
   <g id="patch_145">
    <path clip-path="url(#p383b3e75e7)" d="M 232.279159 159.374012 
L 233.039983 159.374012 
L 233.039983 110.777823 
L 232.279159 110.777823 
z
" style="fill:#0000ff;opacity:0.5;"/>
   </g>
   <g id="patch_146">
    <path clip-path="url(#p383b3e75e7)" d="M 233.36605 159.374012 
L 234.126874 159.374012 
L 234.126874 234.713349 
L 233.36605 234.713349 
z
" style="fill:#0000ff;opacity:0.5;"/>
   </g>
   <g id="patch_147">
    <path clip-path="url(#p383b3e75e7)" d="M 234.452942 159.374012 
L 235.213766 159.374012 
L 235.213766 96.046531 
L 234.452942 96.046531 
z
" style="fill:#0000ff;opacity:0.5;"/>
   </g>
   <g id="patch_148">
    <path clip-path="url(#p383b3e75e7)" d="M 235.539834 159.374012 
L 236.300658 159.374012 
L 236.300658 210.616468 
L 235.539834 210.616468 
z
" style="fill:#0000ff;opacity:0.5;"/>
   </g>
   <g id="patch_149">
    <path clip-path="url(#p383b3e75e7)" d="M 236.626725 159.374012 
L 237.38755 159.374012 
L 237.38755 98.363539 
L 236.626725 98.363539 
z
" style="fill:#0000ff;opacity:0.5;"/>
   </g>
   <g id="patch_150">
    <path clip-path="url(#p383b3e75e7)" d="M 237.713617 159.374012 
L 238.474441 159.374012 
L 238.474441 207.604358 
L 237.713617 207.604358 
z
" style="fill:#0000ff;opacity:0.5;"/>
   </g>
   <g id="patch_151">
    <path clip-path="url(#p383b3e75e7)" d="M 238.800509 159.374012 
L 239.561333 159.374012 
L 239.561333 166.837216 
L 238.800509 166.837216 
z
" style="fill:#0000ff;opacity:0.5;"/>
   </g>
   <g id="patch_152">
    <path clip-path="url(#p383b3e75e7)" d="M 239.8874 159.374012 
L 240.648225 159.374012 
L 240.648225 140.716002 
L 239.8874 140.716002 
z
" style="fill:#0000ff;opacity:0.5;"/>
   </g>
   <g id="patch_153">
    <path clip-path="url(#p383b3e75e7)" d="M 240.974292 159.374012 
L 241.735116 159.374012 
L 241.735116 180.373419 
L 240.974292 180.373419 
z
" style="fill:#0000ff;opacity:0.5;"/>
   </g>
   <g id="patch_154">
    <path clip-path="url(#p383b3e75e7)" d="M 242.061184 159.374012 
L 242.822008 159.374012 
L 242.822008 114.350893 
L 242.061184 114.350893 
z
" style="fill:#0000ff;opacity:0.5;"/>
   </g>
   <g id="patch_155">
    <path clip-path="url(#p383b3e75e7)" d="M 243.148075 159.374012 
L 243.9089 159.374012 
L 243.9089 191.409693 
L 243.148075 191.409693 
z
" style="fill:#0000ff;opacity:0.5;"/>
   </g>
   <g id="patch_156">
    <path clip-path="url(#p383b3e75e7)" d="M 244.234967 159.374012 
L 244.995791 159.374012 
L 244.995791 143.350074 
L 244.234967 143.350074 
z
" style="fill:#0000ff;opacity:0.5;"/>
   </g>
   <g id="patch_157">
    <path clip-path="url(#p383b3e75e7)" d="M 245.321859 159.374012 
L 246.082683 159.374012 
L 246.082683 163.508042 
L 245.321859 163.508042 
z
" style="fill:#0000ff;opacity:0.5;"/>
   </g>
   <g id="patch_158">
    <path clip-path="url(#p383b3e75e7)" d="M 246.408751 159.374012 
L 247.169575 159.374012 
L 247.169575 206.555607 
L 246.408751 206.555607 
z
" style="fill:#0000ff;opacity:0.5;"/>
   </g>
   <g id="patch_159">
    <path clip-path="url(#p383b3e75e7)" d="M 247.495642 159.374012 
L 248.256466 159.374012 
L 248.256466 169.532262 
L 247.495642 169.532262 
z
" style="fill:#0000ff;opacity:0.5;"/>
   </g>
   <g id="patch_160">
    <path clip-path="url(#p383b3e75e7)" d="M 248.582534 159.374012 
L 249.343358 159.374012 
L 249.343358 67.193687 
L 248.582534 67.193687 
z
" style="fill:#0000ff;opacity:0.5;"/>
   </g>
   <g id="patch_161">
    <path clip-path="url(#p383b3e75e7)" d="M 249.669426 159.374012 
L 250.43025 159.374012 
L 250.43025 194.433998 
L 249.669426 194.433998 
z
" style="fill:#0000ff;opacity:0.5;"/>
   </g>
   <g id="patch_162">
    <path clip-path="url(#p383b3e75e7)" d="M 250.756317 159.374012 
L 251.517141 159.374012 
L 251.517141 144.471994 
L 250.756317 144.471994 
z
" style="fill:#0000ff;opacity:0.5;"/>
   </g>
   <g id="patch_163">
    <path clip-path="url(#p383b3e75e7)" d="M 251.843209 159.374012 
L 252.604033 159.374012 
L 252.604033 115.984993 
L 251.843209 115.984993 
z
" style="fill:#0000ff;opacity:0.5;"/>
   </g>
   <g id="patch_164">
    <path clip-path="url(#p383b3e75e7)" d="M 252.930101 159.374012 
L 253.690925 159.374012 
L 253.690925 182.470921 
L 252.930101 182.470921 
z
" style="fill:#0000ff;opacity:0.5;"/>
   </g>
   <g id="patch_165">
    <path clip-path="url(#p383b3e75e7)" d="M 254.016992 159.374012 
L 254.777816 159.374012 
L 254.777816 160.361789 
L 254.016992 160.361789 
z
" style="fill:#0000ff;opacity:0.5;"/>
   </g>
   <g id="patch_166">
    <path clip-path="url(#p383b3e75e7)" d="M 255.103884 159.374012 
L 255.864708 159.374012 
L 255.864708 145.215875 
L 255.103884 145.215875 
z
" style="fill:#0000ff;opacity:0.5;"/>
   </g>
   <g id="patch_167">
    <path clip-path="url(#p383b3e75e7)" d="M 256.190776 159.374012 
L 256.9516 159.374012 
L 256.9516 169.62982 
L 256.190776 169.62982 
z
" style="fill:#0000ff;opacity:0.5;"/>
   </g>
   <g id="patch_168">
    <path clip-path="url(#p383b3e75e7)" d="M 257.277667 159.374012 
L 258.038492 159.374012 
L 258.038492 221.603963 
L 257.277667 221.603963 
z
" style="fill:#0000ff;opacity:0.5;"/>
   </g>
   <g id="patch_169">
    <path clip-path="url(#p383b3e75e7)" d="M 258.364559 159.374012 
L 259.125383 159.374012 
L 259.125383 157.86186 
L 258.364559 157.86186 
z
" style="fill:#0000ff;opacity:0.5;"/>
   </g>
   <g id="patch_170">
    <path clip-path="url(#p383b3e75e7)" d="M 259.451451 159.374012 
L 260.212275 159.374012 
L 260.212275 48.364951 
L 259.451451 48.364951 
z
" style="fill:#0000ff;opacity:0.5;"/>
   </g>
   <g id="patch_171">
    <path clip-path="url(#p383b3e75e7)" d="M 260.538342 159.374012 
L 261.299167 159.374012 
L 261.299167 264.590554 
L 260.538342 264.590554 
z
" style="fill:#0000ff;opacity:0.5;"/>
   </g>
   <g id="patch_172">
    <path clip-path="url(#p383b3e75e7)" d="M 261.625234 159.374012 
L 262.386058 159.374012 
L 262.386058 98.31476 
L 261.625234 98.31476 
z
" style="fill:#0000ff;opacity:0.5;"/>
   </g>
   <g id="patch_173">
    <path clip-path="url(#p383b3e75e7)" d="M 262.712126 159.374012 
L 263.47295 159.374012 
L 263.47295 186.678119 
L 262.712126 186.678119 
z
" style="fill:#0000ff;opacity:0.5;"/>
   </g>
   <g id="patch_174">
    <path clip-path="url(#p383b3e75e7)" d="M 263.799017 159.374012 
L 264.559842 159.374012 
L 264.559842 115.387449 
L 263.799017 115.387449 
z
" style="fill:#0000ff;opacity:0.5;"/>
   </g>
   <g id="patch_175">
    <path clip-path="url(#p383b3e75e7)" d="M 264.885909 159.374012 
L 265.646733 159.374012 
L 265.646733 177.214972 
L 264.885909 177.214972 
z
" style="fill:#0000ff;opacity:0.5;"/>
   </g>
   <g id="patch_176">
    <path clip-path="url(#p383b3e75e7)" d="M 265.972801 159.374012 
L 266.733625 159.374012 
L 266.733625 197.702198 
L 265.972801 197.702198 
z
" style="fill:#0000ff;opacity:0.5;"/>
   </g>
   <g id="patch_177">
    <path clip-path="url(#p383b3e75e7)" d="M 267.059692 159.374012 
L 267.820517 159.374012 
L 267.820517 117.472756 
L 267.059692 117.472756 
z
" style="fill:#0000ff;opacity:0.5;"/>
   </g>
   <g id="patch_178">
    <path clip-path="url(#p383b3e75e7)" d="M 268.146584 159.374012 
L 268.907408 159.374012 
L 268.907408 175.519898 
L 268.146584 175.519898 
z
" style="fill:#0000ff;opacity:0.5;"/>
   </g>
   <g id="patch_179">
    <path clip-path="url(#p383b3e75e7)" d="M 269.233476 159.374012 
L 269.9943 159.374012 
L 269.9943 178.044217 
L 269.233476 178.044217 
z
" style="fill:#0000ff;opacity:0.5;"/>
   </g>
   <g id="patch_180">
    <path clip-path="url(#p383b3e75e7)" d="M 270.320368 159.374012 
L 271.081192 159.374012 
L 271.081192 128.350498 
L 270.320368 128.350498 
z
" style="fill:#0000ff;opacity:0.5;"/>
   </g>
   <g id="patch_181">
    <path clip-path="url(#p383b3e75e7)" d="M 271.407259 159.374012 
L 272.168083 159.374012 
L 272.168083 155.069256 
L 271.407259 155.069256 
z
" style="fill:#0000ff;opacity:0.5;"/>
   </g>
   <g id="patch_182">
    <path clip-path="url(#p383b3e75e7)" d="M 272.494151 159.374012 
L 273.254975 159.374012 
L 273.254975 180.763652 
L 272.494151 180.763652 
z
" style="fill:#0000ff;opacity:0.5;"/>
   </g>
   <g id="patch_183">
    <path clip-path="url(#p383b3e75e7)" d="M 273.581043 159.374012 
L 274.341867 159.374012 
L 274.341867 151.691302 
L 273.581043 151.691302 
z
" style="fill:#0000ff;opacity:0.5;"/>
   </g>
   <g id="patch_184">
    <path clip-path="url(#p383b3e75e7)" d="M 274.667934 159.374012 
L 275.428758 159.374012 
L 275.428758 181.300222 
L 274.667934 181.300222 
z
" style="fill:#0000ff;opacity:0.5;"/>
   </g>
   <g id="patch_185">
    <path clip-path="url(#p383b3e75e7)" d="M 275.754826 159.374012 
L 276.51565 159.374012 
L 276.51565 198.324132 
L 275.754826 198.324132 
z
" style="fill:#0000ff;opacity:0.5;"/>
   </g>
   <g id="patch_186">
    <path clip-path="url(#p383b3e75e7)" d="M 276.841718 159.374012 
L 277.602542 159.374012 
L 277.602542 89.436962 
L 276.841718 89.436962 
z
" style="fill:#0000ff;opacity:0.5;"/>
   </g>
   <g id="patch_187">
    <path clip-path="url(#p383b3e75e7)" d="M 277.928609 159.374012 
L 278.689433 159.374012 
L 278.689433 195.629086 
L 277.928609 195.629086 
z
" style="fill:#0000ff;opacity:0.5;"/>
   </g>
   <g id="patch_188">
    <path clip-path="url(#p383b3e75e7)" d="M 279.015501 159.374012 
L 279.776325 159.374012 
L 279.776325 81.303045 
L 279.015501 81.303045 
z
" style="fill:#0000ff;opacity:0.5;"/>
   </g>
   <g id="patch_189">
    <path clip-path="url(#p383b3e75e7)" d="M 280.102393 159.374012 
L 280.863217 159.374012 
L 280.863217 224.701436 
L 280.102393 224.701436 
z
" style="fill:#0000ff;opacity:0.5;"/>
   </g>
   <g id="patch_190">
    <path clip-path="url(#p383b3e75e7)" d="M 281.189284 159.374012 
L 281.950109 159.374012 
L 281.950109 140.484301 
L 281.189284 140.484301 
z
" style="fill:#0000ff;opacity:0.5;"/>
   </g>
   <g id="patch_191">
    <path clip-path="url(#p383b3e75e7)" d="M 282.276176 159.374012 
L 283.037 159.374012 
L 283.037 141.203793 
L 282.276176 141.203793 
z
" style="fill:#0000ff;opacity:0.5;"/>
   </g>
   <g id="patch_192">
    <path clip-path="url(#p383b3e75e7)" d="M 283.363068 159.374012 
L 284.123892 159.374012 
L 284.123892 200.946009 
L 283.363068 200.946009 
z
" style="fill:#0000ff;opacity:0.5;"/>
   </g>
   <g id="patch_193">
    <path clip-path="url(#p383b3e75e7)" d="M 284.449959 159.374012 
L 285.210784 159.374012 
L 285.210784 152.240067 
L 284.449959 152.240067 
z
" style="fill:#0000ff;opacity:0.5;"/>
   </g>
   <g id="patch_194">
    <path clip-path="url(#p383b3e75e7)" d="M 285.536851 159.374012 
L 286.297675 159.374012 
L 286.297675 164.044612 
L 285.536851 164.044612 
z
" style="fill:#0000ff;opacity:0.5;"/>
   </g>
   <g id="patch_195">
    <path clip-path="url(#p383b3e75e7)" d="M 286.623743 159.374012 
L 287.384567 159.374012 
L 287.384567 138.155099 
L 286.623743 138.155099 
z
" style="fill:#0000ff;opacity:0.5;"/>
   </g>
   <g id="patch_196">
    <path clip-path="url(#p383b3e75e7)" d="M 287.710634 159.374012 
L 288.471459 159.374012 
L 288.471459 201.482579 
L 287.710634 201.482579 
z
" style="fill:#0000ff;opacity:0.5;"/>
   </g>
   <g id="patch_197">
    <path clip-path="url(#p383b3e75e7)" d="M 288.797526 159.374012 
L 289.55835 159.374012 
L 289.55835 100.192756 
L 288.797526 100.192756 
z
" style="fill:#0000ff;opacity:0.5;"/>
   </g>
   <g id="patch_198">
    <path clip-path="url(#p383b3e75e7)" d="M 289.884418 159.374012 
L 290.645242 159.374012 
L 290.645242 220.37229 
L 289.884418 220.37229 
z
" style="fill:#0000ff;opacity:0.5;"/>
   </g>
   <g id="patch_199">
    <path clip-path="url(#p383b3e75e7)" d="M 290.971309 159.374012 
L 291.732134 159.374012 
L 291.732134 55.840349 
L 290.971309 55.840349 
z
" style="fill:#0000ff;opacity:0.5;"/>
   </g>
   <g id="patch_200">
    <path clip-path="url(#p383b3e75e7)" d="M 292.058201 159.374012 
L 292.819025 159.374012 
L 292.819025 225.786771 
L 292.058201 225.786771 
z
" style="fill:#0000ff;opacity:0.5;"/>
   </g>
   <g id="patch_201">
    <path clip-path="url(#p383b3e75e7)" d="M 293.145093 159.374012 
L 293.905917 159.374012 
L 293.905917 120.26536 
L 293.145093 120.26536 
z
" style="fill:#0000ff;opacity:0.5;"/>
   </g>
   <g id="patch_202">
    <path clip-path="url(#p383b3e75e7)" d="M 294.231985 159.374012 
L 294.992809 159.374012 
L 294.992809 170.581013 
L 294.231985 170.581013 
z
" style="fill:#0000ff;opacity:0.5;"/>
   </g>
   <g id="patch_203">
    <path clip-path="url(#p383b3e75e7)" d="M 295.318876 159.374012 
L 296.0797 159.374012 
L 296.0797 141.789143 
L 295.318876 141.789143 
z
" style="fill:#0000ff;opacity:0.5;"/>
   </g>
   <g id="patch_204">
    <path clip-path="url(#p383b3e75e7)" d="M 296.405768 159.374012 
L 297.166592 159.374012 
L 297.166592 185.861069 
L 296.405768 185.861069 
z
" style="fill:#0000ff;opacity:0.5;"/>
   </g>
   <g id="patch_205">
    <path clip-path="url(#p383b3e75e7)" d="M 297.49266 159.374012 
L 298.253484 159.374012 
L 298.253484 137.411217 
L 297.49266 137.411217 
z
" style="fill:#0000ff;opacity:0.5;"/>
   </g>
   <g id="patch_206">
    <path clip-path="url(#p383b3e75e7)" d="M 298.579551 159.374012 
L 299.340375 159.374012 
L 299.340375 105.973081 
L 298.579551 105.973081 
z
" style="fill:#0000ff;opacity:0.5;"/>
   </g>
   <g id="patch_207">
    <path clip-path="url(#p383b3e75e7)" d="M 299.666443 159.374012 
L 300.427267 159.374012 
L 300.427267 226.262368 
L 299.666443 226.262368 
z
" style="fill:#0000ff;opacity:0.5;"/>
   </g>
   <g id="patch_208">
    <path clip-path="url(#p383b3e75e7)" d="M 300.753335 159.374012 
L 301.514159 159.374012 
L 301.514159 100.473236 
L 300.753335 100.473236 
z
" style="fill:#0000ff;opacity:0.5;"/>
   </g>
   <g id="patch_209">
    <path clip-path="url(#p383b3e75e7)" d="M 301.840226 159.374012 
L 302.60105 159.374012 
L 302.60105 276.334125 
L 301.840226 276.334125 
z
" style="fill:#0000ff;opacity:0.5;"/>
   </g>
   <g id="patch_210">
    <path clip-path="url(#p383b3e75e7)" d="M 302.927118 159.374012 
L 303.687942 159.374012 
L 303.687942 109.741267 
L 302.927118 109.741267 
z
" style="fill:#0000ff;opacity:0.5;"/>
   </g>
   <g id="patch_211">
    <path clip-path="url(#p383b3e75e7)" d="M 304.01401 159.374012 
L 304.774834 159.374012 
L 304.774834 157.191147 
L 304.01401 157.191147 
z
" style="fill:#0000ff;opacity:0.5;"/>
   </g>
   <g id="patch_212">
    <path clip-path="url(#p383b3e75e7)" d="M 305.100901 159.374012 
L 305.861726 159.374012 
L 305.861726 183.153829 
L 305.100901 183.153829 
z
" style="fill:#0000ff;opacity:0.5;"/>
   </g>
   <g id="patch_213">
    <path clip-path="url(#p383b3e75e7)" d="M 306.187793 159.374012 
L 306.948617 159.374012 
L 306.948617 86.693137 
L 306.187793 86.693137 
z
" style="fill:#0000ff;opacity:0.5;"/>
   </g>
   <g id="patch_214">
    <path clip-path="url(#p383b3e75e7)" d="M 307.274685 159.374012 
L 308.035509 159.374012 
L 308.035509 190.580448 
L 307.274685 190.580448 
z
" style="fill:#0000ff;opacity:0.5;"/>
   </g>
   <g id="patch_215">
    <path clip-path="url(#p383b3e75e7)" d="M 308.361576 159.374012 
L 309.122401 159.374012 
L 309.122401 198.1656 
L 308.361576 198.1656 
z
" style="fill:#0000ff;opacity:0.5;"/>
   </g>
   <g id="patch_216">
    <path clip-path="url(#p383b3e75e7)" d="M 309.448468 159.374012 
L 310.209292 159.374012 
L 310.209292 108.570568 
L 309.448468 108.570568 
z
" style="fill:#0000ff;opacity:0.5;"/>
   </g>
   <g id="patch_217">
    <path clip-path="url(#p383b3e75e7)" d="M 310.53536 159.374012 
L 311.296184 159.374012 
L 311.296184 200.007011 
L 310.53536 200.007011 
z
" style="fill:#0000ff;opacity:0.5;"/>
   </g>
   <g id="patch_218">
    <path clip-path="url(#p383b3e75e7)" d="M 311.622251 159.374012 
L 312.383076 159.374012 
L 312.383076 113.533843 
L 311.622251 113.533843 
z
" style="fill:#0000ff;opacity:0.5;"/>
   </g>
   <g id="patch_219">
    <path clip-path="url(#p383b3e75e7)" d="M 312.709143 159.374012 
L 313.469967 159.374012 
L 313.469967 244.920378 
L 312.709143 244.920378 
z
" style="fill:#0000ff;opacity:0.5;"/>
   </g>
   <g id="patch_220">
    <path clip-path="url(#p383b3e75e7)" d="M 313.796035 159.374012 
L 314.556859 159.374012 
L 314.556859 127.374915 
L 313.796035 127.374915 
z
" style="fill:#0000ff;opacity:0.5;"/>
   </g>
   <g id="patch_221">
    <path clip-path="url(#p383b3e75e7)" d="M 314.882926 159.374012 
L 315.643751 159.374012 
L 315.643751 74.632502 
L 314.882926 74.632502 
z
" style="fill:#0000ff;opacity:0.5;"/>
   </g>
   <g id="patch_222">
    <path clip-path="url(#p383b3e75e7)" d="M 315.969818 159.374012 
L 316.730642 159.374012 
L 316.730642 247.871514 
L 315.969818 247.871514 
z
" style="fill:#0000ff;opacity:0.5;"/>
   </g>
   <g id="patch_223">
    <path clip-path="url(#p383b3e75e7)" d="M 317.05671 159.374012 
L 317.817534 159.374012 
L 317.817534 118.32639 
L 317.05671 118.32639 
z
" style="fill:#0000ff;opacity:0.5;"/>
   </g>
   <g id="patch_224">
    <path clip-path="url(#p383b3e75e7)" d="M 318.143602 159.374012 
L 318.904426 159.374012 
L 318.904426 223.055141 
L 318.143602 223.055141 
z
" style="fill:#0000ff;opacity:0.5;"/>
   </g>
   <g id="patch_225">
    <path clip-path="url(#p383b3e75e7)" d="M 319.230493 159.374012 
L 319.991317 159.374012 
L 319.991317 82.449354 
L 319.230493 82.449354 
z
" style="fill:#0000ff;opacity:0.5;"/>
   </g>
   <g id="patch_226">
    <path clip-path="url(#p383b3e75e7)" d="M 320.317385 159.374012 
L 321.078209 159.374012 
L 321.078209 142.337908 
L 320.317385 142.337908 
z
" style="fill:#0000ff;opacity:0.5;"/>
   </g>
   <g id="patch_227">
    <path clip-path="url(#p383b3e75e7)" d="M 321.404277 159.374012 
L 322.165101 159.374012 
L 322.165101 206.68975 
L 321.404277 206.68975 
z
" style="fill:#0000ff;opacity:0.5;"/>
   </g>
   <g id="patch_228">
    <path clip-path="url(#p383b3e75e7)" d="M 322.491168 159.374012 
L 323.251992 159.374012 
L 323.251992 113.11922 
L 322.491168 113.11922 
z
" style="fill:#0000ff;opacity:0.5;"/>
   </g>
   <g id="patch_229">
    <path clip-path="url(#p383b3e75e7)" d="M 323.57806 159.374012 
L 324.338884 159.374012 
L 324.338884 148.825529 
L 323.57806 148.825529 
z
" style="fill:#0000ff;opacity:0.5;"/>
   </g>
   <g id="patch_230">
    <path clip-path="url(#p383b3e75e7)" d="M 324.664952 159.374012 
L 325.425776 159.374012 
L 325.425776 236.981577 
L 324.664952 236.981577 
z
" style="fill:#0000ff;opacity:0.5;"/>
   </g>
   <g id="patch_231">
    <path clip-path="url(#p383b3e75e7)" d="M 325.751843 159.374012 
L 326.512667 159.374012 
L 326.512667 160.044725 
L 325.751843 160.044725 
z
" style="fill:#0000ff;opacity:0.5;"/>
   </g>
   <g id="patch_232">
    <path clip-path="url(#p383b3e75e7)" d="M 326.838735 159.374012 
L 327.599559 159.374012 
L 327.599559 130.179714 
L 326.838735 130.179714 
z
" style="fill:#0000ff;opacity:0.5;"/>
   </g>
   <g id="patch_233">
    <path clip-path="url(#p383b3e75e7)" d="M 327.925627 159.374012 
L 328.686451 159.374012 
L 328.686451 106.314534 
L 327.925627 106.314534 
z
" style="fill:#0000ff;opacity:0.5;"/>
   </g>
   <g id="patch_234">
    <path clip-path="url(#p383b3e75e7)" d="M 329.012518 159.374012 
L 329.773343 159.374012 
L 329.773343 248.06663 
L 329.012518 248.06663 
z
" style="fill:#0000ff;opacity:0.5;"/>
   </g>
   <g id="patch_235">
    <path clip-path="url(#p383b3e75e7)" d="M 330.09941 159.374012 
L 330.860234 159.374012 
L 330.860234 93.156369 
L 330.09941 93.156369 
z
" style="fill:#0000ff;opacity:0.5;"/>
   </g>
   <g id="patch_236">
    <path clip-path="url(#p383b3e75e7)" d="M 331.186302 159.374012 
L 331.947126 159.374012 
L 331.947126 135.082015 
L 331.186302 135.082015 
z
" style="fill:#0000ff;opacity:0.5;"/>
   </g>
   <g id="patch_237">
    <path clip-path="url(#p383b3e75e7)" d="M 332.273193 159.374012 
L 333.034018 159.374012 
L 333.034018 187.507364 
L 332.273193 187.507364 
z
" style="fill:#0000ff;opacity:0.5;"/>
   </g>
   <g id="patch_238">
    <path clip-path="url(#p383b3e75e7)" d="M 333.360085 159.374012 
L 334.120909 159.374012 
L 334.120909 169.020081 
L 333.360085 169.020081 
z
" style="fill:#0000ff;opacity:0.5;"/>
   </g>
   <g id="patch_239">
    <path clip-path="url(#p383b3e75e7)" d="M 334.446977 159.374012 
L 335.207801 159.374012 
L 335.207801 168.520095 
L 334.446977 168.520095 
z
" style="fill:#0000ff;opacity:0.5;"/>
   </g>
   <g id="patch_240">
    <path clip-path="url(#p383b3e75e7)" d="M 335.533868 159.374012 
L 336.294693 159.374012 
L 336.294693 196.641253 
L 335.533868 196.641253 
z
" style="fill:#0000ff;opacity:0.5;"/>
   </g>
   <g id="patch_241">
    <path clip-path="url(#p383b3e75e7)" d="M 336.62076 159.374012 
L 337.381584 159.374012 
L 337.381584 39.304231 
L 336.62076 39.304231 
z
" style="fill:#0000ff;opacity:0.5;"/>
   </g>
   <g id="patch_242">
    <path clip-path="url(#p383b3e75e7)" d="M 337.707652 159.374012 
L 338.468476 159.374012 
L 338.468476 275.736581 
L 337.707652 275.736581 
z
" style="fill:#0000ff;opacity:0.5;"/>
   </g>
   <g id="patch_243">
    <path clip-path="url(#p383b3e75e7)" d="M 338.794543 159.374012 
L 339.555368 159.374012 
L 339.555368 125.21644 
L 338.794543 125.21644 
z
" style="fill:#0000ff;opacity:0.5;"/>
   </g>
   <g id="patch_244">
    <path clip-path="url(#p383b3e75e7)" d="M 339.881435 159.374012 
L 340.642259 159.374012 
L 340.642259 176.922297 
L 339.881435 176.922297 
z
" style="fill:#0000ff;opacity:0.5;"/>
   </g>
   <g id="patch_245">
    <path clip-path="url(#p383b3e75e7)" d="M 340.968327 159.374012 
L 341.729151 159.374012 
L 341.729151 116.936186 
L 340.968327 116.936186 
z
" style="fill:#0000ff;opacity:0.5;"/>
   </g>
   <g id="patch_246">
    <path clip-path="url(#p383b3e75e7)" d="M 342.055219 159.374012 
L 342.816043 159.374012 
L 342.816043 242.371669 
L 342.055219 242.371669 
z
" style="fill:#0000ff;opacity:0.5;"/>
   </g>
   <g id="patch_247">
    <path clip-path="url(#p383b3e75e7)" d="M 343.14211 159.374012 
L 343.902934 159.374012 
L 343.902934 86.741916 
L 343.14211 86.741916 
z
" style="fill:#0000ff;opacity:0.5;"/>
   </g>
   <g id="patch_248">
    <path clip-path="url(#p383b3e75e7)" d="M 344.229002 159.374012 
L 344.989826 159.374012 
L 344.989826 196.177851 
L 344.229002 196.177851 
z
" style="fill:#0000ff;opacity:0.5;"/>
   </g>
   <g id="patch_249">
    <path clip-path="url(#p383b3e75e7)" d="M 345.315894 159.374012 
L 346.076718 159.374012 
L 346.076718 147.471909 
L 345.315894 147.471909 
z
" style="fill:#0000ff;opacity:0.5;"/>
   </g>
   <g id="patch_250">
    <path clip-path="url(#p383b3e75e7)" d="M 346.402785 159.374012 
L 347.163609 159.374012 
L 347.163609 182.739206 
L 346.402785 182.739206 
z
" style="fill:#0000ff;opacity:0.5;"/>
   </g>
   <g id="patch_251">
    <path clip-path="url(#p383b3e75e7)" d="M 347.489677 159.374012 
L 348.250501 159.374012 
L 348.250501 120.52145 
L 347.489677 120.52145 
z
" style="fill:#0000ff;opacity:0.5;"/>
   </g>
   <g id="patch_252">
    <path clip-path="url(#p383b3e75e7)" d="M 348.576569 159.374012 
L 349.337393 159.374012 
L 349.337393 133.911316 
L 348.576569 133.911316 
z
" style="fill:#0000ff;opacity:0.5;"/>
   </g>
   <g id="patch_253">
    <path clip-path="url(#p383b3e75e7)" d="M 349.66346 159.374012 
L 350.424284 159.374012 
L 350.424284 216.82361 
L 349.66346 216.82361 
z
" style="fill:#0000ff;opacity:0.5;"/>
   </g>
   <g id="patch_254">
    <path clip-path="url(#p383b3e75e7)" d="M 350.750352 159.374012 
L 351.511176 159.374012 
L 351.511176 104.473123 
L 350.750352 104.473123 
z
" style="fill:#0000ff;opacity:0.5;"/>
   </g>
   <g id="patch_255">
    <path clip-path="url(#p383b3e75e7)" d="M 351.837244 159.374012 
L 352.598068 159.374012 
L 352.598068 168.53229 
L 351.837244 168.53229 
z
" style="fill:#0000ff;opacity:0.5;"/>
   </g>
   <g id="patch_256">
    <path clip-path="url(#p383b3e75e7)" d="M 352.924135 159.374012 
L 353.68496 159.374012 
L 353.68496 181.775819 
L 352.924135 181.775819 
z
" style="fill:#0000ff;opacity:0.5;"/>
   </g>
   <g id="patch_257">
    <path clip-path="url(#p383b3e75e7)" d="M 354.011027 159.374012 
L 354.771851 159.374012 
L 354.771851 181.16608 
L 354.011027 181.16608 
z
" style="fill:#0000ff;opacity:0.5;"/>
   </g>
   <g id="patch_258">
    <path clip-path="url(#p383b3e75e7)" d="M 355.097919 159.374012 
L 355.858743 159.374012 
L 355.858743 129.228522 
L 355.097919 129.228522 
z
" style="fill:#0000ff;opacity:0.5;"/>
   </g>
   <g id="patch_259">
    <path clip-path="url(#p383b3e75e7)" d="M 356.18481 159.374012 
L 356.945635 159.374012 
L 356.945635 227.628183 
L 356.18481 227.628183 
z
" style="fill:#0000ff;opacity:0.5;"/>
   </g>
   <g id="patch_260">
    <path clip-path="url(#p383b3e75e7)" d="M 357.271702 159.374012 
L 358.032526 159.374012 
L 358.032526 137.703892 
L 357.271702 137.703892 
z
" style="fill:#0000ff;opacity:0.5;"/>
   </g>
   <g id="patch_261">
    <path clip-path="url(#p383b3e75e7)" d="M 358.358594 159.374012 
L 359.119418 159.374012 
L 359.119418 141.142819 
L 358.358594 141.142819 
z
" style="fill:#0000ff;opacity:0.5;"/>
   </g>
   <g id="patch_262">
    <path clip-path="url(#p383b3e75e7)" d="M 359.445485 159.374012 
L 360.20631 159.374012 
L 360.20631 80.21771 
L 359.445485 80.21771 
z
" style="fill:#0000ff;opacity:0.5;"/>
   </g>
   <g id="patch_263">
    <path clip-path="url(#p383b3e75e7)" d="M 360.532377 159.374012 
L 361.293201 159.374012 
L 361.293201 236.566955 
L 360.532377 236.566955 
z
" style="fill:#0000ff;opacity:0.5;"/>
   </g>
   <g id="patch_264">
    <path clip-path="url(#p383b3e75e7)" d="M 361.619269 159.374012 
L 362.380093 159.374012 
L 362.380093 125.374972 
L 361.619269 125.374972 
z
" style="fill:#0000ff;opacity:0.5;"/>
   </g>
   <g id="patch_265">
    <path clip-path="url(#p383b3e75e7)" d="M 362.70616 159.374012 
L 363.466985 159.374012 
L 363.466985 171.922438 
L 362.70616 171.922438 
z
" style="fill:#0000ff;opacity:0.5;"/>
   </g>
   <g id="patch_266">
    <path clip-path="url(#p383b3e75e7)" d="M 363.793052 159.374012 
L 364.553876 159.374012 
L 364.553876 173.983356 
L 363.793052 173.983356 
z
" style="fill:#0000ff;opacity:0.5;"/>
   </g>
   <g id="patch_267">
    <path clip-path="url(#p383b3e75e7)" d="M 364.879944 159.374012 
L 365.640768 159.374012 
L 365.640768 141.93548 
L 364.879944 141.93548 
z
" style="fill:#0000ff;opacity:0.5;"/>
   </g>
   <g id="patch_268">
    <path clip-path="url(#p383b3e75e7)" d="M 365.966836 159.374012 
L 366.72766 159.374012 
L 366.72766 161.056891 
L 365.966836 161.056891 
z
" style="fill:#0000ff;opacity:0.5;"/>
   </g>
   <g id="patch_269">
    <path clip-path="url(#p383b3e75e7)" d="M 367.053727 159.374012 
L 367.814551 159.374012 
L 367.814551 150.9962 
L 367.053727 150.9962 
z
" style="fill:#0000ff;opacity:0.5;"/>
   </g>
   <g id="patch_270">
    <path clip-path="url(#p383b3e75e7)" d="M 368.140619 159.374012 
L 368.901443 159.374012 
L 368.901443 155.300956 
L 368.140619 155.300956 
z
" style="fill:#0000ff;opacity:0.5;"/>
   </g>
   <g id="patch_271">
    <path clip-path="url(#p383b3e75e7)" d="M 369.227511 159.374012 
L 369.988335 159.374012 
L 369.988335 195.43397 
L 369.227511 195.43397 
z
" style="fill:#0000ff;opacity:0.5;"/>
   </g>
   <g id="patch_272">
    <path clip-path="url(#p383b3e75e7)" d="M 370.314402 159.374012 
L 371.075226 159.374012 
L 371.075226 171.044414 
L 370.314402 171.044414 
z
" style="fill:#0000ff;opacity:0.5;"/>
   </g>
   <g id="patch_273">
    <path clip-path="url(#p383b3e75e7)" d="M 371.401294 159.374012 
L 372.162118 159.374012 
L 372.162118 151.666913 
L 371.401294 151.666913 
z
" style="fill:#0000ff;opacity:0.5;"/>
   </g>
   <g id="patch_274">
    <path clip-path="url(#p383b3e75e7)" d="M 372.488186 159.374012 
L 373.24901 159.374012 
L 373.24901 122.7409 
L 372.488186 122.7409 
z
" style="fill:#0000ff;opacity:0.5;"/>
   </g>
   <g id="patch_275">
    <path clip-path="url(#p383b3e75e7)" d="M 373.575077 159.374012 
L 374.335901 159.374012 
L 374.335901 176.922297 
L 373.575077 176.922297 
z
" style="fill:#0000ff;opacity:0.5;"/>
   </g>
   <g id="patch_276">
    <path clip-path="url(#p383b3e75e7)" d="M 374.661969 159.374012 
L 375.422793 159.374012 
L 375.422793 124.704259 
L 374.661969 124.704259 
z
" style="fill:#0000ff;opacity:0.5;"/>
   </g>
   <g id="patch_277">
    <path clip-path="url(#p383b3e75e7)" d="M 375.748861 159.374012 
L 376.509685 159.374012 
L 376.509685 181.129496 
L 375.748861 181.129496 
z
" style="fill:#0000ff;opacity:0.5;"/>
   </g>
   <g id="patch_278">
    <path clip-path="url(#p383b3e75e7)" d="M 376.835752 159.374012 
L 377.596577 159.374012 
L 377.596577 154.337569 
L 376.835752 154.337569 
z
" style="fill:#0000ff;opacity:0.5;"/>
   </g>
   <g id="patch_279">
    <path clip-path="url(#p383b3e75e7)" d="M 377.922644 159.374012 
L 378.683468 159.374012 
L 378.683468 208.811641 
L 377.922644 208.811641 
z
" style="fill:#0000ff;opacity:0.5;"/>
   </g>
   <g id="patch_280">
    <path clip-path="url(#p383b3e75e7)" d="M 379.009536 159.374012 
L 379.77036 159.374012 
L 379.77036 127.643201 
L 379.009536 127.643201 
z
" style="fill:#0000ff;opacity:0.5;"/>
   </g>
   <g id="patch_281">
    <path clip-path="url(#p383b3e75e7)" d="M 380.096427 159.374012 
L 380.857252 159.374012 
L 380.857252 158.983779 
L 380.096427 158.983779 
z
" style="fill:#0000ff;opacity:0.5;"/>
   </g>
   <g id="patch_282">
    <path clip-path="url(#p383b3e75e7)" d="M 381.183319 159.374012 
L 381.944143 159.374012 
L 381.944143 123.314054 
L 381.183319 123.314054 
z
" style="fill:#0000ff;opacity:0.5;"/>
   </g>
   <g id="patch_283">
    <path clip-path="url(#p383b3e75e7)" d="M 382.270211 159.374012 
L 383.031035 159.374012 
L 383.031035 208.616524 
L 382.270211 208.616524 
z
" style="fill:#0000ff;opacity:0.5;"/>
   </g>
   <g id="patch_284">
    <path clip-path="url(#p383b3e75e7)" d="M 383.357102 159.374012 
L 384.117927 159.374012 
L 384.117927 181.105106 
L 383.357102 181.105106 
z
" style="fill:#0000ff;opacity:0.5;"/>
   </g>
   <g id="patch_285">
    <path clip-path="url(#p383b3e75e7)" d="M 384.443994 159.374012 
L 385.204818 159.374012 
L 385.204818 157.874054 
L 384.443994 157.874054 
z
" style="fill:#0000ff;opacity:0.5;"/>
   </g>
   <g id="patch_286">
    <path clip-path="url(#p383b3e75e7)" d="M 385.530886 159.374012 
L 386.29171 159.374012 
L 386.29171 131.265049 
L 385.530886 131.265049 
z
" style="fill:#0000ff;opacity:0.5;"/>
   </g>
   <g id="patch_287">
    <path clip-path="url(#p383b3e75e7)" d="M 386.617777 159.374012 
L 387.378602 159.374012 
L 387.378602 191.360914 
L 386.617777 191.360914 
z
" style="fill:#0000ff;opacity:0.5;"/>
   </g>
   <g id="patch_288">
    <path clip-path="url(#p383b3e75e7)" d="M 387.704669 159.374012 
L 388.465493 159.374012 
L 388.465493 149.020646 
L 387.704669 149.020646 
z
" style="fill:#0000ff;opacity:0.5;"/>
   </g>
   <g id="patch_289">
    <path clip-path="url(#p383b3e75e7)" d="M 388.791561 159.374012 
L 389.552385 159.374012 
L 389.552385 126.85054 
L 388.791561 126.85054 
z
" style="fill:#0000ff;opacity:0.5;"/>
   </g>
   <g id="patch_290">
    <path clip-path="url(#p383b3e75e7)" d="M 389.878453 159.374012 
L 390.639277 159.374012 
L 390.639277 135.789312 
L 389.878453 135.789312 
z
" style="fill:#0000ff;opacity:0.5;"/>
   </g>
   <g id="patch_291">
    <path clip-path="url(#p383b3e75e7)" d="M 390.965344 159.374012 
L 391.726168 159.374012 
L 391.726168 168.776186 
L 390.965344 168.776186 
z
" style="fill:#0000ff;opacity:0.5;"/>
   </g>
   <g id="patch_292">
    <path clip-path="url(#p383b3e75e7)" d="M 392.052236 159.374012 
L 392.81306 159.374012 
L 392.81306 114.046023 
L 392.052236 114.046023 
z
" style="fill:#0000ff;opacity:0.5;"/>
   </g>
   <g id="patch_293">
    <path clip-path="url(#p383b3e75e7)" d="M 393.139128 159.374012 
L 393.899952 159.374012 
L 393.899952 205.884894 
L 393.139128 205.884894 
z
" style="fill:#0000ff;opacity:0.5;"/>
   </g>
   <g id="patch_294">
    <path clip-path="url(#p383b3e75e7)" d="M 394.226019 159.374012 
L 394.986843 159.374012 
L 394.986843 154.642438 
L 394.226019 154.642438 
z
" style="fill:#0000ff;opacity:0.5;"/>
   </g>
   <g id="patch_295">
    <path clip-path="url(#p383b3e75e7)" d="M 395.312911 159.374012 
L 396.073735 159.374012 
L 396.073735 198.555833 
L 395.312911 198.555833 
z
" style="fill:#0000ff;opacity:0.5;"/>
   </g>
   <g id="patch_296">
    <path clip-path="url(#p383b3e75e7)" d="M 396.399803 159.374012 
L 397.160627 159.374012 
L 397.160627 178.483229 
L 396.399803 178.483229 
z
" style="fill:#0000ff;opacity:0.5;"/>
   </g>
   <g id="patch_297">
    <path clip-path="url(#p383b3e75e7)" d="M 397.486694 159.374012 
L 398.247518 159.374012 
L 398.247518 125.411556 
L 397.486694 125.411556 
z
" style="fill:#0000ff;opacity:0.5;"/>
   </g>
   <g id="patch_298">
    <path clip-path="url(#p383b3e75e7)" d="M 398.573586 159.374012 
L 399.33441 159.374012 
L 399.33441 202.165487 
L 398.573586 202.165487 
z
" style="fill:#0000ff;opacity:0.5;"/>
   </g>
   <g id="patch_299">
    <path clip-path="url(#p383b3e75e7)" d="M 399.660478 159.374012 
L 400.421302 159.374012 
L 400.421302 145.947562 
L 399.660478 145.947562 
z
" style="fill:#0000ff;opacity:0.5;"/>
   </g>
   <g id="patch_300">
    <path clip-path="url(#p383b3e75e7)" d="M 400.747369 159.374012 
L 401.508194 159.374012 
L 401.508194 103.229256 
L 400.747369 103.229256 
z
" style="fill:#0000ff;opacity:0.5;"/>
   </g>
   <g id="patch_301">
    <path clip-path="url(#p383b3e75e7)" d="M 401.834261 159.374012 
L 402.595085 159.374012 
L 402.595085 167.471344 
L 401.834261 167.471344 
z
" style="fill:#0000ff;opacity:0.5;"/>
   </g>
   <g id="matplotlib.axis_1">
    <g id="xtick_1">
     <g id="line2d_1">
      <defs>
       <path d="M 0 0 
L 0 3.5 
" id="m8c71286692" style="stroke:#000000;stroke-width:0.8;"/>
      </defs>
      <g>
       <use style="stroke:#000000;stroke-width:0.8;" x="78.320952" xlink:href="#m8c71286692" y="288.430125"/>
      </g>
     </g>
     <g id="text_1">
      <!-- 0 -->
      <defs>
       <path d="M 31.78125 66.40625 
Q 24.171875 66.40625 20.328125 58.90625 
Q 16.5 51.421875 16.5 36.375 
Q 16.5 21.390625 20.328125 13.890625 
Q 24.171875 6.390625 31.78125 6.390625 
Q 39.453125 6.390625 43.28125 13.890625 
Q 47.125 21.390625 47.125 36.375 
Q 47.125 51.421875 43.28125 58.90625 
Q 39.453125 66.40625 31.78125 66.40625 
z
M 31.78125 74.21875 
Q 44.046875 74.21875 50.515625 64.515625 
Q 56.984375 54.828125 56.984375 36.375 
Q 56.984375 17.96875 50.515625 8.265625 
Q 44.046875 -1.421875 31.78125 -1.421875 
Q 19.53125 -1.421875 13.0625 8.265625 
Q 6.59375 17.96875 6.59375 36.375 
Q 6.59375 54.828125 13.0625 64.515625 
Q 19.53125 74.21875 31.78125 74.21875 
z
" id="DejaVuSans-48"/>
      </defs>
      <g transform="translate(75.139702 303.028562)scale(0.1 -0.1)">
       <use xlink:href="#DejaVuSans-48"/>
      </g>
     </g>
    </g>
    <g id="xtick_2">
     <g id="line2d_2">
      <g>
       <use style="stroke:#000000;stroke-width:0.8;" x="132.665536" xlink:href="#m8c71286692" y="288.430125"/>
      </g>
     </g>
     <g id="text_2">
      <!-- 50 -->
      <defs>
       <path d="M 10.796875 72.90625 
L 49.515625 72.90625 
L 49.515625 64.59375 
L 19.828125 64.59375 
L 19.828125 46.734375 
Q 21.96875 47.46875 24.109375 47.828125 
Q 26.265625 48.1875 28.421875 48.1875 
Q 40.625 48.1875 47.75 41.5 
Q 54.890625 34.8125 54.890625 23.390625 
Q 54.890625 11.625 47.5625 5.09375 
Q 40.234375 -1.421875 26.90625 -1.421875 
Q 22.3125 -1.421875 17.546875 -0.640625 
Q 12.796875 0.140625 7.71875 1.703125 
L 7.71875 11.625 
Q 12.109375 9.234375 16.796875 8.0625 
Q 21.484375 6.890625 26.703125 6.890625 
Q 35.15625 6.890625 40.078125 11.328125 
Q 45.015625 15.765625 45.015625 23.390625 
Q 45.015625 31 40.078125 35.4375 
Q 35.15625 39.890625 26.703125 39.890625 
Q 22.75 39.890625 18.8125 39.015625 
Q 14.890625 38.140625 10.796875 36.28125 
z
" id="DejaVuSans-53"/>
      </defs>
      <g transform="translate(126.303036 303.028562)scale(0.1 -0.1)">
       <use xlink:href="#DejaVuSans-53"/>
       <use x="63.623047" xlink:href="#DejaVuSans-48"/>
      </g>
     </g>
    </g>
    <g id="xtick_3">
     <g id="line2d_3">
      <g>
       <use style="stroke:#000000;stroke-width:0.8;" x="187.01012" xlink:href="#m8c71286692" y="288.430125"/>
      </g>
     </g>
     <g id="text_3">
      <!-- 100 -->
      <defs>
       <path d="M 12.40625 8.296875 
L 28.515625 8.296875 
L 28.515625 63.921875 
L 10.984375 60.40625 
L 10.984375 69.390625 
L 28.421875 72.90625 
L 38.28125 72.90625 
L 38.28125 8.296875 
L 54.390625 8.296875 
L 54.390625 0 
L 12.40625 0 
z
" id="DejaVuSans-49"/>
      </defs>
      <g transform="translate(177.46637 303.028562)scale(0.1 -0.1)">
       <use xlink:href="#DejaVuSans-49"/>
       <use x="63.623047" xlink:href="#DejaVuSans-48"/>
       <use x="127.246094" xlink:href="#DejaVuSans-48"/>
      </g>
     </g>
    </g>
    <g id="xtick_4">
     <g id="line2d_4">
      <g>
       <use style="stroke:#000000;stroke-width:0.8;" x="241.354704" xlink:href="#m8c71286692" y="288.430125"/>
      </g>
     </g>
     <g id="text_4">
      <!-- 150 -->
      <g transform="translate(231.810954 303.028562)scale(0.1 -0.1)">
       <use xlink:href="#DejaVuSans-49"/>
       <use x="63.623047" xlink:href="#DejaVuSans-53"/>
       <use x="127.246094" xlink:href="#DejaVuSans-48"/>
      </g>
     </g>
    </g>
    <g id="xtick_5">
     <g id="line2d_5">
      <g>
       <use style="stroke:#000000;stroke-width:0.8;" x="295.699288" xlink:href="#m8c71286692" y="288.430125"/>
      </g>
     </g>
     <g id="text_5">
      <!-- 200 -->
      <defs>
       <path d="M 19.1875 8.296875 
L 53.609375 8.296875 
L 53.609375 0 
L 7.328125 0 
L 7.328125 8.296875 
Q 12.9375 14.109375 22.625 23.890625 
Q 32.328125 33.6875 34.8125 36.53125 
Q 39.546875 41.84375 41.421875 45.53125 
Q 43.3125 49.21875 43.3125 52.78125 
Q 43.3125 58.59375 39.234375 62.25 
Q 35.15625 65.921875 28.609375 65.921875 
Q 23.96875 65.921875 18.8125 64.3125 
Q 13.671875 62.703125 7.8125 59.421875 
L 7.8125 69.390625 
Q 13.765625 71.78125 18.9375 73 
Q 24.125 74.21875 28.421875 74.21875 
Q 39.75 74.21875 46.484375 68.546875 
Q 53.21875 62.890625 53.21875 53.421875 
Q 53.21875 48.921875 51.53125 44.890625 
Q 49.859375 40.875 45.40625 35.40625 
Q 44.1875 33.984375 37.640625 27.21875 
Q 31.109375 20.453125 19.1875 8.296875 
z
" id="DejaVuSans-50"/>
      </defs>
      <g transform="translate(286.155538 303.028562)scale(0.1 -0.1)">
       <use xlink:href="#DejaVuSans-50"/>
       <use x="63.623047" xlink:href="#DejaVuSans-48"/>
       <use x="127.246094" xlink:href="#DejaVuSans-48"/>
      </g>
     </g>
    </g>
    <g id="xtick_6">
     <g id="line2d_6">
      <g>
       <use style="stroke:#000000;stroke-width:0.8;" x="350.043872" xlink:href="#m8c71286692" y="288.430125"/>
      </g>
     </g>
     <g id="text_6">
      <!-- 250 -->
      <g transform="translate(340.500122 303.028562)scale(0.1 -0.1)">
       <use xlink:href="#DejaVuSans-50"/>
       <use x="63.623047" xlink:href="#DejaVuSans-53"/>
       <use x="127.246094" xlink:href="#DejaVuSans-48"/>
      </g>
     </g>
    </g>
    <g id="xtick_7">
     <g id="line2d_7">
      <g>
       <use style="stroke:#000000;stroke-width:0.8;" x="404.388457" xlink:href="#m8c71286692" y="288.430125"/>
      </g>
     </g>
     <g id="text_7">
      <!-- 300 -->
      <defs>
       <path d="M 40.578125 39.3125 
Q 47.65625 37.796875 51.625 33 
Q 55.609375 28.21875 55.609375 21.1875 
Q 55.609375 10.40625 48.1875 4.484375 
Q 40.765625 -1.421875 27.09375 -1.421875 
Q 22.515625 -1.421875 17.65625 -0.515625 
Q 12.796875 0.390625 7.625 2.203125 
L 7.625 11.71875 
Q 11.71875 9.328125 16.59375 8.109375 
Q 21.484375 6.890625 26.8125 6.890625 
Q 36.078125 6.890625 40.9375 10.546875 
Q 45.796875 14.203125 45.796875 21.1875 
Q 45.796875 27.640625 41.28125 31.265625 
Q 36.765625 34.90625 28.71875 34.90625 
L 20.21875 34.90625 
L 20.21875 43.015625 
L 29.109375 43.015625 
Q 36.375 43.015625 40.234375 45.921875 
Q 44.09375 48.828125 44.09375 54.296875 
Q 44.09375 59.90625 40.109375 62.90625 
Q 36.140625 65.921875 28.71875 65.921875 
Q 24.65625 65.921875 20.015625 65.03125 
Q 15.375 64.15625 9.8125 62.3125 
L 9.8125 71.09375 
Q 15.4375 72.65625 20.34375 73.4375 
Q 25.25 74.21875 29.59375 74.21875 
Q 40.828125 74.21875 47.359375 69.109375 
Q 53.90625 64.015625 53.90625 55.328125 
Q 53.90625 49.265625 50.4375 45.09375 
Q 46.96875 40.921875 40.578125 39.3125 
z
" id="DejaVuSans-51"/>
      </defs>
      <g transform="translate(394.844707 303.028562)scale(0.1 -0.1)">
       <use xlink:href="#DejaVuSans-51"/>
       <use x="63.623047" xlink:href="#DejaVuSans-48"/>
       <use x="127.246094" xlink:href="#DejaVuSans-48"/>
      </g>
     </g>
    </g>
    <g id="text_8">
     <!-- Step -->
     <defs>
      <path d="M 53.515625 70.515625 
L 53.515625 60.890625 
Q 47.90625 63.578125 42.921875 64.890625 
Q 37.9375 66.21875 33.296875 66.21875 
Q 25.25 66.21875 20.875 63.09375 
Q 16.5 59.96875 16.5 54.203125 
Q 16.5 49.359375 19.40625 46.890625 
Q 22.3125 44.4375 30.421875 42.921875 
L 36.375 41.703125 
Q 47.40625 39.59375 52.65625 34.296875 
Q 57.90625 29 57.90625 20.125 
Q 57.90625 9.515625 50.796875 4.046875 
Q 43.703125 -1.421875 29.984375 -1.421875 
Q 24.8125 -1.421875 18.96875 -0.25 
Q 13.140625 0.921875 6.890625 3.21875 
L 6.890625 13.375 
Q 12.890625 10.015625 18.65625 8.296875 
Q 24.421875 6.59375 29.984375 6.59375 
Q 38.421875 6.59375 43.015625 9.90625 
Q 47.609375 13.234375 47.609375 19.390625 
Q 47.609375 24.75 44.3125 27.78125 
Q 41.015625 30.8125 33.5 32.328125 
L 27.484375 33.5 
Q 16.453125 35.6875 11.515625 40.375 
Q 6.59375 45.0625 6.59375 53.421875 
Q 6.59375 63.09375 13.40625 68.65625 
Q 20.21875 74.21875 32.171875 74.21875 
Q 37.3125 74.21875 42.625 73.28125 
Q 47.953125 72.359375 53.515625 70.515625 
z
" id="DejaVuSans-83"/>
      <path d="M 18.3125 70.21875 
L 18.3125 54.6875 
L 36.8125 54.6875 
L 36.8125 47.703125 
L 18.3125 47.703125 
L 18.3125 18.015625 
Q 18.3125 11.328125 20.140625 9.421875 
Q 21.96875 7.515625 27.59375 7.515625 
L 36.8125 7.515625 
L 36.8125 0 
L 27.59375 0 
Q 17.1875 0 13.234375 3.875 
Q 9.28125 7.765625 9.28125 18.015625 
L 9.28125 47.703125 
L 2.6875 47.703125 
L 2.6875 54.6875 
L 9.28125 54.6875 
L 9.28125 70.21875 
z
" id="DejaVuSans-116"/>
      <path d="M 56.203125 29.59375 
L 56.203125 25.203125 
L 14.890625 25.203125 
Q 15.484375 15.921875 20.484375 11.0625 
Q 25.484375 6.203125 34.421875 6.203125 
Q 39.59375 6.203125 44.453125 7.46875 
Q 49.3125 8.734375 54.109375 11.28125 
L 54.109375 2.78125 
Q 49.265625 0.734375 44.1875 -0.34375 
Q 39.109375 -1.421875 33.890625 -1.421875 
Q 20.796875 -1.421875 13.15625 6.1875 
Q 5.515625 13.8125 5.515625 26.8125 
Q 5.515625 40.234375 12.765625 48.109375 
Q 20.015625 56 32.328125 56 
Q 43.359375 56 49.78125 48.890625 
Q 56.203125 41.796875 56.203125 29.59375 
z
M 47.21875 32.234375 
Q 47.125 39.59375 43.09375 43.984375 
Q 39.0625 48.390625 32.421875 48.390625 
Q 24.90625 48.390625 20.390625 44.140625 
Q 15.875 39.890625 15.1875 32.171875 
z
" id="DejaVuSans-101"/>
      <path d="M 18.109375 8.203125 
L 18.109375 -20.796875 
L 9.078125 -20.796875 
L 9.078125 54.6875 
L 18.109375 54.6875 
L 18.109375 46.390625 
Q 20.953125 51.265625 25.265625 53.625 
Q 29.59375 56 35.59375 56 
Q 45.5625 56 51.78125 48.09375 
Q 58.015625 40.1875 58.015625 27.296875 
Q 58.015625 14.40625 51.78125 6.484375 
Q 45.5625 -1.421875 35.59375 -1.421875 
Q 29.59375 -1.421875 25.265625 0.953125 
Q 20.953125 3.328125 18.109375 8.203125 
z
M 48.6875 27.296875 
Q 48.6875 37.203125 44.609375 42.84375 
Q 40.53125 48.484375 33.40625 48.484375 
Q 26.265625 48.484375 22.1875 42.84375 
Q 18.109375 37.203125 18.109375 27.296875 
Q 18.109375 17.390625 22.1875 11.75 
Q 26.265625 6.109375 33.40625 6.109375 
Q 40.53125 6.109375 44.609375 11.75 
Q 48.6875 17.390625 48.6875 27.296875 
z
" id="DejaVuSans-112"/>
     </defs>
     <g transform="translate(228.882656 316.706687)scale(0.1 -0.1)">
      <use xlink:href="#DejaVuSans-83"/>
      <use x="63.476562" xlink:href="#DejaVuSans-116"/>
      <use x="102.685547" xlink:href="#DejaVuSans-101"/>
      <use x="164.208984" xlink:href="#DejaVuSans-112"/>
     </g>
    </g>
   </g>
   <g id="matplotlib.axis_2">
    <g id="ytick_1">
     <g id="line2d_8">
      <defs>
       <path d="M 0 0 
L -3.5 0 
" id="ma759ce9077" style="stroke:#000000;stroke-width:0.8;"/>
      </defs>
      <g>
       <use style="stroke:#000000;stroke-width:0.8;" x="61.707813" xlink:href="#ma759ce9077" y="281.321789"/>
      </g>
     </g>
     <g id="text_9">
      <!-- 1000 -->
      <defs>
       <path d="M 10.59375 35.5 
L 73.1875 35.5 
L 73.1875 27.203125 
L 10.59375 27.203125 
z
" id="DejaVuSans-8722"/>
      </defs>
      <g transform="translate(20.878125 285.121008)scale(0.1 -0.1)">
       <use xlink:href="#DejaVuSans-8722"/>
       <use x="83.789062" xlink:href="#DejaVuSans-49"/>
       <use x="147.412109" xlink:href="#DejaVuSans-48"/>
       <use x="211.035156" xlink:href="#DejaVuSans-48"/>
       <use x="274.658203" xlink:href="#DejaVuSans-48"/>
      </g>
     </g>
    </g>
    <g id="ytick_2">
     <g id="line2d_9">
      <g>
       <use style="stroke:#000000;stroke-width:0.8;" x="61.707813" xlink:href="#ma759ce9077" y="250.834845"/>
      </g>
     </g>
     <g id="text_10">
      <!-- 750 -->
      <defs>
       <path d="M 8.203125 72.90625 
L 55.078125 72.90625 
L 55.078125 68.703125 
L 28.609375 0 
L 18.3125 0 
L 43.21875 64.59375 
L 8.203125 64.59375 
z
" id="DejaVuSans-55"/>
      </defs>
      <g transform="translate(27.240625 254.634064)scale(0.1 -0.1)">
       <use xlink:href="#DejaVuSans-8722"/>
       <use x="83.789062" xlink:href="#DejaVuSans-55"/>
       <use x="147.412109" xlink:href="#DejaVuSans-53"/>
       <use x="211.035156" xlink:href="#DejaVuSans-48"/>
      </g>
     </g>
    </g>
    <g id="ytick_3">
     <g id="line2d_10">
      <g>
       <use style="stroke:#000000;stroke-width:0.8;" x="61.707813" xlink:href="#ma759ce9077" y="220.347901"/>
      </g>
     </g>
     <g id="text_11">
      <!-- 500 -->
      <g transform="translate(27.240625 224.147119)scale(0.1 -0.1)">
       <use xlink:href="#DejaVuSans-8722"/>
       <use x="83.789062" xlink:href="#DejaVuSans-53"/>
       <use x="147.412109" xlink:href="#DejaVuSans-48"/>
       <use x="211.035156" xlink:href="#DejaVuSans-48"/>
      </g>
     </g>
    </g>
    <g id="ytick_4">
     <g id="line2d_11">
      <g>
       <use style="stroke:#000000;stroke-width:0.8;" x="61.707813" xlink:href="#ma759ce9077" y="189.860956"/>
      </g>
     </g>
     <g id="text_12">
      <!-- 250 -->
      <g transform="translate(27.240625 193.660175)scale(0.1 -0.1)">
       <use xlink:href="#DejaVuSans-8722"/>
       <use x="83.789062" xlink:href="#DejaVuSans-50"/>
       <use x="147.412109" xlink:href="#DejaVuSans-53"/>
       <use x="211.035156" xlink:href="#DejaVuSans-48"/>
      </g>
     </g>
    </g>
    <g id="ytick_5">
     <g id="line2d_12">
      <g>
       <use style="stroke:#000000;stroke-width:0.8;" x="61.707813" xlink:href="#ma759ce9077" y="159.374012"/>
      </g>
     </g>
     <g id="text_13">
      <!-- 0 -->
      <g transform="translate(48.345313 163.173231)scale(0.1 -0.1)">
       <use xlink:href="#DejaVuSans-48"/>
      </g>
     </g>
    </g>
    <g id="ytick_6">
     <g id="line2d_13">
      <g>
       <use style="stroke:#000000;stroke-width:0.8;" x="61.707813" xlink:href="#ma759ce9077" y="128.887068"/>
      </g>
     </g>
     <g id="text_14">
      <!-- 250 -->
      <g transform="translate(35.620312 132.686287)scale(0.1 -0.1)">
       <use xlink:href="#DejaVuSans-50"/>
       <use x="63.623047" xlink:href="#DejaVuSans-53"/>
       <use x="127.246094" xlink:href="#DejaVuSans-48"/>
      </g>
     </g>
    </g>
    <g id="ytick_7">
     <g id="line2d_14">
      <g>
       <use style="stroke:#000000;stroke-width:0.8;" x="61.707813" xlink:href="#ma759ce9077" y="98.400124"/>
      </g>
     </g>
     <g id="text_15">
      <!-- 500 -->
      <g transform="translate(35.620312 102.199342)scale(0.1 -0.1)">
       <use xlink:href="#DejaVuSans-53"/>
       <use x="63.623047" xlink:href="#DejaVuSans-48"/>
       <use x="127.246094" xlink:href="#DejaVuSans-48"/>
      </g>
     </g>
    </g>
    <g id="ytick_8">
     <g id="line2d_15">
      <g>
       <use style="stroke:#000000;stroke-width:0.8;" x="61.707813" xlink:href="#ma759ce9077" y="67.913179"/>
      </g>
     </g>
     <g id="text_16">
      <!-- 750 -->
      <g transform="translate(35.620312 71.712398)scale(0.1 -0.1)">
       <use xlink:href="#DejaVuSans-55"/>
       <use x="63.623047" xlink:href="#DejaVuSans-53"/>
       <use x="127.246094" xlink:href="#DejaVuSans-48"/>
      </g>
     </g>
    </g>
    <g id="ytick_9">
     <g id="line2d_16">
      <g>
       <use style="stroke:#000000;stroke-width:0.8;" x="61.707813" xlink:href="#ma759ce9077" y="37.426235"/>
      </g>
     </g>
     <g id="text_17">
      <!-- 1000 -->
      <g transform="translate(29.257812 41.225454)scale(0.1 -0.1)">
       <use xlink:href="#DejaVuSans-49"/>
       <use x="63.623047" xlink:href="#DejaVuSans-48"/>
       <use x="127.246094" xlink:href="#DejaVuSans-48"/>
       <use x="190.869141" xlink:href="#DejaVuSans-48"/>
      </g>
     </g>
    </g>
    <g id="text_18">
     <!-- Reward - Forward Difference -->
     <defs>
      <path d="M 44.390625 34.1875 
Q 47.5625 33.109375 50.5625 29.59375 
Q 53.5625 26.078125 56.59375 19.921875 
L 66.609375 0 
L 56 0 
L 46.6875 18.703125 
Q 43.0625 26.03125 39.671875 28.421875 
Q 36.28125 30.8125 30.421875 30.8125 
L 19.671875 30.8125 
L 19.671875 0 
L 9.8125 0 
L 9.8125 72.90625 
L 32.078125 72.90625 
Q 44.578125 72.90625 50.734375 67.671875 
Q 56.890625 62.453125 56.890625 51.90625 
Q 56.890625 45.015625 53.6875 40.46875 
Q 50.484375 35.9375 44.390625 34.1875 
z
M 19.671875 64.796875 
L 19.671875 38.921875 
L 32.078125 38.921875 
Q 39.203125 38.921875 42.84375 42.21875 
Q 46.484375 45.515625 46.484375 51.90625 
Q 46.484375 58.296875 42.84375 61.546875 
Q 39.203125 64.796875 32.078125 64.796875 
z
" id="DejaVuSans-82"/>
      <path d="M 4.203125 54.6875 
L 13.1875 54.6875 
L 24.421875 12.015625 
L 35.59375 54.6875 
L 46.1875 54.6875 
L 57.421875 12.015625 
L 68.609375 54.6875 
L 77.59375 54.6875 
L 63.28125 0 
L 52.6875 0 
L 40.921875 44.828125 
L 29.109375 0 
L 18.5 0 
z
" id="DejaVuSans-119"/>
      <path d="M 34.28125 27.484375 
Q 23.390625 27.484375 19.1875 25 
Q 14.984375 22.515625 14.984375 16.5 
Q 14.984375 11.71875 18.140625 8.90625 
Q 21.296875 6.109375 26.703125 6.109375 
Q 34.1875 6.109375 38.703125 11.40625 
Q 43.21875 16.703125 43.21875 25.484375 
L 43.21875 27.484375 
z
M 52.203125 31.203125 
L 52.203125 0 
L 43.21875 0 
L 43.21875 8.296875 
Q 40.140625 3.328125 35.546875 0.953125 
Q 30.953125 -1.421875 24.3125 -1.421875 
Q 15.921875 -1.421875 10.953125 3.296875 
Q 6 8.015625 6 15.921875 
Q 6 25.140625 12.171875 29.828125 
Q 18.359375 34.515625 30.609375 34.515625 
L 43.21875 34.515625 
L 43.21875 35.40625 
Q 43.21875 41.609375 39.140625 45 
Q 35.0625 48.390625 27.6875 48.390625 
Q 23 48.390625 18.546875 47.265625 
Q 14.109375 46.140625 10.015625 43.890625 
L 10.015625 52.203125 
Q 14.9375 54.109375 19.578125 55.046875 
Q 24.21875 56 28.609375 56 
Q 40.484375 56 46.34375 49.84375 
Q 52.203125 43.703125 52.203125 31.203125 
z
" id="DejaVuSans-97"/>
      <path d="M 41.109375 46.296875 
Q 39.59375 47.171875 37.8125 47.578125 
Q 36.03125 48 33.890625 48 
Q 26.265625 48 22.1875 43.046875 
Q 18.109375 38.09375 18.109375 28.8125 
L 18.109375 0 
L 9.078125 0 
L 9.078125 54.6875 
L 18.109375 54.6875 
L 18.109375 46.1875 
Q 20.953125 51.171875 25.484375 53.578125 
Q 30.03125 56 36.53125 56 
Q 37.453125 56 38.578125 55.875 
Q 39.703125 55.765625 41.0625 55.515625 
z
" id="DejaVuSans-114"/>
      <path d="M 45.40625 46.390625 
L 45.40625 75.984375 
L 54.390625 75.984375 
L 54.390625 0 
L 45.40625 0 
L 45.40625 8.203125 
Q 42.578125 3.328125 38.25 0.953125 
Q 33.9375 -1.421875 27.875 -1.421875 
Q 17.96875 -1.421875 11.734375 6.484375 
Q 5.515625 14.40625 5.515625 27.296875 
Q 5.515625 40.1875 11.734375 48.09375 
Q 17.96875 56 27.875 56 
Q 33.9375 56 38.25 53.625 
Q 42.578125 51.265625 45.40625 46.390625 
z
M 14.796875 27.296875 
Q 14.796875 17.390625 18.875 11.75 
Q 22.953125 6.109375 30.078125 6.109375 
Q 37.203125 6.109375 41.296875 11.75 
Q 45.40625 17.390625 45.40625 27.296875 
Q 45.40625 37.203125 41.296875 42.84375 
Q 37.203125 48.484375 30.078125 48.484375 
Q 22.953125 48.484375 18.875 42.84375 
Q 14.796875 37.203125 14.796875 27.296875 
z
" id="DejaVuSans-100"/>
      <path id="DejaVuSans-32"/>
      <path d="M 4.890625 31.390625 
L 31.203125 31.390625 
L 31.203125 23.390625 
L 4.890625 23.390625 
z
" id="DejaVuSans-45"/>
      <path d="M 9.8125 72.90625 
L 51.703125 72.90625 
L 51.703125 64.59375 
L 19.671875 64.59375 
L 19.671875 43.109375 
L 48.578125 43.109375 
L 48.578125 34.8125 
L 19.671875 34.8125 
L 19.671875 0 
L 9.8125 0 
z
" id="DejaVuSans-70"/>
      <path d="M 30.609375 48.390625 
Q 23.390625 48.390625 19.1875 42.75 
Q 14.984375 37.109375 14.984375 27.296875 
Q 14.984375 17.484375 19.15625 11.84375 
Q 23.34375 6.203125 30.609375 6.203125 
Q 37.796875 6.203125 41.984375 11.859375 
Q 46.1875 17.53125 46.1875 27.296875 
Q 46.1875 37.015625 41.984375 42.703125 
Q 37.796875 48.390625 30.609375 48.390625 
z
M 30.609375 56 
Q 42.328125 56 49.015625 48.375 
Q 55.71875 40.765625 55.71875 27.296875 
Q 55.71875 13.875 49.015625 6.21875 
Q 42.328125 -1.421875 30.609375 -1.421875 
Q 18.84375 -1.421875 12.171875 6.21875 
Q 5.515625 13.875 5.515625 27.296875 
Q 5.515625 40.765625 12.171875 48.375 
Q 18.84375 56 30.609375 56 
z
" id="DejaVuSans-111"/>
      <path d="M 19.671875 64.796875 
L 19.671875 8.109375 
L 31.59375 8.109375 
Q 46.6875 8.109375 53.6875 14.9375 
Q 60.6875 21.78125 60.6875 36.53125 
Q 60.6875 51.171875 53.6875 57.984375 
Q 46.6875 64.796875 31.59375 64.796875 
z
M 9.8125 72.90625 
L 30.078125 72.90625 
Q 51.265625 72.90625 61.171875 64.09375 
Q 71.09375 55.28125 71.09375 36.53125 
Q 71.09375 17.671875 61.125 8.828125 
Q 51.171875 0 30.078125 0 
L 9.8125 0 
z
" id="DejaVuSans-68"/>
      <path d="M 9.421875 54.6875 
L 18.40625 54.6875 
L 18.40625 0 
L 9.421875 0 
z
M 9.421875 75.984375 
L 18.40625 75.984375 
L 18.40625 64.59375 
L 9.421875 64.59375 
z
" id="DejaVuSans-105"/>
      <path d="M 37.109375 75.984375 
L 37.109375 68.5 
L 28.515625 68.5 
Q 23.6875 68.5 21.796875 66.546875 
Q 19.921875 64.59375 19.921875 59.515625 
L 19.921875 54.6875 
L 34.71875 54.6875 
L 34.71875 47.703125 
L 19.921875 47.703125 
L 19.921875 0 
L 10.890625 0 
L 10.890625 47.703125 
L 2.296875 47.703125 
L 2.296875 54.6875 
L 10.890625 54.6875 
L 10.890625 58.5 
Q 10.890625 67.625 15.140625 71.796875 
Q 19.390625 75.984375 28.609375 75.984375 
z
" id="DejaVuSans-102"/>
      <path d="M 54.890625 33.015625 
L 54.890625 0 
L 45.90625 0 
L 45.90625 32.71875 
Q 45.90625 40.484375 42.875 44.328125 
Q 39.84375 48.1875 33.796875 48.1875 
Q 26.515625 48.1875 22.3125 43.546875 
Q 18.109375 38.921875 18.109375 30.90625 
L 18.109375 0 
L 9.078125 0 
L 9.078125 54.6875 
L 18.109375 54.6875 
L 18.109375 46.1875 
Q 21.34375 51.125 25.703125 53.5625 
Q 30.078125 56 35.796875 56 
Q 45.21875 56 50.046875 50.171875 
Q 54.890625 44.34375 54.890625 33.015625 
z
" id="DejaVuSans-110"/>
      <path d="M 48.78125 52.59375 
L 48.78125 44.1875 
Q 44.96875 46.296875 41.140625 47.34375 
Q 37.3125 48.390625 33.40625 48.390625 
Q 24.65625 48.390625 19.8125 42.84375 
Q 14.984375 37.3125 14.984375 27.296875 
Q 14.984375 17.28125 19.8125 11.734375 
Q 24.65625 6.203125 33.40625 6.203125 
Q 37.3125 6.203125 41.140625 7.25 
Q 44.96875 8.296875 48.78125 10.40625 
L 48.78125 2.09375 
Q 45.015625 0.34375 40.984375 -0.53125 
Q 36.96875 -1.421875 32.421875 -1.421875 
Q 20.0625 -1.421875 12.78125 6.34375 
Q 5.515625 14.109375 5.515625 27.296875 
Q 5.515625 40.671875 12.859375 48.328125 
Q 20.21875 56 33.015625 56 
Q 37.15625 56 41.109375 55.140625 
Q 45.0625 54.296875 48.78125 52.59375 
z
" id="DejaVuSans-99"/>
     </defs>
     <g transform="translate(14.798438 227.206156)rotate(-90)scale(0.1 -0.1)">
      <use xlink:href="#DejaVuSans-82"/>
      <use x="69.419922" xlink:href="#DejaVuSans-101"/>
      <use x="130.943359" xlink:href="#DejaVuSans-119"/>
      <use x="212.730469" xlink:href="#DejaVuSans-97"/>
      <use x="274.009766" xlink:href="#DejaVuSans-114"/>
      <use x="315.107422" xlink:href="#DejaVuSans-100"/>
      <use x="378.583984" xlink:href="#DejaVuSans-32"/>
      <use x="410.371094" xlink:href="#DejaVuSans-45"/>
      <use x="446.455078" xlink:href="#DejaVuSans-32"/>
      <use x="478.242188" xlink:href="#DejaVuSans-70"/>
      <use x="535.714844" xlink:href="#DejaVuSans-111"/>
      <use x="596.896484" xlink:href="#DejaVuSans-114"/>
      <use x="638.009766" xlink:href="#DejaVuSans-119"/>
      <use x="719.796875" xlink:href="#DejaVuSans-97"/>
      <use x="781.076172" xlink:href="#DejaVuSans-114"/>
      <use x="822.173828" xlink:href="#DejaVuSans-100"/>
      <use x="885.650391" xlink:href="#DejaVuSans-32"/>
      <use x="917.4375" xlink:href="#DejaVuSans-68"/>
      <use x="994.439453" xlink:href="#DejaVuSans-105"/>
      <use x="1022.222656" xlink:href="#DejaVuSans-102"/>
      <use x="1057.427734" xlink:href="#DejaVuSans-102"/>
      <use x="1092.632812" xlink:href="#DejaVuSans-101"/>
      <use x="1154.15625" xlink:href="#DejaVuSans-114"/>
      <use x="1195.238281" xlink:href="#DejaVuSans-101"/>
      <use x="1256.761719" xlink:href="#DejaVuSans-110"/>
      <use x="1320.140625" xlink:href="#DejaVuSans-99"/>
      <use x="1375.121094" xlink:href="#DejaVuSans-101"/>
     </g>
    </g>
   </g>
   <g id="patch_302">
    <path d="M 61.707813 288.430125 
L 61.707813 22.318125 
" style="fill:none;stroke:#000000;stroke-linecap:square;stroke-linejoin:miter;stroke-width:0.8;"/>
   </g>
   <g id="patch_303">
    <path d="M 418.827813 288.430125 
L 418.827813 22.318125 
" style="fill:none;stroke:#000000;stroke-linecap:square;stroke-linejoin:miter;stroke-width:0.8;"/>
   </g>
   <g id="patch_304">
    <path d="M 61.707813 288.430125 
L 418.827813 288.430125 
" style="fill:none;stroke:#000000;stroke-linecap:square;stroke-linejoin:miter;stroke-width:0.8;"/>
   </g>
   <g id="patch_305">
    <path d="M 61.707813 22.318125 
L 418.827813 22.318125 
" style="fill:none;stroke:#000000;stroke-linecap:square;stroke-linejoin:miter;stroke-width:0.8;"/>
   </g>
   <g id="text_19">
    <!-- Assault - Atari -->
    <defs>
     <path d="M 34.1875 63.1875 
L 20.796875 26.90625 
L 47.609375 26.90625 
z
M 28.609375 72.90625 
L 39.796875 72.90625 
L 67.578125 0 
L 57.328125 0 
L 50.6875 18.703125 
L 17.828125 18.703125 
L 11.1875 0 
L 0.78125 0 
z
" id="DejaVuSans-65"/>
     <path d="M 44.28125 53.078125 
L 44.28125 44.578125 
Q 40.484375 46.53125 36.375 47.5 
Q 32.28125 48.484375 27.875 48.484375 
Q 21.1875 48.484375 17.84375 46.4375 
Q 14.5 44.390625 14.5 40.28125 
Q 14.5 37.15625 16.890625 35.375 
Q 19.28125 33.59375 26.515625 31.984375 
L 29.59375 31.296875 
Q 39.15625 29.25 43.1875 25.515625 
Q 47.21875 21.78125 47.21875 15.09375 
Q 47.21875 7.46875 41.1875 3.015625 
Q 35.15625 -1.421875 24.609375 -1.421875 
Q 20.21875 -1.421875 15.453125 -0.5625 
Q 10.6875 0.296875 5.421875 2 
L 5.421875 11.28125 
Q 10.40625 8.6875 15.234375 7.390625 
Q 20.0625 6.109375 24.8125 6.109375 
Q 31.15625 6.109375 34.5625 8.28125 
Q 37.984375 10.453125 37.984375 14.40625 
Q 37.984375 18.0625 35.515625 20.015625 
Q 33.0625 21.96875 24.703125 23.78125 
L 21.578125 24.515625 
Q 13.234375 26.265625 9.515625 29.90625 
Q 5.8125 33.546875 5.8125 39.890625 
Q 5.8125 47.609375 11.28125 51.796875 
Q 16.75 56 26.8125 56 
Q 31.78125 56 36.171875 55.265625 
Q 40.578125 54.546875 44.28125 53.078125 
z
" id="DejaVuSans-115"/>
     <path d="M 8.5 21.578125 
L 8.5 54.6875 
L 17.484375 54.6875 
L 17.484375 21.921875 
Q 17.484375 14.15625 20.5 10.265625 
Q 23.53125 6.390625 29.59375 6.390625 
Q 36.859375 6.390625 41.078125 11.03125 
Q 45.3125 15.671875 45.3125 23.6875 
L 45.3125 54.6875 
L 54.296875 54.6875 
L 54.296875 0 
L 45.3125 0 
L 45.3125 8.40625 
Q 42.046875 3.421875 37.71875 1 
Q 33.40625 -1.421875 27.6875 -1.421875 
Q 18.265625 -1.421875 13.375 4.4375 
Q 8.5 10.296875 8.5 21.578125 
z
M 31.109375 56 
z
" id="DejaVuSans-117"/>
     <path d="M 9.421875 75.984375 
L 18.40625 75.984375 
L 18.40625 0 
L 9.421875 0 
z
" id="DejaVuSans-108"/>
    </defs>
    <g transform="translate(198.169375 16.318125)scale(0.12 -0.12)">
     <use xlink:href="#DejaVuSans-65"/>
     <use x="68.408203" xlink:href="#DejaVuSans-115"/>
     <use x="120.507812" xlink:href="#DejaVuSans-115"/>
     <use x="172.607422" xlink:href="#DejaVuSans-97"/>
     <use x="233.886719" xlink:href="#DejaVuSans-117"/>
     <use x="297.265625" xlink:href="#DejaVuSans-108"/>
     <use x="325.048828" xlink:href="#DejaVuSans-116"/>
     <use x="364.257812" xlink:href="#DejaVuSans-32"/>
     <use x="396.044922" xlink:href="#DejaVuSans-45"/>
     <use x="432.128906" xlink:href="#DejaVuSans-32"/>
     <use x="463.916016" xlink:href="#DejaVuSans-65"/>
     <use x="532.308594" xlink:href="#DejaVuSans-116"/>
     <use x="571.517578" xlink:href="#DejaVuSans-97"/>
     <use x="632.796875" xlink:href="#DejaVuSans-114"/>
     <use x="673.910156" xlink:href="#DejaVuSans-105"/>
    </g>
   </g>
   <g id="legend_1">
    <g id="patch_306">
     <path d="M 303.465313 44.99625 
L 411.827813 44.99625 
Q 413.827813 44.99625 413.827813 42.99625 
L 413.827813 29.318125 
Q 413.827813 27.318125 411.827813 27.318125 
L 303.465313 27.318125 
Q 301.465313 27.318125 301.465313 29.318125 
L 301.465313 42.99625 
Q 301.465313 44.99625 303.465313 44.99625 
z
" style="fill:#ffffff;opacity:0.8;stroke:#cccccc;stroke-linejoin:miter;"/>
    </g>
    <g id="patch_307">
     <path d="M 305.465313 38.916562 
L 325.465313 38.916562 
L 325.465313 31.916562 
L 305.465313 31.916562 
z
" style="fill:#0000ff;opacity:0.5;"/>
    </g>
    <g id="text_20">
     <!-- Flushed Replay -->
     <defs>
      <path d="M 54.890625 33.015625 
L 54.890625 0 
L 45.90625 0 
L 45.90625 32.71875 
Q 45.90625 40.484375 42.875 44.328125 
Q 39.84375 48.1875 33.796875 48.1875 
Q 26.515625 48.1875 22.3125 43.546875 
Q 18.109375 38.921875 18.109375 30.90625 
L 18.109375 0 
L 9.078125 0 
L 9.078125 75.984375 
L 18.109375 75.984375 
L 18.109375 46.1875 
Q 21.34375 51.125 25.703125 53.5625 
Q 30.078125 56 35.796875 56 
Q 45.21875 56 50.046875 50.171875 
Q 54.890625 44.34375 54.890625 33.015625 
z
" id="DejaVuSans-104"/>
      <path d="M 32.171875 -5.078125 
Q 28.375 -14.84375 24.75 -17.8125 
Q 21.140625 -20.796875 15.09375 -20.796875 
L 7.90625 -20.796875 
L 7.90625 -13.28125 
L 13.1875 -13.28125 
Q 16.890625 -13.28125 18.9375 -11.515625 
Q 21 -9.765625 23.484375 -3.21875 
L 25.09375 0.875 
L 2.984375 54.6875 
L 12.5 54.6875 
L 29.59375 11.921875 
L 46.6875 54.6875 
L 56.203125 54.6875 
z
" id="DejaVuSans-121"/>
     </defs>
     <g transform="translate(333.465313 38.916562)scale(0.1 -0.1)">
      <use xlink:href="#DejaVuSans-70"/>
      <use x="57.519531" xlink:href="#DejaVuSans-108"/>
      <use x="85.302734" xlink:href="#DejaVuSans-117"/>
      <use x="148.681641" xlink:href="#DejaVuSans-115"/>
      <use x="200.78125" xlink:href="#DejaVuSans-104"/>
      <use x="264.160156" xlink:href="#DejaVuSans-101"/>
      <use x="325.683594" xlink:href="#DejaVuSans-100"/>
      <use x="389.160156" xlink:href="#DejaVuSans-32"/>
      <use x="420.947266" xlink:href="#DejaVuSans-82"/>
      <use x="490.367188" xlink:href="#DejaVuSans-101"/>
      <use x="551.890625" xlink:href="#DejaVuSans-112"/>
      <use x="615.367188" xlink:href="#DejaVuSans-108"/>
      <use x="643.150391" xlink:href="#DejaVuSans-97"/>
      <use x="704.429688" xlink:href="#DejaVuSans-121"/>
     </g>
    </g>
   </g>
  </g>
 </g>
 <defs>
  <clipPath id="p383b3e75e7">
   <rect height="266.112" width="357.12" x="61.707813" y="22.318125"/>
  </clipPath>
 </defs>
</svg>
