<?xml version="1.0" encoding="utf-8" standalone="no"?>
<!DOCTYPE svg PUBLIC "-//W3C//DTD SVG 1.1//EN"
  "http://www.w3.org/Graphics/SVG/1.1/DTD/svg11.dtd">
<!-- Created with matplotlib (https://matplotlib.org/) -->
<svg height="325.986375pt" version="1.1" viewBox="0 0 423.165313 325.986375" width="423.165313pt" xmlns="http://www.w3.org/2000/svg" xmlns:xlink="http://www.w3.org/1999/xlink">
 <defs>
  <style type="text/css">
*{stroke-linecap:butt;stroke-linejoin:round;}
  </style>
 </defs>
 <g id="figure_1">
  <g id="patch_1">
   <path d="M 0 325.986375 
L 423.165313 325.986375 
L 423.165313 0 
L 0 0 
z
" style="fill:#ffffff;"/>
  </g>
  <g id="axes_1">
   <g id="patch_2">
    <path d="M 55.345313 288.430125 
L 412.465313 288.430125 
L 412.465313 22.318125 
L 55.345313 22.318125 
z
" style="fill:#ffffff;"/>
   </g>
   <g id="patch_3">
    <path clip-path="url(#p67822e54b3)" d="M 71.57804 144.085071 
L 72.34142 144.085071 
L 72.34142 147.441092 
L 71.57804 147.441092 
z
" style="fill:#0000ff;opacity:0.5;"/>
   </g>
   <g id="patch_4">
    <path clip-path="url(#p67822e54b3)" d="M 72.668582 144.085071 
L 73.431962 144.085071 
L 73.431962 150.817576 
L 72.668582 150.817576 
z
" style="fill:#0000ff;opacity:0.5;"/>
   </g>
   <g id="patch_5">
    <path clip-path="url(#p67822e54b3)" d="M 73.759125 144.085071 
L 74.522505 144.085071 
L 74.522505 121.295505 
L 73.759125 121.295505 
z
" style="fill:#0000ff;opacity:0.5;"/>
   </g>
   <g id="patch_6">
    <path clip-path="url(#p67822e54b3)" d="M 74.849668 144.085071 
L 75.613048 144.085071 
L 75.613048 175.27151 
L 74.849668 175.27151 
z
" style="fill:#0000ff;opacity:0.5;"/>
   </g>
   <g id="patch_7">
    <path clip-path="url(#p67822e54b3)" d="M 75.94021 144.085071 
L 76.70359 144.085071 
L 76.70359 122.230007 
L 75.94021 122.230007 
z
" style="fill:#0000ff;opacity:0.5;"/>
   </g>
   <g id="patch_8">
    <path clip-path="url(#p67822e54b3)" d="M 77.030753 144.085071 
L 77.794133 144.085071 
L 77.794133 152.161349 
L 77.030753 152.161349 
z
" style="fill:#0000ff;opacity:0.5;"/>
   </g>
   <g id="patch_9">
    <path clip-path="url(#p67822e54b3)" d="M 78.121296 144.085071 
L 78.884675 144.085071 
L 78.884675 135.074291 
L 78.121296 135.074291 
z
" style="fill:#0000ff;opacity:0.5;"/>
   </g>
   <g id="patch_10">
    <path clip-path="url(#p67822e54b3)" d="M 79.211838 144.085071 
L 79.975218 144.085071 
L 79.975218 171.792707 
L 79.211838 171.792707 
z
" style="fill:#0000ff;opacity:0.5;"/>
   </g>
   <g id="patch_11">
    <path clip-path="url(#p67822e54b3)" d="M 80.302381 144.085071 
L 81.065761 144.085071 
L 81.065761 104.904208 
L 80.302381 104.904208 
z
" style="fill:#0000ff;opacity:0.5;"/>
   </g>
   <g id="patch_12">
    <path clip-path="url(#p67822e54b3)" d="M 81.392924 144.085071 
L 82.156303 144.085071 
L 82.156303 166.328941 
L 81.392924 166.328941 
z
" style="fill:#0000ff;opacity:0.5;"/>
   </g>
   <g id="patch_13">
    <path clip-path="url(#p67822e54b3)" d="M 82.483466 144.085071 
L 83.246846 144.085071 
L 83.246846 133.79873 
L 82.483466 133.79873 
z
" style="fill:#0000ff;opacity:0.5;"/>
   </g>
   <g id="patch_14">
    <path clip-path="url(#p67822e54b3)" d="M 83.574009 144.085071 
L 84.337389 144.085071 
L 84.337389 145.899505 
L 83.574009 145.899505 
z
" style="fill:#0000ff;opacity:0.5;"/>
   </g>
   <g id="patch_15">
    <path clip-path="url(#p67822e54b3)" d="M 84.664552 144.085071 
L 85.427931 144.085071 
L 85.427931 147.679833 
L 84.664552 147.679833 
z
" style="fill:#0000ff;opacity:0.5;"/>
   </g>
   <g id="patch_16">
    <path clip-path="url(#p67822e54b3)" d="M 85.755094 144.085071 
L 86.518474 144.085071 
L 86.518474 145.101427 
L 85.755094 145.101427 
z
" style="fill:#0000ff;opacity:0.5;"/>
   </g>
   <g id="patch_17">
    <path clip-path="url(#p67822e54b3)" d="M 86.845637 144.085071 
L 87.609017 144.085071 
L 87.609017 126.152186 
L 86.845637 126.152186 
z
" style="fill:#0000ff;opacity:0.5;"/>
   </g>
   <g id="patch_18">
    <path clip-path="url(#p67822e54b3)" d="M 87.936179 144.085071 
L 88.699559 144.085071 
L 88.699559 165.605896 
L 87.936179 165.605896 
z
" style="fill:#0000ff;opacity:0.5;"/>
   </g>
   <g id="patch_19">
    <path clip-path="url(#p67822e54b3)" d="M 89.026722 144.085071 
L 89.790102 144.085071 
L 89.790102 149.964929 
L 89.026722 149.964929 
z
" style="fill:#0000ff;opacity:0.5;"/>
   </g>
   <g id="patch_20">
    <path clip-path="url(#p67822e54b3)" d="M 90.117265 144.085071 
L 90.880645 144.085071 
L 90.880645 130.545027 
L 90.117265 130.545027 
z
" style="fill:#0000ff;opacity:0.5;"/>
   </g>
   <g id="patch_21">
    <path clip-path="url(#p67822e54b3)" d="M 91.207807 144.085071 
L 91.971187 144.085071 
L 91.971187 131.295357 
L 91.207807 131.295357 
z
" style="fill:#0000ff;opacity:0.5;"/>
   </g>
   <g id="patch_22">
    <path clip-path="url(#p67822e54b3)" d="M 92.29835 144.085071 
L 93.06173 144.085071 
L 93.06173 172.665818 
L 92.29835 172.665818 
z
" style="fill:#0000ff;opacity:0.5;"/>
   </g>
   <g id="patch_23">
    <path clip-path="url(#p67822e54b3)" d="M 93.388893 144.085071 
L 94.152273 144.085071 
L 94.152273 124.910731 
L 93.388893 124.910731 
z
" style="fill:#0000ff;opacity:0.5;"/>
   </g>
   <g id="patch_24">
    <path clip-path="url(#p67822e54b3)" d="M 94.479435 144.085071 
L 95.242815 144.085071 
L 95.242815 140.272031 
L 94.479435 140.272031 
z
" style="fill:#0000ff;opacity:0.5;"/>
   </g>
   <g id="patch_25">
    <path clip-path="url(#p67822e54b3)" d="M 95.569978 144.085071 
L 96.333358 144.085071 
L 96.333358 172.549858 
L 95.569978 172.549858 
z
" style="fill:#0000ff;opacity:0.5;"/>
   </g>
   <g id="patch_26">
    <path clip-path="url(#p67822e54b3)" d="M 96.660521 144.085071 
L 97.4239 144.085071 
L 97.4239 119.501535 
L 96.660521 119.501535 
z
" style="fill:#0000ff;opacity:0.5;"/>
   </g>
   <g id="patch_27">
    <path clip-path="url(#p67822e54b3)" d="M 97.751063 144.085071 
L 98.514443 144.085071 
L 98.514443 154.064458 
L 97.751063 154.064458 
z
" style="fill:#0000ff;opacity:0.5;"/>
   </g>
   <g id="patch_28">
    <path clip-path="url(#p67822e54b3)" d="M 98.841606 144.085071 
L 99.604986 144.085071 
L 99.604986 134.49449 
L 98.841606 134.49449 
z
" style="fill:#0000ff;opacity:0.5;"/>
   </g>
   <g id="patch_29">
    <path clip-path="url(#p67822e54b3)" d="M 99.932149 144.085071 
L 100.695528 144.085071 
L 100.695528 132.134362 
L 99.932149 132.134362 
z
" style="fill:#0000ff;opacity:0.5;"/>
   </g>
   <g id="patch_30">
    <path clip-path="url(#p67822e54b3)" d="M 101.022691 144.085071 
L 101.786071 144.085071 
L 101.786071 175.605747 
L 101.022691 175.605747 
z
" style="fill:#0000ff;opacity:0.5;"/>
   </g>
   <g id="patch_31">
    <path clip-path="url(#p67822e54b3)" d="M 102.113234 144.085071 
L 102.876614 144.085071 
L 102.876614 135.729124 
L 102.113234 135.729124 
z
" style="fill:#0000ff;opacity:0.5;"/>
   </g>
   <g id="patch_32">
    <path clip-path="url(#p67822e54b3)" d="M 103.203776 144.085071 
L 103.967156 144.085071 
L 103.967156 138.900973 
L 103.203776 138.900973 
z
" style="fill:#0000ff;opacity:0.5;"/>
   </g>
   <g id="patch_33">
    <path clip-path="url(#p67822e54b3)" d="M 104.294319 144.085071 
L 105.057699 144.085071 
L 105.057699 147.973144 
L 104.294319 147.973144 
z
" style="fill:#0000ff;opacity:0.5;"/>
   </g>
   <g id="patch_34">
    <path clip-path="url(#p67822e54b3)" d="M 105.384862 144.085071 
L 106.148242 144.085071 
L 106.148242 122.141332 
L 105.384862 122.141332 
z
" style="fill:#0000ff;opacity:0.5;"/>
   </g>
   <g id="patch_35">
    <path clip-path="url(#p67822e54b3)" d="M 106.475404 144.085071 
L 107.238784 144.085071 
L 107.238784 168.880063 
L 106.475404 168.880063 
z
" style="fill:#0000ff;opacity:0.5;"/>
   </g>
   <g id="patch_36">
    <path clip-path="url(#p67822e54b3)" d="M 107.565947 144.085071 
L 108.329327 144.085071 
L 108.329327 130.613239 
L 107.565947 130.613239 
z
" style="fill:#0000ff;opacity:0.5;"/>
   </g>
   <g id="patch_37">
    <path clip-path="url(#p67822e54b3)" d="M 108.65649 144.085071 
L 109.41987 144.085071 
L 109.41987 160.176236 
L 108.65649 160.176236 
z
" style="fill:#0000ff;opacity:0.5;"/>
   </g>
   <g id="patch_38">
    <path clip-path="url(#p67822e54b3)" d="M 109.747032 144.085071 
L 110.510412 144.085071 
L 110.510412 146.370166 
L 109.747032 146.370166 
z
" style="fill:#0000ff;opacity:0.5;"/>
   </g>
   <g id="patch_39">
    <path clip-path="url(#p67822e54b3)" d="M 110.837575 144.085071 
L 111.600955 144.085071 
L 111.600955 115.074589 
L 110.837575 115.074589 
z
" style="fill:#0000ff;opacity:0.5;"/>
   </g>
   <g id="patch_40">
    <path clip-path="url(#p67822e54b3)" d="M 111.928118 144.085071 
L 112.691497 144.085071 
L 112.691497 153.546049 
L 111.928118 153.546049 
z
" style="fill:#0000ff;opacity:0.5;"/>
   </g>
   <g id="patch_41">
    <path clip-path="url(#p67822e54b3)" d="M 113.01866 144.085071 
L 113.78204 144.085071 
L 113.78204 147.857184 
L 113.01866 147.857184 
z
" style="fill:#0000ff;opacity:0.5;"/>
   </g>
   <g id="patch_42">
    <path clip-path="url(#p67822e54b3)" d="M 114.109203 144.085071 
L 114.872583 144.085071 
L 114.872583 169.26887 
L 114.109203 169.26887 
z
" style="fill:#0000ff;opacity:0.5;"/>
   </g>
   <g id="patch_43">
    <path clip-path="url(#p67822e54b3)" d="M 115.199746 144.085071 
L 115.963125 144.085071 
L 115.963125 97.605544 
L 115.199746 97.605544 
z
" style="fill:#0000ff;opacity:0.5;"/>
   </g>
   <g id="patch_44">
    <path clip-path="url(#p67822e54b3)" d="M 116.290288 144.085071 
L 117.053668 144.085071 
L 117.053668 171.506218 
L 116.290288 171.506218 
z
" style="fill:#0000ff;opacity:0.5;"/>
   </g>
   <g id="patch_45">
    <path clip-path="url(#p67822e54b3)" d="M 117.380831 144.085071 
L 118.144211 144.085071 
L 118.144211 131.731912 
L 117.380831 131.731912 
z
" style="fill:#0000ff;opacity:0.5;"/>
   </g>
   <g id="patch_46">
    <path clip-path="url(#p67822e54b3)" d="M 118.471374 144.085071 
L 119.234753 144.085071 
L 119.234753 139.412562 
L 118.471374 139.412562 
z
" style="fill:#0000ff;opacity:0.5;"/>
   </g>
   <g id="patch_47">
    <path clip-path="url(#p67822e54b3)" d="M 119.561916 144.085071 
L 120.325296 144.085071 
L 120.325296 203.545304 
L 119.561916 203.545304 
z
" style="fill:#0000ff;opacity:0.5;"/>
   </g>
   <g id="patch_48">
    <path clip-path="url(#p67822e54b3)" d="M 120.652459 144.085071 
L 121.415839 144.085071 
L 121.415839 76.698625 
L 120.652459 76.698625 
z
" style="fill:#0000ff;opacity:0.5;"/>
   </g>
   <g id="patch_49">
    <path clip-path="url(#p67822e54b3)" d="M 121.743001 144.085071 
L 122.506381 144.085071 
L 122.506381 160.54458 
L 121.743001 160.54458 
z
" style="fill:#0000ff;opacity:0.5;"/>
   </g>
   <g id="patch_50">
    <path clip-path="url(#p67822e54b3)" d="M 122.833544 144.085071 
L 123.596924 144.085071 
L 123.596924 147.761687 
L 122.833544 147.761687 
z
" style="fill:#0000ff;opacity:0.5;"/>
   </g>
   <g id="patch_51">
    <path clip-path="url(#p67822e54b3)" d="M 123.924087 144.085071 
L 124.687467 144.085071 
L 124.687467 168.723176 
L 123.924087 168.723176 
z
" style="fill:#0000ff;opacity:0.5;"/>
   </g>
   <g id="patch_52">
    <path clip-path="url(#p67822e54b3)" d="M 125.014629 144.085071 
L 125.778009 144.085071 
L 125.778009 111.077377 
L 125.014629 111.077377 
z
" style="fill:#0000ff;opacity:0.5;"/>
   </g>
   <g id="patch_53">
    <path clip-path="url(#p67822e54b3)" d="M 126.105172 144.085071 
L 126.868552 144.085071 
L 126.868552 148.791685 
L 126.105172 148.791685 
z
" style="fill:#0000ff;opacity:0.5;"/>
   </g>
   <g id="patch_54">
    <path clip-path="url(#p67822e54b3)" d="M 127.195715 144.085071 
L 127.959095 144.085071 
L 127.959095 175.68078 
L 127.195715 175.68078 
z
" style="fill:#0000ff;opacity:0.5;"/>
   </g>
   <g id="patch_55">
    <path clip-path="url(#p67822e54b3)" d="M 128.286257 144.085071 
L 129.049637 144.085071 
L 129.049637 114.67896 
L 128.286257 114.67896 
z
" style="fill:#0000ff;opacity:0.5;"/>
   </g>
   <g id="patch_56">
    <path clip-path="url(#p67822e54b3)" d="M 129.3768 144.085071 
L 130.14018 144.085071 
L 130.14018 112.618963 
L 129.3768 112.618963 
z
" style="fill:#0000ff;opacity:0.5;"/>
   </g>
   <g id="patch_57">
    <path clip-path="url(#p67822e54b3)" d="M 130.467343 144.085071 
L 131.230722 144.085071 
L 131.230722 210.577942 
L 130.467343 210.577942 
z
" style="fill:#0000ff;opacity:0.5;"/>
   </g>
   <g id="patch_58">
    <path clip-path="url(#p67822e54b3)" d="M 131.557885 144.085071 
L 132.321265 144.085071 
L 132.321265 74.70684 
L 131.557885 74.70684 
z
" style="fill:#0000ff;opacity:0.5;"/>
   </g>
   <g id="patch_59">
    <path clip-path="url(#p67822e54b3)" d="M 132.648428 144.085071 
L 133.411808 144.085071 
L 133.411808 182.181366 
L 132.648428 182.181366 
z
" style="fill:#0000ff;opacity:0.5;"/>
   </g>
   <g id="patch_60">
    <path clip-path="url(#p67822e54b3)" d="M 133.738971 144.085071 
L 134.50235 144.085071 
L 134.50235 155.63333 
L 133.738971 155.63333 
z
" style="fill:#0000ff;opacity:0.5;"/>
   </g>
   <g id="patch_61">
    <path clip-path="url(#p67822e54b3)" d="M 134.829513 144.085071 
L 135.592893 144.085071 
L 135.592893 140.203819 
L 134.829513 140.203819 
z
" style="fill:#0000ff;opacity:0.5;"/>
   </g>
   <g id="patch_62">
    <path clip-path="url(#p67822e54b3)" d="M 135.920056 144.085071 
L 136.683436 144.085071 
L 136.683436 131.179397 
L 135.920056 131.179397 
z
" style="fill:#0000ff;opacity:0.5;"/>
   </g>
   <g id="patch_63">
    <path clip-path="url(#p67822e54b3)" d="M 137.010598 144.085071 
L 137.773978 144.085071 
L 137.773978 153.341413 
L 137.010598 153.341413 
z
" style="fill:#0000ff;opacity:0.5;"/>
   </g>
   <g id="patch_64">
    <path clip-path="url(#p67822e54b3)" d="M 138.101141 144.085071 
L 138.864521 144.085071 
L 138.864521 99.037992 
L 138.101141 99.037992 
z
" style="fill:#0000ff;opacity:0.5;"/>
   </g>
   <g id="patch_65">
    <path clip-path="url(#p67822e54b3)" d="M 139.191684 144.085071 
L 139.955064 144.085071 
L 139.955064 222.98567 
L 139.191684 222.98567 
z
" style="fill:#0000ff;opacity:0.5;"/>
   </g>
   <g id="patch_66">
    <path clip-path="url(#p67822e54b3)" d="M 140.282226 144.085071 
L 141.045606 144.085071 
L 141.045606 101.616399 
L 140.282226 101.616399 
z
" style="fill:#0000ff;opacity:0.5;"/>
   </g>
   <g id="patch_67">
    <path clip-path="url(#p67822e54b3)" d="M 141.372769 144.085071 
L 142.136149 144.085071 
L 142.136149 122.543782 
L 141.372769 122.543782 
z
" style="fill:#0000ff;opacity:0.5;"/>
   </g>
   <g id="patch_68">
    <path clip-path="url(#p67822e54b3)" d="M 142.463312 144.085071 
L 143.226692 144.085071 
L 143.226692 168.191124 
L 142.463312 168.191124 
z
" style="fill:#0000ff;opacity:0.5;"/>
   </g>
   <g id="patch_69">
    <path clip-path="url(#p67822e54b3)" d="M 143.553854 144.085071 
L 144.317234 144.085071 
L 144.317234 168.545825 
L 143.553854 168.545825 
z
" style="fill:#0000ff;opacity:0.5;"/>
   </g>
   <g id="patch_70">
    <path clip-path="url(#p67822e54b3)" d="M 144.644397 144.085071 
L 145.407777 144.085071 
L 145.407777 98.164881 
L 144.644397 98.164881 
z
" style="fill:#0000ff;opacity:0.5;"/>
   </g>
   <g id="patch_71">
    <path clip-path="url(#p67822e54b3)" d="M 145.73494 144.085071 
L 146.498319 144.085071 
L 146.498319 196.956043 
L 145.73494 196.956043 
z
" style="fill:#0000ff;opacity:0.5;"/>
   </g>
   <g id="patch_72">
    <path clip-path="url(#p67822e54b3)" d="M 146.825482 144.085071 
L 147.588862 144.085071 
L 147.588862 104.065203 
L 146.825482 104.065203 
z
" style="fill:#0000ff;opacity:0.5;"/>
   </g>
   <g id="patch_73">
    <path clip-path="url(#p67822e54b3)" d="M 147.916025 144.085071 
L 148.679405 144.085071 
L 148.679405 155.837965 
L 147.916025 155.837965 
z
" style="fill:#0000ff;opacity:0.5;"/>
   </g>
   <g id="patch_74">
    <path clip-path="url(#p67822e54b3)" d="M 149.006568 144.085071 
L 149.769947 144.085071 
L 149.769947 141.7113 
L 149.006568 141.7113 
z
" style="fill:#0000ff;opacity:0.5;"/>
   </g>
   <g id="patch_75">
    <path clip-path="url(#p67822e54b3)" d="M 150.09711 144.085071 
L 150.86049 144.085071 
L 150.86049 154.194061 
L 150.09711 154.194061 
z
" style="fill:#0000ff;opacity:0.5;"/>
   </g>
   <g id="patch_76">
    <path clip-path="url(#p67822e54b3)" d="M 151.187653 144.085071 
L 151.951033 144.085071 
L 151.951033 115.702137 
L 151.187653 115.702137 
z
" style="fill:#0000ff;opacity:0.5;"/>
   </g>
   <g id="patch_77">
    <path clip-path="url(#p67822e54b3)" d="M 152.278196 144.085071 
L 153.041575 144.085071 
L 153.041575 158.436835 
L 152.278196 158.436835 
z
" style="fill:#0000ff;opacity:0.5;"/>
   </g>
   <g id="patch_78">
    <path clip-path="url(#p67822e54b3)" d="M 153.368738 144.085071 
L 154.132118 144.085071 
L 154.132118 168.293442 
L 153.368738 168.293442 
z
" style="fill:#0000ff;opacity:0.5;"/>
   </g>
   <g id="patch_79">
    <path clip-path="url(#p67822e54b3)" d="M 154.459281 144.085071 
L 155.222661 144.085071 
L 155.222661 111.629892 
L 154.459281 111.629892 
z
" style="fill:#0000ff;opacity:0.5;"/>
   </g>
   <g id="patch_80">
    <path clip-path="url(#p67822e54b3)" d="M 155.549823 144.085071 
L 156.313203 144.085071 
L 156.313203 128.178077 
L 155.549823 128.178077 
z
" style="fill:#0000ff;opacity:0.5;"/>
   </g>
   <g id="patch_81">
    <path clip-path="url(#p67822e54b3)" d="M 156.640366 144.085071 
L 157.403746 144.085071 
L 157.403746 206.819471 
L 156.640366 206.819471 
z
" style="fill:#0000ff;opacity:0.5;"/>
   </g>
   <g id="patch_82">
    <path clip-path="url(#p67822e54b3)" d="M 157.730909 144.085071 
L 158.494289 144.085071 
L 158.494289 91.991713 
L 157.730909 91.991713 
z
" style="fill:#0000ff;opacity:0.5;"/>
   </g>
   <g id="patch_83">
    <path clip-path="url(#p67822e54b3)" d="M 158.821451 144.085071 
L 159.584831 144.085071 
L 159.584831 203.552125 
L 158.821451 203.552125 
z
" style="fill:#0000ff;opacity:0.5;"/>
   </g>
   <g id="patch_84">
    <path clip-path="url(#p67822e54b3)" d="M 159.911994 144.085071 
L 160.675374 144.085071 
L 160.675374 55.35515 
L 159.911994 55.35515 
z
" style="fill:#0000ff;opacity:0.5;"/>
   </g>
   <g id="patch_85">
    <path clip-path="url(#p67822e54b3)" d="M 161.002537 144.085071 
L 161.765917 144.085071 
L 161.765917 228.872349 
L 161.002537 228.872349 
z
" style="fill:#0000ff;opacity:0.5;"/>
   </g>
   <g id="patch_86">
    <path clip-path="url(#p67822e54b3)" d="M 162.093079 144.085071 
L 162.856459 144.085071 
L 162.856459 121.329611 
L 162.093079 121.329611 
z
" style="fill:#0000ff;opacity:0.5;"/>
   </g>
   <g id="patch_87">
    <path clip-path="url(#p67822e54b3)" d="M 163.183622 144.085071 
L 163.947002 144.085071 
L 163.947002 83.533448 
L 163.183622 83.533448 
z
" style="fill:#0000ff;opacity:0.5;"/>
   </g>
   <g id="patch_88">
    <path clip-path="url(#p67822e54b3)" d="M 164.274165 144.085071 
L 165.037544 144.085071 
L 165.037544 204.841329 
L 164.274165 204.841329 
z
" style="fill:#0000ff;opacity:0.5;"/>
   </g>
   <g id="patch_89">
    <path clip-path="url(#p67822e54b3)" d="M 165.364707 144.085071 
L 166.128087 144.085071 
L 166.128087 125.94073 
L 165.364707 125.94073 
z
" style="fill:#0000ff;opacity:0.5;"/>
   </g>
   <g id="patch_90">
    <path clip-path="url(#p67822e54b3)" d="M 166.45525 144.085071 
L 167.21863 144.085071 
L 167.21863 156.192667 
L 166.45525 156.192667 
z
" style="fill:#0000ff;opacity:0.5;"/>
   </g>
   <g id="patch_91">
    <path clip-path="url(#p67822e54b3)" d="M 167.545793 144.085071 
L 168.309172 144.085071 
L 168.309172 152.713864 
L 167.545793 152.713864 
z
" style="fill:#0000ff;opacity:0.5;"/>
   </g>
   <g id="patch_92">
    <path clip-path="url(#p67822e54b3)" d="M 168.636335 144.085071 
L 169.399715 144.085071 
L 169.399715 87.435164 
L 168.636335 87.435164 
z
" style="fill:#0000ff;opacity:0.5;"/>
   </g>
   <g id="patch_93">
    <path clip-path="url(#p67822e54b3)" d="M 169.726878 144.085071 
L 170.490258 144.085071 
L 170.490258 221.962492 
L 169.726878 221.962492 
z
" style="fill:#0000ff;opacity:0.5;"/>
   </g>
   <g id="patch_94">
    <path clip-path="url(#p67822e54b3)" d="M 170.81742 144.085071 
L 171.5808 144.085071 
L 171.5808 74.488562 
L 170.81742 74.488562 
z
" style="fill:#0000ff;opacity:0.5;"/>
   </g>
   <g id="patch_95">
    <path clip-path="url(#p67822e54b3)" d="M 171.907963 144.085071 
L 172.671343 144.085071 
L 172.671343 171.158337 
L 171.907963 171.158337 
z
" style="fill:#0000ff;opacity:0.5;"/>
   </g>
   <g id="patch_96">
    <path clip-path="url(#p67822e54b3)" d="M 172.998506 144.085071 
L 173.761886 144.085071 
L 173.761886 146.465663 
L 172.998506 146.465663 
z
" style="fill:#0000ff;opacity:0.5;"/>
   </g>
   <g id="patch_97">
    <path clip-path="url(#p67822e54b3)" d="M 174.089048 144.085071 
L 174.852428 144.085071 
L 174.852428 135.251641 
L 174.089048 135.251641 
z
" style="fill:#0000ff;opacity:0.5;"/>
   </g>
   <g id="patch_98">
    <path clip-path="url(#p67822e54b3)" d="M 175.179591 144.085071 
L 175.942971 144.085071 
L 175.942971 147.932217 
L 175.179591 147.932217 
z
" style="fill:#0000ff;opacity:0.5;"/>
   </g>
   <g id="patch_99">
    <path clip-path="url(#p67822e54b3)" d="M 176.270134 144.085071 
L 177.033514 144.085071 
L 177.033514 204.534375 
L 176.270134 204.534375 
z
" style="fill:#0000ff;opacity:0.5;"/>
   </g>
   <g id="patch_100">
    <path clip-path="url(#p67822e54b3)" d="M 177.360676 144.085071 
L 178.124056 144.085071 
L 178.124056 56.248725 
L 177.360676 56.248725 
z
" style="fill:#0000ff;opacity:0.5;"/>
   </g>
   <g id="patch_101">
    <path clip-path="url(#p67822e54b3)" d="M 178.451219 144.085071 
L 179.214599 144.085071 
L 179.214599 170.196551 
L 178.451219 170.196551 
z
" style="fill:#0000ff;opacity:0.5;"/>
   </g>
   <g id="patch_102">
    <path clip-path="url(#p67822e54b3)" d="M 179.541762 144.085071 
L 180.305141 144.085071 
L 180.305141 183.613814 
L 179.541762 183.613814 
z
" style="fill:#0000ff;opacity:0.5;"/>
   </g>
   <g id="patch_103">
    <path clip-path="url(#p67822e54b3)" d="M 180.632304 144.085071 
L 181.395684 144.085071 
L 181.395684 109.781352 
L 180.632304 109.781352 
z
" style="fill:#0000ff;opacity:0.5;"/>
   </g>
   <g id="patch_104">
    <path clip-path="url(#p67822e54b3)" d="M 181.722847 144.085071 
L 182.486227 144.085071 
L 182.486227 157.625115 
L 181.722847 157.625115 
z
" style="fill:#0000ff;opacity:0.5;"/>
   </g>
   <g id="patch_105">
    <path clip-path="url(#p67822e54b3)" d="M 182.81339 144.085071 
L 183.576769 144.085071 
L 183.576769 100.627328 
L 182.81339 100.627328 
z
" style="fill:#0000ff;opacity:0.5;"/>
   </g>
   <g id="patch_106">
    <path clip-path="url(#p67822e54b3)" d="M 183.903932 144.085071 
L 184.667312 144.085071 
L 184.667312 184.664276 
L 183.903932 184.664276 
z
" style="fill:#0000ff;opacity:0.5;"/>
   </g>
   <g id="patch_107">
    <path clip-path="url(#p67822e54b3)" d="M 184.994475 144.085071 
L 185.757855 144.085071 
L 185.757855 112.380222 
L 184.994475 112.380222 
z
" style="fill:#0000ff;opacity:0.5;"/>
   </g>
   <g id="patch_108">
    <path clip-path="url(#p67822e54b3)" d="M 186.085018 144.085071 
L 186.848397 144.085071 
L 186.848397 157.536439 
L 186.085018 157.536439 
z
" style="fill:#0000ff;opacity:0.5;"/>
   </g>
   <g id="patch_109">
    <path clip-path="url(#p67822e54b3)" d="M 187.17556 144.085071 
L 187.93894 144.085071 
L 187.93894 158.273127 
L 187.17556 158.273127 
z
" style="fill:#0000ff;opacity:0.5;"/>
   </g>
   <g id="patch_110">
    <path clip-path="url(#p67822e54b3)" d="M 188.266103 144.085071 
L 189.029483 144.085071 
L 189.029483 153.239095 
L 188.266103 153.239095 
z
" style="fill:#0000ff;opacity:0.5;"/>
   </g>
   <g id="patch_111">
    <path clip-path="url(#p67822e54b3)" d="M 189.356645 144.085071 
L 190.120025 144.085071 
L 190.120025 80.443453 
L 189.356645 80.443453 
z
" style="fill:#0000ff;opacity:0.5;"/>
   </g>
   <g id="patch_112">
    <path clip-path="url(#p67822e54b3)" d="M 190.447188 144.085071 
L 191.210568 144.085071 
L 191.210568 258.05336 
L 190.447188 258.05336 
z
" style="fill:#0000ff;opacity:0.5;"/>
   </g>
   <g id="patch_113">
    <path clip-path="url(#p67822e54b3)" d="M 191.537731 144.085071 
L 192.301111 144.085071 
L 192.301111 95.647865 
L 191.537731 95.647865 
z
" style="fill:#0000ff;opacity:0.5;"/>
   </g>
   <g id="patch_114">
    <path clip-path="url(#p67822e54b3)" d="M 192.628273 144.085071 
L 193.391653 144.085071 
L 193.391653 89.447412 
L 192.628273 89.447412 
z
" style="fill:#0000ff;opacity:0.5;"/>
   </g>
   <g id="patch_115">
    <path clip-path="url(#p67822e54b3)" d="M 193.718816 144.085071 
L 194.482196 144.085071 
L 194.482196 177.461109 
L 193.718816 177.461109 
z
" style="fill:#0000ff;opacity:0.5;"/>
   </g>
   <g id="patch_116">
    <path clip-path="url(#p67822e54b3)" d="M 194.809359 144.085071 
L 195.572739 144.085071 
L 195.572739 190.816981 
L 194.809359 190.816981 
z
" style="fill:#0000ff;opacity:0.5;"/>
   </g>
   <g id="patch_117">
    <path clip-path="url(#p67822e54b3)" d="M 195.899901 144.085071 
L 196.663281 144.085071 
L 196.663281 34.414125 
L 195.899901 34.414125 
z
" style="fill:#0000ff;opacity:0.5;"/>
   </g>
   <g id="patch_118">
    <path clip-path="url(#p67822e54b3)" d="M 196.990444 144.085071 
L 197.753824 144.085071 
L 197.753824 255.283961 
L 196.990444 255.283961 
z
" style="fill:#0000ff;opacity:0.5;"/>
   </g>
   <g id="patch_119">
    <path clip-path="url(#p67822e54b3)" d="M 198.080987 144.085071 
L 198.844366 144.085071 
L 198.844366 130.85198 
L 198.080987 130.85198 
z
" style="fill:#0000ff;opacity:0.5;"/>
   </g>
   <g id="patch_120">
    <path clip-path="url(#p67822e54b3)" d="M 199.171529 144.085071 
L 199.934909 144.085071 
L 199.934909 76.875976 
L 199.171529 76.875976 
z
" style="fill:#0000ff;opacity:0.5;"/>
   </g>
   <g id="patch_121">
    <path clip-path="url(#p67822e54b3)" d="M 200.262072 144.085071 
L 201.025452 144.085071 
L 201.025452 185.537387 
L 200.262072 185.537387 
z
" style="fill:#0000ff;opacity:0.5;"/>
   </g>
   <g id="patch_122">
    <path clip-path="url(#p67822e54b3)" d="M 201.352615 144.085071 
L 202.115994 144.085071 
L 202.115994 141.049645 
L 201.352615 141.049645 
z
" style="fill:#0000ff;opacity:0.5;"/>
   </g>
   <g id="patch_123">
    <path clip-path="url(#p67822e54b3)" d="M 202.443157 144.085071 
L 203.206537 144.085071 
L 203.206537 149.73983 
L 202.443157 149.73983 
z
" style="fill:#0000ff;opacity:0.5;"/>
   </g>
   <g id="patch_124">
    <path clip-path="url(#p67822e54b3)" d="M 203.5337 144.085071 
L 204.29708 144.085071 
L 204.29708 164.514507 
L 203.5337 164.514507 
z
" style="fill:#0000ff;opacity:0.5;"/>
   </g>
   <g id="patch_125">
    <path clip-path="url(#p67822e54b3)" d="M 204.624242 144.085071 
L 205.387622 144.085071 
L 205.387622 95.102171 
L 204.624242 95.102171 
z
" style="fill:#0000ff;opacity:0.5;"/>
   </g>
   <g id="patch_126">
    <path clip-path="url(#p67822e54b3)" d="M 205.714785 144.085071 
L 206.478165 144.085071 
L 206.478165 167.672714 
L 205.714785 167.672714 
z
" style="fill:#0000ff;opacity:0.5;"/>
   </g>
   <g id="patch_127">
    <path clip-path="url(#p67822e54b3)" d="M 206.805328 144.085071 
L 207.568708 144.085071 
L 207.568708 159.96478 
L 206.805328 159.96478 
z
" style="fill:#0000ff;opacity:0.5;"/>
   </g>
   <g id="patch_128">
    <path clip-path="url(#p67822e54b3)" d="M 207.89587 144.085071 
L 208.65925 144.085071 
L 208.65925 123.123582 
L 207.89587 123.123582 
z
" style="fill:#0000ff;opacity:0.5;"/>
   </g>
   <g id="patch_129">
    <path clip-path="url(#p67822e54b3)" d="M 208.986413 144.085071 
L 209.749793 144.085071 
L 209.749793 114.972271 
L 208.986413 114.972271 
z
" style="fill:#0000ff;opacity:0.5;"/>
   </g>
   <g id="patch_130">
    <path clip-path="url(#p67822e54b3)" d="M 210.076956 144.085071 
L 210.840336 144.085071 
L 210.840336 231.587179 
L 210.076956 231.587179 
z
" style="fill:#0000ff;opacity:0.5;"/>
   </g>
   <g id="patch_131">
    <path clip-path="url(#p67822e54b3)" d="M 211.167498 144.085071 
L 211.930878 144.085071 
L 211.930878 44.107023 
L 211.167498 44.107023 
z
" style="fill:#0000ff;opacity:0.5;"/>
   </g>
   <g id="patch_132">
    <path clip-path="url(#p67822e54b3)" d="M 212.258041 144.085071 
L 213.021421 144.085071 
L 213.021421 229.731817 
L 212.258041 229.731817 
z
" style="fill:#0000ff;opacity:0.5;"/>
   </g>
   <g id="patch_133">
    <path clip-path="url(#p67822e54b3)" d="M 213.348584 144.085071 
L 214.111963 144.085071 
L 214.111963 97.073492 
L 213.348584 97.073492 
z
" style="fill:#0000ff;opacity:0.5;"/>
   </g>
   <g id="patch_134">
    <path clip-path="url(#p67822e54b3)" d="M 214.439126 144.085071 
L 215.202506 144.085071 
L 215.202506 112.155123 
L 214.439126 112.155123 
z
" style="fill:#0000ff;opacity:0.5;"/>
   </g>
   <g id="patch_135">
    <path clip-path="url(#p67822e54b3)" d="M 215.529669 144.085071 
L 216.293049 144.085071 
L 216.293049 215.516477 
L 215.529669 215.516477 
z
" style="fill:#0000ff;opacity:0.5;"/>
   </g>
   <g id="patch_136">
    <path clip-path="url(#p67822e54b3)" d="M 216.620212 144.085071 
L 217.383591 144.085071 
L 217.383591 97.837465 
L 216.620212 97.837465 
z
" style="fill:#0000ff;opacity:0.5;"/>
   </g>
   <g id="patch_137">
    <path clip-path="url(#p67822e54b3)" d="M 217.710754 144.085071 
L 218.474134 144.085071 
L 218.474134 125.490532 
L 217.710754 125.490532 
z
" style="fill:#0000ff;opacity:0.5;"/>
   </g>
   <g id="patch_138">
    <path clip-path="url(#p67822e54b3)" d="M 218.801297 144.085071 
L 219.564677 144.085071 
L 219.564677 223.238053 
L 218.801297 223.238053 
z
" style="fill:#0000ff;opacity:0.5;"/>
   </g>
   <g id="patch_139">
    <path clip-path="url(#p67822e54b3)" d="M 219.89184 144.085071 
L 220.655219 144.085071 
L 220.655219 77.032863 
L 219.89184 77.032863 
z
" style="fill:#0000ff;opacity:0.5;"/>
   </g>
   <g id="patch_140">
    <path clip-path="url(#p67822e54b3)" d="M 220.982382 144.085071 
L 221.745762 144.085071 
L 221.745762 155.722005 
L 220.982382 155.722005 
z
" style="fill:#0000ff;opacity:0.5;"/>
   </g>
   <g id="patch_141">
    <path clip-path="url(#p67822e54b3)" d="M 222.072925 144.085071 
L 222.836305 144.085071 
L 222.836305 129.924299 
L 222.072925 129.924299 
z
" style="fill:#0000ff;opacity:0.5;"/>
   </g>
   <g id="patch_142">
    <path clip-path="url(#p67822e54b3)" d="M 223.163467 144.085071 
L 223.926847 144.085071 
L 223.926847 191.478635 
L 223.163467 191.478635 
z
" style="fill:#0000ff;opacity:0.5;"/>
   </g>
   <g id="patch_143">
    <path clip-path="url(#p67822e54b3)" d="M 224.25401 144.085071 
L 225.01739 144.085071 
L 225.01739 129.228539 
L 224.25401 129.228539 
z
" style="fill:#0000ff;opacity:0.5;"/>
   </g>
   <g id="patch_144">
    <path clip-path="url(#p67822e54b3)" d="M 225.344553 144.085071 
L 226.107933 144.085071 
L 226.107933 108.198838 
L 225.344553 108.198838 
z
" style="fill:#0000ff;opacity:0.5;"/>
   </g>
   <g id="patch_145">
    <path clip-path="url(#p67822e54b3)" d="M 226.435095 144.085071 
L 227.198475 144.085071 
L 227.198475 213.408732 
L 226.435095 213.408732 
z
" style="fill:#0000ff;opacity:0.5;"/>
   </g>
   <g id="patch_146">
    <path clip-path="url(#p67822e54b3)" d="M 227.525638 144.085071 
L 228.289018 144.085071 
L 228.289018 66.521423 
L 227.525638 66.521423 
z
" style="fill:#0000ff;opacity:0.5;"/>
   </g>
   <g id="patch_147">
    <path clip-path="url(#p67822e54b3)" d="M 228.616181 144.085071 
L 229.379561 144.085071 
L 229.379561 208.170065 
L 228.616181 208.170065 
z
" style="fill:#0000ff;opacity:0.5;"/>
   </g>
   <g id="patch_148">
    <path clip-path="url(#p67822e54b3)" d="M 229.706723 144.085071 
L 230.470103 144.085071 
L 230.470103 81.296101 
L 229.706723 81.296101 
z
" style="fill:#0000ff;opacity:0.5;"/>
   </g>
   <g id="patch_149">
    <path clip-path="url(#p67822e54b3)" d="M 230.797266 144.085071 
L 231.560646 144.085071 
L 231.560646 205.189209 
L 230.797266 205.189209 
z
" style="fill:#0000ff;opacity:0.5;"/>
   </g>
   <g id="patch_150">
    <path clip-path="url(#p67822e54b3)" d="M 231.887809 144.085071 
L 232.651188 144.085071 
L 232.651188 121.281863 
L 231.887809 121.281863 
z
" style="fill:#0000ff;opacity:0.5;"/>
   </g>
   <g id="patch_151">
    <path clip-path="url(#p67822e54b3)" d="M 232.978351 144.085071 
L 233.741731 144.085071 
L 233.741731 129.474101 
L 232.978351 129.474101 
z
" style="fill:#0000ff;opacity:0.5;"/>
   </g>
   <g id="patch_152">
    <path clip-path="url(#p67822e54b3)" d="M 234.068894 144.085071 
L 234.832274 144.085071 
L 234.832274 166.267551 
L 234.068894 166.267551 
z
" style="fill:#0000ff;opacity:0.5;"/>
   </g>
   <g id="patch_153">
    <path clip-path="url(#p67822e54b3)" d="M 235.159437 144.085071 
L 235.922816 144.085071 
L 235.922816 107.155198 
L 235.159437 107.155198 
z
" style="fill:#0000ff;opacity:0.5;"/>
   </g>
   <g id="patch_154">
    <path clip-path="url(#p67822e54b3)" d="M 236.249979 144.085071 
L 237.013359 144.085071 
L 237.013359 187.188112 
L 236.249979 187.188112 
z
" style="fill:#0000ff;opacity:0.5;"/>
   </g>
   <g id="patch_155">
    <path clip-path="url(#p67822e54b3)" d="M 237.340522 144.085071 
L 238.103902 144.085071 
L 238.103902 117.202797 
L 237.340522 117.202797 
z
" style="fill:#0000ff;opacity:0.5;"/>
   </g>
   <g id="patch_156">
    <path clip-path="url(#p67822e54b3)" d="M 238.431064 144.085071 
L 239.194444 144.085071 
L 239.194444 155.360483 
L 238.431064 155.360483 
z
" style="fill:#0000ff;opacity:0.5;"/>
   </g>
   <g id="patch_157">
    <path clip-path="url(#p67822e54b3)" d="M 239.521607 144.085071 
L 240.284987 144.085071 
L 240.284987 168.163839 
L 239.521607 168.163839 
z
" style="fill:#0000ff;opacity:0.5;"/>
   </g>
   <g id="patch_158">
    <path clip-path="url(#p67822e54b3)" d="M 240.61215 144.085071 
L 241.37553 144.085071 
L 241.37553 123.375966 
L 240.61215 123.375966 
z
" style="fill:#0000ff;opacity:0.5;"/>
   </g>
   <g id="patch_159">
    <path clip-path="url(#p67822e54b3)" d="M 241.702692 144.085071 
L 242.466072 144.085071 
L 242.466072 86.841721 
L 241.702692 86.841721 
z
" style="fill:#0000ff;opacity:0.5;"/>
   </g>
   <g id="patch_160">
    <path clip-path="url(#p67822e54b3)" d="M 242.793235 144.085071 
L 243.556615 144.085071 
L 243.556615 215.257272 
L 242.793235 215.257272 
z
" style="fill:#0000ff;opacity:0.5;"/>
   </g>
   <g id="patch_161">
    <path clip-path="url(#p67822e54b3)" d="M 243.883778 144.085071 
L 244.647158 144.085071 
L 244.647158 116.138693 
L 243.883778 116.138693 
z
" style="fill:#0000ff;opacity:0.5;"/>
   </g>
   <g id="patch_162">
    <path clip-path="url(#p67822e54b3)" d="M 244.97432 144.085071 
L 245.7377 144.085071 
L 245.7377 128.150792 
L 244.97432 128.150792 
z
" style="fill:#0000ff;opacity:0.5;"/>
   </g>
   <g id="patch_163">
    <path clip-path="url(#p67822e54b3)" d="M 246.064863 144.085071 
L 246.828243 144.085071 
L 246.828243 181.274149 
L 246.064863 181.274149 
z
" style="fill:#0000ff;opacity:0.5;"/>
   </g>
   <g id="patch_164">
    <path clip-path="url(#p67822e54b3)" d="M 247.155406 144.085071 
L 247.918785 144.085071 
L 247.918785 131.71827 
L 247.155406 131.71827 
z
" style="fill:#0000ff;opacity:0.5;"/>
   </g>
   <g id="patch_165">
    <path clip-path="url(#p67822e54b3)" d="M 248.245948 144.085071 
L 249.009328 144.085071 
L 249.009328 135.613164 
L 248.245948 135.613164 
z
" style="fill:#0000ff;opacity:0.5;"/>
   </g>
   <g id="patch_166">
    <path clip-path="url(#p67822e54b3)" d="M 249.336491 144.085071 
L 250.099871 144.085071 
L 250.099871 157.741075 
L 249.336491 157.741075 
z
" style="fill:#0000ff;opacity:0.5;"/>
   </g>
   <g id="patch_167">
    <path clip-path="url(#p67822e54b3)" d="M 250.427034 144.085071 
L 251.190413 144.085071 
L 251.190413 173.156943 
L 250.427034 173.156943 
z
" style="fill:#0000ff;opacity:0.5;"/>
   </g>
   <g id="patch_168">
    <path clip-path="url(#p67822e54b3)" d="M 251.517576 144.085071 
L 252.280956 144.085071 
L 252.280956 108.430758 
L 251.517576 108.430758 
z
" style="fill:#0000ff;opacity:0.5;"/>
   </g>
   <g id="patch_169">
    <path clip-path="url(#p67822e54b3)" d="M 252.608119 144.085071 
L 253.371499 144.085071 
L 253.371499 82.837688 
L 252.608119 82.837688 
z
" style="fill:#0000ff;opacity:0.5;"/>
   </g>
   <g id="patch_170">
    <path clip-path="url(#p67822e54b3)" d="M 253.698662 144.085071 
L 254.462041 144.085071 
L 254.462041 265.031428 
L 253.698662 265.031428 
z
" style="fill:#0000ff;opacity:0.5;"/>
   </g>
   <g id="patch_171">
    <path clip-path="url(#p67822e54b3)" d="M 254.789204 144.085071 
L 255.552584 144.085071 
L 255.552584 51.07827 
L 254.789204 51.07827 
z
" style="fill:#0000ff;opacity:0.5;"/>
   </g>
   <g id="patch_172">
    <path clip-path="url(#p67822e54b3)" d="M 255.879747 144.085071 
L 256.643127 144.085071 
L 256.643127 193.511347 
L 255.879747 193.511347 
z
" style="fill:#0000ff;opacity:0.5;"/>
   </g>
   <g id="patch_173">
    <path clip-path="url(#p67822e54b3)" d="M 256.970289 144.085071 
L 257.733669 144.085071 
L 257.733669 104.208447 
L 256.970289 104.208447 
z
" style="fill:#0000ff;opacity:0.5;"/>
   </g>
   <g id="patch_174">
    <path clip-path="url(#p67822e54b3)" d="M 258.060832 144.085071 
L 258.824212 144.085071 
L 258.824212 178.668458 
L 258.060832 178.668458 
z
" style="fill:#0000ff;opacity:0.5;"/>
   </g>
   <g id="patch_175">
    <path clip-path="url(#p67822e54b3)" d="M 259.151375 144.085071 
L 259.914755 144.085071 
L 259.914755 155.544655 
L 259.151375 155.544655 
z
" style="fill:#0000ff;opacity:0.5;"/>
   </g>
   <g id="patch_176">
    <path clip-path="url(#p67822e54b3)" d="M 260.241917 144.085071 
L 261.005297 144.085071 
L 261.005297 99.208522 
L 260.241917 99.208522 
z
" style="fill:#0000ff;opacity:0.5;"/>
   </g>
   <g id="patch_177">
    <path clip-path="url(#p67822e54b3)" d="M 261.33246 144.085071 
L 262.09584 144.085071 
L 262.09584 176.553892 
L 261.33246 176.553892 
z
" style="fill:#0000ff;opacity:0.5;"/>
   </g>
   <g id="patch_178">
    <path clip-path="url(#p67822e54b3)" d="M 262.423003 144.085071 
L 263.186383 144.085071 
L 263.186383 145.497055 
L 262.423003 145.497055 
z
" style="fill:#0000ff;opacity:0.5;"/>
   </g>
   <g id="patch_179">
    <path clip-path="url(#p67822e54b3)" d="M 263.513545 144.085071 
L 264.276925 144.085071 
L 264.276925 116.288759 
L 263.513545 116.288759 
z
" style="fill:#0000ff;opacity:0.5;"/>
   </g>
   <g id="patch_180">
    <path clip-path="url(#p67822e54b3)" d="M 264.604088 144.085071 
L 265.367468 144.085071 
L 265.367468 159.030278 
L 264.604088 159.030278 
z
" style="fill:#0000ff;opacity:0.5;"/>
   </g>
   <g id="patch_181">
    <path clip-path="url(#p67822e54b3)" d="M 265.694631 144.085071 
L 266.45801 144.085071 
L 266.45801 158.457299 
L 265.694631 158.457299 
z
" style="fill:#0000ff;opacity:0.5;"/>
   </g>
   <g id="patch_182">
    <path clip-path="url(#p67822e54b3)" d="M 266.785173 144.085071 
L 267.548553 144.085071 
L 267.548553 127.823376 
L 266.785173 127.823376 
z
" style="fill:#0000ff;opacity:0.5;"/>
   </g>
   <g id="patch_183">
    <path clip-path="url(#p67822e54b3)" d="M 267.875716 144.085071 
L 268.639096 144.085071 
L 268.639096 160.646898 
L 267.875716 160.646898 
z
" style="fill:#0000ff;opacity:0.5;"/>
   </g>
   <g id="patch_184">
    <path clip-path="url(#p67822e54b3)" d="M 268.966259 144.085071 
L 269.729638 144.085071 
L 269.729638 153.607439 
L 268.966259 153.607439 
z
" style="fill:#0000ff;opacity:0.5;"/>
   </g>
   <g id="patch_185">
    <path clip-path="url(#p67822e54b3)" d="M 270.056801 144.085071 
L 270.820181 144.085071 
L 270.820181 83.178747 
L 270.056801 83.178747 
z
" style="fill:#0000ff;opacity:0.5;"/>
   </g>
   <g id="patch_186">
    <path clip-path="url(#p67822e54b3)" d="M 271.147344 144.085071 
L 271.910724 144.085071 
L 271.910724 203.483914 
L 271.147344 203.483914 
z
" style="fill:#0000ff;opacity:0.5;"/>
   </g>
   <g id="patch_187">
    <path clip-path="url(#p67822e54b3)" d="M 272.237886 144.085071 
L 273.001266 144.085071 
L 273.001266 80.1365 
L 272.237886 80.1365 
z
" style="fill:#0000ff;opacity:0.5;"/>
   </g>
   <g id="patch_188">
    <path clip-path="url(#p67822e54b3)" d="M 273.328429 144.085071 
L 274.091809 144.085071 
L 274.091809 224.295336 
L 273.328429 224.295336 
z
" style="fill:#0000ff;opacity:0.5;"/>
   </g>
   <g id="patch_189">
    <path clip-path="url(#p67822e54b3)" d="M 274.418972 144.085071 
L 275.182352 144.085071 
L 275.182352 96.977996 
L 274.418972 96.977996 
z
" style="fill:#0000ff;opacity:0.5;"/>
   </g>
   <g id="patch_190">
    <path clip-path="url(#p67822e54b3)" d="M 275.509514 144.085071 
L 276.272894 144.085071 
L 276.272894 144.48752 
L 275.509514 144.48752 
z
" style="fill:#0000ff;opacity:0.5;"/>
   </g>
   <g id="patch_191">
    <path clip-path="url(#p67822e54b3)" d="M 276.600057 144.085071 
L 277.363437 144.085071 
L 277.363437 177.502036 
L 276.600057 177.502036 
z
" style="fill:#0000ff;opacity:0.5;"/>
   </g>
   <g id="patch_192">
    <path clip-path="url(#p67822e54b3)" d="M 277.6906 144.085071 
L 278.45398 144.085071 
L 278.45398 116.841274 
L 277.6906 116.841274 
z
" style="fill:#0000ff;opacity:0.5;"/>
   </g>
   <g id="patch_193">
    <path clip-path="url(#p67822e54b3)" d="M 278.781142 144.085071 
L 279.544522 144.085071 
L 279.544522 150.687974 
L 278.781142 150.687974 
z
" style="fill:#0000ff;opacity:0.5;"/>
   </g>
   <g id="patch_194">
    <path clip-path="url(#p67822e54b3)" d="M 279.871685 144.085071 
L 280.635065 144.085071 
L 280.635065 129.603704 
L 279.871685 129.603704 
z
" style="fill:#0000ff;opacity:0.5;"/>
   </g>
   <g id="patch_195">
    <path clip-path="url(#p67822e54b3)" d="M 280.962228 144.085071 
L 281.725607 144.085071 
L 281.725607 179.507463 
L 280.962228 179.507463 
z
" style="fill:#0000ff;opacity:0.5;"/>
   </g>
   <g id="patch_196">
    <path clip-path="url(#p67822e54b3)" d="M 282.05277 144.085071 
L 282.81615 144.085071 
L 282.81615 87.428343 
L 282.05277 87.428343 
z
" style="fill:#0000ff;opacity:0.5;"/>
   </g>
   <g id="patch_197">
    <path clip-path="url(#p67822e54b3)" d="M 283.143313 144.085071 
L 283.906693 144.085071 
L 283.906693 211.307808 
L 283.143313 211.307808 
z
" style="fill:#0000ff;opacity:0.5;"/>
   </g>
   <g id="patch_198">
    <path clip-path="url(#p67822e54b3)" d="M 284.233856 144.085071 
L 284.997235 144.085071 
L 284.997235 52.053699 
L 284.233856 52.053699 
z
" style="fill:#0000ff;opacity:0.5;"/>
   </g>
   <g id="patch_199">
    <path clip-path="url(#p67822e54b3)" d="M 285.324398 144.085071 
L 286.087778 144.085071 
L 286.087778 239.145047 
L 285.324398 239.145047 
z
" style="fill:#0000ff;opacity:0.5;"/>
   </g>
   <g id="patch_200">
    <path clip-path="url(#p67822e54b3)" d="M 286.414941 144.085071 
L 287.178321 144.085071 
L 287.178321 85.061393 
L 286.414941 85.061393 
z
" style="fill:#0000ff;opacity:0.5;"/>
   </g>
   <g id="patch_201">
    <path clip-path="url(#p67822e54b3)" d="M 287.505484 144.085071 
L 288.268863 144.085071 
L 288.268863 172.229263 
L 287.505484 172.229263 
z
" style="fill:#0000ff;opacity:0.5;"/>
   </g>
   <g id="patch_202">
    <path clip-path="url(#p67822e54b3)" d="M 288.596026 144.085071 
L 289.359406 144.085071 
L 289.359406 127.980263 
L 288.596026 127.980263 
z
" style="fill:#0000ff;opacity:0.5;"/>
   </g>
   <g id="patch_203">
    <path clip-path="url(#p67822e54b3)" d="M 289.686569 144.085071 
L 290.449949 144.085071 
L 290.449949 168.736818 
L 289.686569 168.736818 
z
" style="fill:#0000ff;opacity:0.5;"/>
   </g>
   <g id="patch_204">
    <path clip-path="url(#p67822e54b3)" d="M 290.777111 144.085071 
L 291.540491 144.085071 
L 291.540491 116.984519 
L 290.777111 116.984519 
z
" style="fill:#0000ff;opacity:0.5;"/>
   </g>
   <g id="patch_205">
    <path clip-path="url(#p67822e54b3)" d="M 291.867654 144.085071 
L 292.631034 144.085071 
L 292.631034 126.500066 
L 291.867654 126.500066 
z
" style="fill:#0000ff;opacity:0.5;"/>
   </g>
   <g id="patch_206">
    <path clip-path="url(#p67822e54b3)" d="M 292.958197 144.085071 
L 293.721577 144.085071 
L 293.721577 211.369199 
L 292.958197 211.369199 
z
" style="fill:#0000ff;opacity:0.5;"/>
   </g>
   <g id="patch_207">
    <path clip-path="url(#p67822e54b3)" d="M 294.048739 144.085071 
L 294.812119 144.085071 
L 294.812119 73.72459 
L 294.048739 73.72459 
z
" style="fill:#0000ff;opacity:0.5;"/>
   </g>
   <g id="patch_208">
    <path clip-path="url(#p67822e54b3)" d="M 295.139282 144.085071 
L 295.902662 144.085071 
L 295.902662 242.45332 
L 295.139282 242.45332 
z
" style="fill:#0000ff;opacity:0.5;"/>
   </g>
   <g id="patch_209">
    <path clip-path="url(#p67822e54b3)" d="M 296.229825 144.085071 
L 296.993205 144.085071 
L 296.993205 50.900919 
L 296.229825 50.900919 
z
" style="fill:#0000ff;opacity:0.5;"/>
   </g>
   <g id="patch_210">
    <path clip-path="url(#p67822e54b3)" d="M 297.320367 144.085071 
L 298.083747 144.085071 
L 298.083747 170.626285 
L 297.320367 170.626285 
z
" style="fill:#0000ff;opacity:0.5;"/>
   </g>
   <g id="patch_211">
    <path clip-path="url(#p67822e54b3)" d="M 298.41091 144.085071 
L 299.17429 144.085071 
L 299.17429 158.607365 
L 298.41091 158.607365 
z
" style="fill:#0000ff;opacity:0.5;"/>
   </g>
   <g id="patch_212">
    <path clip-path="url(#p67822e54b3)" d="M 299.501453 144.085071 
L 300.264832 144.085071 
L 300.264832 90.12953 
L 299.501453 90.12953 
z
" style="fill:#0000ff;opacity:0.5;"/>
   </g>
   <g id="patch_213">
    <path clip-path="url(#p67822e54b3)" d="M 300.591995 144.085071 
L 301.355375 144.085071 
L 301.355375 202.19471 
L 300.591995 202.19471 
z
" style="fill:#0000ff;opacity:0.5;"/>
   </g>
   <g id="patch_214">
    <path clip-path="url(#p67822e54b3)" d="M 301.682538 144.085071 
L 302.445918 144.085071 
L 302.445918 148.327845 
L 301.682538 148.327845 
z
" style="fill:#0000ff;opacity:0.5;"/>
   </g>
   <g id="patch_215">
    <path clip-path="url(#p67822e54b3)" d="M 302.773081 144.085071 
L 303.53646 144.085071 
L 303.53646 93.969855 
L 302.773081 93.969855 
z
" style="fill:#0000ff;opacity:0.5;"/>
   </g>
   <g id="patch_216">
    <path clip-path="url(#p67822e54b3)" d="M 303.863623 144.085071 
L 304.627003 144.085071 
L 304.627003 195.230285 
L 303.863623 195.230285 
z
" style="fill:#0000ff;opacity:0.5;"/>
   </g>
   <g id="patch_217">
    <path clip-path="url(#p67822e54b3)" d="M 304.954166 144.085071 
L 305.717546 144.085071 
L 305.717546 95.716077 
L 304.954166 95.716077 
z
" style="fill:#0000ff;opacity:0.5;"/>
   </g>
   <g id="patch_218">
    <path clip-path="url(#p67822e54b3)" d="M 306.044708 144.085071 
L 306.808088 144.085071 
L 306.808088 217.576473 
L 306.044708 217.576473 
z
" style="fill:#0000ff;opacity:0.5;"/>
   </g>
   <g id="patch_219">
    <path clip-path="url(#p67822e54b3)" d="M 307.135251 144.085071 
L 307.898631 144.085071 
L 307.898631 78.335708 
L 307.135251 78.335708 
z
" style="fill:#0000ff;opacity:0.5;"/>
   </g>
   <g id="patch_220">
    <path clip-path="url(#p67822e54b3)" d="M 308.225794 144.085071 
L 308.989174 144.085071 
L 308.989174 114.583464 
L 308.225794 114.583464 
z
" style="fill:#0000ff;opacity:0.5;"/>
   </g>
   <g id="patch_221">
    <path clip-path="url(#p67822e54b3)" d="M 309.316336 144.085071 
L 310.079716 144.085071 
L 310.079716 240.986766 
L 309.316336 240.986766 
z
" style="fill:#0000ff;opacity:0.5;"/>
   </g>
   <g id="patch_222">
    <path clip-path="url(#p67822e54b3)" d="M 310.406879 144.085071 
L 311.170259 144.085071 
L 311.170259 71.623667 
L 310.406879 71.623667 
z
" style="fill:#0000ff;opacity:0.5;"/>
   </g>
   <g id="patch_223">
    <path clip-path="url(#p67822e54b3)" d="M 311.497422 144.085071 
L 312.260802 144.085071 
L 312.260802 202.665372 
L 311.497422 202.665372 
z
" style="fill:#0000ff;opacity:0.5;"/>
   </g>
   <g id="patch_224">
    <path clip-path="url(#p67822e54b3)" d="M 312.587964 144.085071 
L 313.351344 144.085071 
L 313.351344 65.436856 
L 312.587964 65.436856 
z
" style="fill:#0000ff;opacity:0.5;"/>
   </g>
   <g id="patch_225">
    <path clip-path="url(#p67822e54b3)" d="M 313.678507 144.085071 
L 314.441887 144.085071 
L 314.441887 177.58389 
L 313.678507 177.58389 
z
" style="fill:#0000ff;opacity:0.5;"/>
   </g>
   <g id="patch_226">
    <path clip-path="url(#p67822e54b3)" d="M 314.76905 144.085071 
L 315.532429 144.085071 
L 315.532429 180.080442 
L 314.76905 180.080442 
z
" style="fill:#0000ff;opacity:0.5;"/>
   </g>
   <g id="patch_227">
    <path clip-path="url(#p67822e54b3)" d="M 315.859592 144.085071 
L 316.622972 144.085071 
L 316.622972 91.74615 
L 315.859592 91.74615 
z
" style="fill:#0000ff;opacity:0.5;"/>
   </g>
   <g id="patch_228">
    <path clip-path="url(#p67822e54b3)" d="M 316.950135 144.085071 
L 317.713515 144.085071 
L 317.713515 164.057488 
L 316.950135 164.057488 
z
" style="fill:#0000ff;opacity:0.5;"/>
   </g>
   <g id="patch_229">
    <path clip-path="url(#p67822e54b3)" d="M 318.040678 144.085071 
L 318.804057 144.085071 
L 318.804057 193.395387 
L 318.040678 193.395387 
z
" style="fill:#0000ff;opacity:0.5;"/>
   </g>
   <g id="patch_230">
    <path clip-path="url(#p67822e54b3)" d="M 319.13122 144.085071 
L 319.8946 144.085071 
L 319.8946 101.050241 
L 319.13122 101.050241 
z
" style="fill:#0000ff;opacity:0.5;"/>
   </g>
   <g id="patch_231">
    <path clip-path="url(#p67822e54b3)" d="M 320.221763 144.085071 
L 320.985143 144.085071 
L 320.985143 127.379999 
L 320.221763 127.379999 
z
" style="fill:#0000ff;opacity:0.5;"/>
   </g>
   <g id="patch_232">
    <path clip-path="url(#p67822e54b3)" d="M 321.312306 144.085071 
L 322.075685 144.085071 
L 322.075685 130.73602 
L 321.312306 130.73602 
z
" style="fill:#0000ff;opacity:0.5;"/>
   </g>
   <g id="patch_233">
    <path clip-path="url(#p67822e54b3)" d="M 322.402848 144.085071 
L 323.166228 144.085071 
L 323.166228 223.374477 
L 322.402848 223.374477 
z
" style="fill:#0000ff;opacity:0.5;"/>
   </g>
   <g id="patch_234">
    <path clip-path="url(#p67822e54b3)" d="M 323.493391 144.085071 
L 324.256771 144.085071 
L 324.256771 57.43561 
L 323.493391 57.43561 
z
" style="fill:#0000ff;opacity:0.5;"/>
   </g>
   <g id="patch_235">
    <path clip-path="url(#p67822e54b3)" d="M 324.583933 144.085071 
L 325.347313 144.085071 
L 325.347313 167.53629 
L 324.583933 167.53629 
z
" style="fill:#0000ff;opacity:0.5;"/>
   </g>
   <g id="patch_236">
    <path clip-path="url(#p67822e54b3)" d="M 325.674476 144.085071 
L 326.437856 144.085071 
L 326.437856 173.409327 
L 325.674476 173.409327 
z
" style="fill:#0000ff;opacity:0.5;"/>
   </g>
   <g id="patch_237">
    <path clip-path="url(#p67822e54b3)" d="M 326.765019 144.085071 
L 327.528399 144.085071 
L 327.528399 133.744161 
L 326.765019 133.744161 
z
" style="fill:#0000ff;opacity:0.5;"/>
   </g>
   <g id="patch_238">
    <path clip-path="url(#p67822e54b3)" d="M 327.855561 144.085071 
L 328.618941 144.085071 
L 328.618941 143.805402 
L 327.855561 143.805402 
z
" style="fill:#0000ff;opacity:0.5;"/>
   </g>
   <g id="patch_239">
    <path clip-path="url(#p67822e54b3)" d="M 328.946104 144.085071 
L 329.709484 144.085071 
L 329.709484 159.814714 
L 328.946104 159.814714 
z
" style="fill:#0000ff;opacity:0.5;"/>
   </g>
   <g id="patch_240">
    <path clip-path="url(#p67822e54b3)" d="M 330.036647 144.085071 
L 330.800027 144.085071 
L 330.800027 56.078195 
L 330.036647 56.078195 
z
" style="fill:#0000ff;opacity:0.5;"/>
   </g>
   <g id="patch_241">
    <path clip-path="url(#p67822e54b3)" d="M 331.127189 144.085071 
L 331.890569 144.085071 
L 331.890569 276.334125 
L 331.127189 276.334125 
z
" style="fill:#0000ff;opacity:0.5;"/>
   </g>
   <g id="patch_242">
    <path clip-path="url(#p67822e54b3)" d="M 332.217732 144.085071 
L 332.981112 144.085071 
L 332.981112 59.891235 
L 332.217732 59.891235 
z
" style="fill:#0000ff;opacity:0.5;"/>
   </g>
   <g id="patch_243">
    <path clip-path="url(#p67822e54b3)" d="M 333.308275 144.085071 
L 334.071654 144.085071 
L 334.071654 173.006877 
L 333.308275 173.006877 
z
" style="fill:#0000ff;opacity:0.5;"/>
   </g>
   <g id="patch_244">
    <path clip-path="url(#p67822e54b3)" d="M 334.398817 144.085071 
L 335.162197 144.085071 
L 335.162197 110.531682 
L 334.398817 110.531682 
z
" style="fill:#0000ff;opacity:0.5;"/>
   </g>
   <g id="patch_245">
    <path clip-path="url(#p67822e54b3)" d="M 335.48936 144.085071 
L 336.25274 144.085071 
L 336.25274 214.247737 
L 335.48936 214.247737 
z
" style="fill:#0000ff;opacity:0.5;"/>
   </g>
   <g id="patch_246">
    <path clip-path="url(#p67822e54b3)" d="M 336.579903 144.085071 
L 337.343282 144.085071 
L 337.343282 57.033161 
L 336.579903 57.033161 
z
" style="fill:#0000ff;opacity:0.5;"/>
   </g>
   <g id="patch_247">
    <path clip-path="url(#p67822e54b3)" d="M 337.670445 144.085071 
L 338.433825 144.085071 
L 338.433825 205.298348 
L 337.670445 205.298348 
z
" style="fill:#0000ff;opacity:0.5;"/>
   </g>
   <g id="patch_248">
    <path clip-path="url(#p67822e54b3)" d="M 338.760988 144.085071 
L 339.524368 144.085071 
L 339.524368 116.841274 
L 338.760988 116.841274 
z
" style="fill:#0000ff;opacity:0.5;"/>
   </g>
   <g id="patch_249">
    <path clip-path="url(#p67822e54b3)" d="M 339.85153 144.085071 
L 340.61491 144.085071 
L 340.61491 163.811926 
L 339.85153 163.811926 
z
" style="fill:#0000ff;opacity:0.5;"/>
   </g>
   <g id="patch_250">
    <path clip-path="url(#p67822e54b3)" d="M 340.942073 144.085071 
L 341.705453 144.085071 
L 341.705453 109.283406 
L 340.942073 109.283406 
z
" style="fill:#0000ff;opacity:0.5;"/>
   </g>
   <g id="patch_251">
    <path clip-path="url(#p67822e54b3)" d="M 342.032616 144.085071 
L 342.795996 144.085071 
L 342.795996 151.574727 
L 342.032616 151.574727 
z
" style="fill:#0000ff;opacity:0.5;"/>
   </g>
   <g id="patch_252">
    <path clip-path="url(#p67822e54b3)" d="M 343.123158 144.085071 
L 343.886538 144.085071 
L 343.886538 190.462279 
L 343.123158 190.462279 
z
" style="fill:#0000ff;opacity:0.5;"/>
   </g>
   <g id="patch_253">
    <path clip-path="url(#p67822e54b3)" d="M 344.213701 144.085071 
L 344.977081 144.085071 
L 344.977081 81.241532 
L 344.213701 81.241532 
z
" style="fill:#0000ff;opacity:0.5;"/>
   </g>
   <g id="patch_254">
    <path clip-path="url(#p67822e54b3)" d="M 345.304244 144.085071 
L 346.067624 144.085071 
L 346.067624 179.916734 
L 345.304244 179.916734 
z
" style="fill:#0000ff;opacity:0.5;"/>
   </g>
   <g id="patch_255">
    <path clip-path="url(#p67822e54b3)" d="M 346.394786 144.085071 
L 347.158166 144.085071 
L 347.158166 151.492873 
L 346.394786 151.492873 
z
" style="fill:#0000ff;opacity:0.5;"/>
   </g>
   <g id="patch_256">
    <path clip-path="url(#p67822e54b3)" d="M 347.485329 144.085071 
L 348.248709 144.085071 
L 348.248709 143.744012 
L 347.485329 143.744012 
z
" style="fill:#0000ff;opacity:0.5;"/>
   </g>
   <g id="patch_257">
    <path clip-path="url(#p67822e54b3)" d="M 348.575872 144.085071 
L 349.339251 144.085071 
L 349.339251 115.033661 
L 348.575872 115.033661 
z
" style="fill:#0000ff;opacity:0.5;"/>
   </g>
   <g id="patch_258">
    <path clip-path="url(#p67822e54b3)" d="M 349.666414 144.085071 
L 350.429794 144.085071 
L 350.429794 199.125179 
L 349.666414 199.125179 
z
" style="fill:#0000ff;opacity:0.5;"/>
   </g>
   <g id="patch_259">
    <path clip-path="url(#p67822e54b3)" d="M 350.756957 144.085071 
L 351.520337 144.085071 
L 351.520337 93.785683 
L 350.756957 93.785683 
z
" style="fill:#0000ff;opacity:0.5;"/>
   </g>
   <g id="patch_260">
    <path clip-path="url(#p67822e54b3)" d="M 351.8475 144.085071 
L 352.610879 144.085071 
L 352.610879 146.008644 
L 351.8475 146.008644 
z
" style="fill:#0000ff;opacity:0.5;"/>
   </g>
   <g id="patch_261">
    <path clip-path="url(#p67822e54b3)" d="M 352.938042 144.085071 
L 353.701422 144.085071 
L 353.701422 110.006451 
L 352.938042 110.006451 
z
" style="fill:#0000ff;opacity:0.5;"/>
   </g>
   <g id="patch_262">
    <path clip-path="url(#p67822e54b3)" d="M 354.028585 144.085071 
L 354.791965 144.085071 
L 354.791965 231.53943 
L 354.028585 231.53943 
z
" style="fill:#0000ff;opacity:0.5;"/>
   </g>
   <g id="patch_263">
    <path clip-path="url(#p67822e54b3)" d="M 355.119128 144.085071 
L 355.882507 144.085071 
L 355.882507 81.889544 
L 355.119128 81.889544 
z
" style="fill:#0000ff;opacity:0.5;"/>
   </g>
   <g id="patch_264">
    <path clip-path="url(#p67822e54b3)" d="M 356.20967 144.085071 
L 356.97305 144.085071 
L 356.97305 170.121518 
L 356.20967 170.121518 
z
" style="fill:#0000ff;opacity:0.5;"/>
   </g>
   <g id="patch_265">
    <path clip-path="url(#p67822e54b3)" d="M 357.300213 144.085071 
L 358.063593 144.085071 
L 358.063593 145.23785 
L 357.300213 145.23785 
z
" style="fill:#0000ff;opacity:0.5;"/>
   </g>
   <g id="patch_266">
    <path clip-path="url(#p67822e54b3)" d="M 358.390755 144.085071 
L 359.154135 144.085071 
L 359.154135 126.159007 
L 358.390755 126.159007 
z
" style="fill:#0000ff;opacity:0.5;"/>
   </g>
   <g id="patch_267">
    <path clip-path="url(#p67822e54b3)" d="M 359.481298 144.085071 
L 360.244678 144.085071 
L 360.244678 154.780682 
L 359.481298 154.780682 
z
" style="fill:#0000ff;opacity:0.5;"/>
   </g>
   <g id="patch_268">
    <path clip-path="url(#p67822e54b3)" d="M 360.571841 144.085071 
L 361.335221 144.085071 
L 361.335221 138.457596 
L 360.571841 138.457596 
z
" style="fill:#0000ff;opacity:0.5;"/>
   </g>
   <g id="patch_269">
    <path clip-path="url(#p67822e54b3)" d="M 361.662383 144.085071 
L 362.425763 144.085071 
L 362.425763 146.492948 
L 361.662383 146.492948 
z
" style="fill:#0000ff;opacity:0.5;"/>
   </g>
   <g id="patch_270">
    <path clip-path="url(#p67822e54b3)" d="M 362.752926 144.085071 
L 363.516306 144.085071 
L 363.516306 166.533577 
L 362.752926 166.533577 
z
" style="fill:#0000ff;opacity:0.5;"/>
   </g>
   <g id="patch_271">
    <path clip-path="url(#p67822e54b3)" d="M 363.843469 144.085071 
L 364.606849 144.085071 
L 364.606849 130.442709 
L 363.843469 130.442709 
z
" style="fill:#0000ff;opacity:0.5;"/>
   </g>
   <g id="patch_272">
    <path clip-path="url(#p67822e54b3)" d="M 364.934011 144.085071 
L 365.697391 144.085071 
L 365.697391 133.246214 
L 364.934011 133.246214 
z
" style="fill:#0000ff;opacity:0.5;"/>
   </g>
   <g id="patch_273">
    <path clip-path="url(#p67822e54b3)" d="M 366.024554 144.085071 
L 366.787934 144.085071 
L 366.787934 127.90523 
L 366.024554 127.90523 
z
" style="fill:#0000ff;opacity:0.5;"/>
   </g>
   <g id="patch_274">
    <path clip-path="url(#p67822e54b3)" d="M 367.115097 144.085071 
L 367.878476 144.085071 
L 367.878476 174.391577 
L 367.115097 174.391577 
z
" style="fill:#0000ff;opacity:0.5;"/>
   </g>
   <g id="patch_275">
    <path clip-path="url(#p67822e54b3)" d="M 368.205639 144.085071 
L 368.969019 144.085071 
L 368.969019 114.876774 
L 368.205639 114.876774 
z
" style="fill:#0000ff;opacity:0.5;"/>
   </g>
   <g id="patch_276">
    <path clip-path="url(#p67822e54b3)" d="M 369.296182 144.085071 
L 370.059562 144.085071 
L 370.059562 175.646674 
L 369.296182 175.646674 
z
" style="fill:#0000ff;opacity:0.5;"/>
   </g>
   <g id="patch_277">
    <path clip-path="url(#p67822e54b3)" d="M 370.386725 144.085071 
L 371.150104 144.085071 
L 371.150104 129.098936 
L 370.386725 129.098936 
z
" style="fill:#0000ff;opacity:0.5;"/>
   </g>
   <g id="patch_278">
    <path clip-path="url(#p67822e54b3)" d="M 371.477267 144.085071 
L 372.240647 144.085071 
L 372.240647 174.555286 
L 371.477267 174.555286 
z
" style="fill:#0000ff;opacity:0.5;"/>
   </g>
   <g id="patch_279">
    <path clip-path="url(#p67822e54b3)" d="M 372.56781 144.085071 
L 373.33119 144.085071 
L 373.33119 98.683291 
L 372.56781 98.683291 
z
" style="fill:#0000ff;opacity:0.5;"/>
   </g>
   <g id="patch_280">
    <path clip-path="url(#p67822e54b3)" d="M 373.658352 144.085071 
L 374.421732 144.085071 
L 374.421732 161.615505 
L 373.658352 161.615505 
z
" style="fill:#0000ff;opacity:0.5;"/>
   </g>
   <g id="patch_281">
    <path clip-path="url(#p67822e54b3)" d="M 374.748895 144.085071 
L 375.512275 144.085071 
L 375.512275 124.133117 
L 374.748895 124.133117 
z
" style="fill:#0000ff;opacity:0.5;"/>
   </g>
   <g id="patch_282">
    <path clip-path="url(#p67822e54b3)" d="M 375.839438 144.085071 
L 376.602818 144.085071 
L 376.602818 191.799231 
L 375.839438 191.799231 
z
" style="fill:#0000ff;opacity:0.5;"/>
   </g>
   <g id="patch_283">
    <path clip-path="url(#p67822e54b3)" d="M 376.92998 144.085071 
L 377.69336 144.085071 
L 377.69336 128.696487 
L 376.92998 128.696487 
z
" style="fill:#0000ff;opacity:0.5;"/>
   </g>
   <g id="patch_284">
    <path clip-path="url(#p67822e54b3)" d="M 378.020523 144.085071 
L 378.783903 144.085071 
L 378.783903 131.090721 
L 378.020523 131.090721 
z
" style="fill:#0000ff;opacity:0.5;"/>
   </g>
   <g id="patch_285">
    <path clip-path="url(#p67822e54b3)" d="M 379.111066 144.085071 
L 379.874446 144.085071 
L 379.874446 129.201254 
L 379.111066 129.201254 
z
" style="fill:#0000ff;opacity:0.5;"/>
   </g>
   <g id="patch_286">
    <path clip-path="url(#p67822e54b3)" d="M 380.201608 144.085071 
L 380.964988 144.085071 
L 380.964988 177.69985 
L 380.201608 177.69985 
z
" style="fill:#0000ff;opacity:0.5;"/>
   </g>
   <g id="patch_287">
    <path clip-path="url(#p67822e54b3)" d="M 381.292151 144.085071 
L 382.055531 144.085071 
L 382.055531 120.401931 
L 381.292151 120.401931 
z
" style="fill:#0000ff;opacity:0.5;"/>
   </g>
   <g id="patch_288">
    <path clip-path="url(#p67822e54b3)" d="M 382.382694 144.085071 
L 383.146073 144.085071 
L 383.146073 131.684164 
L 382.382694 131.684164 
z
" style="fill:#0000ff;opacity:0.5;"/>
   </g>
   <g id="patch_289">
    <path clip-path="url(#p67822e54b3)" d="M 383.473236 144.085071 
L 384.236616 144.085071 
L 384.236616 149.084996 
L 383.473236 149.084996 
z
" style="fill:#0000ff;opacity:0.5;"/>
   </g>
   <g id="patch_290">
    <path clip-path="url(#p67822e54b3)" d="M 384.563779 144.085071 
L 385.327159 144.085071 
L 385.327159 162.536365 
L 384.563779 162.536365 
z
" style="fill:#0000ff;opacity:0.5;"/>
   </g>
   <g id="patch_291">
    <path clip-path="url(#p67822e54b3)" d="M 385.654322 144.085071 
L 386.417701 144.085071 
L 386.417701 113.471611 
L 385.654322 113.471611 
z
" style="fill:#0000ff;opacity:0.5;"/>
   </g>
   <g id="patch_292">
    <path clip-path="url(#p67822e54b3)" d="M 386.744864 144.085071 
L 387.508244 144.085071 
L 387.508244 195.455384 
L 386.744864 195.455384 
z
" style="fill:#0000ff;opacity:0.5;"/>
   </g>
   <g id="patch_293">
    <path clip-path="url(#p67822e54b3)" d="M 387.835407 144.085071 
L 388.598787 144.085071 
L 388.598787 115.422469 
L 387.835407 115.422469 
z
" style="fill:#0000ff;opacity:0.5;"/>
   </g>
   <g id="patch_294">
    <path clip-path="url(#p67822e54b3)" d="M 388.92595 144.085071 
L 389.689329 144.085071 
L 389.689329 168.648143 
L 388.92595 168.648143 
z
" style="fill:#0000ff;opacity:0.5;"/>
   </g>
   <g id="patch_295">
    <path clip-path="url(#p67822e54b3)" d="M 390.016492 144.085071 
L 390.779872 144.085071 
L 390.779872 132.857407 
L 390.016492 132.857407 
z
" style="fill:#0000ff;opacity:0.5;"/>
   </g>
   <g id="patch_296">
    <path clip-path="url(#p67822e54b3)" d="M 391.107035 144.085071 
L 391.870415 144.085071 
L 391.870415 114.399292 
L 391.107035 114.399292 
z
" style="fill:#0000ff;opacity:0.5;"/>
   </g>
   <g id="patch_297">
    <path clip-path="url(#p67822e54b3)" d="M 392.197577 144.085071 
L 392.960957 144.085071 
L 392.960957 187.017583 
L 392.197577 187.017583 
z
" style="fill:#0000ff;opacity:0.5;"/>
   </g>
   <g id="patch_298">
    <path clip-path="url(#p67822e54b3)" d="M 393.28812 144.085071 
L 394.0515 144.085071 
L 394.0515 112.639427 
L 393.28812 112.639427 
z
" style="fill:#0000ff;opacity:0.5;"/>
   </g>
   <g id="patch_299">
    <path clip-path="url(#p67822e54b3)" d="M 394.378663 144.085071 
L 395.142043 144.085071 
L 395.142043 120.190474 
L 394.378663 120.190474 
z
" style="fill:#0000ff;opacity:0.5;"/>
   </g>
   <g id="patch_300">
    <path clip-path="url(#p67822e54b3)" d="M 395.469205 144.085071 
L 396.232585 144.085071 
L 396.232585 180.019051 
L 395.469205 180.019051 
z
" style="fill:#0000ff;opacity:0.5;"/>
   </g>
   <g id="matplotlib.axis_1">
    <g id="xtick_1">
     <g id="line2d_1">
      <defs>
       <path d="M 0 0 
L 0 3.5 
" id="m7ead4f9413" style="stroke:#000000;stroke-width:0.8;"/>
      </defs>
      <g>
       <use style="stroke:#000000;stroke-width:0.8;" x="71.95973" xlink:href="#m7ead4f9413" y="288.430125"/>
      </g>
     </g>
     <g id="text_1">
      <!-- 0 -->
      <defs>
       <path d="M 31.78125 66.40625 
Q 24.171875 66.40625 20.328125 58.90625 
Q 16.5 51.421875 16.5 36.375 
Q 16.5 21.390625 20.328125 13.890625 
Q 24.171875 6.390625 31.78125 6.390625 
Q 39.453125 6.390625 43.28125 13.890625 
Q 47.125 21.390625 47.125 36.375 
Q 47.125 51.421875 43.28125 58.90625 
Q 39.453125 66.40625 31.78125 66.40625 
z
M 31.78125 74.21875 
Q 44.046875 74.21875 50.515625 64.515625 
Q 56.984375 54.828125 56.984375 36.375 
Q 56.984375 17.96875 50.515625 8.265625 
Q 44.046875 -1.421875 31.78125 -1.421875 
Q 19.53125 -1.421875 13.0625 8.265625 
Q 6.59375 17.96875 6.59375 36.375 
Q 6.59375 54.828125 13.0625 64.515625 
Q 19.53125 74.21875 31.78125 74.21875 
z
" id="DejaVuSans-48"/>
      </defs>
      <g transform="translate(68.77848 303.028562)scale(0.1 -0.1)">
       <use xlink:href="#DejaVuSans-48"/>
      </g>
     </g>
    </g>
    <g id="xtick_2">
     <g id="line2d_2">
      <g>
       <use style="stroke:#000000;stroke-width:0.8;" x="126.486862" xlink:href="#m7ead4f9413" y="288.430125"/>
      </g>
     </g>
     <g id="text_2">
      <!-- 50 -->
      <defs>
       <path d="M 10.796875 72.90625 
L 49.515625 72.90625 
L 49.515625 64.59375 
L 19.828125 64.59375 
L 19.828125 46.734375 
Q 21.96875 47.46875 24.109375 47.828125 
Q 26.265625 48.1875 28.421875 48.1875 
Q 40.625 48.1875 47.75 41.5 
Q 54.890625 34.8125 54.890625 23.390625 
Q 54.890625 11.625 47.5625 5.09375 
Q 40.234375 -1.421875 26.90625 -1.421875 
Q 22.3125 -1.421875 17.546875 -0.640625 
Q 12.796875 0.140625 7.71875 1.703125 
L 7.71875 11.625 
Q 12.109375 9.234375 16.796875 8.0625 
Q 21.484375 6.890625 26.703125 6.890625 
Q 35.15625 6.890625 40.078125 11.328125 
Q 45.015625 15.765625 45.015625 23.390625 
Q 45.015625 31 40.078125 35.4375 
Q 35.15625 39.890625 26.703125 39.890625 
Q 22.75 39.890625 18.8125 39.015625 
Q 14.890625 38.140625 10.796875 36.28125 
z
" id="DejaVuSans-53"/>
      </defs>
      <g transform="translate(120.124362 303.028562)scale(0.1 -0.1)">
       <use xlink:href="#DejaVuSans-53"/>
       <use x="63.623047" xlink:href="#DejaVuSans-48"/>
      </g>
     </g>
    </g>
    <g id="xtick_3">
     <g id="line2d_3">
      <g>
       <use style="stroke:#000000;stroke-width:0.8;" x="181.013994" xlink:href="#m7ead4f9413" y="288.430125"/>
      </g>
     </g>
     <g id="text_3">
      <!-- 100 -->
      <defs>
       <path d="M 12.40625 8.296875 
L 28.515625 8.296875 
L 28.515625 63.921875 
L 10.984375 60.40625 
L 10.984375 69.390625 
L 28.421875 72.90625 
L 38.28125 72.90625 
L 38.28125 8.296875 
L 54.390625 8.296875 
L 54.390625 0 
L 12.40625 0 
z
" id="DejaVuSans-49"/>
      </defs>
      <g transform="translate(171.470244 303.028562)scale(0.1 -0.1)">
       <use xlink:href="#DejaVuSans-49"/>
       <use x="63.623047" xlink:href="#DejaVuSans-48"/>
       <use x="127.246094" xlink:href="#DejaVuSans-48"/>
      </g>
     </g>
    </g>
    <g id="xtick_4">
     <g id="line2d_4">
      <g>
       <use style="stroke:#000000;stroke-width:0.8;" x="235.541126" xlink:href="#m7ead4f9413" y="288.430125"/>
      </g>
     </g>
     <g id="text_4">
      <!-- 150 -->
      <g transform="translate(225.997376 303.028562)scale(0.1 -0.1)">
       <use xlink:href="#DejaVuSans-49"/>
       <use x="63.623047" xlink:href="#DejaVuSans-53"/>
       <use x="127.246094" xlink:href="#DejaVuSans-48"/>
      </g>
     </g>
    </g>
    <g id="xtick_5">
     <g id="line2d_5">
      <g>
       <use style="stroke:#000000;stroke-width:0.8;" x="290.068259" xlink:href="#m7ead4f9413" y="288.430125"/>
      </g>
     </g>
     <g id="text_5">
      <!-- 200 -->
      <defs>
       <path d="M 19.1875 8.296875 
L 53.609375 8.296875 
L 53.609375 0 
L 7.328125 0 
L 7.328125 8.296875 
Q 12.9375 14.109375 22.625 23.890625 
Q 32.328125 33.6875 34.8125 36.53125 
Q 39.546875 41.84375 41.421875 45.53125 
Q 43.3125 49.21875 43.3125 52.78125 
Q 43.3125 58.59375 39.234375 62.25 
Q 35.15625 65.921875 28.609375 65.921875 
Q 23.96875 65.921875 18.8125 64.3125 
Q 13.671875 62.703125 7.8125 59.421875 
L 7.8125 69.390625 
Q 13.765625 71.78125 18.9375 73 
Q 24.125 74.21875 28.421875 74.21875 
Q 39.75 74.21875 46.484375 68.546875 
Q 53.21875 62.890625 53.21875 53.421875 
Q 53.21875 48.921875 51.53125 44.890625 
Q 49.859375 40.875 45.40625 35.40625 
Q 44.1875 33.984375 37.640625 27.21875 
Q 31.109375 20.453125 19.1875 8.296875 
z
" id="DejaVuSans-50"/>
      </defs>
      <g transform="translate(280.524509 303.028562)scale(0.1 -0.1)">
       <use xlink:href="#DejaVuSans-50"/>
       <use x="63.623047" xlink:href="#DejaVuSans-48"/>
       <use x="127.246094" xlink:href="#DejaVuSans-48"/>
      </g>
     </g>
    </g>
    <g id="xtick_6">
     <g id="line2d_6">
      <g>
       <use style="stroke:#000000;stroke-width:0.8;" x="344.595391" xlink:href="#m7ead4f9413" y="288.430125"/>
      </g>
     </g>
     <g id="text_6">
      <!-- 250 -->
      <g transform="translate(335.051641 303.028562)scale(0.1 -0.1)">
       <use xlink:href="#DejaVuSans-50"/>
       <use x="63.623047" xlink:href="#DejaVuSans-53"/>
       <use x="127.246094" xlink:href="#DejaVuSans-48"/>
      </g>
     </g>
    </g>
    <g id="xtick_7">
     <g id="line2d_7">
      <g>
       <use style="stroke:#000000;stroke-width:0.8;" x="399.122523" xlink:href="#m7ead4f9413" y="288.430125"/>
      </g>
     </g>
     <g id="text_7">
      <!-- 300 -->
      <defs>
       <path d="M 40.578125 39.3125 
Q 47.65625 37.796875 51.625 33 
Q 55.609375 28.21875 55.609375 21.1875 
Q 55.609375 10.40625 48.1875 4.484375 
Q 40.765625 -1.421875 27.09375 -1.421875 
Q 22.515625 -1.421875 17.65625 -0.515625 
Q 12.796875 0.390625 7.625 2.203125 
L 7.625 11.71875 
Q 11.71875 9.328125 16.59375 8.109375 
Q 21.484375 6.890625 26.8125 6.890625 
Q 36.078125 6.890625 40.9375 10.546875 
Q 45.796875 14.203125 45.796875 21.1875 
Q 45.796875 27.640625 41.28125 31.265625 
Q 36.765625 34.90625 28.71875 34.90625 
L 20.21875 34.90625 
L 20.21875 43.015625 
L 29.109375 43.015625 
Q 36.375 43.015625 40.234375 45.921875 
Q 44.09375 48.828125 44.09375 54.296875 
Q 44.09375 59.90625 40.109375 62.90625 
Q 36.140625 65.921875 28.71875 65.921875 
Q 24.65625 65.921875 20.015625 65.03125 
Q 15.375 64.15625 9.8125 62.3125 
L 9.8125 71.09375 
Q 15.4375 72.65625 20.34375 73.4375 
Q 25.25 74.21875 29.59375 74.21875 
Q 40.828125 74.21875 47.359375 69.109375 
Q 53.90625 64.015625 53.90625 55.328125 
Q 53.90625 49.265625 50.4375 45.09375 
Q 46.96875 40.921875 40.578125 39.3125 
z
" id="DejaVuSans-51"/>
      </defs>
      <g transform="translate(389.578773 303.028562)scale(0.1 -0.1)">
       <use xlink:href="#DejaVuSans-51"/>
       <use x="63.623047" xlink:href="#DejaVuSans-48"/>
       <use x="127.246094" xlink:href="#DejaVuSans-48"/>
      </g>
     </g>
    </g>
    <g id="text_8">
     <!-- Step -->
     <defs>
      <path d="M 53.515625 70.515625 
L 53.515625 60.890625 
Q 47.90625 63.578125 42.921875 64.890625 
Q 37.9375 66.21875 33.296875 66.21875 
Q 25.25 66.21875 20.875 63.09375 
Q 16.5 59.96875 16.5 54.203125 
Q 16.5 49.359375 19.40625 46.890625 
Q 22.3125 44.4375 30.421875 42.921875 
L 36.375 41.703125 
Q 47.40625 39.59375 52.65625 34.296875 
Q 57.90625 29 57.90625 20.125 
Q 57.90625 9.515625 50.796875 4.046875 
Q 43.703125 -1.421875 29.984375 -1.421875 
Q 24.8125 -1.421875 18.96875 -0.25 
Q 13.140625 0.921875 6.890625 3.21875 
L 6.890625 13.375 
Q 12.890625 10.015625 18.65625 8.296875 
Q 24.421875 6.59375 29.984375 6.59375 
Q 38.421875 6.59375 43.015625 9.90625 
Q 47.609375 13.234375 47.609375 19.390625 
Q 47.609375 24.75 44.3125 27.78125 
Q 41.015625 30.8125 33.5 32.328125 
L 27.484375 33.5 
Q 16.453125 35.6875 11.515625 40.375 
Q 6.59375 45.0625 6.59375 53.421875 
Q 6.59375 63.09375 13.40625 68.65625 
Q 20.21875 74.21875 32.171875 74.21875 
Q 37.3125 74.21875 42.625 73.28125 
Q 47.953125 72.359375 53.515625 70.515625 
z
" id="DejaVuSans-83"/>
      <path d="M 18.3125 70.21875 
L 18.3125 54.6875 
L 36.8125 54.6875 
L 36.8125 47.703125 
L 18.3125 47.703125 
L 18.3125 18.015625 
Q 18.3125 11.328125 20.140625 9.421875 
Q 21.96875 7.515625 27.59375 7.515625 
L 36.8125 7.515625 
L 36.8125 0 
L 27.59375 0 
Q 17.1875 0 13.234375 3.875 
Q 9.28125 7.765625 9.28125 18.015625 
L 9.28125 47.703125 
L 2.6875 47.703125 
L 2.6875 54.6875 
L 9.28125 54.6875 
L 9.28125 70.21875 
z
" id="DejaVuSans-116"/>
      <path d="M 56.203125 29.59375 
L 56.203125 25.203125 
L 14.890625 25.203125 
Q 15.484375 15.921875 20.484375 11.0625 
Q 25.484375 6.203125 34.421875 6.203125 
Q 39.59375 6.203125 44.453125 7.46875 
Q 49.3125 8.734375 54.109375 11.28125 
L 54.109375 2.78125 
Q 49.265625 0.734375 44.1875 -0.34375 
Q 39.109375 -1.421875 33.890625 -1.421875 
Q 20.796875 -1.421875 13.15625 6.1875 
Q 5.515625 13.8125 5.515625 26.8125 
Q 5.515625 40.234375 12.765625 48.109375 
Q 20.015625 56 32.328125 56 
Q 43.359375 56 49.78125 48.890625 
Q 56.203125 41.796875 56.203125 29.59375 
z
M 47.21875 32.234375 
Q 47.125 39.59375 43.09375 43.984375 
Q 39.0625 48.390625 32.421875 48.390625 
Q 24.90625 48.390625 20.390625 44.140625 
Q 15.875 39.890625 15.1875 32.171875 
z
" id="DejaVuSans-101"/>
      <path d="M 18.109375 8.203125 
L 18.109375 -20.796875 
L 9.078125 -20.796875 
L 9.078125 54.6875 
L 18.109375 54.6875 
L 18.109375 46.390625 
Q 20.953125 51.265625 25.265625 53.625 
Q 29.59375 56 35.59375 56 
Q 45.5625 56 51.78125 48.09375 
Q 58.015625 40.1875 58.015625 27.296875 
Q 58.015625 14.40625 51.78125 6.484375 
Q 45.5625 -1.421875 35.59375 -1.421875 
Q 29.59375 -1.421875 25.265625 0.953125 
Q 20.953125 3.328125 18.109375 8.203125 
z
M 48.6875 27.296875 
Q 48.6875 37.203125 44.609375 42.84375 
Q 40.53125 48.484375 33.40625 48.484375 
Q 26.265625 48.484375 22.1875 42.84375 
Q 18.109375 37.203125 18.109375 27.296875 
Q 18.109375 17.390625 22.1875 11.75 
Q 26.265625 6.109375 33.40625 6.109375 
Q 40.53125 6.109375 44.609375 11.75 
Q 48.6875 17.390625 48.6875 27.296875 
z
" id="DejaVuSans-112"/>
     </defs>
     <g transform="translate(222.520156 316.706687)scale(0.1 -0.1)">
      <use xlink:href="#DejaVuSans-83"/>
      <use x="63.476562" xlink:href="#DejaVuSans-116"/>
      <use x="102.685547" xlink:href="#DejaVuSans-101"/>
      <use x="164.208984" xlink:href="#DejaVuSans-112"/>
     </g>
    </g>
   </g>
   <g id="matplotlib.axis_2">
    <g id="ytick_1">
     <g id="line2d_8">
      <defs>
       <path d="M 0 0 
L -3.5 0 
" id="m747ddd1895" style="stroke:#000000;stroke-width:0.8;"/>
      </defs>
      <g>
       <use style="stroke:#000000;stroke-width:0.8;" x="55.345313" xlink:href="#m747ddd1895" y="253.223964"/>
      </g>
     </g>
     <g id="text_9">
      <!-- 400 -->
      <defs>
       <path d="M 10.59375 35.5 
L 73.1875 35.5 
L 73.1875 27.203125 
L 10.59375 27.203125 
z
" id="DejaVuSans-8722"/>
       <path d="M 37.796875 64.3125 
L 12.890625 25.390625 
L 37.796875 25.390625 
z
M 35.203125 72.90625 
L 47.609375 72.90625 
L 47.609375 25.390625 
L 58.015625 25.390625 
L 58.015625 17.1875 
L 47.609375 17.1875 
L 47.609375 0 
L 37.796875 0 
L 37.796875 17.1875 
L 4.890625 17.1875 
L 4.890625 26.703125 
z
" id="DejaVuSans-52"/>
      </defs>
      <g transform="translate(20.878125 257.023183)scale(0.1 -0.1)">
       <use xlink:href="#DejaVuSans-8722"/>
       <use x="83.789062" xlink:href="#DejaVuSans-52"/>
       <use x="147.412109" xlink:href="#DejaVuSans-48"/>
       <use x="211.035156" xlink:href="#DejaVuSans-48"/>
      </g>
     </g>
    </g>
    <g id="ytick_2">
     <g id="line2d_9">
      <g>
       <use style="stroke:#000000;stroke-width:0.8;" x="55.345313" xlink:href="#m747ddd1895" y="198.654517"/>
      </g>
     </g>
     <g id="text_10">
      <!-- 200 -->
      <g transform="translate(20.878125 202.453736)scale(0.1 -0.1)">
       <use xlink:href="#DejaVuSans-8722"/>
       <use x="83.789062" xlink:href="#DejaVuSans-50"/>
       <use x="147.412109" xlink:href="#DejaVuSans-48"/>
       <use x="211.035156" xlink:href="#DejaVuSans-48"/>
      </g>
     </g>
    </g>
    <g id="ytick_3">
     <g id="line2d_10">
      <g>
       <use style="stroke:#000000;stroke-width:0.8;" x="55.345313" xlink:href="#m747ddd1895" y="144.085071"/>
      </g>
     </g>
     <g id="text_11">
      <!-- 0 -->
      <g transform="translate(41.982813 147.884289)scale(0.1 -0.1)">
       <use xlink:href="#DejaVuSans-48"/>
      </g>
     </g>
    </g>
    <g id="ytick_4">
     <g id="line2d_11">
      <g>
       <use style="stroke:#000000;stroke-width:0.8;" x="55.345313" xlink:href="#m747ddd1895" y="89.515624"/>
      </g>
     </g>
     <g id="text_12">
      <!-- 200 -->
      <g transform="translate(29.257813 93.314843)scale(0.1 -0.1)">
       <use xlink:href="#DejaVuSans-50"/>
       <use x="63.623047" xlink:href="#DejaVuSans-48"/>
       <use x="127.246094" xlink:href="#DejaVuSans-48"/>
      </g>
     </g>
    </g>
    <g id="ytick_5">
     <g id="line2d_12">
      <g>
       <use style="stroke:#000000;stroke-width:0.8;" x="55.345313" xlink:href="#m747ddd1895" y="34.946177"/>
      </g>
     </g>
     <g id="text_13">
      <!-- 400 -->
      <g transform="translate(29.257813 38.745396)scale(0.1 -0.1)">
       <use xlink:href="#DejaVuSans-52"/>
       <use x="63.623047" xlink:href="#DejaVuSans-48"/>
       <use x="127.246094" xlink:href="#DejaVuSans-48"/>
      </g>
     </g>
    </g>
    <g id="text_14">
     <!-- Reward - 2nd Difference - Average of 10 -->
     <defs>
      <path d="M 44.390625 34.1875 
Q 47.5625 33.109375 50.5625 29.59375 
Q 53.5625 26.078125 56.59375 19.921875 
L 66.609375 0 
L 56 0 
L 46.6875 18.703125 
Q 43.0625 26.03125 39.671875 28.421875 
Q 36.28125 30.8125 30.421875 30.8125 
L 19.671875 30.8125 
L 19.671875 0 
L 9.8125 0 
L 9.8125 72.90625 
L 32.078125 72.90625 
Q 44.578125 72.90625 50.734375 67.671875 
Q 56.890625 62.453125 56.890625 51.90625 
Q 56.890625 45.015625 53.6875 40.46875 
Q 50.484375 35.9375 44.390625 34.1875 
z
M 19.671875 64.796875 
L 19.671875 38.921875 
L 32.078125 38.921875 
Q 39.203125 38.921875 42.84375 42.21875 
Q 46.484375 45.515625 46.484375 51.90625 
Q 46.484375 58.296875 42.84375 61.546875 
Q 39.203125 64.796875 32.078125 64.796875 
z
" id="DejaVuSans-82"/>
      <path d="M 4.203125 54.6875 
L 13.1875 54.6875 
L 24.421875 12.015625 
L 35.59375 54.6875 
L 46.1875 54.6875 
L 57.421875 12.015625 
L 68.609375 54.6875 
L 77.59375 54.6875 
L 63.28125 0 
L 52.6875 0 
L 40.921875 44.828125 
L 29.109375 0 
L 18.5 0 
z
" id="DejaVuSans-119"/>
      <path d="M 34.28125 27.484375 
Q 23.390625 27.484375 19.1875 25 
Q 14.984375 22.515625 14.984375 16.5 
Q 14.984375 11.71875 18.140625 8.90625 
Q 21.296875 6.109375 26.703125 6.109375 
Q 34.1875 6.109375 38.703125 11.40625 
Q 43.21875 16.703125 43.21875 25.484375 
L 43.21875 27.484375 
z
M 52.203125 31.203125 
L 52.203125 0 
L 43.21875 0 
L 43.21875 8.296875 
Q 40.140625 3.328125 35.546875 0.953125 
Q 30.953125 -1.421875 24.3125 -1.421875 
Q 15.921875 -1.421875 10.953125 3.296875 
Q 6 8.015625 6 15.921875 
Q 6 25.140625 12.171875 29.828125 
Q 18.359375 34.515625 30.609375 34.515625 
L 43.21875 34.515625 
L 43.21875 35.40625 
Q 43.21875 41.609375 39.140625 45 
Q 35.0625 48.390625 27.6875 48.390625 
Q 23 48.390625 18.546875 47.265625 
Q 14.109375 46.140625 10.015625 43.890625 
L 10.015625 52.203125 
Q 14.9375 54.109375 19.578125 55.046875 
Q 24.21875 56 28.609375 56 
Q 40.484375 56 46.34375 49.84375 
Q 52.203125 43.703125 52.203125 31.203125 
z
" id="DejaVuSans-97"/>
      <path d="M 41.109375 46.296875 
Q 39.59375 47.171875 37.8125 47.578125 
Q 36.03125 48 33.890625 48 
Q 26.265625 48 22.1875 43.046875 
Q 18.109375 38.09375 18.109375 28.8125 
L 18.109375 0 
L 9.078125 0 
L 9.078125 54.6875 
L 18.109375 54.6875 
L 18.109375 46.1875 
Q 20.953125 51.171875 25.484375 53.578125 
Q 30.03125 56 36.53125 56 
Q 37.453125 56 38.578125 55.875 
Q 39.703125 55.765625 41.0625 55.515625 
z
" id="DejaVuSans-114"/>
      <path d="M 45.40625 46.390625 
L 45.40625 75.984375 
L 54.390625 75.984375 
L 54.390625 0 
L 45.40625 0 
L 45.40625 8.203125 
Q 42.578125 3.328125 38.25 0.953125 
Q 33.9375 -1.421875 27.875 -1.421875 
Q 17.96875 -1.421875 11.734375 6.484375 
Q 5.515625 14.40625 5.515625 27.296875 
Q 5.515625 40.1875 11.734375 48.09375 
Q 17.96875 56 27.875 56 
Q 33.9375 56 38.25 53.625 
Q 42.578125 51.265625 45.40625 46.390625 
z
M 14.796875 27.296875 
Q 14.796875 17.390625 18.875 11.75 
Q 22.953125 6.109375 30.078125 6.109375 
Q 37.203125 6.109375 41.296875 11.75 
Q 45.40625 17.390625 45.40625 27.296875 
Q 45.40625 37.203125 41.296875 42.84375 
Q 37.203125 48.484375 30.078125 48.484375 
Q 22.953125 48.484375 18.875 42.84375 
Q 14.796875 37.203125 14.796875 27.296875 
z
" id="DejaVuSans-100"/>
      <path id="DejaVuSans-32"/>
      <path d="M 4.890625 31.390625 
L 31.203125 31.390625 
L 31.203125 23.390625 
L 4.890625 23.390625 
z
" id="DejaVuSans-45"/>
      <path d="M 54.890625 33.015625 
L 54.890625 0 
L 45.90625 0 
L 45.90625 32.71875 
Q 45.90625 40.484375 42.875 44.328125 
Q 39.84375 48.1875 33.796875 48.1875 
Q 26.515625 48.1875 22.3125 43.546875 
Q 18.109375 38.921875 18.109375 30.90625 
L 18.109375 0 
L 9.078125 0 
L 9.078125 54.6875 
L 18.109375 54.6875 
L 18.109375 46.1875 
Q 21.34375 51.125 25.703125 53.5625 
Q 30.078125 56 35.796875 56 
Q 45.21875 56 50.046875 50.171875 
Q 54.890625 44.34375 54.890625 33.015625 
z
" id="DejaVuSans-110"/>
      <path d="M 19.671875 64.796875 
L 19.671875 8.109375 
L 31.59375 8.109375 
Q 46.6875 8.109375 53.6875 14.9375 
Q 60.6875 21.78125 60.6875 36.53125 
Q 60.6875 51.171875 53.6875 57.984375 
Q 46.6875 64.796875 31.59375 64.796875 
z
M 9.8125 72.90625 
L 30.078125 72.90625 
Q 51.265625 72.90625 61.171875 64.09375 
Q 71.09375 55.28125 71.09375 36.53125 
Q 71.09375 17.671875 61.125 8.828125 
Q 51.171875 0 30.078125 0 
L 9.8125 0 
z
" id="DejaVuSans-68"/>
      <path d="M 9.421875 54.6875 
L 18.40625 54.6875 
L 18.40625 0 
L 9.421875 0 
z
M 9.421875 75.984375 
L 18.40625 75.984375 
L 18.40625 64.59375 
L 9.421875 64.59375 
z
" id="DejaVuSans-105"/>
      <path d="M 37.109375 75.984375 
L 37.109375 68.5 
L 28.515625 68.5 
Q 23.6875 68.5 21.796875 66.546875 
Q 19.921875 64.59375 19.921875 59.515625 
L 19.921875 54.6875 
L 34.71875 54.6875 
L 34.71875 47.703125 
L 19.921875 47.703125 
L 19.921875 0 
L 10.890625 0 
L 10.890625 47.703125 
L 2.296875 47.703125 
L 2.296875 54.6875 
L 10.890625 54.6875 
L 10.890625 58.5 
Q 10.890625 67.625 15.140625 71.796875 
Q 19.390625 75.984375 28.609375 75.984375 
z
" id="DejaVuSans-102"/>
      <path d="M 48.78125 52.59375 
L 48.78125 44.1875 
Q 44.96875 46.296875 41.140625 47.34375 
Q 37.3125 48.390625 33.40625 48.390625 
Q 24.65625 48.390625 19.8125 42.84375 
Q 14.984375 37.3125 14.984375 27.296875 
Q 14.984375 17.28125 19.8125 11.734375 
Q 24.65625 6.203125 33.40625 6.203125 
Q 37.3125 6.203125 41.140625 7.25 
Q 44.96875 8.296875 48.78125 10.40625 
L 48.78125 2.09375 
Q 45.015625 0.34375 40.984375 -0.53125 
Q 36.96875 -1.421875 32.421875 -1.421875 
Q 20.0625 -1.421875 12.78125 6.34375 
Q 5.515625 14.109375 5.515625 27.296875 
Q 5.515625 40.671875 12.859375 48.328125 
Q 20.21875 56 33.015625 56 
Q 37.15625 56 41.109375 55.140625 
Q 45.0625 54.296875 48.78125 52.59375 
z
" id="DejaVuSans-99"/>
      <path d="M 34.1875 63.1875 
L 20.796875 26.90625 
L 47.609375 26.90625 
z
M 28.609375 72.90625 
L 39.796875 72.90625 
L 67.578125 0 
L 57.328125 0 
L 50.6875 18.703125 
L 17.828125 18.703125 
L 11.1875 0 
L 0.78125 0 
z
" id="DejaVuSans-65"/>
      <path d="M 2.984375 54.6875 
L 12.5 54.6875 
L 29.59375 8.796875 
L 46.6875 54.6875 
L 56.203125 54.6875 
L 35.6875 0 
L 23.484375 0 
z
" id="DejaVuSans-118"/>
      <path d="M 45.40625 27.984375 
Q 45.40625 37.75 41.375 43.109375 
Q 37.359375 48.484375 30.078125 48.484375 
Q 22.859375 48.484375 18.828125 43.109375 
Q 14.796875 37.75 14.796875 27.984375 
Q 14.796875 18.265625 18.828125 12.890625 
Q 22.859375 7.515625 30.078125 7.515625 
Q 37.359375 7.515625 41.375 12.890625 
Q 45.40625 18.265625 45.40625 27.984375 
z
M 54.390625 6.78125 
Q 54.390625 -7.171875 48.1875 -13.984375 
Q 42 -20.796875 29.203125 -20.796875 
Q 24.46875 -20.796875 20.265625 -20.09375 
Q 16.0625 -19.390625 12.109375 -17.921875 
L 12.109375 -9.1875 
Q 16.0625 -11.328125 19.921875 -12.34375 
Q 23.78125 -13.375 27.78125 -13.375 
Q 36.625 -13.375 41.015625 -8.765625 
Q 45.40625 -4.15625 45.40625 5.171875 
L 45.40625 9.625 
Q 42.625 4.78125 38.28125 2.390625 
Q 33.9375 0 27.875 0 
Q 17.828125 0 11.671875 7.65625 
Q 5.515625 15.328125 5.515625 27.984375 
Q 5.515625 40.671875 11.671875 48.328125 
Q 17.828125 56 27.875 56 
Q 33.9375 56 38.28125 53.609375 
Q 42.625 51.21875 45.40625 46.390625 
L 45.40625 54.6875 
L 54.390625 54.6875 
z
" id="DejaVuSans-103"/>
      <path d="M 30.609375 48.390625 
Q 23.390625 48.390625 19.1875 42.75 
Q 14.984375 37.109375 14.984375 27.296875 
Q 14.984375 17.484375 19.15625 11.84375 
Q 23.34375 6.203125 30.609375 6.203125 
Q 37.796875 6.203125 41.984375 11.859375 
Q 46.1875 17.53125 46.1875 27.296875 
Q 46.1875 37.015625 41.984375 42.703125 
Q 37.796875 48.390625 30.609375 48.390625 
z
M 30.609375 56 
Q 42.328125 56 49.015625 48.375 
Q 55.71875 40.765625 55.71875 27.296875 
Q 55.71875 13.875 49.015625 6.21875 
Q 42.328125 -1.421875 30.609375 -1.421875 
Q 18.84375 -1.421875 12.171875 6.21875 
Q 5.515625 13.875 5.515625 27.296875 
Q 5.515625 40.765625 12.171875 48.375 
Q 18.84375 56 30.609375 56 
z
" id="DejaVuSans-111"/>
     </defs>
     <g transform="translate(14.798438 256.524906)rotate(-90)scale(0.1 -0.1)">
      <use xlink:href="#DejaVuSans-82"/>
      <use x="69.419922" xlink:href="#DejaVuSans-101"/>
      <use x="130.943359" xlink:href="#DejaVuSans-119"/>
      <use x="212.730469" xlink:href="#DejaVuSans-97"/>
      <use x="274.009766" xlink:href="#DejaVuSans-114"/>
      <use x="315.107422" xlink:href="#DejaVuSans-100"/>
      <use x="378.583984" xlink:href="#DejaVuSans-32"/>
      <use x="410.371094" xlink:href="#DejaVuSans-45"/>
      <use x="446.455078" xlink:href="#DejaVuSans-32"/>
      <use x="478.242188" xlink:href="#DejaVuSans-50"/>
      <use x="541.865234" xlink:href="#DejaVuSans-110"/>
      <use x="605.244141" xlink:href="#DejaVuSans-100"/>
      <use x="668.720703" xlink:href="#DejaVuSans-32"/>
      <use x="700.507812" xlink:href="#DejaVuSans-68"/>
      <use x="777.509766" xlink:href="#DejaVuSans-105"/>
      <use x="805.292969" xlink:href="#DejaVuSans-102"/>
      <use x="840.498047" xlink:href="#DejaVuSans-102"/>
      <use x="875.703125" xlink:href="#DejaVuSans-101"/>
      <use x="937.226562" xlink:href="#DejaVuSans-114"/>
      <use x="978.308594" xlink:href="#DejaVuSans-101"/>
      <use x="1039.832031" xlink:href="#DejaVuSans-110"/>
      <use x="1103.210938" xlink:href="#DejaVuSans-99"/>
      <use x="1158.191406" xlink:href="#DejaVuSans-101"/>
      <use x="1219.714844" xlink:href="#DejaVuSans-32"/>
      <use x="1251.501953" xlink:href="#DejaVuSans-45"/>
      <use x="1287.585938" xlink:href="#DejaVuSans-32"/>
      <use x="1319.373047" xlink:href="#DejaVuSans-65"/>
      <use x="1387.703125" xlink:href="#DejaVuSans-118"/>
      <use x="1446.882812" xlink:href="#DejaVuSans-101"/>
      <use x="1508.40625" xlink:href="#DejaVuSans-114"/>
      <use x="1549.519531" xlink:href="#DejaVuSans-97"/>
      <use x="1610.798828" xlink:href="#DejaVuSans-103"/>
      <use x="1674.275391" xlink:href="#DejaVuSans-101"/>
      <use x="1735.798828" xlink:href="#DejaVuSans-32"/>
      <use x="1767.585938" xlink:href="#DejaVuSans-111"/>
      <use x="1828.767578" xlink:href="#DejaVuSans-102"/>
      <use x="1863.972656" xlink:href="#DejaVuSans-32"/>
      <use x="1895.759766" xlink:href="#DejaVuSans-49"/>
      <use x="1959.382812" xlink:href="#DejaVuSans-48"/>
     </g>
    </g>
   </g>
   <g id="patch_301">
    <path d="M 55.345313 288.430125 
L 55.345313 22.318125 
" style="fill:none;stroke:#000000;stroke-linecap:square;stroke-linejoin:miter;stroke-width:0.8;"/>
   </g>
   <g id="patch_302">
    <path d="M 412.465313 288.430125 
L 412.465313 22.318125 
" style="fill:none;stroke:#000000;stroke-linecap:square;stroke-linejoin:miter;stroke-width:0.8;"/>
   </g>
   <g id="patch_303">
    <path d="M 55.345313 288.430125 
L 412.465312 288.430125 
" style="fill:none;stroke:#000000;stroke-linecap:square;stroke-linejoin:miter;stroke-width:0.8;"/>
   </g>
   <g id="patch_304">
    <path d="M 55.345313 22.318125 
L 412.465312 22.318125 
" style="fill:none;stroke:#000000;stroke-linecap:square;stroke-linejoin:miter;stroke-width:0.8;"/>
   </g>
   <g id="text_15">
    <!-- Assault - Atari -->
    <defs>
     <path d="M 44.28125 53.078125 
L 44.28125 44.578125 
Q 40.484375 46.53125 36.375 47.5 
Q 32.28125 48.484375 27.875 48.484375 
Q 21.1875 48.484375 17.84375 46.4375 
Q 14.5 44.390625 14.5 40.28125 
Q 14.5 37.15625 16.890625 35.375 
Q 19.28125 33.59375 26.515625 31.984375 
L 29.59375 31.296875 
Q 39.15625 29.25 43.1875 25.515625 
Q 47.21875 21.78125 47.21875 15.09375 
Q 47.21875 7.46875 41.1875 3.015625 
Q 35.15625 -1.421875 24.609375 -1.421875 
Q 20.21875 -1.421875 15.453125 -0.5625 
Q 10.6875 0.296875 5.421875 2 
L 5.421875 11.28125 
Q 10.40625 8.6875 15.234375 7.390625 
Q 20.0625 6.109375 24.8125 6.109375 
Q 31.15625 6.109375 34.5625 8.28125 
Q 37.984375 10.453125 37.984375 14.40625 
Q 37.984375 18.0625 35.515625 20.015625 
Q 33.0625 21.96875 24.703125 23.78125 
L 21.578125 24.515625 
Q 13.234375 26.265625 9.515625 29.90625 
Q 5.8125 33.546875 5.8125 39.890625 
Q 5.8125 47.609375 11.28125 51.796875 
Q 16.75 56 26.8125 56 
Q 31.78125 56 36.171875 55.265625 
Q 40.578125 54.546875 44.28125 53.078125 
z
" id="DejaVuSans-115"/>
     <path d="M 8.5 21.578125 
L 8.5 54.6875 
L 17.484375 54.6875 
L 17.484375 21.921875 
Q 17.484375 14.15625 20.5 10.265625 
Q 23.53125 6.390625 29.59375 6.390625 
Q 36.859375 6.390625 41.078125 11.03125 
Q 45.3125 15.671875 45.3125 23.6875 
L 45.3125 54.6875 
L 54.296875 54.6875 
L 54.296875 0 
L 45.3125 0 
L 45.3125 8.40625 
Q 42.046875 3.421875 37.71875 1 
Q 33.40625 -1.421875 27.6875 -1.421875 
Q 18.265625 -1.421875 13.375 4.4375 
Q 8.5 10.296875 8.5 21.578125 
z
M 31.109375 56 
z
" id="DejaVuSans-117"/>
     <path d="M 9.421875 75.984375 
L 18.40625 75.984375 
L 18.40625 0 
L 9.421875 0 
z
" id="DejaVuSans-108"/>
    </defs>
    <g transform="translate(191.806875 16.318125)scale(0.12 -0.12)">
     <use xlink:href="#DejaVuSans-65"/>
     <use x="68.408203" xlink:href="#DejaVuSans-115"/>
     <use x="120.507812" xlink:href="#DejaVuSans-115"/>
     <use x="172.607422" xlink:href="#DejaVuSans-97"/>
     <use x="233.886719" xlink:href="#DejaVuSans-117"/>
     <use x="297.265625" xlink:href="#DejaVuSans-108"/>
     <use x="325.048828" xlink:href="#DejaVuSans-116"/>
     <use x="364.257812" xlink:href="#DejaVuSans-32"/>
     <use x="396.044922" xlink:href="#DejaVuSans-45"/>
     <use x="432.128906" xlink:href="#DejaVuSans-32"/>
     <use x="463.916016" xlink:href="#DejaVuSans-65"/>
     <use x="532.308594" xlink:href="#DejaVuSans-116"/>
     <use x="571.517578" xlink:href="#DejaVuSans-97"/>
     <use x="632.796875" xlink:href="#DejaVuSans-114"/>
     <use x="673.910156" xlink:href="#DejaVuSans-105"/>
    </g>
   </g>
   <g id="legend_1">
    <g id="patch_305">
     <path d="M 297.102813 44.99625 
L 405.465313 44.99625 
Q 407.465313 44.99625 407.465313 42.99625 
L 407.465313 29.318125 
Q 407.465313 27.318125 405.465313 27.318125 
L 297.102813 27.318125 
Q 295.102813 27.318125 295.102813 29.318125 
L 295.102813 42.99625 
Q 295.102813 44.99625 297.102813 44.99625 
z
" style="fill:#ffffff;opacity:0.8;stroke:#cccccc;stroke-linejoin:miter;"/>
    </g>
    <g id="patch_306">
     <path d="M 299.102813 38.916562 
L 319.102813 38.916562 
L 319.102813 31.916562 
L 299.102813 31.916562 
z
" style="fill:#0000ff;opacity:0.5;"/>
    </g>
    <g id="text_16">
     <!-- Flushed Replay -->
     <defs>
      <path d="M 9.8125 72.90625 
L 51.703125 72.90625 
L 51.703125 64.59375 
L 19.671875 64.59375 
L 19.671875 43.109375 
L 48.578125 43.109375 
L 48.578125 34.8125 
L 19.671875 34.8125 
L 19.671875 0 
L 9.8125 0 
z
" id="DejaVuSans-70"/>
      <path d="M 54.890625 33.015625 
L 54.890625 0 
L 45.90625 0 
L 45.90625 32.71875 
Q 45.90625 40.484375 42.875 44.328125 
Q 39.84375 48.1875 33.796875 48.1875 
Q 26.515625 48.1875 22.3125 43.546875 
Q 18.109375 38.921875 18.109375 30.90625 
L 18.109375 0 
L 9.078125 0 
L 9.078125 75.984375 
L 18.109375 75.984375 
L 18.109375 46.1875 
Q 21.34375 51.125 25.703125 53.5625 
Q 30.078125 56 35.796875 56 
Q 45.21875 56 50.046875 50.171875 
Q 54.890625 44.34375 54.890625 33.015625 
z
" id="DejaVuSans-104"/>
      <path d="M 32.171875 -5.078125 
Q 28.375 -14.84375 24.75 -17.8125 
Q 21.140625 -20.796875 15.09375 -20.796875 
L 7.90625 -20.796875 
L 7.90625 -13.28125 
L 13.1875 -13.28125 
Q 16.890625 -13.28125 18.9375 -11.515625 
Q 21 -9.765625 23.484375 -3.21875 
L 25.09375 0.875 
L 2.984375 54.6875 
L 12.5 54.6875 
L 29.59375 11.921875 
L 46.6875 54.6875 
L 56.203125 54.6875 
z
" id="DejaVuSans-121"/>
     </defs>
     <g transform="translate(327.102813 38.916562)scale(0.1 -0.1)">
      <use xlink:href="#DejaVuSans-70"/>
      <use x="57.519531" xlink:href="#DejaVuSans-108"/>
      <use x="85.302734" xlink:href="#DejaVuSans-117"/>
      <use x="148.681641" xlink:href="#DejaVuSans-115"/>
      <use x="200.78125" xlink:href="#DejaVuSans-104"/>
      <use x="264.160156" xlink:href="#DejaVuSans-101"/>
      <use x="325.683594" xlink:href="#DejaVuSans-100"/>
      <use x="389.160156" xlink:href="#DejaVuSans-32"/>
      <use x="420.947266" xlink:href="#DejaVuSans-82"/>
      <use x="490.367188" xlink:href="#DejaVuSans-101"/>
      <use x="551.890625" xlink:href="#DejaVuSans-112"/>
      <use x="615.367188" xlink:href="#DejaVuSans-108"/>
      <use x="643.150391" xlink:href="#DejaVuSans-97"/>
      <use x="704.429688" xlink:href="#DejaVuSans-121"/>
     </g>
    </g>
   </g>
  </g>
 </g>
 <defs>
  <clipPath id="p67822e54b3">
   <rect height="266.112" width="357.12" x="55.345313" y="22.318125"/>
  </clipPath>
 </defs>
</svg>
