<?xml version="1.0" encoding="utf-8" standalone="no"?>
<!DOCTYPE svg PUBLIC "-//W3C//DTD SVG 1.1//EN"
  "http://www.w3.org/Graphics/SVG/1.1/DTD/svg11.dtd">
<!-- Created with matplotlib (https://matplotlib.org/) -->
<svg height="325.986375pt" version="1.1" viewBox="0 0 421.148125 325.986375" width="421.148125pt" xmlns="http://www.w3.org/2000/svg" xmlns:xlink="http://www.w3.org/1999/xlink">
 <defs>
  <style type="text/css">
*{stroke-linecap:butt;stroke-linejoin:round;}
  </style>
 </defs>
 <g id="figure_1">
  <g id="patch_1">
   <path d="M 0 325.986375 
L 421.148125 325.986375 
L 421.148125 0 
L 0 0 
z
" style="fill:#ffffff;"/>
  </g>
  <g id="axes_1">
   <g id="patch_2">
    <path d="M 53.328125 288.430125 
L 410.448125 288.430125 
L 410.448125 22.318125 
L 53.328125 22.318125 
z
" style="fill:#ffffff;"/>
   </g>
   <g id="matplotlib.axis_1">
    <g id="xtick_1">
     <g id="line2d_1">
      <defs>
       <path d="M 0 0 
L 0 3.5 
" id="m4cf3eff25a" style="stroke:#000000;stroke-width:0.8;"/>
      </defs>
      <g>
       <use style="stroke:#000000;stroke-width:0.8;" x="69.560852" xlink:href="#m4cf3eff25a" y="288.430125"/>
      </g>
     </g>
     <g id="text_1">
      <!-- 0 -->
      <defs>
       <path d="M 31.78125 66.40625 
Q 24.171875 66.40625 20.328125 58.90625 
Q 16.5 51.421875 16.5 36.375 
Q 16.5 21.390625 20.328125 13.890625 
Q 24.171875 6.390625 31.78125 6.390625 
Q 39.453125 6.390625 43.28125 13.890625 
Q 47.125 21.390625 47.125 36.375 
Q 47.125 51.421875 43.28125 58.90625 
Q 39.453125 66.40625 31.78125 66.40625 
z
M 31.78125 74.21875 
Q 44.046875 74.21875 50.515625 64.515625 
Q 56.984375 54.828125 56.984375 36.375 
Q 56.984375 17.96875 50.515625 8.265625 
Q 44.046875 -1.421875 31.78125 -1.421875 
Q 19.53125 -1.421875 13.0625 8.265625 
Q 6.59375 17.96875 6.59375 36.375 
Q 6.59375 54.828125 13.0625 64.515625 
Q 19.53125 74.21875 31.78125 74.21875 
z
" id="DejaVuSans-48"/>
      </defs>
      <g transform="translate(66.379602 303.028562)scale(0.1 -0.1)">
       <use xlink:href="#DejaVuSans-48"/>
      </g>
     </g>
    </g>
    <g id="xtick_2">
     <g id="line2d_2">
      <g>
       <use style="stroke:#000000;stroke-width:0.8;" x="123.687986" xlink:href="#m4cf3eff25a" y="288.430125"/>
      </g>
     </g>
     <g id="text_2">
      <!-- 500 -->
      <defs>
       <path d="M 10.796875 72.90625 
L 49.515625 72.90625 
L 49.515625 64.59375 
L 19.828125 64.59375 
L 19.828125 46.734375 
Q 21.96875 47.46875 24.109375 47.828125 
Q 26.265625 48.1875 28.421875 48.1875 
Q 40.625 48.1875 47.75 41.5 
Q 54.890625 34.8125 54.890625 23.390625 
Q 54.890625 11.625 47.5625 5.09375 
Q 40.234375 -1.421875 26.90625 -1.421875 
Q 22.3125 -1.421875 17.546875 -0.640625 
Q 12.796875 0.140625 7.71875 1.703125 
L 7.71875 11.625 
Q 12.109375 9.234375 16.796875 8.0625 
Q 21.484375 6.890625 26.703125 6.890625 
Q 35.15625 6.890625 40.078125 11.328125 
Q 45.015625 15.765625 45.015625 23.390625 
Q 45.015625 31 40.078125 35.4375 
Q 35.15625 39.890625 26.703125 39.890625 
Q 22.75 39.890625 18.8125 39.015625 
Q 14.890625 38.140625 10.796875 36.28125 
z
" id="DejaVuSans-53"/>
      </defs>
      <g transform="translate(114.144236 303.028562)scale(0.1 -0.1)">
       <use xlink:href="#DejaVuSans-53"/>
       <use x="63.623047" xlink:href="#DejaVuSans-48"/>
       <use x="127.246094" xlink:href="#DejaVuSans-48"/>
      </g>
     </g>
    </g>
    <g id="xtick_3">
     <g id="line2d_3">
      <g>
       <use style="stroke:#000000;stroke-width:0.8;" x="177.815119" xlink:href="#m4cf3eff25a" y="288.430125"/>
      </g>
     </g>
     <g id="text_3">
      <!-- 1000 -->
      <defs>
       <path d="M 12.40625 8.296875 
L 28.515625 8.296875 
L 28.515625 63.921875 
L 10.984375 60.40625 
L 10.984375 69.390625 
L 28.421875 72.90625 
L 38.28125 72.90625 
L 38.28125 8.296875 
L 54.390625 8.296875 
L 54.390625 0 
L 12.40625 0 
z
" id="DejaVuSans-49"/>
      </defs>
      <g transform="translate(165.090119 303.028562)scale(0.1 -0.1)">
       <use xlink:href="#DejaVuSans-49"/>
       <use x="63.623047" xlink:href="#DejaVuSans-48"/>
       <use x="127.246094" xlink:href="#DejaVuSans-48"/>
       <use x="190.869141" xlink:href="#DejaVuSans-48"/>
      </g>
     </g>
    </g>
    <g id="xtick_4">
     <g id="line2d_4">
      <g>
       <use style="stroke:#000000;stroke-width:0.8;" x="231.942252" xlink:href="#m4cf3eff25a" y="288.430125"/>
      </g>
     </g>
     <g id="text_4">
      <!-- 1500 -->
      <g transform="translate(219.217252 303.028562)scale(0.1 -0.1)">
       <use xlink:href="#DejaVuSans-49"/>
       <use x="63.623047" xlink:href="#DejaVuSans-53"/>
       <use x="127.246094" xlink:href="#DejaVuSans-48"/>
       <use x="190.869141" xlink:href="#DejaVuSans-48"/>
      </g>
     </g>
    </g>
    <g id="xtick_5">
     <g id="line2d_5">
      <g>
       <use style="stroke:#000000;stroke-width:0.8;" x="286.069385" xlink:href="#m4cf3eff25a" y="288.430125"/>
      </g>
     </g>
     <g id="text_5">
      <!-- 2000 -->
      <defs>
       <path d="M 19.1875 8.296875 
L 53.609375 8.296875 
L 53.609375 0 
L 7.328125 0 
L 7.328125 8.296875 
Q 12.9375 14.109375 22.625 23.890625 
Q 32.328125 33.6875 34.8125 36.53125 
Q 39.546875 41.84375 41.421875 45.53125 
Q 43.3125 49.21875 43.3125 52.78125 
Q 43.3125 58.59375 39.234375 62.25 
Q 35.15625 65.921875 28.609375 65.921875 
Q 23.96875 65.921875 18.8125 64.3125 
Q 13.671875 62.703125 7.8125 59.421875 
L 7.8125 69.390625 
Q 13.765625 71.78125 18.9375 73 
Q 24.125 74.21875 28.421875 74.21875 
Q 39.75 74.21875 46.484375 68.546875 
Q 53.21875 62.890625 53.21875 53.421875 
Q 53.21875 48.921875 51.53125 44.890625 
Q 49.859375 40.875 45.40625 35.40625 
Q 44.1875 33.984375 37.640625 27.21875 
Q 31.109375 20.453125 19.1875 8.296875 
z
" id="DejaVuSans-50"/>
      </defs>
      <g transform="translate(273.344385 303.028562)scale(0.1 -0.1)">
       <use xlink:href="#DejaVuSans-50"/>
       <use x="63.623047" xlink:href="#DejaVuSans-48"/>
       <use x="127.246094" xlink:href="#DejaVuSans-48"/>
       <use x="190.869141" xlink:href="#DejaVuSans-48"/>
      </g>
     </g>
    </g>
    <g id="xtick_6">
     <g id="line2d_6">
      <g>
       <use style="stroke:#000000;stroke-width:0.8;" x="340.196519" xlink:href="#m4cf3eff25a" y="288.430125"/>
      </g>
     </g>
     <g id="text_6">
      <!-- 2500 -->
      <g transform="translate(327.471519 303.028562)scale(0.1 -0.1)">
       <use xlink:href="#DejaVuSans-50"/>
       <use x="63.623047" xlink:href="#DejaVuSans-53"/>
       <use x="127.246094" xlink:href="#DejaVuSans-48"/>
       <use x="190.869141" xlink:href="#DejaVuSans-48"/>
      </g>
     </g>
    </g>
    <g id="xtick_7">
     <g id="line2d_7">
      <g>
       <use style="stroke:#000000;stroke-width:0.8;" x="394.323652" xlink:href="#m4cf3eff25a" y="288.430125"/>
      </g>
     </g>
     <g id="text_7">
      <!-- 3000 -->
      <defs>
       <path d="M 40.578125 39.3125 
Q 47.65625 37.796875 51.625 33 
Q 55.609375 28.21875 55.609375 21.1875 
Q 55.609375 10.40625 48.1875 4.484375 
Q 40.765625 -1.421875 27.09375 -1.421875 
Q 22.515625 -1.421875 17.65625 -0.515625 
Q 12.796875 0.390625 7.625 2.203125 
L 7.625 11.71875 
Q 11.71875 9.328125 16.59375 8.109375 
Q 21.484375 6.890625 26.8125 6.890625 
Q 36.078125 6.890625 40.9375 10.546875 
Q 45.796875 14.203125 45.796875 21.1875 
Q 45.796875 27.640625 41.28125 31.265625 
Q 36.765625 34.90625 28.71875 34.90625 
L 20.21875 34.90625 
L 20.21875 43.015625 
L 29.109375 43.015625 
Q 36.375 43.015625 40.234375 45.921875 
Q 44.09375 48.828125 44.09375 54.296875 
Q 44.09375 59.90625 40.109375 62.90625 
Q 36.140625 65.921875 28.71875 65.921875 
Q 24.65625 65.921875 20.015625 65.03125 
Q 15.375 64.15625 9.8125 62.3125 
L 9.8125 71.09375 
Q 15.4375 72.65625 20.34375 73.4375 
Q 25.25 74.21875 29.59375 74.21875 
Q 40.828125 74.21875 47.359375 69.109375 
Q 53.90625 64.015625 53.90625 55.328125 
Q 53.90625 49.265625 50.4375 45.09375 
Q 46.96875 40.921875 40.578125 39.3125 
z
" id="DejaVuSans-51"/>
      </defs>
      <g transform="translate(381.598652 303.028562)scale(0.1 -0.1)">
       <use xlink:href="#DejaVuSans-51"/>
       <use x="63.623047" xlink:href="#DejaVuSans-48"/>
       <use x="127.246094" xlink:href="#DejaVuSans-48"/>
       <use x="190.869141" xlink:href="#DejaVuSans-48"/>
      </g>
     </g>
    </g>
    <g id="text_8">
     <!-- Step -->
     <defs>
      <path d="M 53.515625 70.515625 
L 53.515625 60.890625 
Q 47.90625 63.578125 42.921875 64.890625 
Q 37.9375 66.21875 33.296875 66.21875 
Q 25.25 66.21875 20.875 63.09375 
Q 16.5 59.96875 16.5 54.203125 
Q 16.5 49.359375 19.40625 46.890625 
Q 22.3125 44.4375 30.421875 42.921875 
L 36.375 41.703125 
Q 47.40625 39.59375 52.65625 34.296875 
Q 57.90625 29 57.90625 20.125 
Q 57.90625 9.515625 50.796875 4.046875 
Q 43.703125 -1.421875 29.984375 -1.421875 
Q 24.8125 -1.421875 18.96875 -0.25 
Q 13.140625 0.921875 6.890625 3.21875 
L 6.890625 13.375 
Q 12.890625 10.015625 18.65625 8.296875 
Q 24.421875 6.59375 29.984375 6.59375 
Q 38.421875 6.59375 43.015625 9.90625 
Q 47.609375 13.234375 47.609375 19.390625 
Q 47.609375 24.75 44.3125 27.78125 
Q 41.015625 30.8125 33.5 32.328125 
L 27.484375 33.5 
Q 16.453125 35.6875 11.515625 40.375 
Q 6.59375 45.0625 6.59375 53.421875 
Q 6.59375 63.09375 13.40625 68.65625 
Q 20.21875 74.21875 32.171875 74.21875 
Q 37.3125 74.21875 42.625 73.28125 
Q 47.953125 72.359375 53.515625 70.515625 
z
" id="DejaVuSans-83"/>
      <path d="M 18.3125 70.21875 
L 18.3125 54.6875 
L 36.8125 54.6875 
L 36.8125 47.703125 
L 18.3125 47.703125 
L 18.3125 18.015625 
Q 18.3125 11.328125 20.140625 9.421875 
Q 21.96875 7.515625 27.59375 7.515625 
L 36.8125 7.515625 
L 36.8125 0 
L 27.59375 0 
Q 17.1875 0 13.234375 3.875 
Q 9.28125 7.765625 9.28125 18.015625 
L 9.28125 47.703125 
L 2.6875 47.703125 
L 2.6875 54.6875 
L 9.28125 54.6875 
L 9.28125 70.21875 
z
" id="DejaVuSans-116"/>
      <path d="M 56.203125 29.59375 
L 56.203125 25.203125 
L 14.890625 25.203125 
Q 15.484375 15.921875 20.484375 11.0625 
Q 25.484375 6.203125 34.421875 6.203125 
Q 39.59375 6.203125 44.453125 7.46875 
Q 49.3125 8.734375 54.109375 11.28125 
L 54.109375 2.78125 
Q 49.265625 0.734375 44.1875 -0.34375 
Q 39.109375 -1.421875 33.890625 -1.421875 
Q 20.796875 -1.421875 13.15625 6.1875 
Q 5.515625 13.8125 5.515625 26.8125 
Q 5.515625 40.234375 12.765625 48.109375 
Q 20.015625 56 32.328125 56 
Q 43.359375 56 49.78125 48.890625 
Q 56.203125 41.796875 56.203125 29.59375 
z
M 47.21875 32.234375 
Q 47.125 39.59375 43.09375 43.984375 
Q 39.0625 48.390625 32.421875 48.390625 
Q 24.90625 48.390625 20.390625 44.140625 
Q 15.875 39.890625 15.1875 32.171875 
z
" id="DejaVuSans-101"/>
      <path d="M 18.109375 8.203125 
L 18.109375 -20.796875 
L 9.078125 -20.796875 
L 9.078125 54.6875 
L 18.109375 54.6875 
L 18.109375 46.390625 
Q 20.953125 51.265625 25.265625 53.625 
Q 29.59375 56 35.59375 56 
Q 45.5625 56 51.78125 48.09375 
Q 58.015625 40.1875 58.015625 27.296875 
Q 58.015625 14.40625 51.78125 6.484375 
Q 45.5625 -1.421875 35.59375 -1.421875 
Q 29.59375 -1.421875 25.265625 0.953125 
Q 20.953125 3.328125 18.109375 8.203125 
z
M 48.6875 27.296875 
Q 48.6875 37.203125 44.609375 42.84375 
Q 40.53125 48.484375 33.40625 48.484375 
Q 26.265625 48.484375 22.1875 42.84375 
Q 18.109375 37.203125 18.109375 27.296875 
Q 18.109375 17.390625 22.1875 11.75 
Q 26.265625 6.109375 33.40625 6.109375 
Q 40.53125 6.109375 44.609375 11.75 
Q 48.6875 17.390625 48.6875 27.296875 
z
" id="DejaVuSans-112"/>
     </defs>
     <g transform="translate(220.502969 316.706687)scale(0.1 -0.1)">
      <use xlink:href="#DejaVuSans-83"/>
      <use x="63.476562" xlink:href="#DejaVuSans-116"/>
      <use x="102.685547" xlink:href="#DejaVuSans-101"/>
      <use x="164.208984" xlink:href="#DejaVuSans-112"/>
     </g>
    </g>
   </g>
   <g id="matplotlib.axis_2">
    <g id="ytick_1">
     <g id="line2d_8">
      <defs>
       <path d="M 0 0 
L -3.5 0 
" id="mf0899f344a" style="stroke:#000000;stroke-width:0.8;"/>
      </defs>
      <g>
       <use style="stroke:#000000;stroke-width:0.8;" x="53.328125" xlink:href="#mf0899f344a" y="288.430125"/>
      </g>
     </g>
     <g id="text_9">
      <!-- 0 -->
      <g transform="translate(39.965625 292.229344)scale(0.1 -0.1)">
       <use xlink:href="#DejaVuSans-48"/>
      </g>
     </g>
    </g>
    <g id="ytick_2">
     <g id="line2d_9">
      <g>
       <use style="stroke:#000000;stroke-width:0.8;" x="53.328125" xlink:href="#mf0899f344a" y="235.207725"/>
      </g>
     </g>
     <g id="text_10">
      <!-- 1000 -->
      <g transform="translate(20.878125 239.006944)scale(0.1 -0.1)">
       <use xlink:href="#DejaVuSans-49"/>
       <use x="63.623047" xlink:href="#DejaVuSans-48"/>
       <use x="127.246094" xlink:href="#DejaVuSans-48"/>
       <use x="190.869141" xlink:href="#DejaVuSans-48"/>
      </g>
     </g>
    </g>
    <g id="ytick_3">
     <g id="line2d_10">
      <g>
       <use style="stroke:#000000;stroke-width:0.8;" x="53.328125" xlink:href="#mf0899f344a" y="181.985325"/>
      </g>
     </g>
     <g id="text_11">
      <!-- 2000 -->
      <g transform="translate(20.878125 185.784544)scale(0.1 -0.1)">
       <use xlink:href="#DejaVuSans-50"/>
       <use x="63.623047" xlink:href="#DejaVuSans-48"/>
       <use x="127.246094" xlink:href="#DejaVuSans-48"/>
       <use x="190.869141" xlink:href="#DejaVuSans-48"/>
      </g>
     </g>
    </g>
    <g id="ytick_4">
     <g id="line2d_11">
      <g>
       <use style="stroke:#000000;stroke-width:0.8;" x="53.328125" xlink:href="#mf0899f344a" y="128.762925"/>
      </g>
     </g>
     <g id="text_12">
      <!-- 3000 -->
      <g transform="translate(20.878125 132.562144)scale(0.1 -0.1)">
       <use xlink:href="#DejaVuSans-51"/>
       <use x="63.623047" xlink:href="#DejaVuSans-48"/>
       <use x="127.246094" xlink:href="#DejaVuSans-48"/>
       <use x="190.869141" xlink:href="#DejaVuSans-48"/>
      </g>
     </g>
    </g>
    <g id="ytick_5">
     <g id="line2d_12">
      <g>
       <use style="stroke:#000000;stroke-width:0.8;" x="53.328125" xlink:href="#mf0899f344a" y="75.540525"/>
      </g>
     </g>
     <g id="text_13">
      <!-- 4000 -->
      <defs>
       <path d="M 37.796875 64.3125 
L 12.890625 25.390625 
L 37.796875 25.390625 
z
M 35.203125 72.90625 
L 47.609375 72.90625 
L 47.609375 25.390625 
L 58.015625 25.390625 
L 58.015625 17.1875 
L 47.609375 17.1875 
L 47.609375 0 
L 37.796875 0 
L 37.796875 17.1875 
L 4.890625 17.1875 
L 4.890625 26.703125 
z
" id="DejaVuSans-52"/>
      </defs>
      <g transform="translate(20.878125 79.339744)scale(0.1 -0.1)">
       <use xlink:href="#DejaVuSans-52"/>
       <use x="63.623047" xlink:href="#DejaVuSans-48"/>
       <use x="127.246094" xlink:href="#DejaVuSans-48"/>
       <use x="190.869141" xlink:href="#DejaVuSans-48"/>
      </g>
     </g>
    </g>
    <g id="ytick_6">
     <g id="line2d_13">
      <g>
       <use style="stroke:#000000;stroke-width:0.8;" x="53.328125" xlink:href="#mf0899f344a" y="22.318125"/>
      </g>
     </g>
     <g id="text_14">
      <!-- 5000 -->
      <g transform="translate(20.878125 26.117344)scale(0.1 -0.1)">
       <use xlink:href="#DejaVuSans-53"/>
       <use x="63.623047" xlink:href="#DejaVuSans-48"/>
       <use x="127.246094" xlink:href="#DejaVuSans-48"/>
       <use x="190.869141" xlink:href="#DejaVuSans-48"/>
      </g>
     </g>
    </g>
    <g id="text_15">
     <!-- Reward - Average of 100 -->
     <defs>
      <path d="M 44.390625 34.1875 
Q 47.5625 33.109375 50.5625 29.59375 
Q 53.5625 26.078125 56.59375 19.921875 
L 66.609375 0 
L 56 0 
L 46.6875 18.703125 
Q 43.0625 26.03125 39.671875 28.421875 
Q 36.28125 30.8125 30.421875 30.8125 
L 19.671875 30.8125 
L 19.671875 0 
L 9.8125 0 
L 9.8125 72.90625 
L 32.078125 72.90625 
Q 44.578125 72.90625 50.734375 67.671875 
Q 56.890625 62.453125 56.890625 51.90625 
Q 56.890625 45.015625 53.6875 40.46875 
Q 50.484375 35.9375 44.390625 34.1875 
z
M 19.671875 64.796875 
L 19.671875 38.921875 
L 32.078125 38.921875 
Q 39.203125 38.921875 42.84375 42.21875 
Q 46.484375 45.515625 46.484375 51.90625 
Q 46.484375 58.296875 42.84375 61.546875 
Q 39.203125 64.796875 32.078125 64.796875 
z
" id="DejaVuSans-82"/>
      <path d="M 4.203125 54.6875 
L 13.1875 54.6875 
L 24.421875 12.015625 
L 35.59375 54.6875 
L 46.1875 54.6875 
L 57.421875 12.015625 
L 68.609375 54.6875 
L 77.59375 54.6875 
L 63.28125 0 
L 52.6875 0 
L 40.921875 44.828125 
L 29.109375 0 
L 18.5 0 
z
" id="DejaVuSans-119"/>
      <path d="M 34.28125 27.484375 
Q 23.390625 27.484375 19.1875 25 
Q 14.984375 22.515625 14.984375 16.5 
Q 14.984375 11.71875 18.140625 8.90625 
Q 21.296875 6.109375 26.703125 6.109375 
Q 34.1875 6.109375 38.703125 11.40625 
Q 43.21875 16.703125 43.21875 25.484375 
L 43.21875 27.484375 
z
M 52.203125 31.203125 
L 52.203125 0 
L 43.21875 0 
L 43.21875 8.296875 
Q 40.140625 3.328125 35.546875 0.953125 
Q 30.953125 -1.421875 24.3125 -1.421875 
Q 15.921875 -1.421875 10.953125 3.296875 
Q 6 8.015625 6 15.921875 
Q 6 25.140625 12.171875 29.828125 
Q 18.359375 34.515625 30.609375 34.515625 
L 43.21875 34.515625 
L 43.21875 35.40625 
Q 43.21875 41.609375 39.140625 45 
Q 35.0625 48.390625 27.6875 48.390625 
Q 23 48.390625 18.546875 47.265625 
Q 14.109375 46.140625 10.015625 43.890625 
L 10.015625 52.203125 
Q 14.9375 54.109375 19.578125 55.046875 
Q 24.21875 56 28.609375 56 
Q 40.484375 56 46.34375 49.84375 
Q 52.203125 43.703125 52.203125 31.203125 
z
" id="DejaVuSans-97"/>
      <path d="M 41.109375 46.296875 
Q 39.59375 47.171875 37.8125 47.578125 
Q 36.03125 48 33.890625 48 
Q 26.265625 48 22.1875 43.046875 
Q 18.109375 38.09375 18.109375 28.8125 
L 18.109375 0 
L 9.078125 0 
L 9.078125 54.6875 
L 18.109375 54.6875 
L 18.109375 46.1875 
Q 20.953125 51.171875 25.484375 53.578125 
Q 30.03125 56 36.53125 56 
Q 37.453125 56 38.578125 55.875 
Q 39.703125 55.765625 41.0625 55.515625 
z
" id="DejaVuSans-114"/>
      <path d="M 45.40625 46.390625 
L 45.40625 75.984375 
L 54.390625 75.984375 
L 54.390625 0 
L 45.40625 0 
L 45.40625 8.203125 
Q 42.578125 3.328125 38.25 0.953125 
Q 33.9375 -1.421875 27.875 -1.421875 
Q 17.96875 -1.421875 11.734375 6.484375 
Q 5.515625 14.40625 5.515625 27.296875 
Q 5.515625 40.1875 11.734375 48.09375 
Q 17.96875 56 27.875 56 
Q 33.9375 56 38.25 53.625 
Q 42.578125 51.265625 45.40625 46.390625 
z
M 14.796875 27.296875 
Q 14.796875 17.390625 18.875 11.75 
Q 22.953125 6.109375 30.078125 6.109375 
Q 37.203125 6.109375 41.296875 11.75 
Q 45.40625 17.390625 45.40625 27.296875 
Q 45.40625 37.203125 41.296875 42.84375 
Q 37.203125 48.484375 30.078125 48.484375 
Q 22.953125 48.484375 18.875 42.84375 
Q 14.796875 37.203125 14.796875 27.296875 
z
" id="DejaVuSans-100"/>
      <path id="DejaVuSans-32"/>
      <path d="M 4.890625 31.390625 
L 31.203125 31.390625 
L 31.203125 23.390625 
L 4.890625 23.390625 
z
" id="DejaVuSans-45"/>
      <path d="M 34.1875 63.1875 
L 20.796875 26.90625 
L 47.609375 26.90625 
z
M 28.609375 72.90625 
L 39.796875 72.90625 
L 67.578125 0 
L 57.328125 0 
L 50.6875 18.703125 
L 17.828125 18.703125 
L 11.1875 0 
L 0.78125 0 
z
" id="DejaVuSans-65"/>
      <path d="M 2.984375 54.6875 
L 12.5 54.6875 
L 29.59375 8.796875 
L 46.6875 54.6875 
L 56.203125 54.6875 
L 35.6875 0 
L 23.484375 0 
z
" id="DejaVuSans-118"/>
      <path d="M 45.40625 27.984375 
Q 45.40625 37.75 41.375 43.109375 
Q 37.359375 48.484375 30.078125 48.484375 
Q 22.859375 48.484375 18.828125 43.109375 
Q 14.796875 37.75 14.796875 27.984375 
Q 14.796875 18.265625 18.828125 12.890625 
Q 22.859375 7.515625 30.078125 7.515625 
Q 37.359375 7.515625 41.375 12.890625 
Q 45.40625 18.265625 45.40625 27.984375 
z
M 54.390625 6.78125 
Q 54.390625 -7.171875 48.1875 -13.984375 
Q 42 -20.796875 29.203125 -20.796875 
Q 24.46875 -20.796875 20.265625 -20.09375 
Q 16.0625 -19.390625 12.109375 -17.921875 
L 12.109375 -9.1875 
Q 16.0625 -11.328125 19.921875 -12.34375 
Q 23.78125 -13.375 27.78125 -13.375 
Q 36.625 -13.375 41.015625 -8.765625 
Q 45.40625 -4.15625 45.40625 5.171875 
L 45.40625 9.625 
Q 42.625 4.78125 38.28125 2.390625 
Q 33.9375 0 27.875 0 
Q 17.828125 0 11.671875 7.65625 
Q 5.515625 15.328125 5.515625 27.984375 
Q 5.515625 40.671875 11.671875 48.328125 
Q 17.828125 56 27.875 56 
Q 33.9375 56 38.28125 53.609375 
Q 42.625 51.21875 45.40625 46.390625 
L 45.40625 54.6875 
L 54.390625 54.6875 
z
" id="DejaVuSans-103"/>
      <path d="M 30.609375 48.390625 
Q 23.390625 48.390625 19.1875 42.75 
Q 14.984375 37.109375 14.984375 27.296875 
Q 14.984375 17.484375 19.15625 11.84375 
Q 23.34375 6.203125 30.609375 6.203125 
Q 37.796875 6.203125 41.984375 11.859375 
Q 46.1875 17.53125 46.1875 27.296875 
Q 46.1875 37.015625 41.984375 42.703125 
Q 37.796875 48.390625 30.609375 48.390625 
z
M 30.609375 56 
Q 42.328125 56 49.015625 48.375 
Q 55.71875 40.765625 55.71875 27.296875 
Q 55.71875 13.875 49.015625 6.21875 
Q 42.328125 -1.421875 30.609375 -1.421875 
Q 18.84375 -1.421875 12.171875 6.21875 
Q 5.515625 13.875 5.515625 27.296875 
Q 5.515625 40.765625 12.171875 48.375 
Q 18.84375 56 30.609375 56 
z
" id="DejaVuSans-111"/>
      <path d="M 37.109375 75.984375 
L 37.109375 68.5 
L 28.515625 68.5 
Q 23.6875 68.5 21.796875 66.546875 
Q 19.921875 64.59375 19.921875 59.515625 
L 19.921875 54.6875 
L 34.71875 54.6875 
L 34.71875 47.703125 
L 19.921875 47.703125 
L 19.921875 0 
L 10.890625 0 
L 10.890625 47.703125 
L 2.296875 47.703125 
L 2.296875 54.6875 
L 10.890625 54.6875 
L 10.890625 58.5 
Q 10.890625 67.625 15.140625 71.796875 
Q 19.390625 75.984375 28.609375 75.984375 
z
" id="DejaVuSans-102"/>
     </defs>
     <g transform="translate(14.798438 217.649906)rotate(-90)scale(0.1 -0.1)">
      <use xlink:href="#DejaVuSans-82"/>
      <use x="69.419922" xlink:href="#DejaVuSans-101"/>
      <use x="130.943359" xlink:href="#DejaVuSans-119"/>
      <use x="212.730469" xlink:href="#DejaVuSans-97"/>
      <use x="274.009766" xlink:href="#DejaVuSans-114"/>
      <use x="315.107422" xlink:href="#DejaVuSans-100"/>
      <use x="378.583984" xlink:href="#DejaVuSans-32"/>
      <use x="410.371094" xlink:href="#DejaVuSans-45"/>
      <use x="446.455078" xlink:href="#DejaVuSans-32"/>
      <use x="478.242188" xlink:href="#DejaVuSans-65"/>
      <use x="546.572266" xlink:href="#DejaVuSans-118"/>
      <use x="605.751953" xlink:href="#DejaVuSans-101"/>
      <use x="667.275391" xlink:href="#DejaVuSans-114"/>
      <use x="708.388672" xlink:href="#DejaVuSans-97"/>
      <use x="769.667969" xlink:href="#DejaVuSans-103"/>
      <use x="833.144531" xlink:href="#DejaVuSans-101"/>
      <use x="894.667969" xlink:href="#DejaVuSans-32"/>
      <use x="926.455078" xlink:href="#DejaVuSans-111"/>
      <use x="987.636719" xlink:href="#DejaVuSans-102"/>
      <use x="1022.841797" xlink:href="#DejaVuSans-32"/>
      <use x="1054.628906" xlink:href="#DejaVuSans-49"/>
      <use x="1118.251953" xlink:href="#DejaVuSans-48"/>
      <use x="1181.875" xlink:href="#DejaVuSans-48"/>
     </g>
    </g>
   </g>
   <g id="line2d_14">
    <path clip-path="url(#pcd868af64e)" d="M 69.560852 249.098771 
L 69.885615 249.092917 
L 70.210378 250.003552 
L 70.535141 249.532002 
L 70.859903 250.36919 
L 70.968158 250.636367 
L 71.184666 250.037082 
L 71.401175 250.593789 
L 71.834192 251.58 
L 71.942446 251.746054 
L 72.0507 252.282535 
L 72.267209 251.921687 
L 72.591972 251.548598 
L 72.80848 252.010037 
L 73.024989 252.002586 
L 73.133243 251.162204 
L 73.349752 251.425123 
L 73.56626 251.504956 
L 73.674514 251.258004 
L 73.891023 251.831742 
L 74.107531 252.897254 
L 74.215786 252.162253 
L 74.32404 252.276149 
L 74.648803 252.069114 
L 74.757057 252.276681 
L 74.865311 252.869046 
L 75.190074 252.609321 
L 75.514837 253.115466 
L 75.731345 252.538535 
L 75.8396 252.536938 
L 75.947854 252.853612 
L 76.164363 252.151608 
L 76.380871 252.065388 
L 76.489125 251.934461 
L 76.59738 251.570952 
L 76.705634 251.607675 
L 76.813888 251.786503 
L 77.030397 251.171784 
L 77.138651 251.230861 
L 77.246905 250.720458 
L 77.571668 251.156882 
L 77.788177 250.752924 
L 77.896431 250.947185 
L 78.221194 250.111594 
L 78.329448 250.243585 
L 78.654211 250.819984 
L 78.762465 251.192541 
L 79.303736 250.270196 
L 79.411991 250.468716 
L 80.386279 248.48831 
L 80.494533 248.535678 
L 80.711042 248.369092 
L 80.819296 248.526631 
L 81.144059 247.599496 
L 81.252313 247.484004 
L 81.468822 246.82511 
L 81.577076 245.96344 
L 81.68533 246.038483 
L 81.793584 245.795257 
L 82.010093 246.290758 
L 82.118347 246.330674 
L 82.226601 246.22423 
L 82.334856 246.314708 
L 82.551364 245.775033 
L 82.659619 245.20715 
L 82.767873 245.4227 
L 82.984381 245.105495 
L 83.092636 245.162443 
L 83.20089 245.036306 
L 83.417398 245.260372 
L 83.850415 244.392315 
L 83.95867 244.773387 
L 84.175178 244.383267 
L 84.391687 244.411475 
L 84.608195 243.609413 
L 84.824704 242.731776 
L 84.932958 242.83343 
L 85.041212 243.647733 
L 85.149467 243.625912 
L 85.257721 243.640282 
L 85.365975 243.333721 
L 85.474229 243.506694 
L 85.690738 242.827576 
L 85.907247 242.728582 
L 86.123755 242.949988 
L 86.556772 242.349639 
L 86.881535 241.960583 
L 87.422806 243.377896 
L 87.531061 243.325738 
L 87.639315 242.989904 
L 87.747569 243.599301 
L 87.964078 242.75679 
L 88.072332 243.363526 
L 88.28884 242.591269 
L 88.397095 242.428408 
L 88.505349 242.559335 
L 88.721857 242.194762 
L 89.04662 242.726986 
L 89.154875 242.482163 
L 89.371383 240.856218 
L 89.587892 240.417666 
L 89.696146 240.419262 
L 90.020909 240.67952 
L 90.237417 240.512934 
L 90.453926 240.353267 
L 90.670434 240.592235 
L 90.778689 240.281416 
L 90.886943 240.343687 
L 91.103451 239.471371 
L 91.211706 239.531513 
L 91.31996 239.580477 
L 91.536468 239.921633 
L 91.644723 239.020046 
L 91.752977 239.056237 
L 91.861231 238.933825 
L 92.185994 240.161134 
L 92.294248 240.227662 
L 92.402503 240.955744 
L 92.727265 240.455454 
L 92.83552 240.500693 
L 92.943774 240.38041 
L 93.052028 240.474614 
L 93.376791 239.933874 
L 93.485045 240.35646 
L 93.593299 239.963679 
L 93.701554 240.024884 
L 93.809808 240.512402 
L 94.134571 240.199454 
L 94.242825 240.015304 
L 94.567588 240.767337 
L 94.784096 240.723162 
L 94.892351 240.839187 
L 95.325368 239.493193 
L 95.650131 240.49058 
L 95.758385 240.566156 
L 96.083148 239.205792 
L 96.191402 239.587396 
L 96.299656 239.234 
L 96.40791 239.708211 
L 96.516165 239.324478 
L 96.624419 239.379297 
L 97.16569 238.838557 
L 97.382199 238.072155 
L 97.490453 238.199888 
L 97.598707 237.924729 
L 97.706962 238.373926 
L 97.815216 238.246724 
L 98.031724 237.101378 
L 98.139979 237.158858 
L 98.248233 236.815041 
L 98.572996 236.974709 
L 98.789504 237.820945 
L 98.897759 237.743772 
L 99.114267 238.220113 
L 99.222521 238.50911 
L 99.330776 238.211597 
L 99.547284 238.646956 
L 99.763793 238.597992 
L 99.980301 238.753401 
L 100.088555 240.031271 
L 100.305064 239.256353 
L 100.413318 239.257417 
L 100.629827 239.417617 
L 100.738081 239.214839 
L 100.846335 239.623055 
L 100.95459 239.520868 
L 101.062844 239.573558 
L 101.171098 239.383555 
L 101.387607 238.656537 
L 101.495861 238.825784 
L 101.712369 237.93697 
L 101.928878 238.818865 
L 102.037132 238.721468 
L 102.253641 237.465419 
L 102.361895 237.649569 
L 102.578404 238.430341 
L 102.794912 238.718275 
L 103.011421 237.301494 
L 103.336183 237.131715 
L 103.552692 236.714451 
L 104.202218 237.311074 
L 104.310472 237.131715 
L 104.418726 237.33875 
L 104.635235 236.629295 
L 104.851743 236.608006 
L 104.959997 236.977902 
L 105.176506 235.657987 
L 105.393015 234.761721 
L 105.717777 234.662728 
L 105.826032 235.369521 
L 106.04254 234.587152 
L 106.150794 235.427001 
L 106.259049 235.16355 
L 106.475557 234.439726 
L 106.583811 234.088458 
L 106.80032 234.699983 
L 107.016829 233.491835 
L 107.125083 233.616375 
L 107.233337 232.985158 
L 107.341591 233.28001 
L 107.666354 231.074473 
L 107.774608 231.371987 
L 107.882863 231.081392 
L 107.991117 230.144146 
L 108.207625 231.700901 
L 108.424134 230.773235 
L 108.640643 230.010558 
L 108.748897 230.742898 
L 108.857151 230.694998 
L 108.965405 229.999913 
L 109.181914 230.440062 
L 109.506677 230.195239 
L 109.614931 230.148404 
L 109.723185 229.805119 
L 109.939694 229.980753 
L 110.047948 228.470834 
L 110.156202 228.61826 
L 110.372711 228.215366 
L 110.480965 228.227607 
L 110.805728 227.386693 
L 110.913982 226.664465 
L 111.130491 227.298344 
L 111.238745 226.312133 
L 111.455253 226.402611 
L 111.671762 225.742121 
L 111.780016 225.890079 
L 111.888271 225.798005 
L 112.104779 226.14874 
L 112.321288 225.449398 
L 112.429542 226.221123 
L 112.64605 225.886354 
L 112.862559 224.581341 
L 113.079067 224.830421 
L 113.187322 224.538763 
L 113.40383 224.582937 
L 113.620339 223.714348 
L 113.836847 225.116758 
L 113.945102 225.297182 
L 114.16161 224.560052 
L 114.378119 225.200849 
L 114.811136 223.93735 
L 114.91939 223.973009 
L 115.244153 222.500345 
L 115.352407 222.764328 
L 115.460661 222.15227 
L 115.568916 222.188462 
L 115.67717 222.028262 
L 115.785424 221.595032 
L 115.893678 222.782956 
L 116.001933 222.718557 
L 116.218441 223.394481 
L 116.543204 223.746813 
L 116.651458 223.505716 
L 116.867967 224.267328 
L 116.976221 224.032085 
L 117.084475 224.179511 
L 117.19273 224.656916 
L 117.409238 224.229541 
L 117.517492 224.2008 
L 118.058764 225.837389 
L 118.167018 225.885289 
L 118.383526 227.460672 
L 118.600035 226.263701 
L 118.816544 227.33081 
L 119.141306 225.978961 
L 119.466069 226.95027 
L 119.574323 227.035958 
L 119.682578 226.396224 
L 119.899086 227.243525 
L 120.115595 226.498944 
L 120.332103 226.141821 
L 120.440358 226.217929 
L 120.76512 225.330712 
L 120.873375 226.439335 
L 120.981629 226.178013 
L 121.198137 226.388241 
L 121.5229 224.262538 
L 121.631154 224.36579 
L 121.847663 223.402464 
L 121.955917 223.421092 
L 122.064172 224.269457 
L 122.172426 224.030489 
L 122.388934 224.325873 
L 122.821951 222.241152 
L 122.930206 222.02773 
L 123.03846 222.585501 
L 123.363223 220.808937 
L 123.471477 221.076113 
L 123.687986 222.358241 
L 123.79624 222.25499 
L 123.904494 222.753151 
L 124.012748 222.591887 
L 124.121003 221.730217 
L 124.229257 221.81963 
L 124.445765 221.519988 
L 124.662274 221.064937 
L 124.770528 220.798292 
L 124.878782 221.013311 
L 124.987037 220.144189 
L 125.095291 220.442767 
L 125.203545 219.829113 
L 125.420054 220.385819 
L 125.744817 219.577371 
L 125.853071 219.659865 
L 125.961325 218.961587 
L 126.069579 219.905221 
L 126.177834 219.554485 
L 126.394342 220.104805 
L 126.502596 220.168671 
L 126.719105 219.384173 
L 126.935614 219.297953 
L 127.043868 218.75881 
L 127.260376 217.552258 
L 127.693393 214.578191 
L 127.801648 214.701134 
L 128.234665 213.097011 
L 128.342919 212.922974 
L 128.451173 213.116171 
L 128.775936 211.705778 
L 128.88419 211.893653 
L 129.208953 210.992065 
L 129.317207 211.102768 
L 129.425462 211.861719 
L 129.533716 211.484905 
L 129.64197 210.39012 
L 129.750224 210.620573 
L 129.966733 211.829254 
L 130.074987 211.941021 
L 130.616259 209.765821 
L 130.724513 207.727403 
L 130.832767 208.088783 
L 130.941021 207.16431 
L 131.049276 207.330364 
L 131.482293 206.126473 
L 131.590547 205.181776 
L 131.698801 205.327073 
L 131.807056 204.732579 
L 131.91531 205.008803 
L 132.023564 204.393552 
L 132.240073 205.938598 
L 132.456581 205.359006 
L 132.564835 206.467097 
L 132.67309 205.674083 
L 132.781344 205.830025 
L 132.997852 205.192953 
L 133.214361 205.024238 
L 133.322615 204.818267 
L 133.43087 205.632037 
L 133.647378 204.957177 
L 133.755632 205.842266 
L 133.863887 205.308445 
L 133.972141 205.576154 
L 134.296904 203.67505 
L 134.405158 203.865054 
L 134.513412 203.051815 
L 134.621666 203.19658 
L 134.838175 201.68879 
L 135.162938 202.482336 
L 135.271192 202.044848 
L 135.379446 202.652115 
L 135.487701 202.111376 
L 135.595955 202.165662 
L 135.812463 202.425388 
L 136.028972 202.069862 
L 136.137226 202.205047 
L 136.24548 201.250237 
L 136.353735 201.508366 
L 136.570243 200.847344 
L 136.678498 200.857988 
L 136.786752 201.558927 
L 137.00326 200.307136 
L 137.111515 200.298621 
L 137.219769 199.863261 
L 137.328023 199.993656 
L 137.544532 199.477931 
L 137.652786 199.468351 
L 137.76104 199.323586 
L 137.869294 198.069134 
L 137.977549 199.475802 
L 138.085803 199.13784 
L 138.194057 199.928193 
L 138.302312 199.060135 
L 138.51882 201.269929 
L 138.627074 200.023461 
L 139.060091 201.946386 
L 139.168346 201.903276 
L 139.2766 201.428532 
L 139.493108 202.430178 
L 139.926126 200.195901 
L 140.03438 200.656807 
L 140.359143 199.383728 
L 140.575651 200.404001 
L 140.79216 198.56836 
L 140.900414 198.623712 
L 141.008668 198.334182 
L 141.225177 197.169143 
L 141.333431 198.105326 
L 141.441685 197.825908 
L 141.54994 199.16179 
L 141.658194 198.951029 
L 141.874702 199.370954 
L 142.199465 198.084037 
L 142.307719 198.454997 
L 142.415974 199.666871 
L 142.524228 199.179354 
L 142.632482 200.410388 
L 142.848991 199.027137 
L 142.957245 198.629034 
L 143.065499 198.688111 
L 143.173754 199.523702 
L 143.390262 199.265042 
L 143.498516 200.321506 
L 143.606771 200.08786 
L 143.715025 200.507785 
L 144.039788 197.950448 
L 144.148042 198.390598 
L 144.36455 197.857309 
L 144.797568 195.433029 
L 144.905822 196.936562 
L 145.014076 196.87163 
L 145.12233 197.581085 
L 145.230585 195.997718 
L 145.663602 197.457609 
L 145.771856 197.096229 
L 145.988364 195.629952 
L 146.096619 195.6869 
L 146.529636 194.783716 
L 146.63789 195.538409 
L 146.746144 194.756572 
L 146.854399 195.187141 
L 146.962653 194.21051 
L 147.070907 194.395724 
L 147.179161 193.259426 
L 147.287416 194.049779 
L 147.503924 192.627144 
L 147.612178 191.562164 
L 147.828687 193.26528 
L 148.15345 192.265764 
L 148.369958 193.530328 
L 148.586467 193.568648 
L 148.694721 195.028539 
L 148.802975 193.8635 
L 148.91123 194.010394 
L 149.344247 191.13053 
L 149.452501 192.089598 
L 149.993772 188.831855 
L 150.210281 189.324162 
L 150.318535 188.413526 
L 150.535044 189.639238 
L 150.643298 189.646157 
L 150.751552 190.347628 
L 150.859806 189.454024 
L 151.076315 190.85537 
L 151.184569 190.720185 
L 151.401078 190.134739 
L 151.509332 190.474298 
L 151.725841 191.856484 
L 151.942349 193.17427 
L 152.158858 192.548375 
L 152.48362 192.082147 
L 152.591875 192.548907 
L 152.700129 191.176833 
L 152.808383 191.41527 
L 152.916638 191.332243 
L 153.133146 190.776069 
L 153.2414 190.841 
L 153.457909 190.349757 
L 153.674417 191.383869 
L 153.99918 189.84308 
L 154.107434 189.986248 
L 154.432197 189.185251 
L 154.540452 188.486441 
L 154.865214 190.140593 
L 155.081723 189.100095 
L 155.298231 190.465782 
L 155.51474 190.596709 
L 155.731248 190.074065 
L 155.947757 189.655737 
L 156.164266 191.289133 
L 156.27252 191.17843 
L 156.380774 191.612725 
L 156.489028 190.476427 
L 156.705537 191.953348 
L 156.813791 190.91764 
L 156.922045 191.669141 
L 157.0303 191.148626 
L 157.246808 192.188591 
L 157.463317 191.882563 
L 157.679825 190.587129 
L 158.004588 191.072518 
L 158.112842 190.834613 
L 158.329351 191.442945 
L 158.437605 191.65211 
L 158.654114 190.343371 
L 158.762368 190.791503 
L 158.870622 190.656851 
L 158.978876 191.390255 
L 159.087131 191.315212 
L 159.195385 191.415802 
L 159.303639 191.362047 
L 159.520148 189.71854 
L 159.628402 190.563179 
L 159.844911 189.257102 
L 159.953165 189.482232 
L 160.169673 191.691494 
L 160.277928 191.589307 
L 160.494436 190.818647 
L 160.60269 191.418463 
L 160.710945 191.123611 
L 160.819199 191.446671 
L 161.252216 188.758408 
L 161.36047 188.844096 
L 161.468725 188.824936 
L 161.576979 187.929735 
L 161.685233 188.529019 
L 162.009996 187.132463 
L 162.11825 187.650317 
L 162.334759 186.89722 
L 162.659522 183.783178 
L 162.984284 182.863495 
L 163.200793 183.424459 
L 163.417301 181.367945 
L 163.742064 182.414298 
L 163.958573 183.429781 
L 164.066827 182.51063 
L 164.175081 182.90075 
L 164.39159 179.160812 
L 164.499844 178.545029 
L 164.608098 179.242775 
L 164.716353 179.099606 
L 164.824607 179.38275 
L 164.932861 178.393345 
L 165.257624 179.859622 
L 165.365878 179.866009 
L 165.582387 180.611655 
L 165.690641 179.977776 
L 165.798895 180.035788 
L 165.90715 180.820819 
L 166.123658 179.327398 
L 166.448421 180.924603 
L 166.556675 180.791014 
L 166.664929 181.388702 
L 166.989692 178.930359 
L 167.097946 179.000081 
L 167.206201 177.325172 
L 167.314455 177.938826 
L 167.422709 177.577978 
L 167.530964 177.790335 
L 167.639218 178.675424 
L 167.855726 177.125055 
L 167.963981 177.19797 
L 168.180489 174.245191 
L 168.288743 174.270738 
L 168.505252 176.202711 
L 168.613506 176.39378 
L 168.72176 176.217614 
L 168.938269 177.121862 
L 169.154778 176.760482 
L 169.263032 177.705712 
L 170.129066 174.331412 
L 170.778592 179.128347 
L 171.103354 176.535351 
L 171.211609 177.443325 
L 171.428117 176.426245 
L 171.536371 176.586977 
L 171.861134 175.579477 
L 171.969388 176.693954 
L 172.077643 176.519917 
L 172.294151 175.229274 
L 172.402406 176.49437 
L 172.618914 175.708275 
L 172.835423 176.425181 
L 173.051931 174.878538 
L 173.160185 175.499643 
L 173.26844 175.129215 
L 173.376694 175.407569 
L 173.484948 176.761546 
L 173.593202 176.296915 
L 173.809711 176.441148 
L 174.02622 175.359668 
L 174.134474 175.545947 
L 174.350982 177.144748 
L 174.459237 177.172423 
L 174.675745 175.113781 
L 174.783999 174.999885 
L 174.892254 175.134538 
L 175.000508 174.962629 
L 175.217016 176.803592 
L 175.325271 176.902054 
L 175.541779 176.217081 
L 175.650034 174.944534 
L 175.758288 175.516142 
L 176.407813 170.006559 
L 176.516068 170.901228 
L 176.624322 170.624471 
L 176.732576 170.000173 
L 176.84083 171.198209 
L 176.949085 170.999689 
L 177.165593 168.143243 
L 177.273848 168.961271 
L 177.490356 167.225689 
L 177.706865 168.357197 
L 177.815119 168.729754 
L 178.031627 167.303926 
L 178.139882 167.565248 
L 178.464644 163.84926 
L 178.572899 164.368711 
L 178.789407 162.882209 
L 179.005916 164.70827 
L 179.222424 164.725301 
L 179.438933 163.111065 
L 179.547187 162.801311 
L 179.655441 163.246782 
L 179.87195 162.078019 
L 180.304967 161.781038 
L 180.413221 161.89653 
L 180.521476 161.708655 
L 180.62973 160.818777 
L 180.737984 161.052955 
L 180.846238 161.723025 
L 181.279255 160.696897 
L 181.820527 156.666897 
L 181.928781 156.41622 
L 182.037035 155.881867 
L 182.14529 156.578548 
L 182.253544 156.364062 
L 182.361798 156.764826 
L 182.578307 156.445492 
L 182.686561 156.438573 
L 182.903069 155.352836 
L 183.119578 155.122915 
L 183.444341 152.585271 
L 183.552595 151.638977 
L 183.660849 151.775226 
L 183.877358 153.907848 
L 183.985612 152.713005 
L 184.202121 154.016422 
L 184.418629 153.54221 
L 184.526883 153.728488 
L 184.635138 153.589578 
L 184.9599 152.562918 
L 185.284663 149.437166 
L 185.501172 150.740051 
L 185.825935 149.268451 
L 186.042443 149.906056 
L 186.150697 150.307353 
L 186.367206 149.563836 
L 186.47546 150.603801 
L 186.691969 149.991211 
L 186.800223 150.207294 
L 186.908477 151.367543 
L 187.016732 150.81403 
L 187.23324 152.692248 
L 187.341494 152.070611 
L 187.449749 153.117495 
L 187.558003 152.959425 
L 187.774511 151.76884 
L 188.099274 150.061465 
L 188.207528 150.327045 
L 188.315783 151.190312 
L 188.424037 150.863527 
L 188.640546 151.292499 
L 188.7488 150.873639 
L 188.857054 152.653928 
L 189.073563 151.640574 
L 189.181817 152.079658 
L 189.398325 153.359125 
L 189.614834 153.795016 
L 189.723088 153.803 
L 189.831342 154.080288 
L 190.047851 152.01792 
L 190.156105 152.511292 
L 190.26436 152.042403 
L 190.372614 152.449022 
L 190.480868 151.204682 
L 190.589122 152.326078 
L 190.805631 151.361688 
L 191.238648 149.12209 
L 191.455156 150.727277 
L 191.563411 150.650105 
L 191.996428 146.897926 
L 192.104682 147.272611 
L 192.212936 147.061318 
L 192.754208 151.016275 
L 192.862462 150.77571 
L 192.970716 150.142363 
L 193.07897 150.895992 
L 193.187225 150.676184 
L 193.295479 150.747502 
L 193.511987 150.544192 
L 193.728496 150.504275 
L 193.83675 150.172168 
L 193.945005 150.82361 
L 194.053259 150.795402 
L 194.269767 153.610335 
L 194.378022 152.319691 
L 194.486276 152.488406 
L 194.702784 149.747453 
L 194.919293 150.690554 
L 195.135801 148.342382 
L 195.244056 149.590447 
L 195.35231 149.049175 
L 195.568819 149.505291 
L 196.11009 152.632639 
L 196.218344 152.579417 
L 196.326598 151.84548 
L 196.543107 152.766227 
L 196.651361 153.372963 
L 196.759615 153.253212 
L 196.976124 152.288822 
L 197.084378 152.835417 
L 197.192633 154.029195 
L 197.409141 152.581013 
L 197.517395 152.933346 
L 197.733904 150.754953 
L 197.842158 151.777887 
L 197.950412 150.787951 
L 198.058667 151.690603 
L 198.383429 148.949117 
L 198.491684 149.07898 
L 198.599938 149.559578 
L 198.924701 153.337836 
L 199.032955 153.245761 
L 199.141209 153.378285 
L 199.249464 153.249487 
L 199.574226 151.214262 
L 199.682481 150.757082 
L 199.790735 151.518694 
L 199.898989 151.262695 
L 200.115498 151.491551 
L 200.223752 150.374945 
L 200.440261 151.0844 
L 200.548515 151.054595 
L 200.873278 152.243051 
L 200.981532 151.895509 
L 201.089786 152.854044 
L 201.19804 151.874752 
L 201.306295 152.593255 
L 201.414549 152.270195 
L 201.522803 152.310111 
L 201.631057 153.289936 
L 201.739312 153.102593 
L 201.95582 154.459764 
L 202.064075 155.028179 
L 202.172329 153.873786 
L 202.280583 153.923282 
L 202.388837 153.635881 
L 202.605346 154.742375 
L 202.7136 154.510858 
L 202.821854 154.318725 
L 203.038363 153.304838 
L 203.146617 153.574143 
L 203.47138 149.76821 
L 203.579634 148.876734 
L 203.796143 150.632009 
L 203.904397 149.666555 
L 204.012651 149.778854 
L 204.120906 150.159926 
L 204.22916 149.524451 
L 204.445668 149.838463 
L 204.553923 150.033789 
L 204.662177 149.976309 
L 204.770431 150.26371 
L 204.878685 151.048741 
L 205.095194 149.015113 
L 205.203448 150.724084 
L 205.311703 150.349398 
L 205.419957 151.024258 
L 205.528211 150.88588 
L 205.636465 150.344608 
L 205.74472 149.020967 
L 205.961228 150.312143 
L 206.069482 148.433924 
L 206.177737 148.81819 
L 206.285991 147.585559 
L 206.394245 147.779821 
L 206.502499 146.909635 
L 206.719008 147.219389 
L 207.043771 145.732355 
L 207.152025 145.989419 
L 207.260279 145.761095 
L 207.585042 144.519417 
L 207.693296 144.697179 
L 207.801551 145.094751 
L 207.909805 144.46992 
L 208.018059 144.491741 
L 208.126313 145.12083 
L 208.342822 144.865362 
L 208.451076 145.75258 
L 208.559331 144.400731 
L 208.667585 144.738161 
L 208.775839 145.471565 
L 208.884093 144.325155 
L 209.208856 145.517337 
L 209.641873 144.056382 
L 209.966636 141.975918 
L 210.291399 141.00248 
L 210.399653 142.27556 
L 210.616162 140.521882 
L 210.724416 141.398987 
L 210.83267 141.314364 
L 210.940924 139.826265 
L 211.049179 140.789591 
L 211.482196 136.60152 
L 211.59045 136.928838 
L 211.806959 135.937837 
L 211.915213 136.150194 
L 212.023467 136.864439 
L 212.131721 136.656871 
L 212.239976 135.283733 
L 212.34823 136.271541 
L 212.456484 134.341697 
L 212.564738 135.137372 
L 212.781247 133.799361 
L 212.889501 133.81586 
L 212.997755 133.656725 
L 213.214264 132.311795 
L 213.430773 131.386789 
L 213.539027 131.719962 
L 213.647281 131.55444 
L 213.86379 132.227703 
L 213.972044 131.612452 
L 214.080298 132.222381 
L 214.188552 131.153143 
L 214.296807 131.972768 
L 214.405061 131.672061 
L 214.621569 130.098275 
L 214.729824 130.356936 
L 214.946332 129.794375 
L 215.054587 129.94872 
L 215.271095 129.783198 
L 215.487604 130.80773 
L 215.704112 129.31218 
L 215.812366 130.922158 
L 215.920621 130.78857 
L 216.245383 128.67085 
L 216.461892 129.47238 
L 216.570146 129.64961 
L 216.786655 126.918237 
L 217.219672 128.553229 
L 217.43618 128.719283 
L 217.544435 128.192381 
L 217.652689 128.308406 
L 217.869197 129.367531 
L 218.19396 128.487765 
L 218.410469 126.903334 
L 218.518723 126.626578 
L 218.843486 125.146995 
L 218.95174 125.585015 
L 219.059994 126.565372 
L 219.168249 126.173655 
L 219.384757 126.53131 
L 219.601266 125.374255 
L 219.70952 125.489747 
L 219.817774 124.761665 
L 220.034283 125.570113 
L 220.250791 126.788906 
L 220.359046 125.719668 
L 220.4673 126.069339 
L 220.683808 125.432799 
L 221.008571 125.810678 
L 221.116825 126.635626 
L 221.22508 125.716475 
L 221.441588 126.919301 
L 221.549843 126.855434 
L 221.658097 126.387609 
L 221.766351 127.143367 
L 221.874605 126.766021 
L 222.199368 128.746426 
L 222.524131 129.983315 
L 222.632385 130.659239 
L 222.740639 129.952978 
L 222.848894 130.185028 
L 222.957148 128.570792 
L 223.065402 129.907739 
L 223.173657 129.096097 
L 223.281911 129.935414 
L 223.390165 128.906093 
L 223.606674 129.208396 
L 223.714928 129.799165 
L 223.823182 129.22117 
L 224.039691 130.182899 
L 224.256199 128.691075 
L 224.364453 128.480314 
L 225.013979 130.918432 
L 225.122233 131.499089 
L 225.338742 129.970009 
L 225.446996 130.544279 
L 225.55525 130.307439 
L 225.663505 130.458591 
L 225.771759 130.340437 
L 225.880013 129.723057 
L 225.988267 129.986508 
L 226.204776 128.625611 
L 226.31303 128.876289 
L 226.421285 129.792778 
L 226.746047 127.264182 
L 226.854302 127.218411 
L 226.962556 127.540939 
L 227.07081 128.853403 
L 227.179064 128.796455 
L 227.287319 128.246135 
L 227.395573 128.340871 
L 227.82859 130.648062 
L 227.936844 130.82689 
L 228.261607 129.926899 
L 228.478116 129.497926 
L 228.694624 130.485202 
L 228.911133 132.502863 
L 229.019387 132.242073 
L 229.235895 133.663111 
L 229.34415 133.590729 
L 229.452404 133.937207 
L 229.560658 134.914902 
L 229.885421 133.942529 
L 229.993675 134.479543 
L 230.10193 134.178836 
L 230.210184 135.204964 
L 230.318438 134.969189 
L 230.534947 132.603986 
L 230.643201 133.310247 
L 230.967964 131.658756 
L 231.076218 131.281941 
L 231.400981 133.445964 
L 231.617489 132.24367 
L 231.725744 131.876435 
L 231.833998 132.13829 
L 232.050506 130.839663 
L 232.158761 130.467106 
L 232.267015 130.896079 
L 232.375269 130.858291 
L 232.591778 131.6694 
L 232.808286 130.717252 
L 233.024795 130.472428 
L 233.133049 130.227073 
L 233.457812 127.415866 
L 233.566066 128.372805 
L 233.67432 127.774053 
L 233.782575 128.895981 
L 234.107337 126.852241 
L 234.323846 126.1364 
L 234.4321 126.56005 
L 234.540355 124.86811 
L 234.756863 126.362063 
L 234.865117 125.027245 
L 235.081626 126.133206 
L 235.406389 126.255618 
L 235.731151 123.741924 
L 235.94766 123.975038 
L 236.164169 125.164026 
L 236.272423 124.20283 
L 236.488931 124.730264 
L 236.597186 123.253342 
L 236.70544 123.477941 
L 236.813694 123.304968 
L 236.921948 123.575338 
L 237.246711 121.074949 
L 237.46322 122.361867 
L 237.679728 123.098465 
L 238.004491 121.004164 
L 238.112745 122.201668 
L 238.329254 120.410202 
L 238.437508 120.628413 
L 238.545762 121.272404 
L 238.762271 120.625752 
L 238.870525 120.680571 
L 238.978779 121.041419 
L 239.195288 120.702925 
L 239.303542 120.781694 
L 239.628305 118.627251 
L 239.844814 119.820497 
L 240.061322 118.154636 
L 240.277831 118.840673 
L 240.494339 117.512774 
L 240.602593 118.125364 
L 241.035611 115.044851 
L 241.143865 115.09488 
L 241.252119 116.161457 
L 241.468628 115.409957 
L 241.576882 116.147087 
L 241.685136 115.797416 
L 241.79339 116.001258 
L 241.901645 116.768725 
L 242.009899 116.513257 
L 242.226407 115.5494 
L 242.442916 116.262048 
L 242.55117 116.299836 
L 242.659425 116.037449 
L 242.767679 116.531353 
L 242.984187 119.024822 
L 243.092442 117.604317 
L 243.200696 117.775693 
L 243.30895 118.458536 
L 243.417204 117.885331 
L 243.525459 118.071077 
L 243.850221 115.250822 
L 243.958476 115.976776 
L 244.06673 115.672876 
L 244.174984 117.258371 
L 244.499747 115.430182 
L 244.82451 116.019354 
L 245.041018 117.852865 
L 245.257527 116.153474 
L 245.365781 117.569722 
L 245.58229 115.193874 
L 245.690544 115.313092 
L 245.907053 116.258322 
L 246.015307 115.932601 
L 246.231815 114.159763 
L 246.448324 115.246032 
L 246.556578 114.466324 
L 246.773087 115.453599 
L 246.881341 114.829833 
L 246.989595 115.675537 
L 247.206104 115.348219 
L 247.314358 115.440826 
L 247.639121 115.847445 
L 248.072138 117.980067 
L 248.180392 117.448375 
L 248.288646 117.782612 
L 248.505155 116.796401 
L 248.613409 117.382911 
L 248.721663 117.069431 
L 248.829918 117.845946 
L 249.046426 115.490323 
L 249.262935 117.075286 
L 249.371189 116.920409 
L 249.479443 118.077996 
L 249.587698 116.967244 
L 249.804206 117.499468 
L 250.020715 116.057141 
L 250.128969 115.948568 
L 250.237223 116.045433 
L 250.345477 114.690922 
L 250.453732 115.200793 
L 250.561986 114.15178 
L 250.67024 114.316769 
L 250.778495 115.188552 
L 250.886749 114.793109 
L 251.103257 113.467339 
L 251.319766 114.458341 
L 251.42802 113.18739 
L 251.536274 113.323107 
L 251.752783 114.478033 
L 251.969291 113.218259 
L 252.077546 113.083074 
L 252.294054 115.015579 
L 252.402309 114.294948 
L 252.510563 115.174714 
L 252.727071 114.175197 
L 252.94358 114.797367 
L 253.160088 114.213518 
L 253.268343 115.176311 
L 253.376597 114.952244 
L 253.809614 111.383683 
L 253.917868 111.414551 
L 254.026123 111.571025 
L 254.242631 110.491143 
L 254.350885 110.701371 
L 254.675648 113.187922 
L 254.783902 112.919681 
L 254.892157 113.745693 
L 255.000411 113.252853 
L 255.216919 113.970291 
L 255.433428 114.131555 
L 255.758191 112.466758 
L 255.866445 112.457711 
L 256.082954 113.869169 
L 256.191208 113.309269 
L 256.515971 115.430182 
L 256.732479 114.518482 
L 256.840733 114.622266 
L 257.057242 116.449923 
L 257.273751 117.570254 
L 257.382005 117.097107 
L 257.490259 115.762822 
L 257.598513 116.218405 
L 257.706768 117.159377 
L 257.815022 116.760742 
L 257.923276 117.699052 
L 258.03153 117.534063 
L 258.139785 116.829931 
L 258.248039 117.572383 
L 258.572802 116.555835 
L 258.681056 116.642056 
L 258.897565 115.945907 
L 259.005819 116.050755 
L 259.114073 114.092703 
L 259.54709 115.260934 
L 259.655344 115.32693 
L 259.763599 116.292917 
L 259.871853 118.442569 
L 259.980107 118.327077 
L 260.088361 117.813481 
L 260.521379 113.870765 
L 260.629633 113.643506 
L 260.846141 115.089026 
L 261.06265 113.812221 
L 261.279158 115.996468 
L 261.495667 116.182746 
L 261.603921 115.454132 
L 261.712175 115.833607 
L 261.82043 116.632476 
L 262.036938 116.022547 
L 262.145193 114.92723 
L 262.361701 115.178972 
L 262.57821 114.383829 
L 262.794718 115.348219 
L 263.011227 114.871879 
L 263.227735 115.785707 
L 263.335989 115.367911 
L 263.444244 115.39878 
L 263.552498 115.059221 
L 263.769007 112.568945 
L 263.877261 112.664746 
L 264.202024 111.780189 
L 264.418532 114.979388 
L 264.526786 114.411505 
L 264.743295 114.924569 
L 264.959803 114.854847 
L 265.068058 114.746274 
L 265.176312 115.26466 
L 265.284566 116.721889 
L 265.501075 115.471695 
L 265.609329 115.734614 
L 265.825838 115.135329 
L 266.042346 115.665957 
L 266.258855 114.715405 
L 266.367109 115.073591 
L 266.475363 116.421183 
L 266.583617 115.987952 
L 266.800126 114.244387 
L 266.90838 114.456212 
L 267.124889 113.443389 
L 267.233143 114.59459 
L 267.341397 114.437584 
L 267.66616 115.751113 
L 267.882669 115.898539 
L 268.099177 114.135281 
L 268.315686 115.342897 
L 268.42394 115.299787 
L 268.532194 114.971937 
L 268.748703 112.88828 
L 268.856957 112.158068 
L 268.965211 112.301237 
L 269.073466 112.706791 
L 269.289974 114.660053 
L 269.398228 115.738339 
L 269.506483 115.021434 
L 269.614737 115.708535 
L 269.831245 114.915521 
L 270.047754 115.89641 
L 270.156008 116.358912 
L 270.480771 114.320495 
L 270.589025 114.272062 
L 270.69728 114.038416 
L 270.913788 112.777577 
L 271.346805 115.044319 
L 271.563314 115.84851 
L 271.671568 115.380153 
L 271.888076 117.661265 
L 272.321094 114.226823 
L 272.537602 114.455147 
L 272.754111 112.977161 
L 272.862365 112.527964 
L 272.970619 113.445518 
L 273.078873 113.270949 
L 273.403636 115.682988 
L 273.51189 116.14283 
L 273.728399 115.898539 
L 273.944908 114.37212 
L 274.053162 114.310915 
L 274.161416 113.555689 
L 274.26967 113.787206 
L 274.377925 113.717485 
L 274.486179 113.426358 
L 274.810942 115.768144 
L 275.02745 114.995355 
L 275.243959 112.9266 
L 275.352213 113.112346 
L 275.676976 111.259142 
L 275.78523 111.137795 
L 275.893484 111.670019 
L 276.001739 111.625312 
L 276.109993 110.334137 
L 276.326501 110.972273 
L 276.434756 110.647084 
L 276.54301 110.723725 
L 276.867773 107.954031 
L 277.192536 108.917356 
L 277.30079 108.031736 
L 277.733807 110.045139 
L 277.950315 109.674179 
L 278.166824 108.367037 
L 278.275078 108.737465 
L 278.383332 106.993367 
L 278.491587 107.103537 
L 278.81635 105.190192 
L 278.924604 106.203546 
L 279.141112 105.360503 
L 279.249367 105.508994 
L 279.357621 105.378599 
L 279.574129 105.612778 
L 279.790638 104.636147 
L 279.898892 104.152355 
L 280.223655 101.593954 
L 280.331909 102.071359 
L 280.656672 99.95364 
L 280.764926 100.498637 
L 280.981435 98.401675 
L 281.197943 98.711429 
L 281.306198 99.052585 
L 281.414452 98.18506 
L 281.63096 98.961574 
L 281.739215 99.796634 
L 282.063978 97.043971 
L 282.280486 97.274956 
L 282.38874 97.301035 
L 282.605249 95.092838 
L 282.821757 94.406801 
L 282.930012 94.292373 
L 283.14652 94.759134 
L 283.363029 95.942268 
L 283.579537 98.313326 
L 283.687792 99.102081 
L 283.9043 98.640111 
L 284.012554 98.24733 
L 284.120809 98.644369 
L 284.445571 96.845452 
L 284.66208 97.964719 
L 284.770334 97.941301 
L 284.878588 97.620902 
L 284.986843 97.808777 
L 285.095097 97.76407 
L 285.311606 98.329292 
L 285.528114 97.484121 
L 285.636368 97.547455 
L 285.744623 97.602806 
L 285.961131 98.934431 
L 286.069385 98.589018 
L 286.502402 100.543876 
L 286.718911 100.6764 
L 286.827165 100.439028 
L 286.93542 101.089938 
L 287.043674 100.917498 
L 287.260182 99.674755 
L 287.368437 99.362871 
L 287.476691 99.733299 
L 287.584945 100.887693 
L 287.693199 99.338389 
L 287.909708 100.189415 
L 288.017962 98.240411 
L 288.126216 99.239927 
L 288.559234 97.43143 
L 288.883996 98.491621 
L 289.100505 98.211671 
L 289.208759 98.948801 
L 289.317013 97.972702 
L 289.533522 98.825857 
L 289.641776 98.777425 
L 289.75003 98.23775 
L 289.966539 99.744476 
L 290.074793 97.769925 
L 290.183048 97.92427 
L 290.50781 101.093664 
L 290.616065 100.749315 
L 290.724319 99.63058 
L 290.832573 100.217091 
L 291.049082 99.456543 
L 291.26559 100.526313 
L 291.590353 101.766395 
L 291.698607 101.728075 
L 291.915116 102.757396 
L 292.02337 103.123034 
L 292.131624 102.883533 
L 292.239879 103.639823 
L 292.456387 102.372598 
L 292.564641 102.399209 
L 292.889404 103.773412 
L 292.997658 103.395532 
L 293.214167 101.999509 
L 293.322421 105.145485 
L 293.53893 103.472173 
L 293.647184 103.718592 
L 293.863693 105.1061 
L 293.971947 105.229044 
L 294.080201 105.018816 
L 294.29671 102.748348 
L 294.621472 104.106052 
L 294.946235 103.202335 
L 295.05449 103.28004 
L 295.162744 104.211964 
L 295.270998 103.758509 
L 295.595761 105.149211 
L 295.812269 104.384937 
L 295.920524 104.281153 
L 296.028778 104.43603 
L 296.245286 105.300362 
L 296.461795 101.740316 
L 296.570049 102.148532 
L 296.678304 101.164982 
L 296.786558 101.593422 
L 296.894812 101.499751 
L 297.003066 100.948899 
L 297.111321 102.40666 
L 297.327829 101.673256 
L 297.436083 101.862195 
L 297.652592 100.5806 
L 298.085609 102.049006 
L 298.193863 101.701996 
L 298.302118 102.460415 
L 298.410372 101.738187 
L 298.518626 103.540297 
L 298.735135 101.471011 
L 298.843389 103.321553 
L 298.951643 103.24651 
L 299.059897 102.758993 
L 299.168152 103.02883 
L 299.276406 102.557812 
L 299.492914 103.191158 
L 299.709423 103.786185 
L 299.817677 104.17258 
L 299.925932 103.939465 
L 300.250694 106.016736 
L 300.467203 105.74743 
L 300.575457 106.505317 
L 300.683711 106.432935 
L 300.791966 105.906033 
L 300.90022 106.865633 
L 301.224983 103.183175 
L 301.333237 103.158693 
L 301.441491 103.35668 
L 301.549746 104.780379 
L 301.658 102.321504 
L 301.874508 103.326876 
L 302.091017 102.329488 
L 302.199271 102.517895 
L 302.524034 102.136823 
L 302.632288 101.382661 
L 302.740542 101.455044 
L 303.065305 100.084567 
L 303.17356 101.527426 
L 303.281814 101.456108 
L 303.390068 101.796199 
L 303.498322 100.818504 
L 304.039594 102.546635 
L 304.147848 100.728026 
L 304.256102 101.196383 
L 304.364356 102.281055 
L 304.797374 99.099953 
L 305.013882 97.747039 
L 305.122136 98.265958 
L 305.338645 96.015715 
L 305.446899 96.272779 
L 305.663408 96.589452 
L 305.771662 95.936413 
L 305.879916 96.752845 
L 305.98817 96.625643 
L 306.096425 97.815164 
L 306.204679 97.366499 
L 306.421188 95.61495 
L 306.854205 96.874192 
L 306.962459 96.25149 
L 307.070713 96.748587 
L 307.287222 100.018571 
L 307.395476 99.5252 
L 307.50373 100.632758 
L 307.720239 100.246363 
L 308.153256 98.462348 
L 308.26151 98.454365 
L 308.369764 98.249459 
L 308.478019 98.52728 
L 308.586273 98.150465 
L 308.694527 98.264893 
L 308.802781 98.861516 
L 309.01929 97.140836 
L 309.127544 97.495829 
L 309.235798 98.137692 
L 309.344053 96.954558 
L 309.452307 97.910432 
L 309.560561 97.848694 
L 309.668816 96.911447 
L 309.77707 97.097726 
L 309.885324 96.952429 
L 309.993578 96.44309 
L 310.318341 98.279795 
L 310.643104 96.91198 
L 311.184375 95.201412 
L 311.400884 96.196138 
L 311.509138 96.124288 
L 311.617392 94.357837 
L 311.833901 95.14606 
L 311.942155 94.949138 
L 312.050409 95.784729 
L 312.266918 95.409511 
L 312.375172 94.550502 
L 312.483426 95.979523 
L 312.699935 95.530326 
L 312.808189 95.705428 
L 312.916444 94.817146 
L 313.024698 94.875158 
L 313.132952 95.117853 
L 313.241206 94.762327 
L 313.349461 95.623998 
L 313.565969 94.345596 
L 313.674223 94.440864 
L 313.782478 95.506908 
L 313.890732 95.372256 
L 314.215495 93.613788 
L 314.323749 94.220523 
L 314.432003 93.964523 
L 314.648512 94.331758 
L 314.756766 94.640448 
L 314.86502 94.184332 
L 315.081529 95.170011 
L 315.189783 94.445654 
L 315.298037 94.549437 
L 315.731054 96.307373 
L 315.839309 96.339307 
L 315.947563 96.055099 
L 316.055817 96.59371 
L 316.164072 97.741185 
L 316.272326 97.298374 
L 316.488834 96.221153 
L 316.705343 96.448945 
L 316.813597 96.02423 
L 316.921851 96.425527 
L 317.030106 95.30626 
L 317.246614 96.588388 
L 317.463123 96.379223 
L 318.329157 91.13522 
L 318.437411 91.29063 
L 318.545665 91.144268 
L 318.762174 92.110255 
L 318.870428 92.068741 
L 318.978682 92.273648 
L 319.195191 93.000666 
L 319.4117 92.72178 
L 319.519954 91.956442 
L 319.628208 92.261939 
L 319.736462 92.09961 
L 319.844717 94.022003 
L 320.061225 92.719651 
L 320.277734 93.70054 
L 320.385988 92.913913 
L 320.494242 94.167301 
L 320.602496 93.048566 
L 320.819005 94.720281 
L 320.927259 94.439267 
L 321.035514 94.557421 
L 321.143768 93.340757 
L 321.252022 93.795276 
L 321.360276 93.41101 
L 321.576785 93.781438 
L 321.685039 93.58079 
L 321.901548 92.652059 
L 322.009802 93.35353 
L 322.334565 90.769583 
L 322.551073 93.059742 
L 322.659328 93.475409 
L 322.767582 92.736682 
L 322.875836 92.917639 
L 322.98409 92.850578 
L 323.308853 94.716023 
L 323.74187 98.6135 
L 323.958379 97.475605 
L 324.066633 97.525634 
L 324.174887 96.655448 
L 324.283142 98.013683 
L 324.49965 97.996652 
L 324.607904 96.477685 
L 324.716159 97.067921 
L 324.824413 96.834275 
L 325.149176 98.532602 
L 325.25743 98.268619 
L 325.473938 96.485136 
L 325.798701 98.359629 
L 325.906956 98.243072 
L 326.01521 97.936511 
L 326.231718 99.23567 
L 326.339973 98.898772 
L 326.448227 98.991379 
L 326.664735 99.689125 
L 326.77299 100.236783 
L 326.989498 98.609242 
L 327.097752 98.783812 
L 327.314261 99.814729 
L 327.422515 99.492202 
L 327.53077 98.564003 
L 327.639024 99.276119 
L 327.747278 98.481508 
L 327.963787 99.306455 
L 328.180295 99.434721 
L 328.288549 99.228219 
L 328.396804 98.683221 
L 328.505058 99.785457 
L 328.613312 99.277715 
L 328.938075 100.534828 
L 329.154584 102.118727 
L 329.262838 101.651967 
L 329.479346 102.589213 
L 329.587601 102.466802 
L 329.695855 101.55457 
L 329.804109 101.95427 
L 329.912363 101.060666 
L 330.020618 101.947883 
L 330.128872 101.888274 
L 330.34538 99.995686 
L 330.453635 99.767894 
L 330.561889 100.197931 
L 330.670143 100.154288 
L 330.886652 101.096325 
L 330.994906 101.084084 
L 331.10316 100.550263 
L 331.211415 100.877049 
L 331.319669 99.919578 
L 331.536177 100.940915 
L 331.752686 101.763201 
L 331.86094 101.36563 
L 331.969194 101.715834 
L 332.185703 100.59018 
L 332.293957 100.249024 
L 332.402212 98.619354 
L 332.61872 98.951994 
L 332.726974 99.037682 
L 332.835229 99.631644 
L 332.943483 99.237266 
L 333.051737 98.245733 
L 333.268246 99.225557 
L 333.3765 98.892385 
L 333.593008 99.838679 
L 333.701263 99.214913 
L 333.809517 99.40332 
L 333.917771 99.221832 
L 334.026026 99.44643 
L 334.459043 95.767166 
L 334.567297 96.484072 
L 334.675551 96.460122 
L 334.783805 96.833211 
L 334.89206 96.802874 
L 335.000314 97.273892 
L 335.108568 97.142433 
L 335.216822 97.513393 
L 335.325077 97.461767 
L 335.541585 98.700785 
L 335.758094 98.222847 
L 335.866348 98.572519 
L 335.974602 97.803987 
L 336.191111 98.208477 
L 336.299365 99.438979 
L 336.407619 99.161691 
L 336.624128 97.517118 
L 336.732382 97.013635 
L 336.948891 97.389917 
L 337.057145 96.355273 
L 337.165399 96.729427 
L 337.273654 97.840178 
L 337.381908 97.429301 
L 337.490162 97.921076 
L 337.598416 97.520844 
L 338.247942 100.414014 
L 338.356196 100.128742 
L 338.46445 99.456543 
L 338.572705 99.567245 
L 338.680959 99.906272 
L 338.897468 99.250572 
L 339.113976 100.055827 
L 339.22223 101.053747 
L 339.330485 100.891951 
L 339.438739 101.467817 
L 339.655247 100.470962 
L 339.871756 100.794022 
L 339.98001 100.680126 
L 340.088264 101.625355 
L 340.304773 101.306553 
L 340.413027 101.337955 
L 340.521282 102.256573 
L 340.629536 101.845696 
L 340.954299 99.029699 
L 341.170807 100.474155 
L 341.49557 99.605033 
L 341.603824 99.734364 
L 341.712078 99.087179 
L 341.820333 99.352227 
L 342.145096 101.509331 
L 342.25335 101.089406 
L 342.469858 99.30752 
L 342.686367 98.831179 
L 342.794621 99.378306 
L 342.902875 98.702381 
L 343.227638 101.381065 
L 343.335892 101.682836 
L 343.660655 98.766248 
L 343.877164 100.399644 
L 343.985418 99.765765 
L 344.093672 99.996218 
L 344.201927 99.746605 
L 344.526689 101.490703 
L 344.634944 101.037248 
L 344.851452 101.967043 
L 345.067961 103.2992 
L 345.284469 102.318311 
L 345.392724 101.35126 
L 345.717486 102.032507 
L 345.825741 101.818021 
L 346.042249 99.531586 
L 346.150503 99.330938 
L 346.258758 99.627919 
L 346.367012 99.462929 
L 346.58352 100.402305 
L 346.800029 101.275152 
L 347.016538 100.483203 
L 347.233046 99.758314 
L 347.3413 100.229864 
L 347.449555 99.902014 
L 347.882572 101.52583 
L 348.09908 100.375694 
L 348.207334 101.138903 
L 348.315589 101.051618 
L 348.423843 101.119743 
L 348.532097 100.964865 
L 348.748606 97.763006 
L 348.85686 97.742249 
L 349.181623 96.998732 
L 349.289877 96.890159 
L 349.398131 97.12753 
L 349.506386 95.936945 
L 349.722894 96.838533 
L 350.047657 95.238667 
L 350.155911 95.34458 
L 350.264165 95.884255 
L 350.37242 95.317969 
L 350.588928 96.168463 
L 350.697183 95.699573 
L 350.805437 95.738958 
L 350.913691 95.254634 
L 351.021945 95.289761 
L 351.346708 94.194976 
L 352.212742 99.504443 
L 352.320997 99.849324 
L 352.537505 98.970622 
L 352.754014 98.426157 
L 352.862268 98.559745 
L 352.970522 98.100968 
L 353.078776 98.412319 
L 353.187031 99.429399 
L 353.511793 98.797649 
L 353.620048 98.89824 
L 353.728302 99.687528 
L 353.836556 99.589599 
L 354.053065 98.748153 
L 354.161319 97.667206 
L 354.377828 100.350679 
L 354.594336 99.562455 
L 354.810845 100.108517 
L 354.919099 99.832825 
L 355.027353 100.095211 
L 355.135607 99.423545 
L 355.46037 100.13566 
L 355.568625 99.806214 
L 355.785133 97.458574 
L 355.893387 97.347339 
L 356.001642 97.821018 
L 356.109896 97.730008 
L 356.21815 98.039762 
L 356.434659 98.021667 
L 356.651167 98.64703 
L 356.867676 100.593905 
L 356.97593 100.739735 
L 357.300693 98.163771 
L 357.408947 98.239879 
L 357.73371 97.569276 
L 357.841964 98.008893 
L 357.950218 96.676737 
L 358.058473 96.815115 
L 358.49149 97.766731 
L 358.707998 97.471879 
L 358.816253 97.826873 
L 358.924507 97.145094 
L 359.141015 97.549584 
L 359.24927 97.166915 
L 359.357524 97.428237 
L 359.574032 99.203736 
L 359.682287 99.599179 
L 359.898795 99.336792 
L 360.007049 99.969074 
L 360.115304 99.856243 
L 360.223558 99.140402 
L 360.331812 100.104791 
L 360.548321 99.448027 
L 360.656575 99.773216 
L 360.764829 100.502363 
L 360.981338 99.442173 
L 361.089592 98.72846 
L 361.306101 100.081906 
L 361.522609 99.34105 
L 361.739118 99.645482 
L 361.847372 99.814729 
L 361.955626 99.740218 
L 362.063881 99.974397 
L 362.172135 100.475752 
L 362.280389 99.98717 
L 362.388643 100.366646 
L 362.605152 99.283038 
L 362.713406 99.385757 
L 363.038169 96.343564 
L 363.146423 96.214766 
L 363.687695 98.134498 
L 363.904203 96.798084 
L 364.012457 96.758699 
L 364.33722 97.456977 
L 364.445474 97.00299 
L 364.553729 98.230299 
L 364.661983 97.926399 
L 364.986746 99.832825 
L 365.095 99.020651 
L 365.419763 100.8845 
L 365.636271 100.637015 
L 365.744526 101.055876 
L 365.961034 100.758895 
L 366.069288 101.080358 
L 366.177543 100.451269 
L 366.285797 100.994138 
L 366.394051 100.462978 
L 366.502305 100.848841 
L 366.718814 102.800506 
L 366.827068 102.785604 
L 366.935323 103.506767 
L 367.043577 102.275201 
L 367.151831 102.645097 
L 367.36834 102.117663 
L 367.584848 102.484897 
L 367.693102 102.422095 
L 367.909611 103.590859 
L 368.017865 103.093229 
L 368.234374 104.382276 
L 368.342628 104.331715 
L 368.450882 104.453062 
L 368.667391 105.947014 
L 368.883899 106.729384 
L 368.992154 106.720868 
L 369.100408 106.562265 
L 369.208662 106.866697 
L 369.533425 106.274864 
L 369.641679 106.341392 
L 369.858188 105.330699 
L 369.966442 105.938499 
L 370.182951 105.103439 
L 370.291205 104.814974 
L 370.399459 104.84744 
L 370.615968 104.472754 
L 370.832476 104.936321 
L 370.94073 103.608954 
L 371.157239 104.464771 
L 371.265493 104.651049 
L 371.482002 103.656322 
L 371.590256 103.327408 
L 371.69851 104.037395 
L 371.806765 103.777669 
L 372.239782 101.979284 
L 372.564544 102.718544 
L 372.672799 102.464673 
L 372.889307 101.465688 
L 372.997561 101.273023 
L 373.105816 101.409805 
L 373.322324 100.279361 
L 373.430579 100.326729 
L 373.538833 100.259136 
L 373.755341 101.197447 
L 373.863596 101.135177 
L 374.080104 100.511411 
L 374.188358 100.533232 
L 374.513121 98.670448 
L 374.72963 100.008991 
L 374.837884 99.811004 
L 375.054393 100.754105 
L 375.162647 99.808343 
L 375.270901 100.0207 
L 375.379155 99.419287 
L 375.48741 99.708285 
L 375.703918 97.946623 
L 375.920427 97.269634 
L 376.136935 96.750716 
L 376.245189 96.670882 
L 376.353444 96.839065 
L 376.461698 96.673543 
L 376.569952 95.932688 
L 376.678207 96.616063 
L 376.894715 96.073195 
L 377.002969 96.503764 
L 377.111224 96.017843 
L 377.327732 96.790633 
L 377.435986 97.21588 
L 377.544241 97.164786 
L 377.760749 96.287149 
L 377.977258 97.378208 
L 378.193766 98.245733 
L 378.410275 96.736346 
L 378.518529 97.034923 
L 378.626783 96.833743 
L 378.843292 97.478266 
L 379.0598 96.338242 
L 379.276309 95.945993 
L 379.601072 97.040778 
L 379.709326 96.201461 
L 379.925835 97.056212 
L 380.142343 96.331856 
L 380.358852 97.425576 
L 380.467106 96.991813 
L 380.57536 98.419238 
L 380.683614 97.88595 
L 380.791869 96.625643 
L 381.008377 97.769393 
L 381.33314 98.520893 
L 381.441394 99.143063 
L 381.657903 98.958913 
L 381.766157 99.909465 
L 381.982666 99.149982 
L 382.199174 97.84763 
L 382.415683 98.669383 
L 382.632191 97.425044 
L 382.956954 99.946189 
L 383.173463 100.941448 
L 383.281717 100.42998 
L 383.498225 98.760926 
L 383.714734 99.578585 
L 383.822988 99.240954 
L 384.039497 99.831789 
L 384.256005 101.280137 
L 384.364259 101.163061 
L 384.472514 101.229983 
L 384.797277 102.699674 
L 385.013785 102.396796 
L 385.230294 102.550893 
L 385.446802 103.270694 
L 385.663311 103.059832 
L 385.771565 102.907618 
L 385.879819 102.196759 
L 385.988073 103.204423 
L 386.312836 102.407768 
L 386.421091 102.962455 
L 386.637599 104.647931 
L 386.745853 104.975553 
L 386.854108 104.903863 
L 386.962362 104.638307 
L 387.395379 105.483946 
L 387.503633 104.728365 
L 387.611887 105.595729 
L 387.828396 104.679789 
L 387.93665 104.834495 
L 388.044905 104.749529 
L 388.153159 104.321705 
L 388.369667 102.442029 
L 388.69443 103.405522 
L 389.019193 101.412042 
L 389.235701 103.575141 
L 389.343956 103.254354 
L 389.560464 102.307763 
L 389.668719 102.50324 
L 389.885227 103.405697 
L 389.993481 103.180248 
L 390.101736 103.570989 
L 390.20999 103.064909 
L 390.426498 101.204071 
L 390.534753 102.939417 
L 390.751261 99.550279 
L 390.859515 100.292267 
L 390.96777 99.78762 
L 391.184278 95.842118 
L 391.292533 96.272551 
L 391.509041 93.846984 
L 391.617295 96.508022 
L 391.72555 95.933575 
L 392.483329 85.574513 
L 392.591584 88.506832 
L 392.699838 87.327513 
L 392.808092 88.340512 
L 393.024601 98.807584 
L 393.241109 92.11398 
L 393.457618 106.941741 
L 393.565872 102.904442 
L 393.674126 103.074247 
L 393.998889 65.463751 
L 394.107143 47.439098 
L 394.215398 85.067335 
L 394.215398 85.067335 
" style="fill:none;stroke:#0000ff;stroke-linecap:square;stroke-opacity:0.5;stroke-width:1.5;"/>
   </g>
   <g id="patch_3">
    <path d="M 53.328125 288.430125 
L 53.328125 22.318125 
" style="fill:none;stroke:#000000;stroke-linecap:square;stroke-linejoin:miter;stroke-width:0.8;"/>
   </g>
   <g id="patch_4">
    <path d="M 410.448125 288.430125 
L 410.448125 22.318125 
" style="fill:none;stroke:#000000;stroke-linecap:square;stroke-linejoin:miter;stroke-width:0.8;"/>
   </g>
   <g id="patch_5">
    <path d="M 53.328125 288.430125 
L 410.448125 288.430125 
" style="fill:none;stroke:#000000;stroke-linecap:square;stroke-linejoin:miter;stroke-width:0.8;"/>
   </g>
   <g id="patch_6">
    <path d="M 53.328125 22.318125 
L 410.448125 22.318125 
" style="fill:none;stroke:#000000;stroke-linecap:square;stroke-linejoin:miter;stroke-width:0.8;"/>
   </g>
   <g id="text_16">
    <!-- Assault - Atari -->
    <defs>
     <path d="M 44.28125 53.078125 
L 44.28125 44.578125 
Q 40.484375 46.53125 36.375 47.5 
Q 32.28125 48.484375 27.875 48.484375 
Q 21.1875 48.484375 17.84375 46.4375 
Q 14.5 44.390625 14.5 40.28125 
Q 14.5 37.15625 16.890625 35.375 
Q 19.28125 33.59375 26.515625 31.984375 
L 29.59375 31.296875 
Q 39.15625 29.25 43.1875 25.515625 
Q 47.21875 21.78125 47.21875 15.09375 
Q 47.21875 7.46875 41.1875 3.015625 
Q 35.15625 -1.421875 24.609375 -1.421875 
Q 20.21875 -1.421875 15.453125 -0.5625 
Q 10.6875 0.296875 5.421875 2 
L 5.421875 11.28125 
Q 10.40625 8.6875 15.234375 7.390625 
Q 20.0625 6.109375 24.8125 6.109375 
Q 31.15625 6.109375 34.5625 8.28125 
Q 37.984375 10.453125 37.984375 14.40625 
Q 37.984375 18.0625 35.515625 20.015625 
Q 33.0625 21.96875 24.703125 23.78125 
L 21.578125 24.515625 
Q 13.234375 26.265625 9.515625 29.90625 
Q 5.8125 33.546875 5.8125 39.890625 
Q 5.8125 47.609375 11.28125 51.796875 
Q 16.75 56 26.8125 56 
Q 31.78125 56 36.171875 55.265625 
Q 40.578125 54.546875 44.28125 53.078125 
z
" id="DejaVuSans-115"/>
     <path d="M 8.5 21.578125 
L 8.5 54.6875 
L 17.484375 54.6875 
L 17.484375 21.921875 
Q 17.484375 14.15625 20.5 10.265625 
Q 23.53125 6.390625 29.59375 6.390625 
Q 36.859375 6.390625 41.078125 11.03125 
Q 45.3125 15.671875 45.3125 23.6875 
L 45.3125 54.6875 
L 54.296875 54.6875 
L 54.296875 0 
L 45.3125 0 
L 45.3125 8.40625 
Q 42.046875 3.421875 37.71875 1 
Q 33.40625 -1.421875 27.6875 -1.421875 
Q 18.265625 -1.421875 13.375 4.4375 
Q 8.5 10.296875 8.5 21.578125 
z
M 31.109375 56 
z
" id="DejaVuSans-117"/>
     <path d="M 9.421875 75.984375 
L 18.40625 75.984375 
L 18.40625 0 
L 9.421875 0 
z
" id="DejaVuSans-108"/>
     <path d="M 9.421875 54.6875 
L 18.40625 54.6875 
L 18.40625 0 
L 9.421875 0 
z
M 9.421875 75.984375 
L 18.40625 75.984375 
L 18.40625 64.59375 
L 9.421875 64.59375 
z
" id="DejaVuSans-105"/>
    </defs>
    <g transform="translate(189.789688 16.318125)scale(0.12 -0.12)">
     <use xlink:href="#DejaVuSans-65"/>
     <use x="68.408203" xlink:href="#DejaVuSans-115"/>
     <use x="120.507812" xlink:href="#DejaVuSans-115"/>
     <use x="172.607422" xlink:href="#DejaVuSans-97"/>
     <use x="233.886719" xlink:href="#DejaVuSans-117"/>
     <use x="297.265625" xlink:href="#DejaVuSans-108"/>
     <use x="325.048828" xlink:href="#DejaVuSans-116"/>
     <use x="364.257812" xlink:href="#DejaVuSans-32"/>
     <use x="396.044922" xlink:href="#DejaVuSans-45"/>
     <use x="432.128906" xlink:href="#DejaVuSans-32"/>
     <use x="463.916016" xlink:href="#DejaVuSans-65"/>
     <use x="532.308594" xlink:href="#DejaVuSans-116"/>
     <use x="571.517578" xlink:href="#DejaVuSans-97"/>
     <use x="632.796875" xlink:href="#DejaVuSans-114"/>
     <use x="673.910156" xlink:href="#DejaVuSans-105"/>
    </g>
   </g>
   <g id="legend_1">
    <g id="patch_7">
     <path d="M 295.085625 44.99625 
L 403.448125 44.99625 
Q 405.448125 44.99625 405.448125 42.99625 
L 405.448125 29.318125 
Q 405.448125 27.318125 403.448125 27.318125 
L 295.085625 27.318125 
Q 293.085625 27.318125 293.085625 29.318125 
L 293.085625 42.99625 
Q 293.085625 44.99625 295.085625 44.99625 
z
" style="fill:#ffffff;opacity:0.8;stroke:#cccccc;stroke-linejoin:miter;"/>
    </g>
    <g id="line2d_15">
     <path d="M 297.085625 35.416562 
L 317.085625 35.416562 
" style="fill:none;stroke:#0000ff;stroke-linecap:square;stroke-opacity:0.5;stroke-width:1.5;"/>
    </g>
    <g id="line2d_16"/>
    <g id="text_17">
     <!-- Flushed Replay -->
     <defs>
      <path d="M 9.8125 72.90625 
L 51.703125 72.90625 
L 51.703125 64.59375 
L 19.671875 64.59375 
L 19.671875 43.109375 
L 48.578125 43.109375 
L 48.578125 34.8125 
L 19.671875 34.8125 
L 19.671875 0 
L 9.8125 0 
z
" id="DejaVuSans-70"/>
      <path d="M 54.890625 33.015625 
L 54.890625 0 
L 45.90625 0 
L 45.90625 32.71875 
Q 45.90625 40.484375 42.875 44.328125 
Q 39.84375 48.1875 33.796875 48.1875 
Q 26.515625 48.1875 22.3125 43.546875 
Q 18.109375 38.921875 18.109375 30.90625 
L 18.109375 0 
L 9.078125 0 
L 9.078125 75.984375 
L 18.109375 75.984375 
L 18.109375 46.1875 
Q 21.34375 51.125 25.703125 53.5625 
Q 30.078125 56 35.796875 56 
Q 45.21875 56 50.046875 50.171875 
Q 54.890625 44.34375 54.890625 33.015625 
z
" id="DejaVuSans-104"/>
      <path d="M 32.171875 -5.078125 
Q 28.375 -14.84375 24.75 -17.8125 
Q 21.140625 -20.796875 15.09375 -20.796875 
L 7.90625 -20.796875 
L 7.90625 -13.28125 
L 13.1875 -13.28125 
Q 16.890625 -13.28125 18.9375 -11.515625 
Q 21 -9.765625 23.484375 -3.21875 
L 25.09375 0.875 
L 2.984375 54.6875 
L 12.5 54.6875 
L 29.59375 11.921875 
L 46.6875 54.6875 
L 56.203125 54.6875 
z
" id="DejaVuSans-121"/>
     </defs>
     <g transform="translate(325.085625 38.916562)scale(0.1 -0.1)">
      <use xlink:href="#DejaVuSans-70"/>
      <use x="57.519531" xlink:href="#DejaVuSans-108"/>
      <use x="85.302734" xlink:href="#DejaVuSans-117"/>
      <use x="148.681641" xlink:href="#DejaVuSans-115"/>
      <use x="200.78125" xlink:href="#DejaVuSans-104"/>
      <use x="264.160156" xlink:href="#DejaVuSans-101"/>
      <use x="325.683594" xlink:href="#DejaVuSans-100"/>
      <use x="389.160156" xlink:href="#DejaVuSans-32"/>
      <use x="420.947266" xlink:href="#DejaVuSans-82"/>
      <use x="490.367188" xlink:href="#DejaVuSans-101"/>
      <use x="551.890625" xlink:href="#DejaVuSans-112"/>
      <use x="615.367188" xlink:href="#DejaVuSans-108"/>
      <use x="643.150391" xlink:href="#DejaVuSans-97"/>
      <use x="704.429688" xlink:href="#DejaVuSans-121"/>
     </g>
    </g>
   </g>
  </g>
 </g>
 <defs>
  <clipPath id="pcd868af64e">
   <rect height="266.112" width="357.12" x="53.328125" y="22.318125"/>
  </clipPath>
 </defs>
</svg>
